0
SECTION
2
HEADER
9
$INSUNITS
70
4
0
ENDSEC
0
SECTION
2
TABLES
0
TABLE
2
LTYPE
0
LTYPE
72
65
70
64
2
CONTINUOUS
3
______
73
0
40
0
0
ENDTAB
0
TABLE
2
LAYER
0
ENDTAB
0
ENDSEC
0
SECTION
2
ENTITIES
0
LINE
8
0
10
27
20
-148
11
37
21
-148
0
LINE
8
0
10
37
20
-148
11
37
21
-153.75
0
ARC
8
0
10
44
20
-153.75
40
7
50
180
51
270
0
LINE
8
0
10
44
20
-160.75
11
60
21
-160.75
0
ARC
8
0
10
60
20
-153.75
40
7
50
270
51
360
0
LINE
8
0
10
67
20
-153.75
11
67
21
-149.53
0
LINE
8
0
10
67
20
-149.53
11
77
21
-149.53
0
ARC
8
0
10
77
20
-142.53
40
7
50
270
51
360
0
LINE
8
0
10
84
20
-142.53
11
84
21
-136.78
0
LINE
8
0
10
84
20
-136.78
11
89.5965289
21
-136.78
0
ARC
8
0
10
95
20
-132.33
40
7
50
219.4729819
51
265.9357172
0
LINE
8
0
10
94.5038705
20
-139.3123961
11
92.6186982
21
-150.0037394
0
ARC
8
0
10
99.5123526
20
-151.2192766
40
7
50
170
51
260
0
ARC
8
0
10
98.991408
20
-154.1736999
40
4
50
259.9804279
51
260.0000002
0
LINE
8
0
10
98.2968153
20
-158.1129309
11
113.7034028
21
-160.8295279
0
LINE
8
0
10
113.7034028
20
-160.8295279
11
127.8811056
21
-167.4406993
0
ARC
8
0
10
130.840244
20
-161.0969228
40
7
50
245
51
246.7711322
0
ARC
8
0
10
131.7651015
20
-161.5783731
40
7
50
238.2288722
51
240
0
LINE
8
0
10
128.2651015
20
-167.6405509
11
142.1215079
21
-175.6405509
0
ARC
8
0
10
145.6215079
20
-169.5783731
40
7
50
240
51
330
0
LINE
8
0
10
151.6836857
20
-173.0783731
11
159.6836857
21
-159.2219667
0
ARC
8
0
10
153.6215079
20
-155.7219667
40
7
50
330
51
420
0
LINE
8
0
10
157.1215079
20
-149.6597889
11
143.2651015
21
-141.6597889
0
ARC
8
0
10
139.7651015
20
-147.7219667
40
7
50
60
51
72.5308089
0
ARC
8
0
10
137.6021362
20
-146.5959982
40
7
50
52.4691899
51
65
0
LINE
8
0
10
140.5596534
20
-140.2514657
11
138.5835638
21
-139.33
0
LINE
8
0
10
138.5835638
20
-139.33
11
145
21
-139.33
0
ARC
8
0
10
145
20
-132.33
40
7
50
270
51
360
0
LINE
8
0
10
152
20
-132.33
11
152
21
-116.33
0
ARC
8
0
10
145
20
-116.33
40
7
50
0
51
4.0960438
0
ARC
8
0
10
145
20
-115.33
40
7
50
355.9039562
51
360
0
LINE
8
0
10
152
20
-115.33
11
152
21
-99.33
0
ARC
8
0
10
145
20
-99.33
40
7
50
0
51
4.0960438
0
ARC
8
0
10
145
20
-98.33
40
7
50
355.9039562
51
360
0
LINE
8
0
10
152
20
-98.33
11
152
21
-82.33
0
ARC
8
0
10
145
20
-82.33
40
7
50
0
51
90
0
LINE
8
0
10
145
20
-75.33
11
135
21
-75.33
0
LINE
8
0
10
135
20
-75.33
11
135
21
-68.73
0
ARC
8
0
10
128
20
-68.73
40
7
50
0
51
90
0
LINE
8
0
10
128
20
-61.73
11
122
21
-61.73
0
LINE
8
0
10
122
20
-61.73
11
122
21
-55.77
0
ARC
8
0
10
115
20
-55.77
40
7
50
0
51
57.6076345
0
LINE
8
0
10
118.75
20
-49.8592048
11
118.75
21
-40.77
0
ARC
8
0
10
111.75
20
-40.77
40
7
50
0
51
90
0
LINE
8
0
10
111.75
20
-33.77
11
67.75
21
-33.77
0
ARC
8
0
10
67.75
20
-40.77
40
7
50
90
51
180
0
LINE
8
0
10
60.75
20
-40.77
11
60.75
21
-51.5344657
0
ARC
8
0
10
61
20
-58.53
40
7
50
92.0467131
51
180
0
LINE
8
0
10
54
20
-58.53
11
54
21
-62.75
0
LINE
8
0
10
54
20
-62.75
11
44
21
-62.75
0
ARC
8
0
10
44
20
-69.75
40
7
50
90
51
156.8676036
0
LINE
8
0
10
37.5628034
20
-67
11
27
21
-67
0
ARC
8
0
10
27
20
-74
40
7
50
90
51
180
0
LINE
8
0
10
20
20
-74
11
20
21
-90
0
ARC
8
0
10
27
20
-90
40
7
50
180
51
184.0960438
0
ARC
8
0
10
27
20
-91
40
7
50
175.9039562
51
180
0
LINE
8
0
10
20
20
-91
11
20
21
-107
0
ARC
8
0
10
27
20
-107
40
7
50
180
51
184.0960438
0
ARC
8
0
10
27
20
-108
40
7
50
175.9039562
51
180
0
LINE
8
0
10
20
20
-108
11
20
21
-124
0
ARC
8
0
10
27
20
-124
40
7
50
180
51
184.0960438
0
ARC
8
0
10
27
20
-125
40
7
50
175.9039562
51
180
0
LINE
8
0
10
20
20
-125
11
20
21
-141
0
ARC
8
0
10
27
20
-141
40
7
50
180
51
270
0
CIRCLE
8
0
10
41.8
20
-85.4
40
1.1
0
CIRCLE
8
0
10
41.8
20
-136.4
40
1.1
0
CIRCLE
8
0
10
126.8
20
-80.13
40
1.1
0
CIRCLE
8
0
10
126.8
20
-131.13
40
1.1
0
CIRCLE
8
0
10
131.6967187
20
-156.4207651
40
1.1
0
ENDSEC
0
EOF