0
SECTION
2
HEADER
9
$INSUNITS
70
4
0
ENDSEC
0
SECTION
2
TABLES
0
TABLE
2
LTYPE
0
LTYPE
72
65
70
64
2
CONTINUOUS
3
______
73
0
40
0
0
ENDTAB
0
TABLE
2
LAYER
0
ENDTAB
0
ENDSEC
0
SECTION
2
ENTITIES
0
LINE
8
0
10
27
20
-146
11
39
21
-146
0
LINE
8
0
10
39
20
-146
11
39
21
-153.75
0
ARC
8
0
10
44
20
-153.75
40
5
50
180
51
270
0
LINE
8
0
10
44
20
-158.75
11
60
21
-158.75
0
ARC
8
0
10
60
20
-153.75
40
5
50
270
51
360
0
LINE
8
0
10
65
20
-153.75
11
65
21
-147.53
0
LINE
8
0
10
65
20
-147.53
11
77
21
-147.53
0
ARC
8
0
10
77
20
-142.53
40
5
50
270
51
360
0
LINE
8
0
10
82
20
-142.53
11
82
21
-134.78
0
LINE
8
0
10
82
20
-134.78
11
90.6413878
21
-134.78
0
ARC
8
0
10
95
20
-132.33
40
5
50
209.3405814
51
270
0
LINE
8
0
10
95
20
-137.33
11
96.8842737
21
-137.33
0
LINE
8
0
10
96.8842737
20
-137.33
11
94.5883137
21
-150.3510358
0
ARC
8
0
10
99.5123526
20
-151.2192766
40
5
50
170
51
259.9906421
0
LINE
8
0
10
98.6441117
20
-156.1433154
11
114.3100036
21
-158.9056348
0
LINE
8
0
10
114.3100036
20
-158.9056348
11
128.7271527
21
-165.6284618
0
ARC
8
0
10
130.840244
20
-161.0969228
40
5
50
245
51
248.4849246
0
ARC
8
0
10
131.7651015
20
-161.5783731
40
5
50
236.5150789
51
240
0
LINE
8
0
10
129.2651015
20
-165.9085001
11
143.1215079
21
-173.9085001
0
ARC
8
0
10
145.6215079
20
-169.5783731
40
5
50
240
51
330
0
LINE
8
0
10
149.9516349
20
-172.0783731
11
157.9516349
21
-158.2219667
0
ARC
8
0
10
153.6215079
20
-155.7219667
40
5
50
330
51
420
0
LINE
8
0
10
156.1215079
20
-151.3918397
11
142.2651015
21
-143.3918397
0
ARC
8
0
10
139.7651015
20
-147.7219667
40
5
50
60
51
76.6138106
0
ARC
8
0
10
137.6021362
20
-146.5959982
40
5
50
48.3861881
51
65
0
LINE
8
0
10
139.7152275
20
-142.0644592
11
132.1408068
21
-138.5324488
0
ARC
8
0
10
128
20
-135.73
40
5
50
325.9103255
51
341.3370751
0
LINE
8
0
10
132.7370877
20
-137.33
11
145
21
-137.33
0
ARC
8
0
10
145
20
-132.33
40
5
50
270
51
360
0
LINE
8
0
10
150
20
-132.33
11
150
21
-116.33
0
ARC
8
0
10
145
20
-116.33
40
5
50
0
51
5.7391705
0
ARC
8
0
10
145
20
-115.33
40
5
50
354.2608295
51
360
0
LINE
8
0
10
150
20
-115.33
11
150
21
-99.33
0
ARC
8
0
10
145
20
-99.33
40
5
50
0
51
5.7391705
0
ARC
8
0
10
145
20
-98.33
40
5
50
354.2608295
51
360
0
LINE
8
0
10
150
20
-98.33
11
150
21
-82.33
0
ARC
8
0
10
145
20
-82.33
40
5
50
0
51
90
0
LINE
8
0
10
145
20
-77.33
11
133
21
-77.33
0
LINE
8
0
10
133
20
-77.33
11
133
21
-68.73
0
ARC
8
0
10
128
20
-68.73
40
5
50
0
51
90
0
LINE
8
0
10
128
20
-63.73
11
120
21
-63.73
0
LINE
8
0
10
120
20
-63.73
11
120
21
-55.77
0
ARC
8
0
10
115
20
-55.77
40
5
50
0
51
69.5126849
0
LINE
8
0
10
116.75
20
-51.0862515
11
116.75
21
-40.77
0
ARC
8
0
10
111.75
20
-40.77
40
5
50
0
51
90
0
LINE
8
0
10
111.75
20
-35.77
11
67.75
21
-35.77
0
ARC
8
0
10
67.75
20
-40.77
40
5
50
90
51
180
0
LINE
8
0
10
62.75
20
-40.77
11
62.75
21
-53.53
0
LINE
8
0
10
62.75
20
-53.53
11
61
21
-53.53
0
ARC
8
0
10
61
20
-58.53
40
5
50
90
51
180
0
LINE
8
0
10
56
20
-58.53
11
56
21
-64.75
0
LINE
8
0
10
56
20
-64.75
11
44
21
-64.75
0
ARC
8
0
10
44
20
-69.75
40
5
50
90
51
171.3730735
0
LINE
8
0
10
39.05657
20
-69
11
27
21
-69
0
ARC
8
0
10
27
20
-74
40
5
50
90
51
180
0
LINE
8
0
10
22
20
-74
11
22
21
-90
0
ARC
8
0
10
27
20
-90
40
5
50
180
51
185.7391705
0
ARC
8
0
10
27
20
-91
40
5
50
174.2608295
51
180
0
LINE
8
0
10
22
20
-91
11
22
21
-107
0
ARC
8
0
10
27
20
-107
40
5
50
180
51
185.7391705
0
ARC
8
0
10
27
20
-108
40
5
50
174.2608295
51
180
0
LINE
8
0
10
22
20
-108
11
22
21
-124
0
ARC
8
0
10
27
20
-124
40
5
50
180
51
185.7391705
0
ARC
8
0
10
27
20
-125
40
5
50
174.2608295
51
180
0
LINE
8
0
10
22
20
-125
11
22
21
-141
0
ARC
8
0
10
27
20
-141
40
5
50
180
51
270
0
ENDSEC
0
EOF