0
SECTION
2
HEADER
9
$INSUNITS
70
4
0
ENDSEC
0
SECTION
2
TABLES
0
TABLE
2
LTYPE
0
LTYPE
72
65
70
64
2
CONTINUOUS
3
______
73
0
40
0
0
ENDTAB
0
TABLE
2
LAYER
0
ENDTAB
0
ENDSEC
0
SECTION
2
ENTITIES
0
LINE
8
0
10
27
20
-144
11
41
21
-144
0
ARC
8
0
10
27
20
-125
40
3
50
170.4059318
51
180
0
LINE
8
0
10
24
20
-125
11
24
21
-141
0
ARC
8
0
10
27
20
-141
40
3
50
180
51
270
0
ARC
8
0
10
27
20
-108
40
3
50
170.4059318
51
180
0
LINE
8
0
10
24
20
-108
11
24
21
-124
0
ARC
8
0
10
27
20
-124
40
3
50
180
51
189.5940682
0
ARC
8
0
10
27
20
-91
40
3
50
170.4059318
51
180
0
LINE
8
0
10
24
20
-91
11
24
21
-107
0
ARC
8
0
10
27
20
-107
40
3
50
180
51
189.5940682
0
LINE
8
0
10
41
20
-71
11
27
21
-71
0
ARC
8
0
10
27
20
-74
40
3
50
90
51
180
0
LINE
8
0
10
24
20
-74
11
24
21
-90
0
ARC
8
0
10
27
20
-90
40
3
50
180
51
189.5940682
0
LINE
8
0
10
44
20
-156.75
11
60
21
-156.75
0
ARC
8
0
10
60
20
-153.75
40
3
50
270
51
360
0
LINE
8
0
10
63
20
-153.75
11
63
21
-145.53
0
LINE
8
0
10
41
20
-144
11
41
21
-153.75
0
ARC
8
0
10
44
20
-153.75
40
3
50
180
51
270
0
LINE
8
0
10
58
20
-66.75
11
44
21
-66.75
0
ARC
8
0
10
44
20
-69.75
40
3
50
90
51
180
0
LINE
8
0
10
41
20
-69.75
11
41
21
-71
0
LINE
8
0
10
63
20
-145.53
11
77
21
-145.53
0
ARC
8
0
10
77
20
-142.53
40
3
50
270
51
360
0
LINE
8
0
10
80
20
-142.53
11
80
21
-132.78
0
LINE
8
0
10
80
20
-59.78
11
80
21
-58.53
0
ARC
8
0
10
77
20
-58.53
40
3
50
0
51
90
0
LINE
8
0
10
77
20
-55.53
11
61
21
-55.53
0
ARC
8
0
10
61
20
-58.53
40
3
50
90
51
180
0
LINE
8
0
10
58
20
-58.53
11
58
21
-66.75
0
LINE
8
0
10
80
20
-132.78
11
92.033942
21
-132.78
0
ARC
8
0
10
94
20
-62.78
40
3
50
8.6269265
51
90
0
LINE
8
0
10
94
20
-59.78
11
80
21
-59.78
0
LINE
8
0
10
95
20
-135.33
11
99.2677808
21
-135.33
0
ARC
8
0
10
95
20
-132.33
40
3
50
188.6269265
51
270
0
LINE
8
0
10
114
20
-65.73
11
114
21
-65.33
0
ARC
8
0
10
111
20
-65.33
40
3
50
0
51
90
0
LINE
8
0
10
111
20
-62.33
11
96.966058
21
-62.33
0
LINE
8
0
10
127.8320535
20
-138.73
11
128
21
-138.73
0
ARC
8
0
10
128
20
-135.73
40
3
50
270
51
360
0
LINE
8
0
10
131
20
-135.73
11
131
21
-135.33
0
LINE
8
0
10
131
20
-79.33
11
131
21
-68.73
0
ARC
8
0
10
128
20
-68.73
40
3
50
0
51
90
0
LINE
8
0
10
128
20
-65.73
11
114
21
-65.73
0
LINE
8
0
10
131
20
-135.33
11
145
21
-135.33
0
ARC
8
0
10
145
20
-132.33
40
3
50
270
51
360
0
LINE
8
0
10
148
20
-132.33
11
148
21
-116.33
0
ARC
8
0
10
145
20
-116.33
40
3
50
0
51
9.5940682
0
ARC
8
0
10
145
20
-115.33
40
3
50
350.4059318
51
360
0
LINE
8
0
10
148
20
-115.33
11
148
21
-99.33
0
ARC
8
0
10
145
20
-99.33
40
3
50
0
51
9.5940682
0
ARC
8
0
10
145
20
-98.33
40
3
50
350.4059318
51
360
0
LINE
8
0
10
148
20
-98.33
11
148
21
-82.33
0
ARC
8
0
10
145
20
-82.33
40
3
50
0
51
90
0
LINE
8
0
10
145
20
-79.33
11
131
21
-79.33
0
LINE
8
0
10
98.991408
20
-154.1736999
11
114.7483321
21
-156.9520707
0
ARC
8
0
10
115.2692766
20
-153.9976474
40
3
50
260
51
263.2774775
0
LINE
8
0
10
99.2677808
20
-135.33
11
96.5579293
21
-150.6983321
0
ARC
8
0
10
99.5123526
20
-151.2192766
40
3
50
170
51
260
0
LINE
8
0
10
115.0714646
20
-157.053954
11
129.5723892
21
-163.8158462
0
ARC
8
0
10
130.840244
20
-161.0969228
40
3
50
245
51
252.5075513
0
ARC
8
0
10
137.6021362
20
-146.5959982
40
3
50
398.5201915
51
65
0
LINE
8
0
10
138.869991
20
-143.8770748
11
127.8320535
21
-138.73
0
ARC
8
0
10
116.3393194
20
-154.3350306
40
3
50
241.722522
51
245
0
LINE
8
0
10
130.2651015
20
-164.1764493
11
144.1215079
21
-172.1764493
0
ARC
8
0
10
145.6215079
20
-169.5783731
40
3
50
240
51
330
0
LINE
8
0
10
148.2195841
20
-171.0783731
11
156.2195841
21
-157.2219667
0
ARC
8
0
10
153.6215079
20
-155.7219667
40
3
50
330
51
60
0
LINE
8
0
10
155.1215079
20
-153.1238905
11
141.2651015
21
-145.1238905
0
ARC
8
0
10
139.7651015
20
-147.7219667
40
3
50
60
51
86.4798078
0
ARC
8
0
10
131.7651015
20
-161.5783731
40
3
50
232.4924521
51
240
0
LINE
8
0
10
31.55
20
-136.45
11
38.45
21
-136.45
0
LINE
8
0
10
38.45
20
-136.45
11
38.45
21
-129.55
0
LINE
8
0
10
38.45
20
-129.55
11
31.55
21
-129.55
0
LINE
8
0
10
31.55
20
-129.55
11
31.55
21
-136.45
0
LINE
8
0
10
31.55
20
-119.45
11
38.45
21
-119.45
0
LINE
8
0
10
38.45
20
-119.45
11
38.45
21
-112.55
0
LINE
8
0
10
38.45
20
-112.55
11
31.55
21
-112.55
0
LINE
8
0
10
31.55
20
-112.55
11
31.55
21
-119.45
0
LINE
8
0
10
31.55
20
-102.45
11
38.45
21
-102.45
0
LINE
8
0
10
38.45
20
-102.45
11
38.45
21
-95.55
0
LINE
8
0
10
38.45
20
-95.55
11
31.55
21
-95.55
0
LINE
8
0
10
31.55
20
-95.55
11
31.55
21
-102.45
0
LINE
8
0
10
31.55
20
-85.45
11
38.45
21
-85.45
0
LINE
8
0
10
38.45
20
-85.45
11
38.45
21
-78.55
0
LINE
8
0
10
38.45
20
-78.55
11
31.55
21
-78.55
0
LINE
8
0
10
31.55
20
-78.55
11
31.55
21
-85.45
0
LINE
8
0
10
48.55
20
-149.2
11
55.45
21
-149.2
0
LINE
8
0
10
55.45
20
-149.2
11
55.45
21
-142.3
0
LINE
8
0
10
55.45
20
-142.3
11
48.55
21
-142.3
0
LINE
8
0
10
48.55
20
-142.3
11
48.55
21
-149.2
0
LINE
8
0
10
48.55
20
-132.2
11
55.45
21
-132.2
0
LINE
8
0
10
55.45
20
-132.2
11
55.45
21
-125.3
0
LINE
8
0
10
55.45
20
-125.3
11
48.55
21
-125.3
0
LINE
8
0
10
48.55
20
-125.3
11
48.55
21
-132.2
0
LINE
8
0
10
48.55
20
-115.2
11
55.45
21
-115.2
0
LINE
8
0
10
55.45
20
-115.2
11
55.45
21
-108.3
0
LINE
8
0
10
55.45
20
-108.3
11
48.55
21
-108.3
0
LINE
8
0
10
48.55
20
-108.3
11
48.55
21
-115.2
0
LINE
8
0
10
48.55
20
-98.2
11
55.45
21
-98.2
0
LINE
8
0
10
55.45
20
-98.2
11
55.45
21
-91.3
0
LINE
8
0
10
55.45
20
-91.3
11
48.55
21
-91.3
0
LINE
8
0
10
48.55
20
-91.3
11
48.55
21
-98.2
0
LINE
8
0
10
48.55
20
-81.2
11
55.45
21
-81.2
0
LINE
8
0
10
55.45
20
-81.2
11
55.45
21
-74.3
0
LINE
8
0
10
55.45
20
-74.3
11
48.55
21
-74.3
0
LINE
8
0
10
48.55
20
-74.3
11
48.55
21
-81.2
0
LINE
8
0
10
65.55
20
-137.98
11
72.45
21
-137.98
0
LINE
8
0
10
72.45
20
-137.98
11
72.45
21
-131.08
0
LINE
8
0
10
72.45
20
-131.08
11
65.55
21
-131.08
0
LINE
8
0
10
65.55
20
-131.08
11
65.55
21
-137.98
0
LINE
8
0
10
65.55
20
-120.98
11
72.45
21
-120.98
0
LINE
8
0
10
72.45
20
-120.98
11
72.45
21
-114.08
0
LINE
8
0
10
72.45
20
-114.08
11
65.55
21
-114.08
0
LINE
8
0
10
65.55
20
-114.08
11
65.55
21
-120.98
0
LINE
8
0
10
65.55
20
-103.98
11
72.45
21
-103.98
0
LINE
8
0
10
72.45
20
-103.98
11
72.45
21
-97.08
0
LINE
8
0
10
72.45
20
-97.08
11
65.55
21
-97.08
0
LINE
8
0
10
65.55
20
-97.08
11
65.55
21
-103.98
0
LINE
8
0
10
65.55
20
-86.98
11
72.45
21
-86.98
0
LINE
8
0
10
72.45
20
-86.98
11
72.45
21
-80.08
0
LINE
8
0
10
72.45
20
-80.08
11
65.55
21
-80.08
0
LINE
8
0
10
65.55
20
-80.08
11
65.55
21
-86.98
0
LINE
8
0
10
65.55
20
-69.98
11
72.45
21
-69.98
0
LINE
8
0
10
72.45
20
-69.98
11
72.45
21
-63.08
0
LINE
8
0
10
72.45
20
-63.08
11
65.55
21
-63.08
0
LINE
8
0
10
65.55
20
-63.08
11
65.55
21
-69.98
0
LINE
8
0
10
82.55
20
-125.23
11
89.45
21
-125.23
0
LINE
8
0
10
89.45
20
-125.23
11
89.45
21
-118.33
0
LINE
8
0
10
89.45
20
-118.33
11
82.55
21
-118.33
0
LINE
8
0
10
82.55
20
-118.33
11
82.55
21
-125.23
0
LINE
8
0
10
82.55
20
-108.23
11
89.45
21
-108.23
0
LINE
8
0
10
89.45
20
-108.23
11
89.45
21
-101.33
0
LINE
8
0
10
89.45
20
-101.33
11
82.55
21
-101.33
0
LINE
8
0
10
82.55
20
-101.33
11
82.55
21
-108.23
0
LINE
8
0
10
82.55
20
-91.23
11
89.45
21
-91.23
0
LINE
8
0
10
89.45
20
-91.23
11
89.45
21
-84.33
0
LINE
8
0
10
89.45
20
-84.33
11
82.55
21
-84.33
0
LINE
8
0
10
82.55
20
-84.33
11
82.55
21
-91.23
0
LINE
8
0
10
82.55
20
-74.23
11
89.45
21
-74.23
0
LINE
8
0
10
89.45
20
-74.23
11
89.45
21
-67.33
0
LINE
8
0
10
89.45
20
-67.33
11
82.55
21
-67.33
0
LINE
8
0
10
82.55
20
-67.33
11
82.55
21
-74.23
0
LINE
8
0
10
99.55
20
-127.78
11
106.45
21
-127.78
0
LINE
8
0
10
106.45
20
-127.78
11
106.45
21
-120.88
0
LINE
8
0
10
106.45
20
-120.88
11
99.55
21
-120.88
0
LINE
8
0
10
99.55
20
-120.88
11
99.55
21
-127.78
0
LINE
8
0
10
99.55
20
-110.78
11
106.45
21
-110.78
0
LINE
8
0
10
106.45
20
-110.78
11
106.45
21
-103.88
0
LINE
8
0
10
106.45
20
-103.88
11
99.55
21
-103.88
0
LINE
8
0
10
99.55
20
-103.88
11
99.55
21
-110.78
0
LINE
8
0
10
99.55
20
-93.78
11
106.45
21
-93.78
0
LINE
8
0
10
106.45
20
-93.78
11
106.45
21
-86.88
0
LINE
8
0
10
106.45
20
-86.88
11
99.55
21
-86.88
0
LINE
8
0
10
99.55
20
-86.88
11
99.55
21
-93.78
0
LINE
8
0
10
99.55
20
-76.78
11
106.45
21
-76.78
0
LINE
8
0
10
106.45
20
-76.78
11
106.45
21
-69.88
0
LINE
8
0
10
106.45
20
-69.88
11
99.55
21
-69.88
0
LINE
8
0
10
99.55
20
-69.88
11
99.55
21
-76.78
0
LINE
8
0
10
116.55
20
-131.18
11
123.45
21
-131.18
0
LINE
8
0
10
123.45
20
-131.18
11
123.45
21
-124.28
0
LINE
8
0
10
123.45
20
-124.28
11
116.55
21
-124.28
0
LINE
8
0
10
116.55
20
-124.28
11
116.55
21
-131.18
0
LINE
8
0
10
116.55
20
-114.18
11
123.45
21
-114.18
0
LINE
8
0
10
123.45
20
-114.18
11
123.45
21
-107.28
0
LINE
8
0
10
123.45
20
-107.28
11
116.55
21
-107.28
0
LINE
8
0
10
116.55
20
-107.28
11
116.55
21
-114.18
0
LINE
8
0
10
116.55
20
-97.18
11
123.45
21
-97.18
0
LINE
8
0
10
123.45
20
-97.18
11
123.45
21
-90.28
0
LINE
8
0
10
123.45
20
-90.28
11
116.55
21
-90.28
0
LINE
8
0
10
116.55
20
-90.28
11
116.55
21
-97.18
0
LINE
8
0
10
116.55
20
-80.18
11
123.45
21
-80.18
0
LINE
8
0
10
123.45
20
-80.18
11
123.45
21
-73.28
0
LINE
8
0
10
123.45
20
-73.28
11
116.55
21
-73.28
0
LINE
8
0
10
116.55
20
-73.28
11
116.55
21
-80.18
0
LINE
8
0
10
133.55
20
-127.78
11
140.45
21
-127.78
0
LINE
8
0
10
140.45
20
-127.78
11
140.45
21
-120.88
0
LINE
8
0
10
140.45
20
-120.88
11
133.55
21
-120.88
0
LINE
8
0
10
133.55
20
-120.88
11
133.55
21
-127.78
0
LINE
8
0
10
133.55
20
-110.78
11
140.45
21
-110.78
0
LINE
8
0
10
140.45
20
-110.78
11
140.45
21
-103.88
0
LINE
8
0
10
140.45
20
-103.88
11
133.55
21
-103.88
0
LINE
8
0
10
133.55
20
-103.88
11
133.55
21
-110.78
0
LINE
8
0
10
133.55
20
-93.78
11
140.45
21
-93.78
0
LINE
8
0
10
140.45
20
-93.78
11
140.45
21
-86.88
0
LINE
8
0
10
140.45
20
-86.88
11
133.55
21
-86.88
0
LINE
8
0
10
133.55
20
-86.88
11
133.55
21
-93.78
0
LINE
8
0
10
104.783327
20
-147.5285005
11
111.5785005
21
-148.726673
0
LINE
8
0
10
111.5785005
20
-148.726673
11
112.776673
21
-141.9314995
0
LINE
8
0
10
112.776673
20
-141.9314995
11
105.9814995
21
-140.733327
0
LINE
8
0
10
105.9814995
20
-140.733327
11
104.783327
21
-147.5285005
0
LINE
8
0
10
122.3859329
20
-152.1342433
11
128.6394567
21
-155.0503093
0
LINE
8
0
10
128.6394567
20
-155.0503093
11
131.5555227
21
-148.7967855
0
LINE
8
0
10
131.5555227
20
-148.7967855
11
125.3019989
21
-145.8807195
0
LINE
8
0
10
125.3019989
20
-145.8807195
11
122.3859329
21
-152.1342433
0
LINE
8
0
10
137.9805171
20
-159.9129575
11
143.9560923
21
-163.3629575
0
LINE
8
0
10
143.9560923
20
-163.3629575
11
147.4060923
21
-157.3873823
0
LINE
8
0
10
147.4060923
20
-157.3873823
11
141.4305171
21
-153.9373823
0
LINE
8
0
10
141.4305171
20
-153.9373823
11
137.9805171
21
-159.9129575
0
CIRCLE
8
0
10
29.05
20
-87.95
40
1.1
0
CIRCLE
8
0
10
29.05
20
-138.95
40
1.1
0
CIRCLE
8
0
10
114.05
20
-82.68
40
1.1
0
CIRCLE
8
0
10
114.05
20
-133.68
40
1.1
0
CIRCLE
8
0
10
119.0636178
20
-153.3434671
40
1.1
0
ENDSEC
0
EOF