0
SECTION
2
HEADER
9
$INSUNITS
70
4
0
ENDSEC
0
SECTION
2
TABLES
0
TABLE
2
LTYPE
0
LTYPE
72
65
70
64
2
CONTINUOUS
3
______
73
0
40
0
0
ENDTAB
0
TABLE
2
LAYER
0
ENDTAB
0
ENDSEC
0
SECTION
2
ENTITIES
0
LINE
8
0
10
25.5
20
-145.5
11
39.5
21
-145.5
0
LINE
8
0
10
22.5
20
-142.5
11
22.5
21
-72.5
0
ARC
8
0
10
25.5
20
-142.5
40
3
50
180
51
270
0
LINE
8
0
10
39.5
20
-69.5
11
25.5
21
-69.5
0
ARC
8
0
10
25.5
20
-72.5
40
3
50
90
51
180
0
LINE
8
0
10
42.5
20
-158.25
11
61.5
21
-158.25
0
ARC
8
0
10
61.5
20
-155.25
40
3
50
270
51
360
0
LINE
8
0
10
64.5
20
-155.25
11
64.5
21
-147.03
0
LINE
8
0
10
39.5
20
-145.5
11
39.5
21
-155.25
0
ARC
8
0
10
42.5
20
-155.25
40
3
50
180
51
270
0
LINE
8
0
10
56.5
20
-65.25
11
42.5
21
-65.25
0
ARC
8
0
10
42.5
20
-68.25
40
3
50
90
51
180
0
LINE
8
0
10
39.5
20
-68.25
11
39.5
21
-69.5
0
LINE
8
0
10
64.5
20
-147.03
11
78.5
21
-147.03
0
ARC
8
0
10
78.5
20
-144.03
40
3
50
270
51
360
0
LINE
8
0
10
81.5
20
-144.03
11
81.5
21
-134.28
0
LINE
8
0
10
81.5
20
-58.28
11
81.5
21
-57.03
0
ARC
8
0
10
78.5
20
-57.03
40
3
50
0
51
90
0
LINE
8
0
10
78.5
20
-54.03
11
59.5
21
-54.03
0
ARC
8
0
10
59.5
20
-57.03
40
3
50
90
51
180
0
LINE
8
0
10
56.5
20
-57.03
11
56.5
21
-65.25
0
LINE
8
0
10
81.5
20
-134.28
11
90.533942
21
-134.28
0
ARC
8
0
10
95.5
20
-61.28
40
3
50
8.6269265
51
90
0
LINE
8
0
10
95.5
20
-58.28
11
81.5
21
-58.28
0
LINE
8
0
10
93.5
20
-136.83
11
97.4801505
21
-136.83
0
ARC
8
0
10
93.5
20
-133.83
40
3
50
188.6269265
51
270
0
LINE
8
0
10
115.5
20
-64.23
11
115.5
21
-63.83
0
ARC
8
0
10
112.5
20
-63.83
40
3
50
0
51
90
0
LINE
8
0
10
112.5
20
-60.83
11
98.466058
21
-60.83
0
ARC
8
0
10
129.5
20
-137.23
40
3
50
324.1567861
51
360
0
LINE
8
0
10
132.5
20
-137.23
11
132.5
21
-136.83
0
LINE
8
0
10
132.5
20
-77.83
11
132.5
21
-67.23
0
ARC
8
0
10
129.5
20
-67.23
40
3
50
0
51
90
0
LINE
8
0
10
129.5
20
-64.23
11
115.5
21
-64.23
0
LINE
8
0
10
132.5
20
-136.83
11
146.5
21
-136.83
0
ARC
8
0
10
146.5
20
-133.83
40
3
50
270
51
360
0
LINE
8
0
10
149.5
20
-133.83
11
149.5
21
-80.83
0
ARC
8
0
10
146.5
20
-80.83
40
3
50
0
51
90
0
LINE
8
0
10
146.5
20
-77.83
11
132.5
21
-77.83
0
LINE
8
0
10
97.2537241
20
-155.3904392
11
114.4616542
21
-158.4246616
0
LINE
8
0
10
97.4801505
20
-136.83
11
94.8202454
21
-151.9150714
0
ARC
8
0
10
97.7746687
20
-152.436016
40
3
50
170
51
260
0
LINE
8
0
10
114.4616542
20
-158.4246616
11
129.233335
21
-165.3128094
0
ARC
8
0
10
139.5955253
20
-145.8704639
40
3
50
413.6061445
51
65
0
LINE
8
0
10
140.86338
20
-143.1515405
11
140.7880469
21
-143.1164121
0
LINE
8
0
10
140.1732471
20
-142.8297263
11
131.9318672
21
-138.9867077
0
LINE
8
0
10
129.233335
20
-165.3128094
11
144.670546
21
-174.2254874
0
ARC
8
0
10
146.170546
20
-171.6274112
40
3
50
240
51
330
0
LINE
8
0
10
148.7686222
20
-173.1274112
11
158.2686222
21
-156.6729286
0
ARC
8
0
10
155.670546
20
-155.1729286
40
3
50
330
51
60
0
LINE
8
0
10
157.170546
20
-152.5748524
11
141.375523
21
-143.4555916
0
LINE
8
0
10
140.7880469
20
-143.1164121
11
140.7160634
21
-143.0748524
0
ARC
8
0
10
139.2160634
20
-145.6729286
40
3
50
60
51
71.3938382
0
ENDSEC
0
EOF