0
SECTION
2
HEADER
9
$INSUNITS
70
4
0
ENDSEC
0
SECTION
2
TABLES
0
TABLE
2
LTYPE
0
LTYPE
72
65
70
64
2
CONTINUOUS
3
______
73
0
40
0
0
ENDTAB
0
TABLE
2
LAYER
0
ENDTAB
0
ENDSEC
0
SECTION
2
ENTITIES
0
LINE
8
0
10
27
20
-151
11
34
21
-151
0
LINE
8
0
10
34
20
-151
11
34
21
-153.75
0
ARC
8
0
10
44
20
-153.75
40
10
50
180
51
270
0
LINE
8
0
10
44
20
-163.75
11
60
21
-163.75
0
ARC
8
0
10
60
20
-153.75
40
10
50
270
51
360
0
LINE
8
0
10
70
20
-153.75
11
70
21
-152.53
0
LINE
8
0
10
70
20
-152.53
11
77
21
-152.53
0
ARC
8
0
10
77
20
-142.53
40
10
50
270
51
360
0
LINE
8
0
10
87
20
-142.53
11
87
21
-139.78
0
LINE
8
0
10
87
20
-139.78
11
88.3293553
21
-139.78
0
ARC
8
0
10
95
20
-132.33
40
10
50
228.1590987
51
246.843527
0
LINE
8
0
10
91.0675646
20
-141.5243435
11
89.6642749
21
-149.4827949
0
ARC
8
0
10
99.5123526
20
-151.2192766
40
10
50
170.0045658
51
260
0
LINE
8
0
10
97.7758708
20
-161.0673542
11
112.7935008
21
-163.7153675
0
LINE
8
0
10
112.7935008
20
-163.7153675
11
126.6132509
21
-170.1596227
0
ARC
8
0
10
130.840244
20
-161.0969228
40
10
50
245
51
245.4883793
0
ARC
8
0
10
131.7651015
20
-161.5783731
40
10
50
239.5116247
51
240
0
LINE
8
0
10
126.7651015
20
-170.2386271
11
140.6215079
21
-178.2386271
0
ARC
8
0
10
145.6215079
20
-169.5783731
40
10
50
240
51
330
0
LINE
8
0
10
154.2817619
20
-174.5783731
11
162.2817619
21
-160.7219667
0
ARC
8
0
10
153.6215079
20
-155.7219667
40
10
50
330
51
420
0
LINE
8
0
10
158.6215079
20
-147.0617127
11
148.988568
21
-141.5001322
0
ARC
8
0
10
145
20
-132.33
40
10
50
293.5067311
51
360
0
LINE
8
0
10
155
20
-132.33
11
155
21
-116.33
0
ARC
8
0
10
145
20
-116.33
40
10
50
0
51
2.865984
0
ARC
8
0
10
145
20
-115.33
40
10
50
357.134016
51
360
0
LINE
8
0
10
155
20
-115.33
11
155
21
-99.33
0
ARC
8
0
10
145
20
-99.33
40
10
50
0
51
2.865984
0
ARC
8
0
10
145
20
-98.33
40
10
50
357.134016
51
360
0
LINE
8
0
10
155
20
-98.33
11
155
21
-82.33
0
ARC
8
0
10
145
20
-82.33
40
10
50
0
51
90
0
LINE
8
0
10
145
20
-72.33
11
138
21
-72.33
0
LINE
8
0
10
138
20
-72.33
11
138
21
-68.73
0
ARC
8
0
10
128
20
-68.73
40
10
50
0
51
90
0
LINE
8
0
10
128
20
-58.73
11
125
21
-58.73
0
LINE
8
0
10
125
20
-58.73
11
125
21
-55.77
0
ARC
8
0
10
115
20
-55.77
40
10
50
0
51
47.5458499
0
LINE
8
0
10
121.75
20
-48.3918227
11
121.75
21
-40.77
0
ARC
8
0
10
111.75
20
-40.77
40
10
50
0
51
90
0
LINE
8
0
10
111.75
20
-30.77
11
67.75
21
-30.77
0
ARC
8
0
10
67.75
20
-40.77
40
10
50
90
51
180
0
LINE
8
0
10
57.75
20
-40.77
11
57.75
21
-49.0728598
0
ARC
8
0
10
61
20
-58.53
40
10
50
108.9655749
51
180
0
LINE
8
0
10
51
20
-58.53
11
51
21
-59.75
0
LINE
8
0
10
51
20
-59.75
11
44
21
-59.75
0
ARC
8
0
10
44
20
-69.75
40
10
50
90
51
144.9003679
0
LINE
8
0
10
35.8184659
20
-64
11
27
21
-64
0
ARC
8
0
10
27
20
-74
40
10
50
90
51
180
0
LINE
8
0
10
17
20
-74
11
17
21
-90
0
ARC
8
0
10
27
20
-90
40
10
50
180
51
182.865984
0
ARC
8
0
10
27
20
-91
40
10
50
177.134016
51
180
0
LINE
8
0
10
17
20
-91
11
17
21
-107
0
ARC
8
0
10
27
20
-107
40
10
50
180
51
182.865984
0
ARC
8
0
10
27
20
-108
40
10
50
177.134016
51
180
0
LINE
8
0
10
17
20
-108
11
17
21
-124
0
ARC
8
0
10
27
20
-124
40
10
50
180
51
182.865984
0
ARC
8
0
10
27
20
-125
40
10
50
177.134016
51
180
0
LINE
8
0
10
17
20
-125
11
17
21
-141
0
ARC
8
0
10
27
20
-141
40
10
50
180
51
270
0
LINE
8
0
10
27
20
-147
11
37
21
-147
0
ARC
8
0
10
37
20
-148
40
1
50
360
51
90
0
LINE
8
0
10
38
20
-148
11
38
21
-153.75
0
ARC
8
0
10
44
20
-153.75
40
6
50
180
51
270
0
LINE
8
0
10
44
20
-159.75
11
60
21
-159.75
0
ARC
8
0
10
60
20
-153.75
40
6
50
270
51
360
0
LINE
8
0
10
66
20
-153.75
11
66
21
-149.53
0
ARC
8
0
10
67
20
-149.53
40
1
50
90
51
180
0
LINE
8
0
10
67
20
-148.53
11
77
21
-148.53
0
ARC
8
0
10
77
20
-142.53
40
6
50
270
51
360
0
LINE
8
0
10
83
20
-142.53
11
83
21
-136.78
0
ARC
8
0
10
84
20
-136.78
40
1
50
90
51
180
0
LINE
8
0
10
84
20
-135.78
11
89.5965289
21
-135.78
0
ARC
8
0
10
89.5965289
20
-136.78
40
1
50
399.4729841
51
90
0
ARC
8
0
10
95
20
-132.33
40
6
50
219.4729819
51
265.9357172
0
ARC
8
0
10
94.5038705
20
-139.3123961
40
1
50
349.9999992
51
445.9357172
0
LINE
8
0
10
95.4886783
20
-139.4860443
11
93.603506
21
-150.1773876
0
ARC
8
0
10
99.5123526
20
-151.2192766
40
6
50
170
51
260
0
LINE
8
0
10
98.4704635
20
-157.1281231
11
113.877051
21
-159.8447201
0
ARC
8
0
10
113.7034028
20
-160.8295279
40
1
50
424.9999993
51
80.0000002
0
LINE
8
0
10
114.1260211
20
-159.9232201
11
128.3037239
21
-166.5343915
0
ARC
8
0
10
130.840244
20
-161.0969228
40
6
50
245
51
246.7711322
0
ARC
8
0
10
128.0794093
20
-167.52948
40
1
50
418.2288692
51
426.7711322
0
ARC
8
0
10
131.7651015
20
-161.5783731
40
6
50
238.2288722
51
240
0
LINE
8
0
10
128.7651015
20
-166.7745255
11
142.6215079
21
-174.7745255
0
ARC
8
0
10
145.6215079
20
-169.5783731
40
6
50
240
51
330
0
LINE
8
0
10
150.8176603
20
-172.5783731
11
158.8176603
21
-158.7219667
0
ARC
8
0
10
153.6215079
20
-155.7219667
40
6
50
330
51
420
0
LINE
8
0
10
156.6215079
20
-150.5258143
11
142.7651015
21
-142.5258143
0
ARC
8
0
10
139.7651015
20
-147.7219667
40
6
50
60
51
72.5308089
0
ARC
8
0
10
141.866452
20
-141.0448171
40
1
50
232.4691844
51
252.5308089
0
ARC
8
0
10
137.6021362
20
-146.5959982
40
6
50
52.4691899
51
65
0
LINE
8
0
10
140.1370351
20
-141.1577735
11
138.1609456
21
-140.2363078
0
ARC
8
0
10
138.5835638
20
-139.33
40
1
50
89.9999994
51
245.0000002
0
LINE
8
0
10
138.5835638
20
-138.33
11
145
21
-138.33
0
ARC
8
0
10
145
20
-132.33
40
6
50
270
51
360
0
LINE
8
0
10
151
20
-132.33
11
151
21
-116.33
0
ARC
8
0
10
145
20
-116.33
40
6
50
0
51
4.0960438
0
ARC
8
0
10
151.98212
20
-115.83
40
1
50
175.9039545
51
184.0960438
0
ARC
8
0
10
145
20
-115.33
40
6
50
355.9039562
51
360
0
LINE
8
0
10
151
20
-115.33
11
151
21
-99.33
0
ARC
8
0
10
145
20
-99.33
40
6
50
0
51
4.0960438
0
ARC
8
0
10
151.98212
20
-98.83
40
1
50
175.9039545
51
184.0960438
0
ARC
8
0
10
145
20
-98.33
40
6
50
355.9039562
51
360
0
LINE
8
0
10
151
20
-98.33
11
151
21
-82.33
0
ARC
8
0
10
145
20
-82.33
40
6
50
0
51
90
0
LINE
8
0
10
145
20
-76.33
11
135
21
-76.33
0
ARC
8
0
10
135
20
-75.33
40
1
50
180
51
270
0
LINE
8
0
10
134
20
-75.33
11
134
21
-68.73
0
ARC
8
0
10
128
20
-68.73
40
6
50
0
51
90
0
LINE
8
0
10
128
20
-62.73
11
122
21
-62.73
0
ARC
8
0
10
122
20
-61.73
40
1
50
180
51
270
0
LINE
8
0
10
121
20
-61.73
11
121
21
-55.77
0
ARC
8
0
10
115
20
-55.77
40
6
50
0
51
57.6076345
0
ARC
8
0
10
118.75
20
-49.8592048
40
1
50
180
51
237.6076345
0
LINE
8
0
10
117.75
20
-49.8592048
11
117.75
21
-40.77
0
ARC
8
0
10
111.75
20
-40.77
40
6
50
0
51
90
0
LINE
8
0
10
111.75
20
-34.77
11
67.75
21
-34.77
0
ARC
8
0
10
67.75
20
-40.77
40
6
50
90
51
180
0
LINE
8
0
10
61.75
20
-40.77
11
61.75
21
-51.5344657
0
ARC
8
0
10
60.75
20
-51.5344657
40
1
50
272.0467138
51
0
0
ARC
8
0
10
61
20
-58.53
40
6
50
92.0467131
51
180
0
LINE
8
0
10
55
20
-58.53
11
55
21
-62.75
0
ARC
8
0
10
54
20
-62.75
40
1
50
270
51
0
0
LINE
8
0
10
54
20
-63.75
11
44
21
-63.75
0
ARC
8
0
10
44
20
-69.75
40
6
50
90
51
156.8676036
0
ARC
8
0
10
37.5628034
20
-67
40
1
50
270
51
336.8676036
0
LINE
8
0
10
37.5628034
20
-68
11
27
21
-68
0
ARC
8
0
10
27
20
-74
40
6
50
90
51
180
0
LINE
8
0
10
21
20
-74
11
21
21
-90
0
ARC
8
0
10
27
20
-90
40
6
50
180
51
184.0960438
0
ARC
8
0
10
20.01788
20
-90.5
40
1
50
355.9039545
51
364.0960438
0
ARC
8
0
10
27
20
-91
40
6
50
175.9039562
51
180
0
LINE
8
0
10
21
20
-91
11
21
21
-107
0
ARC
8
0
10
27
20
-107
40
6
50
180
51
184.0960438
0
ARC
8
0
10
20.01788
20
-107.5
40
1
50
355.9039545
51
364.0960438
0
ARC
8
0
10
27
20
-108
40
6
50
175.9039562
51
180
0
LINE
8
0
10
21
20
-108
11
21
21
-124
0
ARC
8
0
10
27
20
-124
40
6
50
180
51
184.0960438
0
ARC
8
0
10
20.01788
20
-124.5
40
1
50
355.9039545
51
364.0960438
0
ARC
8
0
10
27
20
-125
40
6
50
175.9039562
51
180
0
LINE
8
0
10
21
20
-125
11
21
21
-141
0
ARC
8
0
10
27
20
-141
40
6
50
180
51
270
0
CIRCLE
8
0
10
41.8
20
-85.4
40
2.1
0
CIRCLE
8
0
10
41.8
20
-136.4
40
2.1
0
CIRCLE
8
0
10
126.8
20
-80.13
40
2.1
0
CIRCLE
8
0
10
126.8
20
-131.13
40
2.1
0
CIRCLE
8
0
10
131.6967187
20
-156.4207651
40
2.1
0
ENDSEC
0
EOF