0
SECTION
2
HEADER
9
$INSUNITS
70
4
0
ENDSEC
0
SECTION
2
TABLES
0
TABLE
2
LTYPE
0
LTYPE
72
65
70
64
2
CONTINUOUS
3
______
73
0
40
0
0
ENDTAB
0
TABLE
2
LAYER
0
ENDTAB
0
ENDSEC
0
SECTION
2
ENTITIES
0
LINE
8
0
10
27
20
-150
11
35
21
-150
0
LINE
8
0
10
35
20
-150
11
35
21
-153.75
0
ARC
8
0
10
44
20
-153.75
40
9
50
180
51
270
0
LINE
8
0
10
44
20
-162.75
11
60
21
-162.75
0
ARC
8
0
10
60
20
-153.75
40
9
50
270
51
360
0
LINE
8
0
10
69
20
-153.75
11
69
21
-151.53
0
LINE
8
0
10
69
20
-151.53
11
77
21
-151.53
0
ARC
8
0
10
77
20
-142.53
40
9
50
270
51
360
0
LINE
8
0
10
86
20
-142.53
11
86
21
-138.78
0
LINE
8
0
10
86
20
-138.78
11
88.7232572
21
-138.78
0
ARC
8
0
10
95
20
-132.33
40
9
50
225.7799555
51
251.8485491
0
LINE
8
0
10
92.1962313
20
-140.8821273
11
90.6490827
21
-149.6564431
0
ARC
8
0
10
99.5123526
20
-151.2192766
40
9
50
170.0045658
51
260
0
LINE
8
0
10
97.949519
20
-160.0825464
11
113.0968016
21
-162.753421
0
LINE
8
0
10
113.0968016
20
-162.753421
11
127.0358691
21
-169.2533149
0
ARC
8
0
10
130.840244
20
-161.0969228
40
9
50
245
51
245.820775
0
ARC
8
0
10
131.7651015
20
-161.5783731
40
9
50
239.179229
51
240
0
LINE
8
0
10
127.2651015
20
-169.3726017
11
141.1215079
21
-177.3726017
0
ARC
8
0
10
145.6215079
20
-169.5783731
40
9
50
240
51
330
0
LINE
8
0
10
153.4157365
20
-174.0783731
11
161.4157365
21
-160.2219667
0
ARC
8
0
10
153.6215079
20
-155.7219667
40
9
50
330
51
420
0
LINE
8
0
10
158.1215079
20
-147.9277381
11
146.4812992
21
-141.2072604
0
ARC
8
0
10
145
20
-132.33
40
9
50
279.4733479
51
360
0
LINE
8
0
10
154
20
-132.33
11
154
21
-116.33
0
ARC
8
0
10
145
20
-116.33
40
9
50
0
51
3.1847385
0
ARC
8
0
10
145
20
-115.33
40
9
50
356.8152615
51
360
0
LINE
8
0
10
154
20
-115.33
11
154
21
-99.33
0
ARC
8
0
10
145
20
-99.33
40
9
50
0
51
3.1847385
0
ARC
8
0
10
145
20
-98.33
40
9
50
356.8152615
51
360
0
LINE
8
0
10
154
20
-98.33
11
154
21
-82.33
0
ARC
8
0
10
145
20
-82.33
40
9
50
0
51
90
0
LINE
8
0
10
145
20
-73.33
11
137
21
-73.33
0
LINE
8
0
10
137
20
-73.33
11
137
21
-68.73
0
ARC
8
0
10
128
20
-68.73
40
9
50
0
51
90
0
LINE
8
0
10
128
20
-59.73
11
124
21
-59.73
0
LINE
8
0
10
124
20
-59.73
11
124
21
-55.77
0
ARC
8
0
10
115
20
-55.77
40
9
50
0
51
50.2909834
0
LINE
8
0
10
120.75
20
-48.8463088
11
120.75
21
-40.77
0
ARC
8
0
10
111.75
20
-40.77
40
9
50
0
51
90
0
LINE
8
0
10
111.75
20
-31.77
11
67.75
21
-31.77
0
ARC
8
0
10
67.75
20
-40.77
40
9
50
90
51
180
0
LINE
8
0
10
58.75
20
-40.77
11
58.75
21
-49.8157875
0
ARC
8
0
10
61
20
-58.53
40
9
50
104.4775122
51
180
0
LINE
8
0
10
52
20
-58.53
11
52
21
-60.75
0
LINE
8
0
10
52
20
-60.75
11
44
21
-60.75
0
ARC
8
0
10
44
20
-69.75
40
9
50
90
51
148.1445691
0
LINE
8
0
10
36.3555576
20
-65
11
27
21
-65
0
ARC
8
0
10
27
20
-74
40
9
50
90
51
180
0
LINE
8
0
10
18
20
-74
11
18
21
-90
0
ARC
8
0
10
27
20
-90
40
9
50
180
51
183.1847385
0
ARC
8
0
10
27
20
-91
40
9
50
176.8152615
51
180
0
LINE
8
0
10
18
20
-91
11
18
21
-107
0
ARC
8
0
10
27
20
-107
40
9
50
180
51
183.1847385
0
ARC
8
0
10
27
20
-108
40
9
50
176.8152615
51
180
0
LINE
8
0
10
18
20
-108
11
18
21
-124
0
ARC
8
0
10
27
20
-124
40
9
50
180
51
183.1847385
0
ARC
8
0
10
27
20
-125
40
9
50
176.8152615
51
180
0
LINE
8
0
10
18
20
-125
11
18
21
-141
0
ARC
8
0
10
27
20
-141
40
9
50
180
51
270
0
LINE
8
0
10
27
20
-144
11
41
21
-144
0
ARC
8
0
10
27
20
-125
40
3
50
170.4059318
51
180
0
LINE
8
0
10
24
20
-125
11
24
21
-141
0
ARC
8
0
10
27
20
-141
40
3
50
180
51
270
0
ARC
8
0
10
27
20
-108
40
3
50
170.4059318
51
180
0
LINE
8
0
10
24
20
-108
11
24
21
-124
0
ARC
8
0
10
27
20
-124
40
3
50
180
51
189.5940682
0
ARC
8
0
10
27
20
-91
40
3
50
170.4059318
51
180
0
LINE
8
0
10
24
20
-91
11
24
21
-107
0
ARC
8
0
10
27
20
-107
40
3
50
180
51
189.5940682
0
LINE
8
0
10
41
20
-71
11
27
21
-71
0
ARC
8
0
10
27
20
-74
40
3
50
90
51
180
0
LINE
8
0
10
24
20
-74
11
24
21
-90
0
ARC
8
0
10
27
20
-90
40
3
50
180
51
189.5940682
0
LINE
8
0
10
44
20
-156.75
11
60
21
-156.75
0
ARC
8
0
10
60
20
-153.75
40
3
50
270
51
360
0
LINE
8
0
10
63
20
-153.75
11
63
21
-145.53
0
LINE
8
0
10
41
20
-144
11
41
21
-153.75
0
ARC
8
0
10
44
20
-153.75
40
3
50
180
51
270
0
LINE
8
0
10
58
20
-66.75
11
44
21
-66.75
0
ARC
8
0
10
44
20
-69.75
40
3
50
90
51
180
0
LINE
8
0
10
41
20
-69.75
11
41
21
-71
0
LINE
8
0
10
63
20
-145.53
11
77
21
-145.53
0
ARC
8
0
10
77
20
-142.53
40
3
50
270
51
360
0
LINE
8
0
10
80
20
-142.53
11
80
21
-132.78
0
LINE
8
0
10
64.75
20
-55.53
11
61
21
-55.53
0
ARC
8
0
10
61
20
-58.53
40
3
50
90
51
180
0
LINE
8
0
10
58
20
-58.53
11
58
21
-66.75
0
LINE
8
0
10
80
20
-132.78
11
92.033942
21
-132.78
0
LINE
8
0
10
95
20
-135.33
11
99.2677808
21
-135.33
0
ARC
8
0
10
95
20
-132.33
40
3
50
188.6269265
51
270
0
LINE
8
0
10
127.8320535
20
-138.73
11
128
21
-138.73
0
ARC
8
0
10
128
20
-135.73
40
3
50
270
51
360
0
LINE
8
0
10
131
20
-135.73
11
131
21
-135.33
0
LINE
8
0
10
131
20
-79.33
11
131
21
-68.73
0
ARC
8
0
10
128
20
-68.73
40
3
50
0
51
90
0
LINE
8
0
10
128
20
-65.73
11
118
21
-65.73
0
LINE
8
0
10
131
20
-135.33
11
145
21
-135.33
0
ARC
8
0
10
145
20
-132.33
40
3
50
270
51
360
0
LINE
8
0
10
148
20
-132.33
11
148
21
-116.33
0
ARC
8
0
10
145
20
-116.33
40
3
50
0
51
9.5940682
0
ARC
8
0
10
145
20
-115.33
40
3
50
350.4059318
51
360
0
LINE
8
0
10
148
20
-115.33
11
148
21
-99.33
0
ARC
8
0
10
145
20
-99.33
40
3
50
0
51
9.5940682
0
ARC
8
0
10
145
20
-98.33
40
3
50
350.4059318
51
360
0
LINE
8
0
10
148
20
-98.33
11
148
21
-82.33
0
ARC
8
0
10
145
20
-82.33
40
3
50
0
51
90
0
LINE
8
0
10
145
20
-79.33
11
131
21
-79.33
0
LINE
8
0
10
98.991408
20
-154.1736999
11
114.7483321
21
-156.9520707
0
ARC
8
0
10
115.2692766
20
-153.9976474
40
3
50
260
51
263.2774775
0
LINE
8
0
10
99.2677808
20
-135.33
11
96.5579293
21
-150.6983321
0
ARC
8
0
10
99.5123526
20
-151.2192766
40
3
50
170
51
260
0
LINE
8
0
10
115.0714646
20
-157.053954
11
129.5723892
21
-163.8158462
0
ARC
8
0
10
130.840244
20
-161.0969228
40
3
50
245
51
252.5075513
0
ARC
8
0
10
137.6021362
20
-146.5959982
40
3
50
398.5201915
51
65
0
LINE
8
0
10
138.869991
20
-143.8770748
11
127.8320535
21
-138.73
0
ARC
8
0
10
116.3393194
20
-154.3350306
40
3
50
241.722522
51
245
0
LINE
8
0
10
130.2651015
20
-164.1764493
11
144.1215079
21
-172.1764493
0
ARC
8
0
10
145.6215079
20
-169.5783731
40
3
50
240
51
330
0
LINE
8
0
10
148.2195841
20
-171.0783731
11
156.2195841
21
-157.2219667
0
ARC
8
0
10
153.6215079
20
-155.7219667
40
3
50
330
51
60
0
LINE
8
0
10
155.1215079
20
-153.1238905
11
141.2651015
21
-145.1238905
0
ARC
8
0
10
139.7651015
20
-147.7219667
40
3
50
60
51
86.4798078
0
ARC
8
0
10
131.7651015
20
-161.5783731
40
3
50
232.4924521
51
240
0
LINE
8
0
10
114.75
20
-52.77
11
114.75
21
-40.77
0
ARC
8
0
10
111.75
20
-40.77
40
3
50
0
51
90
0
LINE
8
0
10
111.75
20
-37.77
11
67.75
21
-37.77
0
ARC
8
0
10
67.75
20
-40.77
40
3
50
90
51
180
0
LINE
8
0
10
64.75
20
-40.77
11
64.75
21
-55.53
0
LINE
8
0
10
118
20
-65.73
11
118
21
-55.77
0
ARC
8
0
10
115
20
-55.77
40
3
50
0
51
90
0
LINE
8
0
10
115
20
-52.77
11
114.75
21
-52.77
0
ENDSEC
0
EOF