0
SECTION
2
HEADER
9
$INSUNITS
70
4
0
ENDSEC
0
SECTION
2
TABLES
0
TABLE
2
LTYPE
0
LTYPE
72
65
70
64
2
CONTINUOUS
3
______
73
0
40
0
0
ENDTAB
0
TABLE
2
LAYER
0
ENDTAB
0
ENDSEC
0
SECTION
2
ENTITIES
0
LINE
8
0
10
299
20
-144
11
313
21
-144
0
ARC
8
0
10
313
20
-141
40
3
50
270
51
360
0
LINE
8
0
10
316
20
-141
11
316
21
-125
0
ARC
8
0
10
313
20
-125
40
3
50
0
51
9.5940682
0
ARC
8
0
10
313
20
-124
40
3
50
350.4059318
51
360
0
LINE
8
0
10
316
20
-124
11
316
21
-108
0
ARC
8
0
10
313
20
-108
40
3
50
0
51
9.5940682
0
ARC
8
0
10
313
20
-107
40
3
50
350.4059318
51
360
0
LINE
8
0
10
316
20
-107
11
316
21
-91
0
ARC
8
0
10
313
20
-91
40
3
50
0
51
9.5940682
0
ARC
8
0
10
313
20
-90
40
3
50
350.4059318
51
360
0
LINE
8
0
10
316
20
-90
11
316
21
-74
0
ARC
8
0
10
313
20
-74
40
3
50
0
51
90
0
LINE
8
0
10
313
20
-71
11
299
21
-71
0
LINE
8
0
10
280
20
-156.75
11
296
21
-156.75
0
ARC
8
0
10
296
20
-153.75
40
3
50
270
51
360
0
LINE
8
0
10
299
20
-153.75
11
299
21
-144
0
LINE
8
0
10
277
20
-145.53
11
277
21
-153.75
0
ARC
8
0
10
280
20
-153.75
40
3
50
180
51
270
0
LINE
8
0
10
299
20
-71
11
299
21
-69.75
0
ARC
8
0
10
296
20
-69.75
40
3
50
0
51
90
0
LINE
8
0
10
296
20
-66.75
11
282
21
-66.75
0
LINE
8
0
10
263
20
-145.53
11
277
21
-145.53
0
LINE
8
0
10
260
20
-132.78
11
260
21
-142.53
0
ARC
8
0
10
263
20
-142.53
40
3
50
180
51
270
0
LINE
8
0
10
282
20
-66.75
11
282
21
-58.53
0
ARC
8
0
10
279
20
-58.53
40
3
50
0
51
90
0
LINE
8
0
10
279
20
-55.53
11
263
21
-55.53
0
ARC
8
0
10
263
20
-58.53
40
3
50
90
51
180
0
LINE
8
0
10
260
20
-58.53
11
260
21
-59.78
0
LINE
8
0
10
247.966058
20
-132.78
11
260
21
-132.78
0
LINE
8
0
10
260
20
-59.78
11
246
21
-59.78
0
ARC
8
0
10
246
20
-62.78
40
3
50
90
51
171.3730735
0
LINE
8
0
10
240.7322192
20
-135.33
11
245
21
-135.33
0
ARC
8
0
10
245
20
-132.33
40
3
50
270
51
351.3730735
0
LINE
8
0
10
243.033942
20
-62.33
11
229
21
-62.33
0
ARC
8
0
10
229
20
-65.33
40
3
50
90
51
180
0
LINE
8
0
10
226
20
-65.33
11
226
21
-65.73
0
LINE
8
0
10
212
20
-138.73
11
212.1679465
21
-138.73
0
LINE
8
0
10
209
20
-135.33
11
209
21
-135.73
0
ARC
8
0
10
212
20
-135.73
40
3
50
180
51
270
0
LINE
8
0
10
226
20
-65.73
11
212
21
-65.73
0
ARC
8
0
10
212
20
-68.73
40
3
50
90
51
180
0
LINE
8
0
10
209
20
-68.73
11
209
21
-79.33
0
LINE
8
0
10
195
20
-135.33
11
209
21
-135.33
0
ARC
8
0
10
195
20
-116.33
40
3
50
170.4059318
51
180
0
LINE
8
0
10
192
20
-116.33
11
192
21
-132.33
0
ARC
8
0
10
195
20
-132.33
40
3
50
180
51
270
0
ARC
8
0
10
195
20
-99.33
40
3
50
170.4059318
51
180
0
LINE
8
0
10
192
20
-99.33
11
192
21
-115.33
0
ARC
8
0
10
195
20
-115.33
40
3
50
180
51
189.5940682
0
LINE
8
0
10
209
20
-79.33
11
195
21
-79.33
0
ARC
8
0
10
195
20
-82.33
40
3
50
90
51
180
0
LINE
8
0
10
192
20
-82.33
11
192
21
-98.33
0
ARC
8
0
10
195
20
-98.33
40
3
50
180
51
189.5940682
0
LINE
8
0
10
225.2516679
20
-156.9520707
11
241.008592
21
-154.1736999
0
ARC
8
0
10
240.4876474
20
-151.2192766
40
3
50
280
51
10
0
LINE
8
0
10
243.4420707
20
-150.6983321
11
240.7322192
21
-135.33
0
ARC
8
0
10
224.7307234
20
-153.9976474
40
3
50
276.7225225
51
280
0
LINE
8
0
10
210.4276108
20
-163.8158462
11
224.9285354
21
-157.053954
0
ARC
8
0
10
223.6606806
20
-154.3350306
40
3
50
295
51
298.277478
0
LINE
8
0
10
212.1679465
20
-138.73
11
201.130009
21
-143.8770748
0
ARC
8
0
10
202.3978638
20
-146.5959982
40
3
50
115
51
141.4798085
0
ARC
8
0
10
209.159756
20
-161.0969228
40
3
50
287.4924487
51
295
0
LINE
8
0
10
195.8784921
20
-172.1764493
11
209.7348985
21
-164.1764493
0
ARC
8
0
10
208.2348985
20
-161.5783731
40
3
50
300
51
307.5075479
0
ARC
8
0
10
200.2348985
20
-147.7219667
40
3
50
93.5201922
51
120
0
LINE
8
0
10
198.7348985
20
-145.1238905
11
184.8784921
21
-153.1238905
0
ARC
8
0
10
186.3784921
20
-155.7219667
40
3
50
120
51
210
0
LINE
8
0
10
183.7804159
20
-157.2219667
11
191.7804159
21
-171.0783731
0
ARC
8
0
10
194.3784921
20
-169.5783731
40
3
50
210
51
300
0
ENDSEC
0
EOF