0
SECTION
2
HEADER
9
$INSUNITS
70
4
0
ENDSEC
0
SECTION
2
TABLES
0
TABLE
2
LTYPE
0
LTYPE
72
65
70
64
2
CONTINUOUS
3
______
73
0
40
0
0
ENDTAB
0
TABLE
2
LAYER
0
ENDTAB
0
ENDSEC
0
SECTION
2
ENTITIES
0
LINE
8
0
10
301
20
-146
11
313
21
-146
0
ARC
8
0
10
313
20
-141
40
5
50
270
51
360
0
LINE
8
0
10
318
20
-141
11
318
21
-125
0
ARC
8
0
10
313
20
-125
40
5
50
0
51
5.7391705
0
ARC
8
0
10
313
20
-124
40
5
50
354.2608295
51
360
0
LINE
8
0
10
318
20
-124
11
318
21
-108
0
ARC
8
0
10
313
20
-108
40
5
50
0
51
5.7391705
0
ARC
8
0
10
313
20
-107
40
5
50
354.2608295
51
360
0
LINE
8
0
10
318
20
-107
11
318
21
-91
0
ARC
8
0
10
313
20
-91
40
5
50
0
51
5.7391705
0
ARC
8
0
10
313
20
-90
40
5
50
354.2608295
51
360
0
LINE
8
0
10
318
20
-90
11
318
21
-74
0
ARC
8
0
10
313
20
-74
40
5
50
0
51
90
0
LINE
8
0
10
313
20
-69
11
300.94343
21
-69
0
ARC
8
0
10
296
20
-69.75
40
5
50
8.6269265
51
90
0
LINE
8
0
10
296
20
-64.75
11
284
21
-64.75
0
LINE
8
0
10
284
20
-64.75
11
284
21
-58.53
0
ARC
8
0
10
279
20
-58.53
40
5
50
0
51
90
0
LINE
8
0
10
279
20
-53.53
11
274.25
21
-53.53
0
LINE
8
0
10
274.25
20
-53.53
11
274.25
21
-40.77
0
ARC
8
0
10
269.25
20
-40.77
40
5
50
0
51
90
0
LINE
8
0
10
269.25
20
-35.77
11
225.25
21
-35.77
0
ARC
8
0
10
225.25
20
-40.77
40
5
50
90
51
180
0
LINE
8
0
10
220.25
20
-40.77
11
220.25
21
-51.0862515
0
ARC
8
0
10
222
20
-55.77
40
5
50
110.4873151
51
180
0
LINE
8
0
10
217
20
-55.77
11
217
21
-63.73
0
LINE
8
0
10
217
20
-63.73
11
212
21
-63.73
0
ARC
8
0
10
212
20
-68.73
40
5
50
90
51
180
0
LINE
8
0
10
207
20
-68.73
11
207
21
-77.33
0
LINE
8
0
10
207
20
-77.33
11
195
21
-77.33
0
ARC
8
0
10
195
20
-82.33
40
5
50
90
51
180
0
LINE
8
0
10
190
20
-82.33
11
190
21
-98.33
0
ARC
8
0
10
195
20
-98.33
40
5
50
180
51
185.7391705
0
ARC
8
0
10
195
20
-99.33
40
5
50
174.2608295
51
180
0
LINE
8
0
10
190
20
-99.33
11
190
21
-115.33
0
ARC
8
0
10
195
20
-115.33
40
5
50
180
51
185.7391705
0
ARC
8
0
10
195
20
-116.33
40
5
50
174.2608295
51
180
0
LINE
8
0
10
190
20
-116.33
11
190
21
-132.33
0
ARC
8
0
10
195
20
-132.33
40
5
50
180
51
270
0
LINE
8
0
10
195
20
-137.33
11
207.2629123
21
-137.33
0
ARC
8
0
10
212
20
-135.73
40
5
50
198.6629249
51
214.0896745
0
LINE
8
0
10
207.8591932
20
-138.5324488
11
200.2847725
21
-142.0644592
0
ARC
8
0
10
202.3978638
20
-146.5959982
40
5
50
115
51
131.6138119
0
ARC
8
0
10
200.2348985
20
-147.7219667
40
5
50
103.3861894
51
120
0
LINE
8
0
10
197.7348985
20
-143.3918397
11
183.8784921
21
-151.3918397
0
ARC
8
0
10
186.3784921
20
-155.7219667
40
5
50
120
51
210
0
LINE
8
0
10
182.0483651
20
-158.2219667
11
190.0483651
21
-172.0783731
0
ARC
8
0
10
194.3784921
20
-169.5783731
40
5
50
210
51
300
0
LINE
8
0
10
196.8784921
20
-173.9085001
11
210.7348985
21
-165.9085001
0
ARC
8
0
10
208.2348985
20
-161.5783731
40
5
50
300
51
303.4849211
0
ARC
8
0
10
209.159756
20
-161.0969228
40
5
50
291.5150754
51
295
0
LINE
8
0
10
211.2728473
20
-165.6284618
11
225.6899964
21
-158.9056348
0
LINE
8
0
10
225.6899964
20
-158.9056348
11
241.3558883
21
-156.1433154
0
ARC
8
0
10
240.4876474
20
-151.2192766
40
5
50
280.0093579
51
370
0
LINE
8
0
10
245.4116862
20
-150.3510358
11
243.1157264
21
-137.33
0
LINE
8
0
10
243.1157264
20
-137.33
11
245
21
-137.33
0
ARC
8
0
10
245
20
-132.33
40
5
50
270
51
330.6594186
0
LINE
8
0
10
249.3586122
20
-134.78
11
258
21
-134.78
0
LINE
8
0
10
258
20
-134.78
11
258
21
-142.53
0
ARC
8
0
10
263
20
-142.53
40
5
50
180
51
270
0
LINE
8
0
10
263
20
-147.53
11
275
21
-147.53
0
LINE
8
0
10
275
20
-147.53
11
275
21
-153.75
0
ARC
8
0
10
280
20
-153.75
40
5
50
180
51
270
0
LINE
8
0
10
280
20
-158.75
11
296
21
-158.75
0
ARC
8
0
10
296
20
-153.75
40
5
50
270
51
360
0
LINE
8
0
10
301
20
-153.75
11
301
21
-146
0
ENDSEC
0
EOF