0
SECTION
2
HEADER
9
$INSUNITS
70
4
0
ENDSEC
0
SECTION
2
TABLES
0
TABLE
2
LTYPE
0
LTYPE
72
65
70
64
2
CONTINUOUS
3
______
73
0
40
0
0
ENDTAB
0
TABLE
2
LAYER
0
ENDTAB
0
ENDSEC
0
SECTION
2
ENTITIES
0
LINE
8
0
10
303
20
-148
11
313
21
-148
0
ARC
8
0
10
313
20
-141
40
7
50
270
51
360
0
LINE
8
0
10
320
20
-141
11
320
21
-125
0
ARC
8
0
10
313
20
-125
40
7
50
0
51
4.0960438
0
ARC
8
0
10
313
20
-124
40
7
50
355.9039562
51
360
0
LINE
8
0
10
320
20
-124
11
320
21
-108
0
ARC
8
0
10
313
20
-108
40
7
50
0
51
4.0960438
0
ARC
8
0
10
313
20
-107
40
7
50
355.9039562
51
360
0
LINE
8
0
10
320
20
-107
11
320
21
-91
0
ARC
8
0
10
313
20
-91
40
7
50
0
51
4.0960438
0
ARC
8
0
10
313
20
-90
40
7
50
355.9039562
51
360
0
LINE
8
0
10
320
20
-90
11
320
21
-74
0
ARC
8
0
10
313
20
-74
40
7
50
0
51
90
0
LINE
8
0
10
313
20
-67
11
302.4371966
21
-67
0
ARC
8
0
10
296
20
-69.75
40
7
50
23.1323964
51
90
0
LINE
8
0
10
296
20
-62.75
11
286
21
-62.75
0
LINE
8
0
10
286
20
-62.75
11
286
21
-58.53
0
ARC
8
0
10
279
20
-58.53
40
7
50
0
51
90
0
LINE
8
0
10
279
20
-51.53
11
276.25
21
-51.53
0
LINE
8
0
10
276.25
20
-51.53
11
276.25
21
-40.77
0
ARC
8
0
10
269.25
20
-40.77
40
7
50
0
51
90
0
LINE
8
0
10
269.25
20
-33.77
11
225.25
21
-33.77
0
ARC
8
0
10
225.25
20
-40.77
40
7
50
90
51
180
0
LINE
8
0
10
218.25
20
-40.77
11
218.25
21
-49.8592048
0
ARC
8
0
10
222
20
-55.77
40
7
50
122.3923655
51
180
0
LINE
8
0
10
215
20
-55.77
11
215
21
-61.73
0
LINE
8
0
10
215
20
-61.73
11
212
21
-61.73
0
ARC
8
0
10
212
20
-68.73
40
7
50
90
51
180
0
LINE
8
0
10
205
20
-68.73
11
205
21
-75.33
0
LINE
8
0
10
205
20
-75.33
11
195
21
-75.33
0
ARC
8
0
10
195
20
-82.33
40
7
50
90
51
180
0
LINE
8
0
10
188
20
-82.33
11
188
21
-98.33
0
ARC
8
0
10
195
20
-98.33
40
7
50
180
51
184.0960438
0
ARC
8
0
10
195
20
-99.33
40
7
50
175.9039562
51
180
0
LINE
8
0
10
188
20
-99.33
11
188
21
-115.33
0
ARC
8
0
10
195
20
-115.33
40
7
50
180
51
184.0960438
0
ARC
8
0
10
195
20
-116.33
40
7
50
175.9039562
51
180
0
LINE
8
0
10
188
20
-116.33
11
188
21
-132.33
0
ARC
8
0
10
195
20
-132.33
40
7
50
180
51
270
0
LINE
8
0
10
195
20
-139.33
11
201.4164361
21
-139.33
0
LINE
8
0
10
201.4164361
20
-139.33
11
199.4395359
21
-140.2518437
0
ARC
8
0
10
202.3978638
20
-146.5959982
40
7
50
115
51
127.5308101
0
ARC
8
0
10
200.2348985
20
-147.7219667
40
7
50
107.4691911
51
120
0
LINE
8
0
10
196.7348985
20
-141.6597889
11
182.8784921
21
-149.6597889
0
ARC
8
0
10
186.3784921
20
-155.7219667
40
7
50
120
51
210
0
LINE
8
0
10
180.3163143
20
-159.2219667
11
188.3163143
21
-173.0783731
0
ARC
8
0
10
194.3784921
20
-169.5783731
40
7
50
210
51
300
0
LINE
8
0
10
197.8784921
20
-175.6405509
11
211.7348985
21
-167.6405509
0
ARC
8
0
10
208.2348985
20
-161.5783731
40
7
50
300
51
301.7711278
0
ARC
8
0
10
209.159756
20
-161.0969228
40
7
50
293.2288678
51
295
0
LINE
8
0
10
212.1188944
20
-167.4406993
11
226.2965972
21
-160.8295279
0
LINE
8
0
10
226.2965972
20
-160.8295279
11
241.7031847
21
-158.1129309
0
ARC
8
0
10
241.008592
20
-154.1736999
40
4
50
279.9999998
51
280.0195721
0
ARC
8
0
10
240.4876474
20
-151.2192766
40
7
50
280
51
370
0
LINE
8
0
10
247.3813017
20
-150.0037394
11
245.4961294
21
-139.3123961
0
ARC
8
0
10
245
20
-132.33
40
7
50
274.064282
51
320.5270181
0
LINE
8
0
10
250.4034711
20
-136.78
11
256
21
-136.78
0
LINE
8
0
10
256
20
-136.78
11
256
21
-142.53
0
ARC
8
0
10
263
20
-142.53
40
7
50
180
51
270
0
LINE
8
0
10
263
20
-149.53
11
273
21
-149.53
0
LINE
8
0
10
273
20
-149.53
11
273
21
-153.75
0
ARC
8
0
10
280
20
-153.75
40
7
50
180
51
270
0
LINE
8
0
10
280
20
-160.75
11
296
21
-160.75
0
ARC
8
0
10
296
20
-153.75
40
7
50
270
51
360
0
LINE
8
0
10
303
20
-153.75
11
303
21
-148
0
ENDSEC
0
EOF