0
SECTION
2
HEADER
9
$INSUNITS
70
4
0
ENDSEC
0
SECTION
2
TABLES
0
TABLE
2
LTYPE
0
LTYPE
72
65
70
64
2
CONTINUOUS
3
______
73
0
40
0
0
ENDTAB
0
TABLE
2
LAYER
0
ENDTAB
0
ENDSEC
0
SECTION
2
ENTITIES
0
LINE
8
0
10
299
20
-144
11
313
21
-144
0
ARC
8
0
10
313
20
-141
40
3
50
270
51
360
0
LINE
8
0
10
316
20
-141
11
316
21
-125
0
ARC
8
0
10
313
20
-125
40
3
50
0
51
9.5940682
0
ARC
8
0
10
313
20
-124
40
3
50
350.4059318
51
360
0
LINE
8
0
10
316
20
-124
11
316
21
-108
0
ARC
8
0
10
313
20
-108
40
3
50
0
51
9.5940682
0
ARC
8
0
10
313
20
-107
40
3
50
350.4059318
51
360
0
LINE
8
0
10
316
20
-107
11
316
21
-91
0
ARC
8
0
10
313
20
-91
40
3
50
0
51
9.5940682
0
ARC
8
0
10
313
20
-90
40
3
50
350.4059318
51
360
0
LINE
8
0
10
316
20
-90
11
316
21
-74
0
ARC
8
0
10
313
20
-74
40
3
50
0
51
90
0
LINE
8
0
10
313
20
-71
11
299
21
-71
0
LINE
8
0
10
280
20
-156.75
11
296
21
-156.75
0
ARC
8
0
10
296
20
-153.75
40
3
50
270
51
360
0
LINE
8
0
10
299
20
-153.75
11
299
21
-144
0
LINE
8
0
10
277
20
-145.53
11
277
21
-153.75
0
ARC
8
0
10
280
20
-153.75
40
3
50
180
51
270
0
LINE
8
0
10
299
20
-71
11
299
21
-69.75
0
ARC
8
0
10
296
20
-69.75
40
3
50
0
51
90
0
LINE
8
0
10
296
20
-66.75
11
282
21
-66.75
0
LINE
8
0
10
263
20
-145.53
11
277
21
-145.53
0
LINE
8
0
10
260
20
-132.78
11
260
21
-142.53
0
ARC
8
0
10
263
20
-142.53
40
3
50
180
51
270
0
LINE
8
0
10
282
20
-66.75
11
282
21
-58.53
0
ARC
8
0
10
279
20
-58.53
40
3
50
0
51
90
0
LINE
8
0
10
279
20
-55.53
11
272.25
21
-55.53
0
LINE
8
0
10
247.966058
20
-132.78
11
260
21
-132.78
0
LINE
8
0
10
240.7322192
20
-135.33
11
245
21
-135.33
0
ARC
8
0
10
245
20
-132.33
40
3
50
270
51
351.3730735
0
LINE
8
0
10
212
20
-138.73
11
212.1679465
21
-138.73
0
LINE
8
0
10
209
20
-135.33
11
209
21
-135.73
0
ARC
8
0
10
212
20
-135.73
40
3
50
180
51
270
0
LINE
8
0
10
219
20
-65.73
11
212
21
-65.73
0
ARC
8
0
10
212
20
-68.73
40
3
50
90
51
180
0
LINE
8
0
10
209
20
-68.73
11
209
21
-79.33
0
LINE
8
0
10
195
20
-135.33
11
209
21
-135.33
0
ARC
8
0
10
195
20
-116.33
40
3
50
170.4059318
51
180
0
LINE
8
0
10
192
20
-116.33
11
192
21
-132.33
0
ARC
8
0
10
195
20
-132.33
40
3
50
180
51
270
0
ARC
8
0
10
195
20
-99.33
40
3
50
170.4059318
51
180
0
LINE
8
0
10
192
20
-99.33
11
192
21
-115.33
0
ARC
8
0
10
195
20
-115.33
40
3
50
180
51
189.5940682
0
LINE
8
0
10
209
20
-79.33
11
195
21
-79.33
0
ARC
8
0
10
195
20
-82.33
40
3
50
90
51
180
0
LINE
8
0
10
192
20
-82.33
11
192
21
-98.33
0
ARC
8
0
10
195
20
-98.33
40
3
50
180
51
189.5940682
0
LINE
8
0
10
225.2516679
20
-156.9520707
11
241.008592
21
-154.1736999
0
ARC
8
0
10
240.4876474
20
-151.2192766
40
3
50
280
51
10
0
LINE
8
0
10
243.4420707
20
-150.6983321
11
240.7322192
21
-135.33
0
ARC
8
0
10
224.7307234
20
-153.9976474
40
3
50
276.7225225
51
280
0
LINE
8
0
10
210.4276108
20
-163.8158462
11
224.9285354
21
-157.053954
0
ARC
8
0
10
223.6606806
20
-154.3350306
40
3
50
295
51
298.277478
0
LINE
8
0
10
212.1679465
20
-138.73
11
201.130009
21
-143.8770748
0
ARC
8
0
10
202.3978638
20
-146.5959982
40
3
50
115
51
141.4798085
0
ARC
8
0
10
209.159756
20
-161.0969228
40
3
50
287.4924487
51
295
0
LINE
8
0
10
195.8784921
20
-172.1764493
11
209.7348985
21
-164.1764493
0
ARC
8
0
10
208.2348985
20
-161.5783731
40
3
50
300
51
307.5075479
0
ARC
8
0
10
200.2348985
20
-147.7219667
40
3
50
93.5201922
51
120
0
LINE
8
0
10
198.7348985
20
-145.1238905
11
184.8784921
21
-153.1238905
0
ARC
8
0
10
186.3784921
20
-155.7219667
40
3
50
120
51
210
0
LINE
8
0
10
183.7804159
20
-157.2219667
11
191.7804159
21
-171.0783731
0
ARC
8
0
10
194.3784921
20
-169.5783731
40
3
50
210
51
300
0
LINE
8
0
10
272.25
20
-55.53
11
272.25
21
-40.77
0
ARC
8
0
10
269.25
20
-40.77
40
3
50
0
51
90
0
LINE
8
0
10
269.25
20
-37.77
11
225.25
21
-37.77
0
ARC
8
0
10
225.25
20
-40.77
40
3
50
90
51
180
0
LINE
8
0
10
222.25
20
-40.77
11
222.25
21
-52.77
0
LINE
8
0
10
219
20
-55.77
11
219
21
-65.73
0
LINE
8
0
10
222.25
20
-52.77
11
222
21
-52.77
0
ARC
8
0
10
222
20
-55.77
40
3
50
90
51
180
0
LINE
8
0
10
301.55
20
-136.45
11
308.45
21
-136.45
0
LINE
8
0
10
308.45
20
-136.45
11
308.45
21
-129.55
0
LINE
8
0
10
308.45
20
-129.55
11
301.55
21
-129.55
0
LINE
8
0
10
301.55
20
-129.55
11
301.55
21
-136.45
0
LINE
8
0
10
301.55
20
-119.45
11
308.45
21
-119.45
0
LINE
8
0
10
308.45
20
-119.45
11
308.45
21
-112.55
0
LINE
8
0
10
308.45
20
-112.55
11
301.55
21
-112.55
0
LINE
8
0
10
301.55
20
-112.55
11
301.55
21
-119.45
0
LINE
8
0
10
301.55
20
-102.45
11
308.45
21
-102.45
0
LINE
8
0
10
308.45
20
-102.45
11
308.45
21
-95.55
0
LINE
8
0
10
308.45
20
-95.55
11
301.55
21
-95.55
0
LINE
8
0
10
301.55
20
-95.55
11
301.55
21
-102.45
0
LINE
8
0
10
301.55
20
-85.45
11
308.45
21
-85.45
0
LINE
8
0
10
308.45
20
-85.45
11
308.45
21
-78.55
0
LINE
8
0
10
308.45
20
-78.55
11
301.55
21
-78.55
0
LINE
8
0
10
301.55
20
-78.55
11
301.55
21
-85.45
0
LINE
8
0
10
284.55
20
-149.2
11
291.45
21
-149.2
0
LINE
8
0
10
291.45
20
-149.2
11
291.45
21
-142.3
0
LINE
8
0
10
291.45
20
-142.3
11
284.55
21
-142.3
0
LINE
8
0
10
284.55
20
-142.3
11
284.55
21
-149.2
0
LINE
8
0
10
284.55
20
-132.2
11
291.45
21
-132.2
0
LINE
8
0
10
291.45
20
-132.2
11
291.45
21
-125.3
0
LINE
8
0
10
291.45
20
-125.3
11
284.55
21
-125.3
0
LINE
8
0
10
284.55
20
-125.3
11
284.55
21
-132.2
0
LINE
8
0
10
284.55
20
-115.2
11
291.45
21
-115.2
0
LINE
8
0
10
291.45
20
-115.2
11
291.45
21
-108.3
0
LINE
8
0
10
291.45
20
-108.3
11
284.55
21
-108.3
0
LINE
8
0
10
284.55
20
-108.3
11
284.55
21
-115.2
0
LINE
8
0
10
284.55
20
-98.2
11
291.45
21
-98.2
0
LINE
8
0
10
291.45
20
-98.2
11
291.45
21
-91.3
0
LINE
8
0
10
291.45
20
-91.3
11
284.55
21
-91.3
0
LINE
8
0
10
284.55
20
-91.3
11
284.55
21
-98.2
0
LINE
8
0
10
284.55
20
-81.2
11
291.45
21
-81.2
0
LINE
8
0
10
291.45
20
-81.2
11
291.45
21
-74.3
0
LINE
8
0
10
291.45
20
-74.3
11
284.55
21
-74.3
0
LINE
8
0
10
284.55
20
-74.3
11
284.55
21
-81.2
0
LINE
8
0
10
267.55
20
-137.98
11
274.45
21
-137.98
0
LINE
8
0
10
274.45
20
-137.98
11
274.45
21
-131.08
0
LINE
8
0
10
274.45
20
-131.08
11
267.55
21
-131.08
0
LINE
8
0
10
267.55
20
-131.08
11
267.55
21
-137.98
0
LINE
8
0
10
267.55
20
-120.98
11
274.45
21
-120.98
0
LINE
8
0
10
274.45
20
-120.98
11
274.45
21
-114.08
0
LINE
8
0
10
274.45
20
-114.08
11
267.55
21
-114.08
0
LINE
8
0
10
267.55
20
-114.08
11
267.55
21
-120.98
0
LINE
8
0
10
267.55
20
-103.98
11
274.45
21
-103.98
0
LINE
8
0
10
274.45
20
-103.98
11
274.45
21
-97.08
0
LINE
8
0
10
274.45
20
-97.08
11
267.55
21
-97.08
0
LINE
8
0
10
267.55
20
-97.08
11
267.55
21
-103.98
0
LINE
8
0
10
267.55
20
-86.98
11
274.45
21
-86.98
0
LINE
8
0
10
274.45
20
-86.98
11
274.45
21
-80.08
0
LINE
8
0
10
274.45
20
-80.08
11
267.55
21
-80.08
0
LINE
8
0
10
267.55
20
-80.08
11
267.55
21
-86.98
0
LINE
8
0
10
267.55
20
-69.98
11
274.45
21
-69.98
0
LINE
8
0
10
274.45
20
-69.98
11
274.45
21
-63.08
0
LINE
8
0
10
274.45
20
-63.08
11
267.55
21
-63.08
0
LINE
8
0
10
267.55
20
-63.08
11
267.55
21
-69.98
0
LINE
8
0
10
250.55
20
-125.23
11
257.45
21
-125.23
0
LINE
8
0
10
257.45
20
-125.23
11
257.45
21
-118.33
0
LINE
8
0
10
257.45
20
-118.33
11
250.55
21
-118.33
0
LINE
8
0
10
250.55
20
-118.33
11
250.55
21
-125.23
0
LINE
8
0
10
250.55
20
-108.23
11
257.45
21
-108.23
0
LINE
8
0
10
257.45
20
-108.23
11
257.45
21
-101.33
0
LINE
8
0
10
257.45
20
-101.33
11
250.55
21
-101.33
0
LINE
8
0
10
250.55
20
-101.33
11
250.55
21
-108.23
0
LINE
8
0
10
250.55
20
-91.23
11
257.45
21
-91.23
0
LINE
8
0
10
257.45
20
-91.23
11
257.45
21
-84.33
0
LINE
8
0
10
257.45
20
-84.33
11
250.55
21
-84.33
0
LINE
8
0
10
250.55
20
-84.33
11
250.55
21
-91.23
0
LINE
8
0
10
250.55
20
-74.23
11
257.45
21
-74.23
0
LINE
8
0
10
257.45
20
-74.23
11
257.45
21
-67.33
0
LINE
8
0
10
257.45
20
-67.33
11
250.55
21
-67.33
0
LINE
8
0
10
250.55
20
-67.33
11
250.55
21
-74.23
0
LINE
8
0
10
233.55
20
-127.78
11
240.45
21
-127.78
0
LINE
8
0
10
240.45
20
-127.78
11
240.45
21
-120.88
0
LINE
8
0
10
240.45
20
-120.88
11
233.55
21
-120.88
0
LINE
8
0
10
233.55
20
-120.88
11
233.55
21
-127.78
0
LINE
8
0
10
233.55
20
-110.78
11
240.45
21
-110.78
0
LINE
8
0
10
240.45
20
-110.78
11
240.45
21
-103.88
0
LINE
8
0
10
240.45
20
-103.88
11
233.55
21
-103.88
0
LINE
8
0
10
233.55
20
-103.88
11
233.55
21
-110.78
0
LINE
8
0
10
233.55
20
-93.78
11
240.45
21
-93.78
0
LINE
8
0
10
240.45
20
-93.78
11
240.45
21
-86.88
0
LINE
8
0
10
240.45
20
-86.88
11
233.55
21
-86.88
0
LINE
8
0
10
233.55
20
-86.88
11
233.55
21
-93.78
0
LINE
8
0
10
233.55
20
-76.78
11
240.45
21
-76.78
0
LINE
8
0
10
240.45
20
-76.78
11
240.45
21
-69.88
0
LINE
8
0
10
240.45
20
-69.88
11
233.55
21
-69.88
0
LINE
8
0
10
233.55
20
-69.88
11
233.55
21
-76.78
0
LINE
8
0
10
216.55
20
-131.18
11
223.45
21
-131.18
0
LINE
8
0
10
223.45
20
-131.18
11
223.45
21
-124.28
0
LINE
8
0
10
223.45
20
-124.28
11
216.55
21
-124.28
0
LINE
8
0
10
216.55
20
-124.28
11
216.55
21
-131.18
0
LINE
8
0
10
216.55
20
-114.18
11
223.45
21
-114.18
0
LINE
8
0
10
223.45
20
-114.18
11
223.45
21
-107.28
0
LINE
8
0
10
223.45
20
-107.28
11
216.55
21
-107.28
0
LINE
8
0
10
216.55
20
-107.28
11
216.55
21
-114.18
0
LINE
8
0
10
216.55
20
-97.18
11
223.45
21
-97.18
0
LINE
8
0
10
223.45
20
-97.18
11
223.45
21
-90.28
0
LINE
8
0
10
223.45
20
-90.28
11
216.55
21
-90.28
0
LINE
8
0
10
216.55
20
-90.28
11
216.55
21
-97.18
0
LINE
8
0
10
216.55
20
-80.18
11
223.45
21
-80.18
0
LINE
8
0
10
223.45
20
-80.18
11
223.45
21
-73.28
0
LINE
8
0
10
223.45
20
-73.28
11
216.55
21
-73.28
0
LINE
8
0
10
216.55
20
-73.28
11
216.55
21
-80.18
0
LINE
8
0
10
199.55
20
-127.78
11
206.45
21
-127.78
0
LINE
8
0
10
206.45
20
-127.78
11
206.45
21
-120.88
0
LINE
8
0
10
206.45
20
-120.88
11
199.55
21
-120.88
0
LINE
8
0
10
199.55
20
-120.88
11
199.55
21
-127.78
0
LINE
8
0
10
199.55
20
-110.78
11
206.45
21
-110.78
0
LINE
8
0
10
206.45
20
-110.78
11
206.45
21
-103.88
0
LINE
8
0
10
206.45
20
-103.88
11
199.55
21
-103.88
0
LINE
8
0
10
199.55
20
-103.88
11
199.55
21
-110.78
0
LINE
8
0
10
199.55
20
-93.78
11
206.45
21
-93.78
0
LINE
8
0
10
206.45
20
-93.78
11
206.45
21
-86.88
0
LINE
8
0
10
206.45
20
-86.88
11
199.55
21
-86.88
0
LINE
8
0
10
199.55
20
-86.88
11
199.55
21
-93.78
0
LINE
8
0
10
228.4214995
20
-148.726673
11
235.216673
21
-147.5285005
0
LINE
8
0
10
235.216673
20
-147.5285005
11
234.0185005
21
-140.733327
0
LINE
8
0
10
234.0185005
20
-140.733327
11
227.223327
21
-141.9314995
0
LINE
8
0
10
227.223327
20
-141.9314995
11
228.4214995
21
-148.726673
0
LINE
8
0
10
211.3605433
20
-155.0503093
11
217.6140671
21
-152.1342433
0
LINE
8
0
10
217.6140671
20
-152.1342433
11
214.6980011
21
-145.8807195
0
LINE
8
0
10
214.6980011
20
-145.8807195
11
208.4444773
21
-148.7967855
0
LINE
8
0
10
208.4444773
20
-148.7967855
11
211.3605433
21
-155.0503093
0
LINE
8
0
10
196.0439077
20
-163.3629575
11
202.0194829
21
-159.9129575
0
LINE
8
0
10
202.0194829
20
-159.9129575
11
198.5694829
21
-153.9373823
0
LINE
8
0
10
198.5694829
20
-153.9373823
11
192.5939077
21
-157.3873823
0
LINE
8
0
10
192.5939077
20
-157.3873823
11
196.0439077
21
-163.3629575
0
ENDSEC
0
EOF