M48
; DRILL file {KiCad 9.0.7+1} date 2026-02-15T05:04:03+0000
; FORMAT={-:-/ absolute / metric / decimal}
; #@! TF.CreationDate,2026-02-15T05:04:03+00:00
; #@! TF.GenerationSoftware,Kicad,Pcbnew,9.0.7+1
; #@! TF.FileFunction,Plated,1,2,PTH
FMAT,2
METRIC
; #@! TA.AperFunction,Plated,PTH,ComponentDrill
T1C0.750
; #@! TA.AperFunction,Plated,PTH,ComponentDrill
T2C1.000
; #@! TA.AperFunction,Plated,PTH,ComponentDrill
T3C1.600
%
G90
G05
T1
X114.0Y-56.77
X114.0Y-58.77
T2
X69.05Y-40.15
X69.05Y-55.39
X71.59Y-40.15
X71.59Y-55.39
X74.13Y-40.15
X74.13Y-55.39
X76.67Y-40.15
X76.67Y-55.39
X79.21Y-40.15
X79.21Y-55.39
X81.75Y-40.15
X81.75Y-55.39
X84.29Y-40.15
X84.29Y-55.39
X86.83Y-40.15
X86.83Y-55.39
X89.37Y-40.15
X89.37Y-55.39
X91.91Y-40.15
X91.91Y-55.39
X94.45Y-40.15
X94.45Y-42.69
X94.45Y-45.23
X94.45Y-47.77
X94.45Y-55.39
X96.99Y-40.15
X96.99Y-55.39
T3
X40.0Y-76.85
X40.0Y-93.85
X40.0Y-110.85
X40.0Y-127.85
X57.0Y-72.6
X57.0Y-89.6
X57.0Y-106.6
X57.0Y-123.6
X57.0Y-140.6
X74.0Y-61.38
X74.0Y-78.38
X74.0Y-95.38
X74.0Y-112.38
X74.0Y-129.38
X91.0Y-65.63
X91.0Y-82.63
X91.0Y-99.63
X91.0Y-116.63
X108.0Y-68.18
X108.0Y-85.18
X108.0Y-102.18
X108.0Y-119.18
X114.598Y-140.526
X125.0Y-71.58
X125.0Y-88.58
X125.0Y-105.58
X125.0Y-122.58
X133.679Y-147.911
X142.0Y-85.18
X142.0Y-102.18
X142.0Y-119.18
X149.598Y-156.69
M30
