G04 #@! TF.GenerationSoftware,KiCad,Pcbnew,9.0.7+1*
G04 #@! TF.CreationDate,2026-02-15T03:01:43+00:00*
G04 #@! TF.ProjectId,left_pcb,6c656674-5f70-4636-922e-6b696361645f,v0.2*
G04 #@! TF.SameCoordinates,Original*
G04 #@! TF.FileFunction,Profile,NP*
%FSLAX46Y46*%
G04 Gerber Fmt 4.6, Leading zero omitted, Abs format (unit mm)*
G04 Created by KiCad (PCBNEW 9.0.7+1) date 2026-02-15 03:01:43*
%MOMM*%
%LPD*%
G01*
G04 APERTURE LIST*
G04 #@! TA.AperFunction,Profile*
%ADD10C,0.150000*%
G04 #@! TD*
G04 APERTURE END LIST*
D10*
X64750000Y-55530000D02*
X61000000Y-55530000D01*
X58000000Y-58530000D02*
X58000000Y-66750000D01*
X24000000Y-125000000D02*
G75*
G02*
X24041957Y-124500000I3000200J0D01*
G01*
X41000000Y-71000000D02*
X27000000Y-71000000D01*
X24000000Y-125000000D02*
X24000000Y-141000000D01*
X64750000Y-40770000D02*
G75*
G02*
X67750000Y-37770000I3000000J0D01*
G01*
X24000000Y-74000000D02*
G75*
G02*
X27000000Y-71000000I3000000J0D01*
G01*
X147958040Y-98830000D02*
G75*
G02*
X148000006Y-99330000I-2957640J-500000D01*
G01*
X129938504Y-163958193D02*
G75*
G02*
X129572387Y-163815851I902096J2862293D01*
G01*
X148219584Y-171078373D02*
G75*
G02*
X144121498Y-172176467I-2598084J1499973D01*
G01*
X114918093Y-156977022D02*
G75*
G02*
X114748332Y-156952070I351007J2978022D01*
G01*
X145000000Y-79330000D02*
X131000000Y-79330000D01*
X64750000Y-40770000D02*
X64750000Y-55530000D01*
X115000000Y-52770000D02*
X114750000Y-52770000D01*
X24041960Y-107500000D02*
G75*
G02*
X23999994Y-107000000I2957640J500000D01*
G01*
X131000000Y-135730000D02*
G75*
G02*
X128000000Y-138730000I-3000000J0D01*
G01*
X24000000Y-108000000D02*
X24000000Y-124000000D01*
X131000000Y-79330000D02*
X131000000Y-68730000D01*
X148000000Y-132330000D02*
X148000000Y-116330000D01*
X139949302Y-144727627D02*
G75*
G02*
X141265097Y-145123899I-184202J-2994273D01*
G01*
X147958040Y-115830000D02*
G75*
G02*
X148000006Y-116330000I-2957640J-500000D01*
G01*
X80000000Y-142530000D02*
G75*
G02*
X77000000Y-145530000I-3000000J0D01*
G01*
X115071465Y-157053954D02*
X129572389Y-163815846D01*
X44000000Y-156750000D02*
G75*
G02*
X41000000Y-153750000I0J3000000D01*
G01*
X41000000Y-69750000D02*
X41000000Y-71000000D01*
X63000000Y-153750000D02*
X63000000Y-145530000D01*
X58000000Y-58530000D02*
G75*
G02*
X61000000Y-55530000I3000000J0D01*
G01*
X41000000Y-69750000D02*
G75*
G02*
X44000000Y-66750000I3000000J0D01*
G01*
X148000000Y-98330000D02*
G75*
G02*
X147958043Y-98830000I-3000200J0D01*
G01*
X24041960Y-124500000D02*
G75*
G02*
X23999994Y-124000000I2957640J500000D01*
G01*
X98991408Y-154173700D02*
X114748332Y-156952071D01*
X41000000Y-144000000D02*
X41000000Y-153750000D01*
X138869991Y-143877075D02*
X127832053Y-138730000D01*
X148219584Y-171078373D02*
X156219584Y-157221967D01*
X118000000Y-65730000D02*
X118000000Y-55770000D01*
X99267781Y-135330000D02*
X96557929Y-150698332D01*
X114750000Y-52770000D02*
X114750000Y-40770000D01*
X95000000Y-135330000D02*
X99267781Y-135330000D01*
X98991408Y-154173700D02*
G75*
G02*
X96557960Y-150698337I521092J2954500D01*
G01*
X148000000Y-115330000D02*
X148000000Y-99330000D01*
X131000000Y-135730000D02*
X131000000Y-135330000D01*
X27000000Y-144000000D02*
X41000000Y-144000000D01*
X27000000Y-144000000D02*
G75*
G02*
X24000000Y-141000000I0J3000000D01*
G01*
X130265101Y-164176449D02*
G75*
G02*
X129938503Y-163958194I1500299J2598549D01*
G01*
X24000000Y-108000000D02*
G75*
G02*
X24041957Y-107500000I3000200J0D01*
G01*
X127832053Y-138730000D02*
X128000000Y-138730000D01*
X63000000Y-153750000D02*
G75*
G02*
X60000000Y-156750000I-3000000J0D01*
G01*
X80000000Y-132780000D02*
X92033942Y-132780000D01*
X131000000Y-135330000D02*
X145000000Y-135330000D01*
X58000000Y-66750000D02*
X44000000Y-66750000D01*
X24000000Y-91000000D02*
G75*
G02*
X24041957Y-90500000I3000200J0D01*
G01*
X24000000Y-91000000D02*
X24000000Y-107000000D01*
X95000000Y-135330000D02*
G75*
G02*
X92033942Y-132780000I0J3000000D01*
G01*
X148000000Y-115330000D02*
G75*
G02*
X147958043Y-115830000I-3000200J0D01*
G01*
X44000000Y-156750000D02*
X60000000Y-156750000D01*
X111750000Y-37770000D02*
G75*
G02*
X114750000Y-40770000I0J-3000000D01*
G01*
X155121508Y-153123890D02*
G75*
G02*
X156219653Y-157222007I-1499908J-2598110D01*
G01*
X128000000Y-65730000D02*
G75*
G02*
X131000000Y-68730000I0J-3000000D01*
G01*
X148000000Y-132330000D02*
G75*
G02*
X145000000Y-135330000I-3000000J0D01*
G01*
X24000000Y-74000000D02*
X24000000Y-90000000D01*
X138869991Y-143877075D02*
G75*
G02*
X139949309Y-144727622I-1267991J-2719125D01*
G01*
X115071465Y-157053954D02*
G75*
G02*
X114918093Y-156977020I1265735J2714654D01*
G01*
X148000000Y-98330000D02*
X148000000Y-82330000D01*
X24041960Y-90500000D02*
G75*
G02*
X23999994Y-90000000I2957640J500000D01*
G01*
X155121508Y-153123891D02*
X141265102Y-145123891D01*
X63000000Y-145530000D02*
X77000000Y-145530000D01*
X130265101Y-164176449D02*
X144121508Y-172176449D01*
X111750000Y-37770000D02*
X67750000Y-37770000D01*
X80000000Y-142530000D02*
X80000000Y-132780000D01*
X145000000Y-79330000D02*
G75*
G02*
X148000000Y-82330000I0J-3000000D01*
G01*
X128000000Y-65730000D02*
X118000000Y-65730000D01*
X115000000Y-52770000D02*
G75*
G02*
X118000000Y-55770000I0J-3000000D01*
G01*
M02*
