%TF.GenerationSoftware,KiCad,Pcbnew,9.0.7+1*%
%TF.CreationDate,2026-02-15T05:04:03+00:00*%
%TF.ProjectId,left_pcb,6c656674-5f70-4636-922e-6b696361645f,v0.2*%
%TF.SameCoordinates,Original*%
%TF.FileFunction,Drillmap*%
%TF.FilePolarity,Positive*%
%FSLAX45Y45*%
G04 Gerber Fmt 4.5, Leading zero omitted, Abs format (unit mm)*
G04 Created by KiCad (PCBNEW 9.0.7+1) date 2026-02-15 05:04:03*
%MOMM*%
%LPD*%
G01*
G04 APERTURE LIST*
%ADD10C,0.150000*%
%ADD11C,0.200000*%
%ADD12C,0.100000*%
%ADD13C,0.160000*%
G04 APERTURE END LIST*
D10*
X2700000Y-14400000D02*
X4100000Y-14400000D01*
X2400000Y-12500000D02*
G75*
G02*
X2404196Y-12450000I299990J0D01*
G01*
X2400000Y-12500000D02*
X2400000Y-14100000D01*
X2700000Y-14400000D02*
G75*
G02*
X2400000Y-14100000I0J300000D01*
G01*
X2400000Y-10800000D02*
G75*
G02*
X2404196Y-10750000I299990J0D01*
G01*
X2400000Y-10800000D02*
X2400000Y-12400000D01*
X2404196Y-12450000D02*
G75*
G02*
X2400000Y-12400000I295794J50000D01*
G01*
X2400000Y-9100000D02*
G75*
G02*
X2404196Y-9050000I299990J0D01*
G01*
X2400000Y-9100000D02*
X2400000Y-10700000D01*
X2404196Y-10750000D02*
G75*
G02*
X2400000Y-10700000I295794J50000D01*
G01*
X4100000Y-7100000D02*
X2700000Y-7100000D01*
X2400000Y-7400000D02*
G75*
G02*
X2700000Y-7100000I300000J0D01*
G01*
X2400000Y-7400000D02*
X2400000Y-9000000D01*
X2404196Y-9050000D02*
G75*
G02*
X2400000Y-9000000I295794J50000D01*
G01*
X4400000Y-15675000D02*
X6000000Y-15675000D01*
X6300000Y-15375000D02*
G75*
G02*
X6000000Y-15675000I-300000J0D01*
G01*
X6300000Y-15375000D02*
X6300000Y-14553000D01*
X4100000Y-14400000D02*
X4100000Y-15375000D01*
X4400000Y-15675000D02*
G75*
G02*
X4100000Y-15375000I0J300000D01*
G01*
X5800000Y-6675000D02*
X4400000Y-6675000D01*
X4100000Y-6975000D02*
G75*
G02*
X4400000Y-6675000I300000J0D01*
G01*
X4100000Y-6975000D02*
X4100000Y-7100000D01*
X6300000Y-14553000D02*
X7700000Y-14553000D01*
X8000000Y-14253000D02*
G75*
G02*
X7700000Y-14553000I-300000J0D01*
G01*
X8000000Y-14253000D02*
X8000000Y-13278000D01*
X6475000Y-5553000D02*
X6100000Y-5553000D01*
X5800000Y-5853000D02*
G75*
G02*
X6100000Y-5553000I300000J0D01*
G01*
X5800000Y-5853000D02*
X5800000Y-6675000D01*
X8000000Y-13278000D02*
X9203394Y-13278000D01*
X9500000Y-13533000D02*
X9926778Y-13533000D01*
X9500000Y-13533000D02*
G75*
G02*
X9203394Y-13278000I0J300000D01*
G01*
X12783205Y-13873000D02*
X12800000Y-13873000D01*
X13100000Y-13573000D02*
G75*
G02*
X12800000Y-13873000I-300000J0D01*
G01*
X13100000Y-13573000D02*
X13100000Y-13533000D01*
X13100000Y-7933000D02*
X13100000Y-6873000D01*
X12800000Y-6573000D02*
G75*
G02*
X13100000Y-6873000I0J-300000D01*
G01*
X12800000Y-6573000D02*
X11800000Y-6573000D01*
X13100000Y-13533000D02*
X14500000Y-13533000D01*
X14800000Y-13233000D02*
G75*
G02*
X14500000Y-13533000I-300000J0D01*
G01*
X14800000Y-13233000D02*
X14800000Y-11633000D01*
X14795804Y-11583000D02*
G75*
G02*
X14800000Y-11633000I-295794J-50000D01*
G01*
X14800000Y-11533000D02*
G75*
G02*
X14795804Y-11583000I-299990J0D01*
G01*
X14800000Y-11533000D02*
X14800000Y-9933000D01*
X14795804Y-9883000D02*
G75*
G02*
X14800000Y-9933000I-295794J-50000D01*
G01*
X14800000Y-9833000D02*
G75*
G02*
X14795804Y-9883000I-299990J0D01*
G01*
X14800000Y-9833000D02*
X14800000Y-8233000D01*
X14500000Y-7933000D02*
G75*
G02*
X14800000Y-8233000I0J-300000D01*
G01*
X14500000Y-7933000D02*
X13100000Y-7933000D01*
X9899141Y-15417370D02*
X11474833Y-15695207D01*
X11491809Y-15697702D02*
G75*
G02*
X11474833Y-15695207I35131J298042D01*
G01*
X9926778Y-13533000D02*
X9655793Y-15069833D01*
X9899141Y-15417370D02*
G75*
G02*
X9655799Y-15069834I52099J295440D01*
G01*
X11507146Y-15705395D02*
X12957239Y-16381585D01*
X12993850Y-16395819D02*
G75*
G02*
X12957239Y-16381584I90180J286129D01*
G01*
X13886999Y-14387707D02*
G75*
G02*
X13994929Y-14472763I-126789J-271893D01*
G01*
X13886999Y-14387707D02*
X12783205Y-13873000D01*
X11507146Y-15705395D02*
G75*
G02*
X11491809Y-15697702I126714J271755D01*
G01*
X13026510Y-16417645D02*
X14412151Y-17217645D01*
X14821958Y-17107837D02*
G75*
G02*
X14412150Y-17217647I-259808J149997D01*
G01*
X14821958Y-17107837D02*
X15621958Y-15722197D01*
X15512151Y-15312389D02*
G75*
G02*
X15621962Y-15722199I-150001J-259811D01*
G01*
X15512151Y-15312389D02*
X14126510Y-14512389D01*
X13994930Y-14472763D02*
G75*
G02*
X14126510Y-14512389I-18420J-299437D01*
G01*
X13026510Y-16417645D02*
G75*
G02*
X12993850Y-16395819I150000J259805D01*
G01*
X11475000Y-5277000D02*
X11475000Y-4077000D01*
X11175000Y-3777000D02*
G75*
G02*
X11475000Y-4077000I0J-300000D01*
G01*
X11175000Y-3777000D02*
X6775000Y-3777000D01*
X6475000Y-4077000D02*
G75*
G02*
X6775000Y-3777000I300000J0D01*
G01*
X6475000Y-4077000D02*
X6475000Y-5553000D01*
X11800000Y-6573000D02*
X11800000Y-5577000D01*
X11500000Y-5277000D02*
G75*
G02*
X11800000Y-5577000I0J-300000D01*
G01*
X11500000Y-5277000D02*
X11475000Y-5277000D01*
D11*
D12*
X11362500Y-5639500D02*
X11437500Y-5714500D01*
X11437500Y-5639500D02*
X11362500Y-5714500D01*
X11362500Y-5839500D02*
X11437500Y-5914500D01*
X11437500Y-5839500D02*
X11362500Y-5914500D01*
X6955000Y-4015000D02*
G75*
G02*
X6855000Y-4015000I-50000J0D01*
G01*
X6855000Y-4015000D02*
G75*
G02*
X6955000Y-4015000I50000J0D01*
G01*
X6955000Y-5539000D02*
G75*
G02*
X6855000Y-5539000I-50000J0D01*
G01*
X6855000Y-5539000D02*
G75*
G02*
X6955000Y-5539000I50000J0D01*
G01*
X7209000Y-4015000D02*
G75*
G02*
X7109000Y-4015000I-50000J0D01*
G01*
X7109000Y-4015000D02*
G75*
G02*
X7209000Y-4015000I50000J0D01*
G01*
X7209000Y-5539000D02*
G75*
G02*
X7109000Y-5539000I-50000J0D01*
G01*
X7109000Y-5539000D02*
G75*
G02*
X7209000Y-5539000I50000J0D01*
G01*
X7463000Y-4015000D02*
G75*
G02*
X7363000Y-4015000I-50000J0D01*
G01*
X7363000Y-4015000D02*
G75*
G02*
X7463000Y-4015000I50000J0D01*
G01*
X7463000Y-5539000D02*
G75*
G02*
X7363000Y-5539000I-50000J0D01*
G01*
X7363000Y-5539000D02*
G75*
G02*
X7463000Y-5539000I50000J0D01*
G01*
X7717000Y-4015000D02*
G75*
G02*
X7617000Y-4015000I-50000J0D01*
G01*
X7617000Y-4015000D02*
G75*
G02*
X7717000Y-4015000I50000J0D01*
G01*
X7717000Y-5539000D02*
G75*
G02*
X7617000Y-5539000I-50000J0D01*
G01*
X7617000Y-5539000D02*
G75*
G02*
X7717000Y-5539000I50000J0D01*
G01*
X7971000Y-4015000D02*
G75*
G02*
X7871000Y-4015000I-50000J0D01*
G01*
X7871000Y-4015000D02*
G75*
G02*
X7971000Y-4015000I50000J0D01*
G01*
X7971000Y-5539000D02*
G75*
G02*
X7871000Y-5539000I-50000J0D01*
G01*
X7871000Y-5539000D02*
G75*
G02*
X7971000Y-5539000I50000J0D01*
G01*
X8225000Y-4015000D02*
G75*
G02*
X8125000Y-4015000I-50000J0D01*
G01*
X8125000Y-4015000D02*
G75*
G02*
X8225000Y-4015000I50000J0D01*
G01*
X8225000Y-5539000D02*
G75*
G02*
X8125000Y-5539000I-50000J0D01*
G01*
X8125000Y-5539000D02*
G75*
G02*
X8225000Y-5539000I50000J0D01*
G01*
X8479000Y-4015000D02*
G75*
G02*
X8379000Y-4015000I-50000J0D01*
G01*
X8379000Y-4015000D02*
G75*
G02*
X8479000Y-4015000I50000J0D01*
G01*
X8479000Y-5539000D02*
G75*
G02*
X8379000Y-5539000I-50000J0D01*
G01*
X8379000Y-5539000D02*
G75*
G02*
X8479000Y-5539000I50000J0D01*
G01*
X8733000Y-4015000D02*
G75*
G02*
X8633000Y-4015000I-50000J0D01*
G01*
X8633000Y-4015000D02*
G75*
G02*
X8733000Y-4015000I50000J0D01*
G01*
X8733000Y-5539000D02*
G75*
G02*
X8633000Y-5539000I-50000J0D01*
G01*
X8633000Y-5539000D02*
G75*
G02*
X8733000Y-5539000I50000J0D01*
G01*
X8987000Y-4015000D02*
G75*
G02*
X8887000Y-4015000I-50000J0D01*
G01*
X8887000Y-4015000D02*
G75*
G02*
X8987000Y-4015000I50000J0D01*
G01*
X8987000Y-5539000D02*
G75*
G02*
X8887000Y-5539000I-50000J0D01*
G01*
X8887000Y-5539000D02*
G75*
G02*
X8987000Y-5539000I50000J0D01*
G01*
X9241000Y-4015000D02*
G75*
G02*
X9141000Y-4015000I-50000J0D01*
G01*
X9141000Y-4015000D02*
G75*
G02*
X9241000Y-4015000I50000J0D01*
G01*
X9241000Y-5539000D02*
G75*
G02*
X9141000Y-5539000I-50000J0D01*
G01*
X9141000Y-5539000D02*
G75*
G02*
X9241000Y-5539000I50000J0D01*
G01*
X9495000Y-4015000D02*
G75*
G02*
X9395000Y-4015000I-50000J0D01*
G01*
X9395000Y-4015000D02*
G75*
G02*
X9495000Y-4015000I50000J0D01*
G01*
X9495000Y-4269000D02*
G75*
G02*
X9395000Y-4269000I-50000J0D01*
G01*
X9395000Y-4269000D02*
G75*
G02*
X9495000Y-4269000I50000J0D01*
G01*
X9495000Y-4523000D02*
G75*
G02*
X9395000Y-4523000I-50000J0D01*
G01*
X9395000Y-4523000D02*
G75*
G02*
X9495000Y-4523000I50000J0D01*
G01*
X9495000Y-4777000D02*
G75*
G02*
X9395000Y-4777000I-50000J0D01*
G01*
X9395000Y-4777000D02*
G75*
G02*
X9495000Y-4777000I50000J0D01*
G01*
X9495000Y-5539000D02*
G75*
G02*
X9395000Y-5539000I-50000J0D01*
G01*
X9395000Y-5539000D02*
G75*
G02*
X9495000Y-5539000I50000J0D01*
G01*
X9749000Y-4015000D02*
G75*
G02*
X9649000Y-4015000I-50000J0D01*
G01*
X9649000Y-4015000D02*
G75*
G02*
X9749000Y-4015000I50000J0D01*
G01*
X9749000Y-5539000D02*
G75*
G02*
X9649000Y-5539000I-50000J0D01*
G01*
X9649000Y-5539000D02*
G75*
G02*
X9749000Y-5539000I50000J0D01*
G01*
D13*
X4000000Y-7605000D02*
X4000000Y-7765000D01*
X3920000Y-7685000D02*
X4080000Y-7685000D01*
X4000000Y-9305000D02*
X4000000Y-9465000D01*
X3920000Y-9385000D02*
X4080000Y-9385000D01*
X4000000Y-11005000D02*
X4000000Y-11165000D01*
X3920000Y-11085000D02*
X4080000Y-11085000D01*
X4000000Y-12705000D02*
X4000000Y-12865000D01*
X3920000Y-12785000D02*
X4080000Y-12785000D01*
X5700000Y-7180000D02*
X5700000Y-7340000D01*
X5620000Y-7260000D02*
X5780000Y-7260000D01*
X5700000Y-8880000D02*
X5700000Y-9040000D01*
X5620000Y-8960000D02*
X5780000Y-8960000D01*
X5700000Y-10580000D02*
X5700000Y-10740000D01*
X5620000Y-10660000D02*
X5780000Y-10660000D01*
X5700000Y-12280000D02*
X5700000Y-12440000D01*
X5620000Y-12360000D02*
X5780000Y-12360000D01*
X5700000Y-13980000D02*
X5700000Y-14140000D01*
X5620000Y-14060000D02*
X5780000Y-14060000D01*
X7400000Y-6058000D02*
X7400000Y-6218000D01*
X7320000Y-6138000D02*
X7480000Y-6138000D01*
X7400000Y-7758000D02*
X7400000Y-7918000D01*
X7320000Y-7838000D02*
X7480000Y-7838000D01*
X7400000Y-9458000D02*
X7400000Y-9618000D01*
X7320000Y-9538000D02*
X7480000Y-9538000D01*
X7400000Y-11158000D02*
X7400000Y-11318000D01*
X7320000Y-11238000D02*
X7480000Y-11238000D01*
X7400000Y-12858000D02*
X7400000Y-13018000D01*
X7320000Y-12938000D02*
X7480000Y-12938000D01*
X9100000Y-6483000D02*
X9100000Y-6643000D01*
X9020000Y-6563000D02*
X9180000Y-6563000D01*
X9100000Y-8183000D02*
X9100000Y-8343000D01*
X9020000Y-8263000D02*
X9180000Y-8263000D01*
X9100000Y-9883000D02*
X9100000Y-10043000D01*
X9020000Y-9963000D02*
X9180000Y-9963000D01*
X9100000Y-11583000D02*
X9100000Y-11743000D01*
X9020000Y-11663000D02*
X9180000Y-11663000D01*
X10800000Y-6738000D02*
X10800000Y-6898000D01*
X10720000Y-6818000D02*
X10880000Y-6818000D01*
X10800000Y-8438000D02*
X10800000Y-8598000D01*
X10720000Y-8518000D02*
X10880000Y-8518000D01*
X10800000Y-10138000D02*
X10800000Y-10298000D01*
X10720000Y-10218000D02*
X10880000Y-10218000D01*
X10800000Y-11838000D02*
X10800000Y-11998000D01*
X10720000Y-11918000D02*
X10880000Y-11918000D01*
X11459833Y-13972648D02*
X11459833Y-14132648D01*
X11379833Y-14052648D02*
X11539833Y-14052648D01*
X12500000Y-7078000D02*
X12500000Y-7238000D01*
X12420000Y-7158000D02*
X12580000Y-7158000D01*
X12500000Y-8778000D02*
X12500000Y-8938000D01*
X12420000Y-8858000D02*
X12580000Y-8858000D01*
X12500000Y-10478000D02*
X12500000Y-10638000D01*
X12420000Y-10558000D02*
X12580000Y-10558000D01*
X12500000Y-12178000D02*
X12500000Y-12338000D01*
X12420000Y-12258000D02*
X12580000Y-12258000D01*
X13367875Y-14711112D02*
X13367875Y-14871112D01*
X13287875Y-14791112D02*
X13447875Y-14791112D01*
X14200000Y-8438000D02*
X14200000Y-8598000D01*
X14120000Y-8518000D02*
X14280000Y-8518000D01*
X14200000Y-10138000D02*
X14200000Y-10298000D01*
X14120000Y-10218000D02*
X14280000Y-10218000D01*
X14200000Y-11838000D02*
X14200000Y-11998000D01*
X14120000Y-11918000D02*
X14280000Y-11918000D01*
X14959843Y-15589014D02*
X14959843Y-15749014D01*
X14879843Y-15669014D02*
X15039843Y-15669014D01*
D11*
X2653277Y-17576823D02*
X2653277Y-17376823D01*
X2653277Y-17376823D02*
X2700896Y-17376823D01*
X2700896Y-17376823D02*
X2729467Y-17386347D01*
X2729467Y-17386347D02*
X2748515Y-17405395D01*
X2748515Y-17405395D02*
X2758039Y-17424442D01*
X2758039Y-17424442D02*
X2767563Y-17462537D01*
X2767563Y-17462537D02*
X2767563Y-17491109D01*
X2767563Y-17491109D02*
X2758039Y-17529204D01*
X2758039Y-17529204D02*
X2748515Y-17548252D01*
X2748515Y-17548252D02*
X2729467Y-17567299D01*
X2729467Y-17567299D02*
X2700896Y-17576823D01*
X2700896Y-17576823D02*
X2653277Y-17576823D01*
X2853277Y-17576823D02*
X2853277Y-17443490D01*
X2853277Y-17481585D02*
X2862801Y-17462537D01*
X2862801Y-17462537D02*
X2872324Y-17453014D01*
X2872324Y-17453014D02*
X2891372Y-17443490D01*
X2891372Y-17443490D02*
X2910420Y-17443490D01*
X2977086Y-17576823D02*
X2977086Y-17443490D01*
X2977086Y-17376823D02*
X2967562Y-17386347D01*
X2967562Y-17386347D02*
X2977086Y-17395871D01*
X2977086Y-17395871D02*
X2986610Y-17386347D01*
X2986610Y-17386347D02*
X2977086Y-17376823D01*
X2977086Y-17376823D02*
X2977086Y-17395871D01*
X3100896Y-17576823D02*
X3081848Y-17567299D01*
X3081848Y-17567299D02*
X3072324Y-17548252D01*
X3072324Y-17548252D02*
X3072324Y-17376823D01*
X3205658Y-17576823D02*
X3186610Y-17567299D01*
X3186610Y-17567299D02*
X3177086Y-17548252D01*
X3177086Y-17548252D02*
X3177086Y-17376823D01*
X3434229Y-17576823D02*
X3434229Y-17376823D01*
X3434229Y-17376823D02*
X3500896Y-17519680D01*
X3500896Y-17519680D02*
X3567562Y-17376823D01*
X3567562Y-17376823D02*
X3567562Y-17576823D01*
X3748515Y-17576823D02*
X3748515Y-17472061D01*
X3748515Y-17472061D02*
X3738991Y-17453014D01*
X3738991Y-17453014D02*
X3719943Y-17443490D01*
X3719943Y-17443490D02*
X3681848Y-17443490D01*
X3681848Y-17443490D02*
X3662801Y-17453014D01*
X3748515Y-17567299D02*
X3729467Y-17576823D01*
X3729467Y-17576823D02*
X3681848Y-17576823D01*
X3681848Y-17576823D02*
X3662801Y-17567299D01*
X3662801Y-17567299D02*
X3653277Y-17548252D01*
X3653277Y-17548252D02*
X3653277Y-17529204D01*
X3653277Y-17529204D02*
X3662801Y-17510156D01*
X3662801Y-17510156D02*
X3681848Y-17500633D01*
X3681848Y-17500633D02*
X3729467Y-17500633D01*
X3729467Y-17500633D02*
X3748515Y-17491109D01*
X3843753Y-17443490D02*
X3843753Y-17643490D01*
X3843753Y-17453014D02*
X3862801Y-17443490D01*
X3862801Y-17443490D02*
X3900896Y-17443490D01*
X3900896Y-17443490D02*
X3919943Y-17453014D01*
X3919943Y-17453014D02*
X3929467Y-17462537D01*
X3929467Y-17462537D02*
X3938991Y-17481585D01*
X3938991Y-17481585D02*
X3938991Y-17538728D01*
X3938991Y-17538728D02*
X3929467Y-17557775D01*
X3929467Y-17557775D02*
X3919943Y-17567299D01*
X3919943Y-17567299D02*
X3900896Y-17576823D01*
X3900896Y-17576823D02*
X3862801Y-17576823D01*
X3862801Y-17576823D02*
X3843753Y-17567299D01*
X4024705Y-17557775D02*
X4034229Y-17567299D01*
X4034229Y-17567299D02*
X4024705Y-17576823D01*
X4024705Y-17576823D02*
X4015182Y-17567299D01*
X4015182Y-17567299D02*
X4024705Y-17557775D01*
X4024705Y-17557775D02*
X4024705Y-17576823D01*
X4024705Y-17453014D02*
X4034229Y-17462537D01*
X4034229Y-17462537D02*
X4024705Y-17472061D01*
X4024705Y-17472061D02*
X4015182Y-17462537D01*
X4015182Y-17462537D02*
X4024705Y-17453014D01*
X4024705Y-17453014D02*
X4024705Y-17472061D01*
D12*
X2317500Y-17867839D02*
X2392500Y-17942839D01*
X2392500Y-17867839D02*
X2317500Y-17942839D01*
D11*
X2691372Y-17796823D02*
X2710420Y-17796823D01*
X2710420Y-17796823D02*
X2729467Y-17806347D01*
X2729467Y-17806347D02*
X2738991Y-17815871D01*
X2738991Y-17815871D02*
X2748515Y-17834918D01*
X2748515Y-17834918D02*
X2758039Y-17873014D01*
X2758039Y-17873014D02*
X2758039Y-17920633D01*
X2758039Y-17920633D02*
X2748515Y-17958728D01*
X2748515Y-17958728D02*
X2738991Y-17977775D01*
X2738991Y-17977775D02*
X2729467Y-17987299D01*
X2729467Y-17987299D02*
X2710420Y-17996823D01*
X2710420Y-17996823D02*
X2691372Y-17996823D01*
X2691372Y-17996823D02*
X2672324Y-17987299D01*
X2672324Y-17987299D02*
X2662801Y-17977775D01*
X2662801Y-17977775D02*
X2653277Y-17958728D01*
X2653277Y-17958728D02*
X2643753Y-17920633D01*
X2643753Y-17920633D02*
X2643753Y-17873014D01*
X2643753Y-17873014D02*
X2653277Y-17834918D01*
X2653277Y-17834918D02*
X2662801Y-17815871D01*
X2662801Y-17815871D02*
X2672324Y-17806347D01*
X2672324Y-17806347D02*
X2691372Y-17796823D01*
X2843753Y-17977775D02*
X2853277Y-17987299D01*
X2853277Y-17987299D02*
X2843753Y-17996823D01*
X2843753Y-17996823D02*
X2834229Y-17987299D01*
X2834229Y-17987299D02*
X2843753Y-17977775D01*
X2843753Y-17977775D02*
X2843753Y-17996823D01*
X2919943Y-17796823D02*
X3053277Y-17796823D01*
X3053277Y-17796823D02*
X2967562Y-17996823D01*
X3224705Y-17796823D02*
X3129467Y-17796823D01*
X3129467Y-17796823D02*
X3119943Y-17892061D01*
X3119943Y-17892061D02*
X3129467Y-17882537D01*
X3129467Y-17882537D02*
X3148515Y-17873014D01*
X3148515Y-17873014D02*
X3196134Y-17873014D01*
X3196134Y-17873014D02*
X3215182Y-17882537D01*
X3215182Y-17882537D02*
X3224705Y-17892061D01*
X3224705Y-17892061D02*
X3234229Y-17911109D01*
X3234229Y-17911109D02*
X3234229Y-17958728D01*
X3234229Y-17958728D02*
X3224705Y-17977775D01*
X3224705Y-17977775D02*
X3215182Y-17987299D01*
X3215182Y-17987299D02*
X3196134Y-17996823D01*
X3196134Y-17996823D02*
X3148515Y-17996823D01*
X3148515Y-17996823D02*
X3129467Y-17987299D01*
X3129467Y-17987299D02*
X3119943Y-17977775D01*
X3358039Y-17796823D02*
X3377086Y-17796823D01*
X3377086Y-17796823D02*
X3396134Y-17806347D01*
X3396134Y-17806347D02*
X3405658Y-17815871D01*
X3405658Y-17815871D02*
X3415182Y-17834918D01*
X3415182Y-17834918D02*
X3424705Y-17873014D01*
X3424705Y-17873014D02*
X3424705Y-17920633D01*
X3424705Y-17920633D02*
X3415182Y-17958728D01*
X3415182Y-17958728D02*
X3405658Y-17977775D01*
X3405658Y-17977775D02*
X3396134Y-17987299D01*
X3396134Y-17987299D02*
X3377086Y-17996823D01*
X3377086Y-17996823D02*
X3358039Y-17996823D01*
X3358039Y-17996823D02*
X3338991Y-17987299D01*
X3338991Y-17987299D02*
X3329467Y-17977775D01*
X3329467Y-17977775D02*
X3319943Y-17958728D01*
X3319943Y-17958728D02*
X3310420Y-17920633D01*
X3310420Y-17920633D02*
X3310420Y-17873014D01*
X3310420Y-17873014D02*
X3319943Y-17834918D01*
X3319943Y-17834918D02*
X3329467Y-17815871D01*
X3329467Y-17815871D02*
X3338991Y-17806347D01*
X3338991Y-17806347D02*
X3358039Y-17796823D01*
X3510420Y-17996823D02*
X3510420Y-17863490D01*
X3510420Y-17882537D02*
X3519943Y-17873014D01*
X3519943Y-17873014D02*
X3538991Y-17863490D01*
X3538991Y-17863490D02*
X3567563Y-17863490D01*
X3567563Y-17863490D02*
X3586610Y-17873014D01*
X3586610Y-17873014D02*
X3596134Y-17892061D01*
X3596134Y-17892061D02*
X3596134Y-17996823D01*
X3596134Y-17892061D02*
X3605658Y-17873014D01*
X3605658Y-17873014D02*
X3624705Y-17863490D01*
X3624705Y-17863490D02*
X3653277Y-17863490D01*
X3653277Y-17863490D02*
X3672324Y-17873014D01*
X3672324Y-17873014D02*
X3681848Y-17892061D01*
X3681848Y-17892061D02*
X3681848Y-17996823D01*
X3777086Y-17996823D02*
X3777086Y-17863490D01*
X3777086Y-17882537D02*
X3786610Y-17873014D01*
X3786610Y-17873014D02*
X3805658Y-17863490D01*
X3805658Y-17863490D02*
X3834229Y-17863490D01*
X3834229Y-17863490D02*
X3853277Y-17873014D01*
X3853277Y-17873014D02*
X3862801Y-17892061D01*
X3862801Y-17892061D02*
X3862801Y-17996823D01*
X3862801Y-17892061D02*
X3872324Y-17873014D01*
X3872324Y-17873014D02*
X3891372Y-17863490D01*
X3891372Y-17863490D02*
X3919943Y-17863490D01*
X3919943Y-17863490D02*
X3938991Y-17873014D01*
X3938991Y-17873014D02*
X3948515Y-17892061D01*
X3948515Y-17892061D02*
X3948515Y-17996823D01*
X4338991Y-17787299D02*
X4167563Y-18044442D01*
X4596134Y-17796823D02*
X4615182Y-17796823D01*
X4615182Y-17796823D02*
X4634229Y-17806347D01*
X4634229Y-17806347D02*
X4643753Y-17815871D01*
X4643753Y-17815871D02*
X4653277Y-17834918D01*
X4653277Y-17834918D02*
X4662801Y-17873014D01*
X4662801Y-17873014D02*
X4662801Y-17920633D01*
X4662801Y-17920633D02*
X4653277Y-17958728D01*
X4653277Y-17958728D02*
X4643753Y-17977775D01*
X4643753Y-17977775D02*
X4634229Y-17987299D01*
X4634229Y-17987299D02*
X4615182Y-17996823D01*
X4615182Y-17996823D02*
X4596134Y-17996823D01*
X4596134Y-17996823D02*
X4577087Y-17987299D01*
X4577087Y-17987299D02*
X4567563Y-17977775D01*
X4567563Y-17977775D02*
X4558039Y-17958728D01*
X4558039Y-17958728D02*
X4548515Y-17920633D01*
X4548515Y-17920633D02*
X4548515Y-17873014D01*
X4548515Y-17873014D02*
X4558039Y-17834918D01*
X4558039Y-17834918D02*
X4567563Y-17815871D01*
X4567563Y-17815871D02*
X4577087Y-17806347D01*
X4577087Y-17806347D02*
X4596134Y-17796823D01*
X4748515Y-17977775D02*
X4758039Y-17987299D01*
X4758039Y-17987299D02*
X4748515Y-17996823D01*
X4748515Y-17996823D02*
X4738991Y-17987299D01*
X4738991Y-17987299D02*
X4748515Y-17977775D01*
X4748515Y-17977775D02*
X4748515Y-17996823D01*
X4881848Y-17796823D02*
X4900896Y-17796823D01*
X4900896Y-17796823D02*
X4919944Y-17806347D01*
X4919944Y-17806347D02*
X4929468Y-17815871D01*
X4929468Y-17815871D02*
X4938991Y-17834918D01*
X4938991Y-17834918D02*
X4948515Y-17873014D01*
X4948515Y-17873014D02*
X4948515Y-17920633D01*
X4948515Y-17920633D02*
X4938991Y-17958728D01*
X4938991Y-17958728D02*
X4929468Y-17977775D01*
X4929468Y-17977775D02*
X4919944Y-17987299D01*
X4919944Y-17987299D02*
X4900896Y-17996823D01*
X4900896Y-17996823D02*
X4881848Y-17996823D01*
X4881848Y-17996823D02*
X4862801Y-17987299D01*
X4862801Y-17987299D02*
X4853277Y-17977775D01*
X4853277Y-17977775D02*
X4843753Y-17958728D01*
X4843753Y-17958728D02*
X4834229Y-17920633D01*
X4834229Y-17920633D02*
X4834229Y-17873014D01*
X4834229Y-17873014D02*
X4843753Y-17834918D01*
X4843753Y-17834918D02*
X4853277Y-17815871D01*
X4853277Y-17815871D02*
X4862801Y-17806347D01*
X4862801Y-17806347D02*
X4881848Y-17796823D01*
X5024706Y-17815871D02*
X5034229Y-17806347D01*
X5034229Y-17806347D02*
X5053277Y-17796823D01*
X5053277Y-17796823D02*
X5100896Y-17796823D01*
X5100896Y-17796823D02*
X5119944Y-17806347D01*
X5119944Y-17806347D02*
X5129468Y-17815871D01*
X5129468Y-17815871D02*
X5138991Y-17834918D01*
X5138991Y-17834918D02*
X5138991Y-17853966D01*
X5138991Y-17853966D02*
X5129468Y-17882537D01*
X5129468Y-17882537D02*
X5015182Y-17996823D01*
X5015182Y-17996823D02*
X5138991Y-17996823D01*
X5234229Y-17996823D02*
X5272325Y-17996823D01*
X5272325Y-17996823D02*
X5291372Y-17987299D01*
X5291372Y-17987299D02*
X5300896Y-17977775D01*
X5300896Y-17977775D02*
X5319944Y-17949204D01*
X5319944Y-17949204D02*
X5329468Y-17911109D01*
X5329468Y-17911109D02*
X5329468Y-17834918D01*
X5329468Y-17834918D02*
X5319944Y-17815871D01*
X5319944Y-17815871D02*
X5310420Y-17806347D01*
X5310420Y-17806347D02*
X5291372Y-17796823D01*
X5291372Y-17796823D02*
X5253277Y-17796823D01*
X5253277Y-17796823D02*
X5234229Y-17806347D01*
X5234229Y-17806347D02*
X5224706Y-17815871D01*
X5224706Y-17815871D02*
X5215182Y-17834918D01*
X5215182Y-17834918D02*
X5215182Y-17882537D01*
X5215182Y-17882537D02*
X5224706Y-17901585D01*
X5224706Y-17901585D02*
X5234229Y-17911109D01*
X5234229Y-17911109D02*
X5253277Y-17920633D01*
X5253277Y-17920633D02*
X5291372Y-17920633D01*
X5291372Y-17920633D02*
X5310420Y-17911109D01*
X5310420Y-17911109D02*
X5319944Y-17901585D01*
X5319944Y-17901585D02*
X5329468Y-17882537D01*
X5510420Y-17796823D02*
X5415182Y-17796823D01*
X5415182Y-17796823D02*
X5405658Y-17892061D01*
X5405658Y-17892061D02*
X5415182Y-17882537D01*
X5415182Y-17882537D02*
X5434229Y-17873014D01*
X5434229Y-17873014D02*
X5481849Y-17873014D01*
X5481849Y-17873014D02*
X5500896Y-17882537D01*
X5500896Y-17882537D02*
X5510420Y-17892061D01*
X5510420Y-17892061D02*
X5519944Y-17911109D01*
X5519944Y-17911109D02*
X5519944Y-17958728D01*
X5519944Y-17958728D02*
X5510420Y-17977775D01*
X5510420Y-17977775D02*
X5500896Y-17987299D01*
X5500896Y-17987299D02*
X5481849Y-17996823D01*
X5481849Y-17996823D02*
X5434229Y-17996823D01*
X5434229Y-17996823D02*
X5415182Y-17987299D01*
X5415182Y-17987299D02*
X5405658Y-17977775D01*
X5596134Y-17796823D02*
X5596134Y-17834918D01*
X5672325Y-17796823D02*
X5672325Y-17834918D01*
X5967563Y-18073014D02*
X5958039Y-18063490D01*
X5958039Y-18063490D02*
X5938991Y-18034918D01*
X5938991Y-18034918D02*
X5929468Y-18015871D01*
X5929468Y-18015871D02*
X5919944Y-17987299D01*
X5919944Y-17987299D02*
X5910420Y-17939680D01*
X5910420Y-17939680D02*
X5910420Y-17901585D01*
X5910420Y-17901585D02*
X5919944Y-17853966D01*
X5919944Y-17853966D02*
X5929468Y-17825395D01*
X5929468Y-17825395D02*
X5938991Y-17806347D01*
X5938991Y-17806347D02*
X5958039Y-17777775D01*
X5958039Y-17777775D02*
X5967563Y-17768252D01*
X6034229Y-17815871D02*
X6043753Y-17806347D01*
X6043753Y-17806347D02*
X6062801Y-17796823D01*
X6062801Y-17796823D02*
X6110420Y-17796823D01*
X6110420Y-17796823D02*
X6129468Y-17806347D01*
X6129468Y-17806347D02*
X6138991Y-17815871D01*
X6138991Y-17815871D02*
X6148515Y-17834918D01*
X6148515Y-17834918D02*
X6148515Y-17853966D01*
X6148515Y-17853966D02*
X6138991Y-17882537D01*
X6138991Y-17882537D02*
X6024706Y-17996823D01*
X6024706Y-17996823D02*
X6148515Y-17996823D01*
X6386610Y-17996823D02*
X6386610Y-17796823D01*
X6472325Y-17996823D02*
X6472325Y-17892061D01*
X6472325Y-17892061D02*
X6462801Y-17873014D01*
X6462801Y-17873014D02*
X6443753Y-17863490D01*
X6443753Y-17863490D02*
X6415182Y-17863490D01*
X6415182Y-17863490D02*
X6396134Y-17873014D01*
X6396134Y-17873014D02*
X6386610Y-17882537D01*
X6596134Y-17996823D02*
X6577087Y-17987299D01*
X6577087Y-17987299D02*
X6567563Y-17977775D01*
X6567563Y-17977775D02*
X6558039Y-17958728D01*
X6558039Y-17958728D02*
X6558039Y-17901585D01*
X6558039Y-17901585D02*
X6567563Y-17882537D01*
X6567563Y-17882537D02*
X6577087Y-17873014D01*
X6577087Y-17873014D02*
X6596134Y-17863490D01*
X6596134Y-17863490D02*
X6624706Y-17863490D01*
X6624706Y-17863490D02*
X6643753Y-17873014D01*
X6643753Y-17873014D02*
X6653277Y-17882537D01*
X6653277Y-17882537D02*
X6662801Y-17901585D01*
X6662801Y-17901585D02*
X6662801Y-17958728D01*
X6662801Y-17958728D02*
X6653277Y-17977775D01*
X6653277Y-17977775D02*
X6643753Y-17987299D01*
X6643753Y-17987299D02*
X6624706Y-17996823D01*
X6624706Y-17996823D02*
X6596134Y-17996823D01*
X6777087Y-17996823D02*
X6758039Y-17987299D01*
X6758039Y-17987299D02*
X6748515Y-17968252D01*
X6748515Y-17968252D02*
X6748515Y-17796823D01*
X6929468Y-17987299D02*
X6910420Y-17996823D01*
X6910420Y-17996823D02*
X6872325Y-17996823D01*
X6872325Y-17996823D02*
X6853277Y-17987299D01*
X6853277Y-17987299D02*
X6843753Y-17968252D01*
X6843753Y-17968252D02*
X6843753Y-17892061D01*
X6843753Y-17892061D02*
X6853277Y-17873014D01*
X6853277Y-17873014D02*
X6872325Y-17863490D01*
X6872325Y-17863490D02*
X6910420Y-17863490D01*
X6910420Y-17863490D02*
X6929468Y-17873014D01*
X6929468Y-17873014D02*
X6938991Y-17892061D01*
X6938991Y-17892061D02*
X6938991Y-17911109D01*
X6938991Y-17911109D02*
X6843753Y-17930156D01*
X7015182Y-17987299D02*
X7034230Y-17996823D01*
X7034230Y-17996823D02*
X7072325Y-17996823D01*
X7072325Y-17996823D02*
X7091372Y-17987299D01*
X7091372Y-17987299D02*
X7100896Y-17968252D01*
X7100896Y-17968252D02*
X7100896Y-17958728D01*
X7100896Y-17958728D02*
X7091372Y-17939680D01*
X7091372Y-17939680D02*
X7072325Y-17930156D01*
X7072325Y-17930156D02*
X7043753Y-17930156D01*
X7043753Y-17930156D02*
X7024706Y-17920633D01*
X7024706Y-17920633D02*
X7015182Y-17901585D01*
X7015182Y-17901585D02*
X7015182Y-17892061D01*
X7015182Y-17892061D02*
X7024706Y-17873014D01*
X7024706Y-17873014D02*
X7043753Y-17863490D01*
X7043753Y-17863490D02*
X7072325Y-17863490D01*
X7072325Y-17863490D02*
X7091372Y-17873014D01*
X7167563Y-18073014D02*
X7177087Y-18063490D01*
X7177087Y-18063490D02*
X7196134Y-18034918D01*
X7196134Y-18034918D02*
X7205658Y-18015871D01*
X7205658Y-18015871D02*
X7215182Y-17987299D01*
X7215182Y-17987299D02*
X7224706Y-17939680D01*
X7224706Y-17939680D02*
X7224706Y-17901585D01*
X7224706Y-17901585D02*
X7215182Y-17853966D01*
X7215182Y-17853966D02*
X7205658Y-17825395D01*
X7205658Y-17825395D02*
X7196134Y-17806347D01*
X7196134Y-17806347D02*
X7177087Y-17777775D01*
X7177087Y-17777775D02*
X7167563Y-17768252D01*
D12*
X2392500Y-18169339D02*
G75*
G02*
X2292500Y-18169339I-50000J0D01*
G01*
X2292500Y-18169339D02*
G75*
G02*
X2392500Y-18169339I50000J0D01*
G01*
D11*
X2758039Y-18260823D02*
X2643753Y-18260823D01*
X2700896Y-18260823D02*
X2700896Y-18060823D01*
X2700896Y-18060823D02*
X2681848Y-18089395D01*
X2681848Y-18089395D02*
X2662801Y-18108442D01*
X2662801Y-18108442D02*
X2643753Y-18117966D01*
X2843753Y-18241775D02*
X2853277Y-18251299D01*
X2853277Y-18251299D02*
X2843753Y-18260823D01*
X2843753Y-18260823D02*
X2834229Y-18251299D01*
X2834229Y-18251299D02*
X2843753Y-18241775D01*
X2843753Y-18241775D02*
X2843753Y-18260823D01*
X2977086Y-18060823D02*
X2996134Y-18060823D01*
X2996134Y-18060823D02*
X3015182Y-18070347D01*
X3015182Y-18070347D02*
X3024705Y-18079871D01*
X3024705Y-18079871D02*
X3034229Y-18098918D01*
X3034229Y-18098918D02*
X3043753Y-18137014D01*
X3043753Y-18137014D02*
X3043753Y-18184633D01*
X3043753Y-18184633D02*
X3034229Y-18222728D01*
X3034229Y-18222728D02*
X3024705Y-18241775D01*
X3024705Y-18241775D02*
X3015182Y-18251299D01*
X3015182Y-18251299D02*
X2996134Y-18260823D01*
X2996134Y-18260823D02*
X2977086Y-18260823D01*
X2977086Y-18260823D02*
X2958039Y-18251299D01*
X2958039Y-18251299D02*
X2948515Y-18241775D01*
X2948515Y-18241775D02*
X2938991Y-18222728D01*
X2938991Y-18222728D02*
X2929467Y-18184633D01*
X2929467Y-18184633D02*
X2929467Y-18137014D01*
X2929467Y-18137014D02*
X2938991Y-18098918D01*
X2938991Y-18098918D02*
X2948515Y-18079871D01*
X2948515Y-18079871D02*
X2958039Y-18070347D01*
X2958039Y-18070347D02*
X2977086Y-18060823D01*
X3167562Y-18060823D02*
X3186610Y-18060823D01*
X3186610Y-18060823D02*
X3205658Y-18070347D01*
X3205658Y-18070347D02*
X3215182Y-18079871D01*
X3215182Y-18079871D02*
X3224705Y-18098918D01*
X3224705Y-18098918D02*
X3234229Y-18137014D01*
X3234229Y-18137014D02*
X3234229Y-18184633D01*
X3234229Y-18184633D02*
X3224705Y-18222728D01*
X3224705Y-18222728D02*
X3215182Y-18241775D01*
X3215182Y-18241775D02*
X3205658Y-18251299D01*
X3205658Y-18251299D02*
X3186610Y-18260823D01*
X3186610Y-18260823D02*
X3167562Y-18260823D01*
X3167562Y-18260823D02*
X3148515Y-18251299D01*
X3148515Y-18251299D02*
X3138991Y-18241775D01*
X3138991Y-18241775D02*
X3129467Y-18222728D01*
X3129467Y-18222728D02*
X3119943Y-18184633D01*
X3119943Y-18184633D02*
X3119943Y-18137014D01*
X3119943Y-18137014D02*
X3129467Y-18098918D01*
X3129467Y-18098918D02*
X3138991Y-18079871D01*
X3138991Y-18079871D02*
X3148515Y-18070347D01*
X3148515Y-18070347D02*
X3167562Y-18060823D01*
X3358039Y-18060823D02*
X3377086Y-18060823D01*
X3377086Y-18060823D02*
X3396134Y-18070347D01*
X3396134Y-18070347D02*
X3405658Y-18079871D01*
X3405658Y-18079871D02*
X3415182Y-18098918D01*
X3415182Y-18098918D02*
X3424705Y-18137014D01*
X3424705Y-18137014D02*
X3424705Y-18184633D01*
X3424705Y-18184633D02*
X3415182Y-18222728D01*
X3415182Y-18222728D02*
X3405658Y-18241775D01*
X3405658Y-18241775D02*
X3396134Y-18251299D01*
X3396134Y-18251299D02*
X3377086Y-18260823D01*
X3377086Y-18260823D02*
X3358039Y-18260823D01*
X3358039Y-18260823D02*
X3338991Y-18251299D01*
X3338991Y-18251299D02*
X3329467Y-18241775D01*
X3329467Y-18241775D02*
X3319943Y-18222728D01*
X3319943Y-18222728D02*
X3310420Y-18184633D01*
X3310420Y-18184633D02*
X3310420Y-18137014D01*
X3310420Y-18137014D02*
X3319943Y-18098918D01*
X3319943Y-18098918D02*
X3329467Y-18079871D01*
X3329467Y-18079871D02*
X3338991Y-18070347D01*
X3338991Y-18070347D02*
X3358039Y-18060823D01*
X3510420Y-18260823D02*
X3510420Y-18127490D01*
X3510420Y-18146537D02*
X3519943Y-18137014D01*
X3519943Y-18137014D02*
X3538991Y-18127490D01*
X3538991Y-18127490D02*
X3567563Y-18127490D01*
X3567563Y-18127490D02*
X3586610Y-18137014D01*
X3586610Y-18137014D02*
X3596134Y-18156061D01*
X3596134Y-18156061D02*
X3596134Y-18260823D01*
X3596134Y-18156061D02*
X3605658Y-18137014D01*
X3605658Y-18137014D02*
X3624705Y-18127490D01*
X3624705Y-18127490D02*
X3653277Y-18127490D01*
X3653277Y-18127490D02*
X3672324Y-18137014D01*
X3672324Y-18137014D02*
X3681848Y-18156061D01*
X3681848Y-18156061D02*
X3681848Y-18260823D01*
X3777086Y-18260823D02*
X3777086Y-18127490D01*
X3777086Y-18146537D02*
X3786610Y-18137014D01*
X3786610Y-18137014D02*
X3805658Y-18127490D01*
X3805658Y-18127490D02*
X3834229Y-18127490D01*
X3834229Y-18127490D02*
X3853277Y-18137014D01*
X3853277Y-18137014D02*
X3862801Y-18156061D01*
X3862801Y-18156061D02*
X3862801Y-18260823D01*
X3862801Y-18156061D02*
X3872324Y-18137014D01*
X3872324Y-18137014D02*
X3891372Y-18127490D01*
X3891372Y-18127490D02*
X3919943Y-18127490D01*
X3919943Y-18127490D02*
X3938991Y-18137014D01*
X3938991Y-18137014D02*
X3948515Y-18156061D01*
X3948515Y-18156061D02*
X3948515Y-18260823D01*
X4338991Y-18051299D02*
X4167563Y-18308442D01*
X4596134Y-18060823D02*
X4615182Y-18060823D01*
X4615182Y-18060823D02*
X4634229Y-18070347D01*
X4634229Y-18070347D02*
X4643753Y-18079871D01*
X4643753Y-18079871D02*
X4653277Y-18098918D01*
X4653277Y-18098918D02*
X4662801Y-18137014D01*
X4662801Y-18137014D02*
X4662801Y-18184633D01*
X4662801Y-18184633D02*
X4653277Y-18222728D01*
X4653277Y-18222728D02*
X4643753Y-18241775D01*
X4643753Y-18241775D02*
X4634229Y-18251299D01*
X4634229Y-18251299D02*
X4615182Y-18260823D01*
X4615182Y-18260823D02*
X4596134Y-18260823D01*
X4596134Y-18260823D02*
X4577087Y-18251299D01*
X4577087Y-18251299D02*
X4567563Y-18241775D01*
X4567563Y-18241775D02*
X4558039Y-18222728D01*
X4558039Y-18222728D02*
X4548515Y-18184633D01*
X4548515Y-18184633D02*
X4548515Y-18137014D01*
X4548515Y-18137014D02*
X4558039Y-18098918D01*
X4558039Y-18098918D02*
X4567563Y-18079871D01*
X4567563Y-18079871D02*
X4577087Y-18070347D01*
X4577087Y-18070347D02*
X4596134Y-18060823D01*
X4748515Y-18241775D02*
X4758039Y-18251299D01*
X4758039Y-18251299D02*
X4748515Y-18260823D01*
X4748515Y-18260823D02*
X4738991Y-18251299D01*
X4738991Y-18251299D02*
X4748515Y-18241775D01*
X4748515Y-18241775D02*
X4748515Y-18260823D01*
X4881848Y-18060823D02*
X4900896Y-18060823D01*
X4900896Y-18060823D02*
X4919944Y-18070347D01*
X4919944Y-18070347D02*
X4929468Y-18079871D01*
X4929468Y-18079871D02*
X4938991Y-18098918D01*
X4938991Y-18098918D02*
X4948515Y-18137014D01*
X4948515Y-18137014D02*
X4948515Y-18184633D01*
X4948515Y-18184633D02*
X4938991Y-18222728D01*
X4938991Y-18222728D02*
X4929468Y-18241775D01*
X4929468Y-18241775D02*
X4919944Y-18251299D01*
X4919944Y-18251299D02*
X4900896Y-18260823D01*
X4900896Y-18260823D02*
X4881848Y-18260823D01*
X4881848Y-18260823D02*
X4862801Y-18251299D01*
X4862801Y-18251299D02*
X4853277Y-18241775D01*
X4853277Y-18241775D02*
X4843753Y-18222728D01*
X4843753Y-18222728D02*
X4834229Y-18184633D01*
X4834229Y-18184633D02*
X4834229Y-18137014D01*
X4834229Y-18137014D02*
X4843753Y-18098918D01*
X4843753Y-18098918D02*
X4853277Y-18079871D01*
X4853277Y-18079871D02*
X4862801Y-18070347D01*
X4862801Y-18070347D02*
X4881848Y-18060823D01*
X5015182Y-18060823D02*
X5138991Y-18060823D01*
X5138991Y-18060823D02*
X5072325Y-18137014D01*
X5072325Y-18137014D02*
X5100896Y-18137014D01*
X5100896Y-18137014D02*
X5119944Y-18146537D01*
X5119944Y-18146537D02*
X5129468Y-18156061D01*
X5129468Y-18156061D02*
X5138991Y-18175109D01*
X5138991Y-18175109D02*
X5138991Y-18222728D01*
X5138991Y-18222728D02*
X5129468Y-18241775D01*
X5129468Y-18241775D02*
X5119944Y-18251299D01*
X5119944Y-18251299D02*
X5100896Y-18260823D01*
X5100896Y-18260823D02*
X5043753Y-18260823D01*
X5043753Y-18260823D02*
X5024706Y-18251299D01*
X5024706Y-18251299D02*
X5015182Y-18241775D01*
X5234229Y-18260823D02*
X5272325Y-18260823D01*
X5272325Y-18260823D02*
X5291372Y-18251299D01*
X5291372Y-18251299D02*
X5300896Y-18241775D01*
X5300896Y-18241775D02*
X5319944Y-18213204D01*
X5319944Y-18213204D02*
X5329468Y-18175109D01*
X5329468Y-18175109D02*
X5329468Y-18098918D01*
X5329468Y-18098918D02*
X5319944Y-18079871D01*
X5319944Y-18079871D02*
X5310420Y-18070347D01*
X5310420Y-18070347D02*
X5291372Y-18060823D01*
X5291372Y-18060823D02*
X5253277Y-18060823D01*
X5253277Y-18060823D02*
X5234229Y-18070347D01*
X5234229Y-18070347D02*
X5224706Y-18079871D01*
X5224706Y-18079871D02*
X5215182Y-18098918D01*
X5215182Y-18098918D02*
X5215182Y-18146537D01*
X5215182Y-18146537D02*
X5224706Y-18165585D01*
X5224706Y-18165585D02*
X5234229Y-18175109D01*
X5234229Y-18175109D02*
X5253277Y-18184633D01*
X5253277Y-18184633D02*
X5291372Y-18184633D01*
X5291372Y-18184633D02*
X5310420Y-18175109D01*
X5310420Y-18175109D02*
X5319944Y-18165585D01*
X5319944Y-18165585D02*
X5329468Y-18146537D01*
X5500896Y-18127490D02*
X5500896Y-18260823D01*
X5453277Y-18051299D02*
X5405658Y-18194156D01*
X5405658Y-18194156D02*
X5529468Y-18194156D01*
X5596134Y-18060823D02*
X5596134Y-18098918D01*
X5672325Y-18060823D02*
X5672325Y-18098918D01*
X5967563Y-18337014D02*
X5958039Y-18327490D01*
X5958039Y-18327490D02*
X5938991Y-18298918D01*
X5938991Y-18298918D02*
X5929468Y-18279871D01*
X5929468Y-18279871D02*
X5919944Y-18251299D01*
X5919944Y-18251299D02*
X5910420Y-18203680D01*
X5910420Y-18203680D02*
X5910420Y-18165585D01*
X5910420Y-18165585D02*
X5919944Y-18117966D01*
X5919944Y-18117966D02*
X5929468Y-18089395D01*
X5929468Y-18089395D02*
X5938991Y-18070347D01*
X5938991Y-18070347D02*
X5958039Y-18041775D01*
X5958039Y-18041775D02*
X5967563Y-18032252D01*
X6034229Y-18079871D02*
X6043753Y-18070347D01*
X6043753Y-18070347D02*
X6062801Y-18060823D01*
X6062801Y-18060823D02*
X6110420Y-18060823D01*
X6110420Y-18060823D02*
X6129468Y-18070347D01*
X6129468Y-18070347D02*
X6138991Y-18079871D01*
X6138991Y-18079871D02*
X6148515Y-18098918D01*
X6148515Y-18098918D02*
X6148515Y-18117966D01*
X6148515Y-18117966D02*
X6138991Y-18146537D01*
X6138991Y-18146537D02*
X6024706Y-18260823D01*
X6024706Y-18260823D02*
X6148515Y-18260823D01*
X6215182Y-18060823D02*
X6348515Y-18060823D01*
X6348515Y-18060823D02*
X6262801Y-18260823D01*
X6577087Y-18260823D02*
X6577087Y-18060823D01*
X6662801Y-18260823D02*
X6662801Y-18156061D01*
X6662801Y-18156061D02*
X6653277Y-18137014D01*
X6653277Y-18137014D02*
X6634230Y-18127490D01*
X6634230Y-18127490D02*
X6605658Y-18127490D01*
X6605658Y-18127490D02*
X6586610Y-18137014D01*
X6586610Y-18137014D02*
X6577087Y-18146537D01*
X6786610Y-18260823D02*
X6767563Y-18251299D01*
X6767563Y-18251299D02*
X6758039Y-18241775D01*
X6758039Y-18241775D02*
X6748515Y-18222728D01*
X6748515Y-18222728D02*
X6748515Y-18165585D01*
X6748515Y-18165585D02*
X6758039Y-18146537D01*
X6758039Y-18146537D02*
X6767563Y-18137014D01*
X6767563Y-18137014D02*
X6786610Y-18127490D01*
X6786610Y-18127490D02*
X6815182Y-18127490D01*
X6815182Y-18127490D02*
X6834230Y-18137014D01*
X6834230Y-18137014D02*
X6843753Y-18146537D01*
X6843753Y-18146537D02*
X6853277Y-18165585D01*
X6853277Y-18165585D02*
X6853277Y-18222728D01*
X6853277Y-18222728D02*
X6843753Y-18241775D01*
X6843753Y-18241775D02*
X6834230Y-18251299D01*
X6834230Y-18251299D02*
X6815182Y-18260823D01*
X6815182Y-18260823D02*
X6786610Y-18260823D01*
X6967563Y-18260823D02*
X6948515Y-18251299D01*
X6948515Y-18251299D02*
X6938991Y-18232252D01*
X6938991Y-18232252D02*
X6938991Y-18060823D01*
X7119944Y-18251299D02*
X7100896Y-18260823D01*
X7100896Y-18260823D02*
X7062801Y-18260823D01*
X7062801Y-18260823D02*
X7043753Y-18251299D01*
X7043753Y-18251299D02*
X7034230Y-18232252D01*
X7034230Y-18232252D02*
X7034230Y-18156061D01*
X7034230Y-18156061D02*
X7043753Y-18137014D01*
X7043753Y-18137014D02*
X7062801Y-18127490D01*
X7062801Y-18127490D02*
X7100896Y-18127490D01*
X7100896Y-18127490D02*
X7119944Y-18137014D01*
X7119944Y-18137014D02*
X7129468Y-18156061D01*
X7129468Y-18156061D02*
X7129468Y-18175109D01*
X7129468Y-18175109D02*
X7034230Y-18194156D01*
X7205658Y-18251299D02*
X7224706Y-18260823D01*
X7224706Y-18260823D02*
X7262801Y-18260823D01*
X7262801Y-18260823D02*
X7281849Y-18251299D01*
X7281849Y-18251299D02*
X7291372Y-18232252D01*
X7291372Y-18232252D02*
X7291372Y-18222728D01*
X7291372Y-18222728D02*
X7281849Y-18203680D01*
X7281849Y-18203680D02*
X7262801Y-18194156D01*
X7262801Y-18194156D02*
X7234230Y-18194156D01*
X7234230Y-18194156D02*
X7215182Y-18184633D01*
X7215182Y-18184633D02*
X7205658Y-18165585D01*
X7205658Y-18165585D02*
X7205658Y-18156061D01*
X7205658Y-18156061D02*
X7215182Y-18137014D01*
X7215182Y-18137014D02*
X7234230Y-18127490D01*
X7234230Y-18127490D02*
X7262801Y-18127490D01*
X7262801Y-18127490D02*
X7281849Y-18137014D01*
X7358039Y-18337014D02*
X7367563Y-18327490D01*
X7367563Y-18327490D02*
X7386611Y-18298918D01*
X7386611Y-18298918D02*
X7396134Y-18279871D01*
X7396134Y-18279871D02*
X7405658Y-18251299D01*
X7405658Y-18251299D02*
X7415182Y-18203680D01*
X7415182Y-18203680D02*
X7415182Y-18165585D01*
X7415182Y-18165585D02*
X7405658Y-18117966D01*
X7405658Y-18117966D02*
X7396134Y-18089395D01*
X7396134Y-18089395D02*
X7386611Y-18070347D01*
X7386611Y-18070347D02*
X7367563Y-18041775D01*
X7367563Y-18041775D02*
X7358039Y-18032252D01*
D13*
X2312500Y-18353339D02*
X2312500Y-18513339D01*
X2232500Y-18433339D02*
X2392500Y-18433339D01*
D11*
X2758039Y-18524823D02*
X2643753Y-18524823D01*
X2700896Y-18524823D02*
X2700896Y-18324823D01*
X2700896Y-18324823D02*
X2681848Y-18353395D01*
X2681848Y-18353395D02*
X2662801Y-18372442D01*
X2662801Y-18372442D02*
X2643753Y-18381966D01*
X2843753Y-18505775D02*
X2853277Y-18515299D01*
X2853277Y-18515299D02*
X2843753Y-18524823D01*
X2843753Y-18524823D02*
X2834229Y-18515299D01*
X2834229Y-18515299D02*
X2843753Y-18505775D01*
X2843753Y-18505775D02*
X2843753Y-18524823D01*
X3024705Y-18324823D02*
X2986610Y-18324823D01*
X2986610Y-18324823D02*
X2967562Y-18334347D01*
X2967562Y-18334347D02*
X2958039Y-18343871D01*
X2958039Y-18343871D02*
X2938991Y-18372442D01*
X2938991Y-18372442D02*
X2929467Y-18410537D01*
X2929467Y-18410537D02*
X2929467Y-18486728D01*
X2929467Y-18486728D02*
X2938991Y-18505775D01*
X2938991Y-18505775D02*
X2948515Y-18515299D01*
X2948515Y-18515299D02*
X2967562Y-18524823D01*
X2967562Y-18524823D02*
X3005658Y-18524823D01*
X3005658Y-18524823D02*
X3024705Y-18515299D01*
X3024705Y-18515299D02*
X3034229Y-18505775D01*
X3034229Y-18505775D02*
X3043753Y-18486728D01*
X3043753Y-18486728D02*
X3043753Y-18439109D01*
X3043753Y-18439109D02*
X3034229Y-18420061D01*
X3034229Y-18420061D02*
X3024705Y-18410537D01*
X3024705Y-18410537D02*
X3005658Y-18401014D01*
X3005658Y-18401014D02*
X2967562Y-18401014D01*
X2967562Y-18401014D02*
X2948515Y-18410537D01*
X2948515Y-18410537D02*
X2938991Y-18420061D01*
X2938991Y-18420061D02*
X2929467Y-18439109D01*
X3167562Y-18324823D02*
X3186610Y-18324823D01*
X3186610Y-18324823D02*
X3205658Y-18334347D01*
X3205658Y-18334347D02*
X3215182Y-18343871D01*
X3215182Y-18343871D02*
X3224705Y-18362918D01*
X3224705Y-18362918D02*
X3234229Y-18401014D01*
X3234229Y-18401014D02*
X3234229Y-18448633D01*
X3234229Y-18448633D02*
X3224705Y-18486728D01*
X3224705Y-18486728D02*
X3215182Y-18505775D01*
X3215182Y-18505775D02*
X3205658Y-18515299D01*
X3205658Y-18515299D02*
X3186610Y-18524823D01*
X3186610Y-18524823D02*
X3167562Y-18524823D01*
X3167562Y-18524823D02*
X3148515Y-18515299D01*
X3148515Y-18515299D02*
X3138991Y-18505775D01*
X3138991Y-18505775D02*
X3129467Y-18486728D01*
X3129467Y-18486728D02*
X3119943Y-18448633D01*
X3119943Y-18448633D02*
X3119943Y-18401014D01*
X3119943Y-18401014D02*
X3129467Y-18362918D01*
X3129467Y-18362918D02*
X3138991Y-18343871D01*
X3138991Y-18343871D02*
X3148515Y-18334347D01*
X3148515Y-18334347D02*
X3167562Y-18324823D01*
X3358039Y-18324823D02*
X3377086Y-18324823D01*
X3377086Y-18324823D02*
X3396134Y-18334347D01*
X3396134Y-18334347D02*
X3405658Y-18343871D01*
X3405658Y-18343871D02*
X3415182Y-18362918D01*
X3415182Y-18362918D02*
X3424705Y-18401014D01*
X3424705Y-18401014D02*
X3424705Y-18448633D01*
X3424705Y-18448633D02*
X3415182Y-18486728D01*
X3415182Y-18486728D02*
X3405658Y-18505775D01*
X3405658Y-18505775D02*
X3396134Y-18515299D01*
X3396134Y-18515299D02*
X3377086Y-18524823D01*
X3377086Y-18524823D02*
X3358039Y-18524823D01*
X3358039Y-18524823D02*
X3338991Y-18515299D01*
X3338991Y-18515299D02*
X3329467Y-18505775D01*
X3329467Y-18505775D02*
X3319943Y-18486728D01*
X3319943Y-18486728D02*
X3310420Y-18448633D01*
X3310420Y-18448633D02*
X3310420Y-18401014D01*
X3310420Y-18401014D02*
X3319943Y-18362918D01*
X3319943Y-18362918D02*
X3329467Y-18343871D01*
X3329467Y-18343871D02*
X3338991Y-18334347D01*
X3338991Y-18334347D02*
X3358039Y-18324823D01*
X3510420Y-18524823D02*
X3510420Y-18391490D01*
X3510420Y-18410537D02*
X3519943Y-18401014D01*
X3519943Y-18401014D02*
X3538991Y-18391490D01*
X3538991Y-18391490D02*
X3567563Y-18391490D01*
X3567563Y-18391490D02*
X3586610Y-18401014D01*
X3586610Y-18401014D02*
X3596134Y-18420061D01*
X3596134Y-18420061D02*
X3596134Y-18524823D01*
X3596134Y-18420061D02*
X3605658Y-18401014D01*
X3605658Y-18401014D02*
X3624705Y-18391490D01*
X3624705Y-18391490D02*
X3653277Y-18391490D01*
X3653277Y-18391490D02*
X3672324Y-18401014D01*
X3672324Y-18401014D02*
X3681848Y-18420061D01*
X3681848Y-18420061D02*
X3681848Y-18524823D01*
X3777086Y-18524823D02*
X3777086Y-18391490D01*
X3777086Y-18410537D02*
X3786610Y-18401014D01*
X3786610Y-18401014D02*
X3805658Y-18391490D01*
X3805658Y-18391490D02*
X3834229Y-18391490D01*
X3834229Y-18391490D02*
X3853277Y-18401014D01*
X3853277Y-18401014D02*
X3862801Y-18420061D01*
X3862801Y-18420061D02*
X3862801Y-18524823D01*
X3862801Y-18420061D02*
X3872324Y-18401014D01*
X3872324Y-18401014D02*
X3891372Y-18391490D01*
X3891372Y-18391490D02*
X3919943Y-18391490D01*
X3919943Y-18391490D02*
X3938991Y-18401014D01*
X3938991Y-18401014D02*
X3948515Y-18420061D01*
X3948515Y-18420061D02*
X3948515Y-18524823D01*
X4338991Y-18315299D02*
X4167563Y-18572442D01*
X4596134Y-18324823D02*
X4615182Y-18324823D01*
X4615182Y-18324823D02*
X4634229Y-18334347D01*
X4634229Y-18334347D02*
X4643753Y-18343871D01*
X4643753Y-18343871D02*
X4653277Y-18362918D01*
X4653277Y-18362918D02*
X4662801Y-18401014D01*
X4662801Y-18401014D02*
X4662801Y-18448633D01*
X4662801Y-18448633D02*
X4653277Y-18486728D01*
X4653277Y-18486728D02*
X4643753Y-18505775D01*
X4643753Y-18505775D02*
X4634229Y-18515299D01*
X4634229Y-18515299D02*
X4615182Y-18524823D01*
X4615182Y-18524823D02*
X4596134Y-18524823D01*
X4596134Y-18524823D02*
X4577087Y-18515299D01*
X4577087Y-18515299D02*
X4567563Y-18505775D01*
X4567563Y-18505775D02*
X4558039Y-18486728D01*
X4558039Y-18486728D02*
X4548515Y-18448633D01*
X4548515Y-18448633D02*
X4548515Y-18401014D01*
X4548515Y-18401014D02*
X4558039Y-18362918D01*
X4558039Y-18362918D02*
X4567563Y-18343871D01*
X4567563Y-18343871D02*
X4577087Y-18334347D01*
X4577087Y-18334347D02*
X4596134Y-18324823D01*
X4748515Y-18505775D02*
X4758039Y-18515299D01*
X4758039Y-18515299D02*
X4748515Y-18524823D01*
X4748515Y-18524823D02*
X4738991Y-18515299D01*
X4738991Y-18515299D02*
X4748515Y-18505775D01*
X4748515Y-18505775D02*
X4748515Y-18524823D01*
X4881848Y-18324823D02*
X4900896Y-18324823D01*
X4900896Y-18324823D02*
X4919944Y-18334347D01*
X4919944Y-18334347D02*
X4929468Y-18343871D01*
X4929468Y-18343871D02*
X4938991Y-18362918D01*
X4938991Y-18362918D02*
X4948515Y-18401014D01*
X4948515Y-18401014D02*
X4948515Y-18448633D01*
X4948515Y-18448633D02*
X4938991Y-18486728D01*
X4938991Y-18486728D02*
X4929468Y-18505775D01*
X4929468Y-18505775D02*
X4919944Y-18515299D01*
X4919944Y-18515299D02*
X4900896Y-18524823D01*
X4900896Y-18524823D02*
X4881848Y-18524823D01*
X4881848Y-18524823D02*
X4862801Y-18515299D01*
X4862801Y-18515299D02*
X4853277Y-18505775D01*
X4853277Y-18505775D02*
X4843753Y-18486728D01*
X4843753Y-18486728D02*
X4834229Y-18448633D01*
X4834229Y-18448633D02*
X4834229Y-18401014D01*
X4834229Y-18401014D02*
X4843753Y-18362918D01*
X4843753Y-18362918D02*
X4853277Y-18343871D01*
X4853277Y-18343871D02*
X4862801Y-18334347D01*
X4862801Y-18334347D02*
X4881848Y-18324823D01*
X5119944Y-18324823D02*
X5081848Y-18324823D01*
X5081848Y-18324823D02*
X5062801Y-18334347D01*
X5062801Y-18334347D02*
X5053277Y-18343871D01*
X5053277Y-18343871D02*
X5034229Y-18372442D01*
X5034229Y-18372442D02*
X5024706Y-18410537D01*
X5024706Y-18410537D02*
X5024706Y-18486728D01*
X5024706Y-18486728D02*
X5034229Y-18505775D01*
X5034229Y-18505775D02*
X5043753Y-18515299D01*
X5043753Y-18515299D02*
X5062801Y-18524823D01*
X5062801Y-18524823D02*
X5100896Y-18524823D01*
X5100896Y-18524823D02*
X5119944Y-18515299D01*
X5119944Y-18515299D02*
X5129468Y-18505775D01*
X5129468Y-18505775D02*
X5138991Y-18486728D01*
X5138991Y-18486728D02*
X5138991Y-18439109D01*
X5138991Y-18439109D02*
X5129468Y-18420061D01*
X5129468Y-18420061D02*
X5119944Y-18410537D01*
X5119944Y-18410537D02*
X5100896Y-18401014D01*
X5100896Y-18401014D02*
X5062801Y-18401014D01*
X5062801Y-18401014D02*
X5043753Y-18410537D01*
X5043753Y-18410537D02*
X5034229Y-18420061D01*
X5034229Y-18420061D02*
X5024706Y-18439109D01*
X5205658Y-18324823D02*
X5329468Y-18324823D01*
X5329468Y-18324823D02*
X5262801Y-18401014D01*
X5262801Y-18401014D02*
X5291372Y-18401014D01*
X5291372Y-18401014D02*
X5310420Y-18410537D01*
X5310420Y-18410537D02*
X5319944Y-18420061D01*
X5319944Y-18420061D02*
X5329468Y-18439109D01*
X5329468Y-18439109D02*
X5329468Y-18486728D01*
X5329468Y-18486728D02*
X5319944Y-18505775D01*
X5319944Y-18505775D02*
X5310420Y-18515299D01*
X5310420Y-18515299D02*
X5291372Y-18524823D01*
X5291372Y-18524823D02*
X5234229Y-18524823D01*
X5234229Y-18524823D02*
X5215182Y-18515299D01*
X5215182Y-18515299D02*
X5205658Y-18505775D01*
X5453277Y-18324823D02*
X5472325Y-18324823D01*
X5472325Y-18324823D02*
X5491372Y-18334347D01*
X5491372Y-18334347D02*
X5500896Y-18343871D01*
X5500896Y-18343871D02*
X5510420Y-18362918D01*
X5510420Y-18362918D02*
X5519944Y-18401014D01*
X5519944Y-18401014D02*
X5519944Y-18448633D01*
X5519944Y-18448633D02*
X5510420Y-18486728D01*
X5510420Y-18486728D02*
X5500896Y-18505775D01*
X5500896Y-18505775D02*
X5491372Y-18515299D01*
X5491372Y-18515299D02*
X5472325Y-18524823D01*
X5472325Y-18524823D02*
X5453277Y-18524823D01*
X5453277Y-18524823D02*
X5434229Y-18515299D01*
X5434229Y-18515299D02*
X5424706Y-18505775D01*
X5424706Y-18505775D02*
X5415182Y-18486728D01*
X5415182Y-18486728D02*
X5405658Y-18448633D01*
X5405658Y-18448633D02*
X5405658Y-18401014D01*
X5405658Y-18401014D02*
X5415182Y-18362918D01*
X5415182Y-18362918D02*
X5424706Y-18343871D01*
X5424706Y-18343871D02*
X5434229Y-18334347D01*
X5434229Y-18334347D02*
X5453277Y-18324823D01*
X5596134Y-18324823D02*
X5596134Y-18362918D01*
X5672325Y-18324823D02*
X5672325Y-18362918D01*
X5967563Y-18601014D02*
X5958039Y-18591490D01*
X5958039Y-18591490D02*
X5938991Y-18562918D01*
X5938991Y-18562918D02*
X5929468Y-18543871D01*
X5929468Y-18543871D02*
X5919944Y-18515299D01*
X5919944Y-18515299D02*
X5910420Y-18467680D01*
X5910420Y-18467680D02*
X5910420Y-18429585D01*
X5910420Y-18429585D02*
X5919944Y-18381966D01*
X5919944Y-18381966D02*
X5929468Y-18353395D01*
X5929468Y-18353395D02*
X5938991Y-18334347D01*
X5938991Y-18334347D02*
X5958039Y-18305775D01*
X5958039Y-18305775D02*
X5967563Y-18296252D01*
X6024706Y-18324823D02*
X6148515Y-18324823D01*
X6148515Y-18324823D02*
X6081848Y-18401014D01*
X6081848Y-18401014D02*
X6110420Y-18401014D01*
X6110420Y-18401014D02*
X6129468Y-18410537D01*
X6129468Y-18410537D02*
X6138991Y-18420061D01*
X6138991Y-18420061D02*
X6148515Y-18439109D01*
X6148515Y-18439109D02*
X6148515Y-18486728D01*
X6148515Y-18486728D02*
X6138991Y-18505775D01*
X6138991Y-18505775D02*
X6129468Y-18515299D01*
X6129468Y-18515299D02*
X6110420Y-18524823D01*
X6110420Y-18524823D02*
X6053277Y-18524823D01*
X6053277Y-18524823D02*
X6034229Y-18515299D01*
X6034229Y-18515299D02*
X6024706Y-18505775D01*
X6224706Y-18343871D02*
X6234229Y-18334347D01*
X6234229Y-18334347D02*
X6253277Y-18324823D01*
X6253277Y-18324823D02*
X6300896Y-18324823D01*
X6300896Y-18324823D02*
X6319944Y-18334347D01*
X6319944Y-18334347D02*
X6329468Y-18343871D01*
X6329468Y-18343871D02*
X6338991Y-18362918D01*
X6338991Y-18362918D02*
X6338991Y-18381966D01*
X6338991Y-18381966D02*
X6329468Y-18410537D01*
X6329468Y-18410537D02*
X6215182Y-18524823D01*
X6215182Y-18524823D02*
X6338991Y-18524823D01*
X6577087Y-18524823D02*
X6577087Y-18324823D01*
X6662801Y-18524823D02*
X6662801Y-18420061D01*
X6662801Y-18420061D02*
X6653277Y-18401014D01*
X6653277Y-18401014D02*
X6634230Y-18391490D01*
X6634230Y-18391490D02*
X6605658Y-18391490D01*
X6605658Y-18391490D02*
X6586610Y-18401014D01*
X6586610Y-18401014D02*
X6577087Y-18410537D01*
X6786610Y-18524823D02*
X6767563Y-18515299D01*
X6767563Y-18515299D02*
X6758039Y-18505775D01*
X6758039Y-18505775D02*
X6748515Y-18486728D01*
X6748515Y-18486728D02*
X6748515Y-18429585D01*
X6748515Y-18429585D02*
X6758039Y-18410537D01*
X6758039Y-18410537D02*
X6767563Y-18401014D01*
X6767563Y-18401014D02*
X6786610Y-18391490D01*
X6786610Y-18391490D02*
X6815182Y-18391490D01*
X6815182Y-18391490D02*
X6834230Y-18401014D01*
X6834230Y-18401014D02*
X6843753Y-18410537D01*
X6843753Y-18410537D02*
X6853277Y-18429585D01*
X6853277Y-18429585D02*
X6853277Y-18486728D01*
X6853277Y-18486728D02*
X6843753Y-18505775D01*
X6843753Y-18505775D02*
X6834230Y-18515299D01*
X6834230Y-18515299D02*
X6815182Y-18524823D01*
X6815182Y-18524823D02*
X6786610Y-18524823D01*
X6967563Y-18524823D02*
X6948515Y-18515299D01*
X6948515Y-18515299D02*
X6938991Y-18496252D01*
X6938991Y-18496252D02*
X6938991Y-18324823D01*
X7119944Y-18515299D02*
X7100896Y-18524823D01*
X7100896Y-18524823D02*
X7062801Y-18524823D01*
X7062801Y-18524823D02*
X7043753Y-18515299D01*
X7043753Y-18515299D02*
X7034230Y-18496252D01*
X7034230Y-18496252D02*
X7034230Y-18420061D01*
X7034230Y-18420061D02*
X7043753Y-18401014D01*
X7043753Y-18401014D02*
X7062801Y-18391490D01*
X7062801Y-18391490D02*
X7100896Y-18391490D01*
X7100896Y-18391490D02*
X7119944Y-18401014D01*
X7119944Y-18401014D02*
X7129468Y-18420061D01*
X7129468Y-18420061D02*
X7129468Y-18439109D01*
X7129468Y-18439109D02*
X7034230Y-18458156D01*
X7205658Y-18515299D02*
X7224706Y-18524823D01*
X7224706Y-18524823D02*
X7262801Y-18524823D01*
X7262801Y-18524823D02*
X7281849Y-18515299D01*
X7281849Y-18515299D02*
X7291372Y-18496252D01*
X7291372Y-18496252D02*
X7291372Y-18486728D01*
X7291372Y-18486728D02*
X7281849Y-18467680D01*
X7281849Y-18467680D02*
X7262801Y-18458156D01*
X7262801Y-18458156D02*
X7234230Y-18458156D01*
X7234230Y-18458156D02*
X7215182Y-18448633D01*
X7215182Y-18448633D02*
X7205658Y-18429585D01*
X7205658Y-18429585D02*
X7205658Y-18420061D01*
X7205658Y-18420061D02*
X7215182Y-18401014D01*
X7215182Y-18401014D02*
X7234230Y-18391490D01*
X7234230Y-18391490D02*
X7262801Y-18391490D01*
X7262801Y-18391490D02*
X7281849Y-18401014D01*
X7358039Y-18601014D02*
X7367563Y-18591490D01*
X7367563Y-18591490D02*
X7386611Y-18562918D01*
X7386611Y-18562918D02*
X7396134Y-18543871D01*
X7396134Y-18543871D02*
X7405658Y-18515299D01*
X7405658Y-18515299D02*
X7415182Y-18467680D01*
X7415182Y-18467680D02*
X7415182Y-18429585D01*
X7415182Y-18429585D02*
X7405658Y-18381966D01*
X7405658Y-18381966D02*
X7396134Y-18353395D01*
X7396134Y-18353395D02*
X7386611Y-18334347D01*
X7386611Y-18334347D02*
X7367563Y-18305775D01*
X7367563Y-18305775D02*
X7358039Y-18296252D01*
M02*
