G04 #@! TF.GenerationSoftware,KiCad,Pcbnew,9.0.7+1*
G04 #@! TF.CreationDate,2026-02-15T05:04:03+00:00*
G04 #@! TF.ProjectId,left_pcb,6c656674-5f70-4636-922e-6b696361645f,v0.2*
G04 #@! TF.SameCoordinates,Original*
G04 #@! TF.FileFunction,Copper,L2,Bot*
G04 #@! TF.FilePolarity,Positive*
%FSLAX46Y46*%
G04 Gerber Fmt 4.6, Leading zero omitted, Abs format (unit mm)*
G04 Created by KiCad (PCBNEW 9.0.7+1) date 2026-02-15 05:04:03*
%MOMM*%
%LPD*%
G01*
G04 APERTURE LIST*
G04 #@! TA.AperFunction,ComponentPad*
%ADD10C,1.900000*%
G04 #@! TD*
G04 #@! TA.AperFunction,SMDPad,CuDef*
%ADD11R,2.600000X2.600000*%
G04 #@! TD*
G04 #@! TA.AperFunction,ComponentPad*
%ADD12C,1.700000*%
G04 #@! TD*
G04 #@! TA.AperFunction,ComponentPad*
%ADD13O,1.750000X1.200000*%
G04 #@! TD*
G04 APERTURE END LIST*
D10*
X40000000Y-127850000D03*
D11*
X38275000Y-138950000D03*
X26725000Y-136750000D03*
D10*
X40000000Y-110850000D03*
D11*
X38275000Y-121950000D03*
X26725000Y-119750000D03*
D10*
X40000000Y-93850000D03*
D11*
X38275000Y-104950000D03*
X26725000Y-102750000D03*
D10*
X40000000Y-76850000D03*
D11*
X38275000Y-87950000D03*
X26725000Y-85750000D03*
D10*
X57000000Y-140600000D03*
D11*
X55275000Y-151700000D03*
X43725000Y-149500000D03*
D10*
X57000000Y-123600000D03*
D11*
X55275000Y-134700000D03*
X43725000Y-132500000D03*
D10*
X57000000Y-106600000D03*
D11*
X55275000Y-117700000D03*
X43725000Y-115500000D03*
D10*
X57000000Y-89600000D03*
D11*
X55275000Y-100700000D03*
X43725000Y-98500000D03*
D10*
X57000000Y-72600000D03*
D11*
X55275000Y-83700000D03*
X43725000Y-81500000D03*
D10*
X74000000Y-129380000D03*
D11*
X72275000Y-140480000D03*
X60725000Y-138280000D03*
D10*
X74000000Y-112380000D03*
D11*
X72275000Y-123480000D03*
X60725000Y-121280000D03*
D10*
X74000000Y-95380000D03*
D11*
X72275000Y-106480000D03*
X60725000Y-104280000D03*
D10*
X74000000Y-78380000D03*
D11*
X72275000Y-89480000D03*
X60725000Y-87280000D03*
D10*
X74000000Y-61380000D03*
D11*
X72275000Y-72480000D03*
X60725000Y-70280000D03*
D10*
X91000000Y-116630000D03*
D11*
X89275000Y-127730000D03*
X77725000Y-125530000D03*
D10*
X91000000Y-99630000D03*
D11*
X89275000Y-110730000D03*
X77725000Y-108530000D03*
D10*
X91000000Y-82630000D03*
D11*
X89275000Y-93730000D03*
X77725000Y-91530000D03*
D10*
X91000000Y-65630000D03*
D11*
X89275000Y-76730000D03*
X77725000Y-74530000D03*
D10*
X108000000Y-119180000D03*
D11*
X106275000Y-130280000D03*
X94725000Y-128080000D03*
D10*
X108000000Y-102180000D03*
D11*
X106275000Y-113280000D03*
X94725000Y-111080000D03*
D10*
X108000000Y-85180000D03*
D11*
X106275000Y-96280000D03*
X94725000Y-94080000D03*
D10*
X108000000Y-68180000D03*
D11*
X106275000Y-79280000D03*
X94725000Y-77080000D03*
D10*
X125000000Y-122580000D03*
D11*
X123275000Y-133680000D03*
X111725000Y-131480000D03*
D10*
X125000000Y-105580000D03*
D11*
X123275000Y-116680000D03*
X111725000Y-114480000D03*
D10*
X125000000Y-88580000D03*
D11*
X123275000Y-99680000D03*
X111725000Y-97480000D03*
D10*
X125000000Y-71580000D03*
D11*
X123275000Y-82680000D03*
X111725000Y-80480000D03*
D10*
X142000000Y-119180000D03*
D11*
X140275000Y-130280000D03*
X128725000Y-128080000D03*
D10*
X142000000Y-102180000D03*
D11*
X140275000Y-113280000D03*
X128725000Y-111080000D03*
D10*
X142000000Y-85180000D03*
D11*
X140275000Y-96280000D03*
X128725000Y-94080000D03*
D10*
X114598327Y-140526481D03*
G04 #@! TA.AperFunction,SMDPad,CuDef*
G36*
X112478032Y-150103797D02*
G01*
X112026546Y-152664297D01*
X109466046Y-152212811D01*
X109917532Y-149652311D01*
X112478032Y-150103797D01*
G37*
G04 #@! TD.AperFunction*
G04 #@! TA.AperFunction,SMDPad,CuDef*
G36*
X101485528Y-145931583D02*
G01*
X101034042Y-148492083D01*
X98473542Y-148040597D01*
X98925028Y-145480097D01*
X101485528Y-145931583D01*
G37*
G04 #@! TD.AperFunction*
X133678751Y-147911120D03*
G04 #@! TA.AperFunction,SMDPad,CuDef*
G36*
X129151911Y-156613324D02*
G01*
X128053103Y-158969724D01*
X125696703Y-157870916D01*
X126795511Y-155514516D01*
X129151911Y-156613324D01*
G37*
G04 #@! TD.AperFunction*
G04 #@! TA.AperFunction,SMDPad,CuDef*
G36*
X119613817Y-149738206D02*
G01*
X118515009Y-152094606D01*
X116158609Y-150995798D01*
X117257417Y-148639398D01*
X119613817Y-149738206D01*
G37*
G04 #@! TD.AperFunction*
X149598432Y-156690139D03*
G04 #@! TA.AperFunction,SMDPad,CuDef*
G36*
X144330371Y-164964688D02*
G01*
X143030371Y-167216354D01*
X140778705Y-165916354D01*
X142078705Y-163664688D01*
X144330371Y-164964688D01*
G37*
G04 #@! TD.AperFunction*
G04 #@! TA.AperFunction,SMDPad,CuDef*
G36*
X135427778Y-157284432D02*
G01*
X134127778Y-159536098D01*
X131876112Y-158236098D01*
X133176112Y-155984432D01*
X135427778Y-157284432D01*
G37*
G04 #@! TD.AperFunction*
D12*
X69050000Y-55390000D03*
X69050000Y-40150000D03*
X71590000Y-55390000D03*
X71590000Y-40150000D03*
X74130000Y-55390000D03*
X74130000Y-40150000D03*
X76670000Y-55390000D03*
X76670000Y-40150000D03*
X79210000Y-55390000D03*
X79210000Y-40150000D03*
X81750000Y-55390000D03*
X81750000Y-40150000D03*
X84290000Y-55390000D03*
X84290000Y-40150000D03*
X86830000Y-55390000D03*
X86830000Y-40150000D03*
X89370000Y-55390000D03*
X89370000Y-40150000D03*
X91910000Y-55390000D03*
X91910000Y-40150000D03*
X94450000Y-55390000D03*
X94450000Y-40150000D03*
X96990000Y-55390000D03*
X96990000Y-40150000D03*
X94450000Y-42690000D03*
X94450000Y-45230000D03*
X94450000Y-47770000D03*
G04 #@! TA.AperFunction,ComponentPad*
G36*
G01*
X113365000Y-56170000D02*
X114635000Y-56170000D01*
G75*
G02*
X114875000Y-56410000I0J-240000D01*
G01*
X114875000Y-57130000D01*
G75*
G02*
X114635000Y-57370000I-240000J0D01*
G01*
X113365000Y-57370000D01*
G75*
G02*
X113125000Y-57130000I0J240000D01*
G01*
X113125000Y-56410000D01*
G75*
G02*
X113365000Y-56170000I240000J0D01*
G01*
G37*
G04 #@! TD.AperFunction*
D13*
X114000000Y-58770000D03*
M02*
