G04 #@! TF.GenerationSoftware,KiCad,Pcbnew,9.0.7+1*
G04 #@! TF.CreationDate,2026-02-15T05:04:03+00:00*
G04 #@! TF.ProjectId,left_pcb,6c656674-5f70-4636-922e-6b696361645f,v0.2*
G04 #@! TF.SameCoordinates,Original*
G04 #@! TF.FileFunction,Legend,Bot*
G04 #@! TF.FilePolarity,Positive*
%FSLAX46Y46*%
G04 Gerber Fmt 4.6, Leading zero omitted, Abs format (unit mm)*
G04 Created by KiCad (PCBNEW 9.0.7+1) date 2026-02-15 05:04:03*
%MOMM*%
%LPD*%
G01*
G04 APERTURE LIST*
%ADD10C,0.150000*%
%ADD11C,0.120000*%
%ADD12C,5.100000*%
%ADD13C,2.000000*%
%ADD14C,3.100000*%
%ADD15C,1.800000*%
%ADD16O,1.850000X1.300000*%
%ADD17C,1.000000*%
%ADD18C,2.300000*%
G04 APERTURE END LIST*
D10*
X69504819Y-51549523D02*
X69028628Y-51216190D01*
X69504819Y-50978095D02*
X68504819Y-50978095D01*
X68504819Y-50978095D02*
X68504819Y-51359047D01*
X68504819Y-51359047D02*
X68552438Y-51454285D01*
X68552438Y-51454285D02*
X68600057Y-51501904D01*
X68600057Y-51501904D02*
X68695295Y-51549523D01*
X68695295Y-51549523D02*
X68838152Y-51549523D01*
X68838152Y-51549523D02*
X68933390Y-51501904D01*
X68933390Y-51501904D02*
X68981009Y-51454285D01*
X68981009Y-51454285D02*
X69028628Y-51359047D01*
X69028628Y-51359047D02*
X69028628Y-50978095D01*
X69219104Y-51930476D02*
X69219104Y-52406666D01*
X69504819Y-51835238D02*
X68504819Y-52168571D01*
X68504819Y-52168571D02*
X69504819Y-52501904D01*
X68504819Y-52740000D02*
X69504819Y-52978095D01*
X69504819Y-52978095D02*
X68790533Y-53168571D01*
X68790533Y-53168571D02*
X69504819Y-53359047D01*
X69504819Y-53359047D02*
X68504819Y-53597143D01*
X69504819Y-42038095D02*
X68504819Y-42038095D01*
X68504819Y-42038095D02*
X68504819Y-42276190D01*
X68504819Y-42276190D02*
X68552438Y-42419047D01*
X68552438Y-42419047D02*
X68647676Y-42514285D01*
X68647676Y-42514285D02*
X68742914Y-42561904D01*
X68742914Y-42561904D02*
X68933390Y-42609523D01*
X68933390Y-42609523D02*
X69076247Y-42609523D01*
X69076247Y-42609523D02*
X69266723Y-42561904D01*
X69266723Y-42561904D02*
X69361961Y-42514285D01*
X69361961Y-42514285D02*
X69457200Y-42419047D01*
X69457200Y-42419047D02*
X69504819Y-42276190D01*
X69504819Y-42276190D02*
X69504819Y-42038095D01*
X69504819Y-43038095D02*
X68504819Y-43038095D01*
X68504819Y-43038095D02*
X68504819Y-43419047D01*
X68504819Y-43419047D02*
X68552438Y-43514285D01*
X68552438Y-43514285D02*
X68600057Y-43561904D01*
X68600057Y-43561904D02*
X68695295Y-43609523D01*
X68695295Y-43609523D02*
X68838152Y-43609523D01*
X68838152Y-43609523D02*
X68933390Y-43561904D01*
X68933390Y-43561904D02*
X68981009Y-43514285D01*
X68981009Y-43514285D02*
X69028628Y-43419047D01*
X69028628Y-43419047D02*
X69028628Y-43038095D01*
X69409580Y-44609523D02*
X69457200Y-44561904D01*
X69457200Y-44561904D02*
X69504819Y-44419047D01*
X69504819Y-44419047D02*
X69504819Y-44323809D01*
X69504819Y-44323809D02*
X69457200Y-44180952D01*
X69457200Y-44180952D02*
X69361961Y-44085714D01*
X69361961Y-44085714D02*
X69266723Y-44038095D01*
X69266723Y-44038095D02*
X69076247Y-43990476D01*
X69076247Y-43990476D02*
X68933390Y-43990476D01*
X68933390Y-43990476D02*
X68742914Y-44038095D01*
X68742914Y-44038095D02*
X68647676Y-44085714D01*
X68647676Y-44085714D02*
X68552438Y-44180952D01*
X68552438Y-44180952D02*
X68504819Y-44323809D01*
X68504819Y-44323809D02*
X68504819Y-44419047D01*
X68504819Y-44419047D02*
X68552438Y-44561904D01*
X68552438Y-44561904D02*
X68600057Y-44609523D01*
X71092438Y-51478095D02*
X71044819Y-51382857D01*
X71044819Y-51382857D02*
X71044819Y-51240000D01*
X71044819Y-51240000D02*
X71092438Y-51097143D01*
X71092438Y-51097143D02*
X71187676Y-51001905D01*
X71187676Y-51001905D02*
X71282914Y-50954286D01*
X71282914Y-50954286D02*
X71473390Y-50906667D01*
X71473390Y-50906667D02*
X71616247Y-50906667D01*
X71616247Y-50906667D02*
X71806723Y-50954286D01*
X71806723Y-50954286D02*
X71901961Y-51001905D01*
X71901961Y-51001905D02*
X71997200Y-51097143D01*
X71997200Y-51097143D02*
X72044819Y-51240000D01*
X72044819Y-51240000D02*
X72044819Y-51335238D01*
X72044819Y-51335238D02*
X71997200Y-51478095D01*
X71997200Y-51478095D02*
X71949580Y-51525714D01*
X71949580Y-51525714D02*
X71616247Y-51525714D01*
X71616247Y-51525714D02*
X71616247Y-51335238D01*
X72044819Y-51954286D02*
X71044819Y-51954286D01*
X71044819Y-51954286D02*
X72044819Y-52525714D01*
X72044819Y-52525714D02*
X71044819Y-52525714D01*
X72044819Y-53001905D02*
X71044819Y-53001905D01*
X71044819Y-53001905D02*
X71044819Y-53240000D01*
X71044819Y-53240000D02*
X71092438Y-53382857D01*
X71092438Y-53382857D02*
X71187676Y-53478095D01*
X71187676Y-53478095D02*
X71282914Y-53525714D01*
X71282914Y-53525714D02*
X71473390Y-53573333D01*
X71473390Y-53573333D02*
X71616247Y-53573333D01*
X71616247Y-53573333D02*
X71806723Y-53525714D01*
X71806723Y-53525714D02*
X71901961Y-53478095D01*
X71901961Y-53478095D02*
X71997200Y-53382857D01*
X71997200Y-53382857D02*
X72044819Y-53240000D01*
X72044819Y-53240000D02*
X72044819Y-53001905D01*
X72044819Y-42038095D02*
X71044819Y-42038095D01*
X71044819Y-42038095D02*
X71044819Y-42276190D01*
X71044819Y-42276190D02*
X71092438Y-42419047D01*
X71092438Y-42419047D02*
X71187676Y-42514285D01*
X71187676Y-42514285D02*
X71282914Y-42561904D01*
X71282914Y-42561904D02*
X71473390Y-42609523D01*
X71473390Y-42609523D02*
X71616247Y-42609523D01*
X71616247Y-42609523D02*
X71806723Y-42561904D01*
X71806723Y-42561904D02*
X71901961Y-42514285D01*
X71901961Y-42514285D02*
X71997200Y-42419047D01*
X71997200Y-42419047D02*
X72044819Y-42276190D01*
X72044819Y-42276190D02*
X72044819Y-42038095D01*
X72044819Y-43038095D02*
X71044819Y-43038095D01*
X71044819Y-43038095D02*
X71044819Y-43419047D01*
X71044819Y-43419047D02*
X71092438Y-43514285D01*
X71092438Y-43514285D02*
X71140057Y-43561904D01*
X71140057Y-43561904D02*
X71235295Y-43609523D01*
X71235295Y-43609523D02*
X71378152Y-43609523D01*
X71378152Y-43609523D02*
X71473390Y-43561904D01*
X71473390Y-43561904D02*
X71521009Y-43514285D01*
X71521009Y-43514285D02*
X71568628Y-43419047D01*
X71568628Y-43419047D02*
X71568628Y-43038095D01*
X72044819Y-44038095D02*
X71044819Y-44038095D01*
X71044819Y-44038095D02*
X71044819Y-44276190D01*
X71044819Y-44276190D02*
X71092438Y-44419047D01*
X71092438Y-44419047D02*
X71187676Y-44514285D01*
X71187676Y-44514285D02*
X71282914Y-44561904D01*
X71282914Y-44561904D02*
X71473390Y-44609523D01*
X71473390Y-44609523D02*
X71616247Y-44609523D01*
X71616247Y-44609523D02*
X71806723Y-44561904D01*
X71806723Y-44561904D02*
X71901961Y-44514285D01*
X71901961Y-44514285D02*
X71997200Y-44419047D01*
X71997200Y-44419047D02*
X72044819Y-44276190D01*
X72044819Y-44276190D02*
X72044819Y-44038095D01*
X74584819Y-51692380D02*
X74108628Y-51359047D01*
X74584819Y-51120952D02*
X73584819Y-51120952D01*
X73584819Y-51120952D02*
X73584819Y-51501904D01*
X73584819Y-51501904D02*
X73632438Y-51597142D01*
X73632438Y-51597142D02*
X73680057Y-51644761D01*
X73680057Y-51644761D02*
X73775295Y-51692380D01*
X73775295Y-51692380D02*
X73918152Y-51692380D01*
X73918152Y-51692380D02*
X74013390Y-51644761D01*
X74013390Y-51644761D02*
X74061009Y-51597142D01*
X74061009Y-51597142D02*
X74108628Y-51501904D01*
X74108628Y-51501904D02*
X74108628Y-51120952D01*
X74537200Y-52073333D02*
X74584819Y-52216190D01*
X74584819Y-52216190D02*
X74584819Y-52454285D01*
X74584819Y-52454285D02*
X74537200Y-52549523D01*
X74537200Y-52549523D02*
X74489580Y-52597142D01*
X74489580Y-52597142D02*
X74394342Y-52644761D01*
X74394342Y-52644761D02*
X74299104Y-52644761D01*
X74299104Y-52644761D02*
X74203866Y-52597142D01*
X74203866Y-52597142D02*
X74156247Y-52549523D01*
X74156247Y-52549523D02*
X74108628Y-52454285D01*
X74108628Y-52454285D02*
X74061009Y-52263809D01*
X74061009Y-52263809D02*
X74013390Y-52168571D01*
X74013390Y-52168571D02*
X73965771Y-52120952D01*
X73965771Y-52120952D02*
X73870533Y-52073333D01*
X73870533Y-52073333D02*
X73775295Y-52073333D01*
X73775295Y-52073333D02*
X73680057Y-52120952D01*
X73680057Y-52120952D02*
X73632438Y-52168571D01*
X73632438Y-52168571D02*
X73584819Y-52263809D01*
X73584819Y-52263809D02*
X73584819Y-52501904D01*
X73584819Y-52501904D02*
X73632438Y-52644761D01*
X73584819Y-52930476D02*
X73584819Y-53501904D01*
X74584819Y-53216190D02*
X73584819Y-53216190D01*
X73632438Y-42538095D02*
X73584819Y-42442857D01*
X73584819Y-42442857D02*
X73584819Y-42300000D01*
X73584819Y-42300000D02*
X73632438Y-42157143D01*
X73632438Y-42157143D02*
X73727676Y-42061905D01*
X73727676Y-42061905D02*
X73822914Y-42014286D01*
X73822914Y-42014286D02*
X74013390Y-41966667D01*
X74013390Y-41966667D02*
X74156247Y-41966667D01*
X74156247Y-41966667D02*
X74346723Y-42014286D01*
X74346723Y-42014286D02*
X74441961Y-42061905D01*
X74441961Y-42061905D02*
X74537200Y-42157143D01*
X74537200Y-42157143D02*
X74584819Y-42300000D01*
X74584819Y-42300000D02*
X74584819Y-42395238D01*
X74584819Y-42395238D02*
X74537200Y-42538095D01*
X74537200Y-42538095D02*
X74489580Y-42585714D01*
X74489580Y-42585714D02*
X74156247Y-42585714D01*
X74156247Y-42585714D02*
X74156247Y-42395238D01*
X74584819Y-43014286D02*
X73584819Y-43014286D01*
X73584819Y-43014286D02*
X74584819Y-43585714D01*
X74584819Y-43585714D02*
X73584819Y-43585714D01*
X74584819Y-44061905D02*
X73584819Y-44061905D01*
X73584819Y-44061905D02*
X73584819Y-44300000D01*
X73584819Y-44300000D02*
X73632438Y-44442857D01*
X73632438Y-44442857D02*
X73727676Y-44538095D01*
X73727676Y-44538095D02*
X73822914Y-44585714D01*
X73822914Y-44585714D02*
X74013390Y-44633333D01*
X74013390Y-44633333D02*
X74156247Y-44633333D01*
X74156247Y-44633333D02*
X74346723Y-44585714D01*
X74346723Y-44585714D02*
X74441961Y-44538095D01*
X74441961Y-44538095D02*
X74537200Y-44442857D01*
X74537200Y-44442857D02*
X74584819Y-44300000D01*
X74584819Y-44300000D02*
X74584819Y-44061905D01*
X76124819Y-50906667D02*
X77124819Y-51240000D01*
X77124819Y-51240000D02*
X76124819Y-51573333D01*
X77029580Y-52478095D02*
X77077200Y-52430476D01*
X77077200Y-52430476D02*
X77124819Y-52287619D01*
X77124819Y-52287619D02*
X77124819Y-52192381D01*
X77124819Y-52192381D02*
X77077200Y-52049524D01*
X77077200Y-52049524D02*
X76981961Y-51954286D01*
X76981961Y-51954286D02*
X76886723Y-51906667D01*
X76886723Y-51906667D02*
X76696247Y-51859048D01*
X76696247Y-51859048D02*
X76553390Y-51859048D01*
X76553390Y-51859048D02*
X76362914Y-51906667D01*
X76362914Y-51906667D02*
X76267676Y-51954286D01*
X76267676Y-51954286D02*
X76172438Y-52049524D01*
X76172438Y-52049524D02*
X76124819Y-52192381D01*
X76124819Y-52192381D02*
X76124819Y-52287619D01*
X76124819Y-52287619D02*
X76172438Y-52430476D01*
X76172438Y-52430476D02*
X76220057Y-52478095D01*
X77029580Y-53478095D02*
X77077200Y-53430476D01*
X77077200Y-53430476D02*
X77124819Y-53287619D01*
X77124819Y-53287619D02*
X77124819Y-53192381D01*
X77124819Y-53192381D02*
X77077200Y-53049524D01*
X77077200Y-53049524D02*
X76981961Y-52954286D01*
X76981961Y-52954286D02*
X76886723Y-52906667D01*
X76886723Y-52906667D02*
X76696247Y-52859048D01*
X76696247Y-52859048D02*
X76553390Y-52859048D01*
X76553390Y-52859048D02*
X76362914Y-52906667D01*
X76362914Y-52906667D02*
X76267676Y-52954286D01*
X76267676Y-52954286D02*
X76172438Y-53049524D01*
X76172438Y-53049524D02*
X76124819Y-53192381D01*
X76124819Y-53192381D02*
X76124819Y-53287619D01*
X76124819Y-53287619D02*
X76172438Y-53430476D01*
X76172438Y-53430476D02*
X76220057Y-53478095D01*
X76172438Y-42538095D02*
X76124819Y-42442857D01*
X76124819Y-42442857D02*
X76124819Y-42300000D01*
X76124819Y-42300000D02*
X76172438Y-42157143D01*
X76172438Y-42157143D02*
X76267676Y-42061905D01*
X76267676Y-42061905D02*
X76362914Y-42014286D01*
X76362914Y-42014286D02*
X76553390Y-41966667D01*
X76553390Y-41966667D02*
X76696247Y-41966667D01*
X76696247Y-41966667D02*
X76886723Y-42014286D01*
X76886723Y-42014286D02*
X76981961Y-42061905D01*
X76981961Y-42061905D02*
X77077200Y-42157143D01*
X77077200Y-42157143D02*
X77124819Y-42300000D01*
X77124819Y-42300000D02*
X77124819Y-42395238D01*
X77124819Y-42395238D02*
X77077200Y-42538095D01*
X77077200Y-42538095D02*
X77029580Y-42585714D01*
X77029580Y-42585714D02*
X76696247Y-42585714D01*
X76696247Y-42585714D02*
X76696247Y-42395238D01*
X77124819Y-43014286D02*
X76124819Y-43014286D01*
X76124819Y-43014286D02*
X77124819Y-43585714D01*
X77124819Y-43585714D02*
X76124819Y-43585714D01*
X77124819Y-44061905D02*
X76124819Y-44061905D01*
X76124819Y-44061905D02*
X76124819Y-44300000D01*
X76124819Y-44300000D02*
X76172438Y-44442857D01*
X76172438Y-44442857D02*
X76267676Y-44538095D01*
X76267676Y-44538095D02*
X76362914Y-44585714D01*
X76362914Y-44585714D02*
X76553390Y-44633333D01*
X76553390Y-44633333D02*
X76696247Y-44633333D01*
X76696247Y-44633333D02*
X76886723Y-44585714D01*
X76886723Y-44585714D02*
X76981961Y-44538095D01*
X76981961Y-44538095D02*
X77077200Y-44442857D01*
X77077200Y-44442857D02*
X77124819Y-44300000D01*
X77124819Y-44300000D02*
X77124819Y-44061905D01*
X79569580Y-52073333D02*
X79617200Y-52025714D01*
X79617200Y-52025714D02*
X79664819Y-51882857D01*
X79664819Y-51882857D02*
X79664819Y-51787619D01*
X79664819Y-51787619D02*
X79617200Y-51644762D01*
X79617200Y-51644762D02*
X79521961Y-51549524D01*
X79521961Y-51549524D02*
X79426723Y-51501905D01*
X79426723Y-51501905D02*
X79236247Y-51454286D01*
X79236247Y-51454286D02*
X79093390Y-51454286D01*
X79093390Y-51454286D02*
X78902914Y-51501905D01*
X78902914Y-51501905D02*
X78807676Y-51549524D01*
X78807676Y-51549524D02*
X78712438Y-51644762D01*
X78712438Y-51644762D02*
X78664819Y-51787619D01*
X78664819Y-51787619D02*
X78664819Y-51882857D01*
X78664819Y-51882857D02*
X78712438Y-52025714D01*
X78712438Y-52025714D02*
X78760057Y-52073333D01*
X79664819Y-53025714D02*
X79664819Y-52454286D01*
X79664819Y-52740000D02*
X78664819Y-52740000D01*
X78664819Y-52740000D02*
X78807676Y-52644762D01*
X78807676Y-52644762D02*
X78902914Y-52549524D01*
X78902914Y-52549524D02*
X78950533Y-52454286D01*
X79664819Y-42085714D02*
X78664819Y-42085714D01*
X78664819Y-42085714D02*
X78664819Y-42323809D01*
X78664819Y-42323809D02*
X78712438Y-42466666D01*
X78712438Y-42466666D02*
X78807676Y-42561904D01*
X78807676Y-42561904D02*
X78902914Y-42609523D01*
X78902914Y-42609523D02*
X79093390Y-42657142D01*
X79093390Y-42657142D02*
X79236247Y-42657142D01*
X79236247Y-42657142D02*
X79426723Y-42609523D01*
X79426723Y-42609523D02*
X79521961Y-42561904D01*
X79521961Y-42561904D02*
X79617200Y-42466666D01*
X79617200Y-42466666D02*
X79664819Y-42323809D01*
X79664819Y-42323809D02*
X79664819Y-42085714D01*
X79664819Y-43085714D02*
X78664819Y-43085714D01*
X78664819Y-43085714D02*
X78664819Y-43466666D01*
X78664819Y-43466666D02*
X78712438Y-43561904D01*
X78712438Y-43561904D02*
X78760057Y-43609523D01*
X78760057Y-43609523D02*
X78855295Y-43657142D01*
X78855295Y-43657142D02*
X78998152Y-43657142D01*
X78998152Y-43657142D02*
X79093390Y-43609523D01*
X79093390Y-43609523D02*
X79141009Y-43561904D01*
X79141009Y-43561904D02*
X79188628Y-43466666D01*
X79188628Y-43466666D02*
X79188628Y-43085714D01*
X79141009Y-44085714D02*
X79141009Y-44419047D01*
X79664819Y-44561904D02*
X79664819Y-44085714D01*
X79664819Y-44085714D02*
X78664819Y-44085714D01*
X78664819Y-44085714D02*
X78664819Y-44561904D01*
X82109580Y-52073333D02*
X82157200Y-52025714D01*
X82157200Y-52025714D02*
X82204819Y-51882857D01*
X82204819Y-51882857D02*
X82204819Y-51787619D01*
X82204819Y-51787619D02*
X82157200Y-51644762D01*
X82157200Y-51644762D02*
X82061961Y-51549524D01*
X82061961Y-51549524D02*
X81966723Y-51501905D01*
X81966723Y-51501905D02*
X81776247Y-51454286D01*
X81776247Y-51454286D02*
X81633390Y-51454286D01*
X81633390Y-51454286D02*
X81442914Y-51501905D01*
X81442914Y-51501905D02*
X81347676Y-51549524D01*
X81347676Y-51549524D02*
X81252438Y-51644762D01*
X81252438Y-51644762D02*
X81204819Y-51787619D01*
X81204819Y-51787619D02*
X81204819Y-51882857D01*
X81204819Y-51882857D02*
X81252438Y-52025714D01*
X81252438Y-52025714D02*
X81300057Y-52073333D01*
X81300057Y-52454286D02*
X81252438Y-52501905D01*
X81252438Y-52501905D02*
X81204819Y-52597143D01*
X81204819Y-52597143D02*
X81204819Y-52835238D01*
X81204819Y-52835238D02*
X81252438Y-52930476D01*
X81252438Y-52930476D02*
X81300057Y-52978095D01*
X81300057Y-52978095D02*
X81395295Y-53025714D01*
X81395295Y-53025714D02*
X81490533Y-53025714D01*
X81490533Y-53025714D02*
X81633390Y-52978095D01*
X81633390Y-52978095D02*
X82204819Y-52406667D01*
X82204819Y-52406667D02*
X82204819Y-53025714D01*
X82204819Y-43133333D02*
X81728628Y-42800000D01*
X82204819Y-42561905D02*
X81204819Y-42561905D01*
X81204819Y-42561905D02*
X81204819Y-42942857D01*
X81204819Y-42942857D02*
X81252438Y-43038095D01*
X81252438Y-43038095D02*
X81300057Y-43085714D01*
X81300057Y-43085714D02*
X81395295Y-43133333D01*
X81395295Y-43133333D02*
X81538152Y-43133333D01*
X81538152Y-43133333D02*
X81633390Y-43085714D01*
X81633390Y-43085714D02*
X81681009Y-43038095D01*
X81681009Y-43038095D02*
X81728628Y-42942857D01*
X81728628Y-42942857D02*
X81728628Y-42561905D01*
X81300057Y-43514286D02*
X81252438Y-43561905D01*
X81252438Y-43561905D02*
X81204819Y-43657143D01*
X81204819Y-43657143D02*
X81204819Y-43895238D01*
X81204819Y-43895238D02*
X81252438Y-43990476D01*
X81252438Y-43990476D02*
X81300057Y-44038095D01*
X81300057Y-44038095D02*
X81395295Y-44085714D01*
X81395295Y-44085714D02*
X81490533Y-44085714D01*
X81490533Y-44085714D02*
X81633390Y-44038095D01*
X81633390Y-44038095D02*
X82204819Y-43466667D01*
X82204819Y-43466667D02*
X82204819Y-44085714D01*
X84649580Y-52073333D02*
X84697200Y-52025714D01*
X84697200Y-52025714D02*
X84744819Y-51882857D01*
X84744819Y-51882857D02*
X84744819Y-51787619D01*
X84744819Y-51787619D02*
X84697200Y-51644762D01*
X84697200Y-51644762D02*
X84601961Y-51549524D01*
X84601961Y-51549524D02*
X84506723Y-51501905D01*
X84506723Y-51501905D02*
X84316247Y-51454286D01*
X84316247Y-51454286D02*
X84173390Y-51454286D01*
X84173390Y-51454286D02*
X83982914Y-51501905D01*
X83982914Y-51501905D02*
X83887676Y-51549524D01*
X83887676Y-51549524D02*
X83792438Y-51644762D01*
X83792438Y-51644762D02*
X83744819Y-51787619D01*
X83744819Y-51787619D02*
X83744819Y-51882857D01*
X83744819Y-51882857D02*
X83792438Y-52025714D01*
X83792438Y-52025714D02*
X83840057Y-52073333D01*
X83744819Y-52406667D02*
X83744819Y-53025714D01*
X83744819Y-53025714D02*
X84125771Y-52692381D01*
X84125771Y-52692381D02*
X84125771Y-52835238D01*
X84125771Y-52835238D02*
X84173390Y-52930476D01*
X84173390Y-52930476D02*
X84221009Y-52978095D01*
X84221009Y-52978095D02*
X84316247Y-53025714D01*
X84316247Y-53025714D02*
X84554342Y-53025714D01*
X84554342Y-53025714D02*
X84649580Y-52978095D01*
X84649580Y-52978095D02*
X84697200Y-52930476D01*
X84697200Y-52930476D02*
X84744819Y-52835238D01*
X84744819Y-52835238D02*
X84744819Y-52549524D01*
X84744819Y-52549524D02*
X84697200Y-52454286D01*
X84697200Y-52454286D02*
X84649580Y-52406667D01*
X84744819Y-43133333D02*
X84268628Y-42800000D01*
X84744819Y-42561905D02*
X83744819Y-42561905D01*
X83744819Y-42561905D02*
X83744819Y-42942857D01*
X83744819Y-42942857D02*
X83792438Y-43038095D01*
X83792438Y-43038095D02*
X83840057Y-43085714D01*
X83840057Y-43085714D02*
X83935295Y-43133333D01*
X83935295Y-43133333D02*
X84078152Y-43133333D01*
X84078152Y-43133333D02*
X84173390Y-43085714D01*
X84173390Y-43085714D02*
X84221009Y-43038095D01*
X84221009Y-43038095D02*
X84268628Y-42942857D01*
X84268628Y-42942857D02*
X84268628Y-42561905D01*
X83744819Y-43466667D02*
X83744819Y-44085714D01*
X83744819Y-44085714D02*
X84125771Y-43752381D01*
X84125771Y-43752381D02*
X84125771Y-43895238D01*
X84125771Y-43895238D02*
X84173390Y-43990476D01*
X84173390Y-43990476D02*
X84221009Y-44038095D01*
X84221009Y-44038095D02*
X84316247Y-44085714D01*
X84316247Y-44085714D02*
X84554342Y-44085714D01*
X84554342Y-44085714D02*
X84649580Y-44038095D01*
X84649580Y-44038095D02*
X84697200Y-43990476D01*
X84697200Y-43990476D02*
X84744819Y-43895238D01*
X84744819Y-43895238D02*
X84744819Y-43609524D01*
X84744819Y-43609524D02*
X84697200Y-43514286D01*
X84697200Y-43514286D02*
X84649580Y-43466667D01*
X87189580Y-52073333D02*
X87237200Y-52025714D01*
X87237200Y-52025714D02*
X87284819Y-51882857D01*
X87284819Y-51882857D02*
X87284819Y-51787619D01*
X87284819Y-51787619D02*
X87237200Y-51644762D01*
X87237200Y-51644762D02*
X87141961Y-51549524D01*
X87141961Y-51549524D02*
X87046723Y-51501905D01*
X87046723Y-51501905D02*
X86856247Y-51454286D01*
X86856247Y-51454286D02*
X86713390Y-51454286D01*
X86713390Y-51454286D02*
X86522914Y-51501905D01*
X86522914Y-51501905D02*
X86427676Y-51549524D01*
X86427676Y-51549524D02*
X86332438Y-51644762D01*
X86332438Y-51644762D02*
X86284819Y-51787619D01*
X86284819Y-51787619D02*
X86284819Y-51882857D01*
X86284819Y-51882857D02*
X86332438Y-52025714D01*
X86332438Y-52025714D02*
X86380057Y-52073333D01*
X86618152Y-52930476D02*
X87284819Y-52930476D01*
X86237200Y-52692381D02*
X86951485Y-52454286D01*
X86951485Y-52454286D02*
X86951485Y-53073333D01*
X87284819Y-43133333D02*
X86808628Y-42800000D01*
X87284819Y-42561905D02*
X86284819Y-42561905D01*
X86284819Y-42561905D02*
X86284819Y-42942857D01*
X86284819Y-42942857D02*
X86332438Y-43038095D01*
X86332438Y-43038095D02*
X86380057Y-43085714D01*
X86380057Y-43085714D02*
X86475295Y-43133333D01*
X86475295Y-43133333D02*
X86618152Y-43133333D01*
X86618152Y-43133333D02*
X86713390Y-43085714D01*
X86713390Y-43085714D02*
X86761009Y-43038095D01*
X86761009Y-43038095D02*
X86808628Y-42942857D01*
X86808628Y-42942857D02*
X86808628Y-42561905D01*
X86284819Y-44038095D02*
X86284819Y-43561905D01*
X86284819Y-43561905D02*
X86761009Y-43514286D01*
X86761009Y-43514286D02*
X86713390Y-43561905D01*
X86713390Y-43561905D02*
X86665771Y-43657143D01*
X86665771Y-43657143D02*
X86665771Y-43895238D01*
X86665771Y-43895238D02*
X86713390Y-43990476D01*
X86713390Y-43990476D02*
X86761009Y-44038095D01*
X86761009Y-44038095D02*
X86856247Y-44085714D01*
X86856247Y-44085714D02*
X87094342Y-44085714D01*
X87094342Y-44085714D02*
X87189580Y-44038095D01*
X87189580Y-44038095D02*
X87237200Y-43990476D01*
X87237200Y-43990476D02*
X87284819Y-43895238D01*
X87284819Y-43895238D02*
X87284819Y-43657143D01*
X87284819Y-43657143D02*
X87237200Y-43561905D01*
X87237200Y-43561905D02*
X87189580Y-43514286D01*
X89729580Y-52073333D02*
X89777200Y-52025714D01*
X89777200Y-52025714D02*
X89824819Y-51882857D01*
X89824819Y-51882857D02*
X89824819Y-51787619D01*
X89824819Y-51787619D02*
X89777200Y-51644762D01*
X89777200Y-51644762D02*
X89681961Y-51549524D01*
X89681961Y-51549524D02*
X89586723Y-51501905D01*
X89586723Y-51501905D02*
X89396247Y-51454286D01*
X89396247Y-51454286D02*
X89253390Y-51454286D01*
X89253390Y-51454286D02*
X89062914Y-51501905D01*
X89062914Y-51501905D02*
X88967676Y-51549524D01*
X88967676Y-51549524D02*
X88872438Y-51644762D01*
X88872438Y-51644762D02*
X88824819Y-51787619D01*
X88824819Y-51787619D02*
X88824819Y-51882857D01*
X88824819Y-51882857D02*
X88872438Y-52025714D01*
X88872438Y-52025714D02*
X88920057Y-52073333D01*
X88824819Y-52978095D02*
X88824819Y-52501905D01*
X88824819Y-52501905D02*
X89301009Y-52454286D01*
X89301009Y-52454286D02*
X89253390Y-52501905D01*
X89253390Y-52501905D02*
X89205771Y-52597143D01*
X89205771Y-52597143D02*
X89205771Y-52835238D01*
X89205771Y-52835238D02*
X89253390Y-52930476D01*
X89253390Y-52930476D02*
X89301009Y-52978095D01*
X89301009Y-52978095D02*
X89396247Y-53025714D01*
X89396247Y-53025714D02*
X89634342Y-53025714D01*
X89634342Y-53025714D02*
X89729580Y-52978095D01*
X89729580Y-52978095D02*
X89777200Y-52930476D01*
X89777200Y-52930476D02*
X89824819Y-52835238D01*
X89824819Y-52835238D02*
X89824819Y-52597143D01*
X89824819Y-52597143D02*
X89777200Y-52501905D01*
X89777200Y-52501905D02*
X89729580Y-52454286D01*
X89824819Y-43133333D02*
X89348628Y-42800000D01*
X89824819Y-42561905D02*
X88824819Y-42561905D01*
X88824819Y-42561905D02*
X88824819Y-42942857D01*
X88824819Y-42942857D02*
X88872438Y-43038095D01*
X88872438Y-43038095D02*
X88920057Y-43085714D01*
X88920057Y-43085714D02*
X89015295Y-43133333D01*
X89015295Y-43133333D02*
X89158152Y-43133333D01*
X89158152Y-43133333D02*
X89253390Y-43085714D01*
X89253390Y-43085714D02*
X89301009Y-43038095D01*
X89301009Y-43038095D02*
X89348628Y-42942857D01*
X89348628Y-42942857D02*
X89348628Y-42561905D01*
X89158152Y-43990476D02*
X89824819Y-43990476D01*
X88777200Y-43752381D02*
X89491485Y-43514286D01*
X89491485Y-43514286D02*
X89491485Y-44133333D01*
X92269580Y-52073333D02*
X92317200Y-52025714D01*
X92317200Y-52025714D02*
X92364819Y-51882857D01*
X92364819Y-51882857D02*
X92364819Y-51787619D01*
X92364819Y-51787619D02*
X92317200Y-51644762D01*
X92317200Y-51644762D02*
X92221961Y-51549524D01*
X92221961Y-51549524D02*
X92126723Y-51501905D01*
X92126723Y-51501905D02*
X91936247Y-51454286D01*
X91936247Y-51454286D02*
X91793390Y-51454286D01*
X91793390Y-51454286D02*
X91602914Y-51501905D01*
X91602914Y-51501905D02*
X91507676Y-51549524D01*
X91507676Y-51549524D02*
X91412438Y-51644762D01*
X91412438Y-51644762D02*
X91364819Y-51787619D01*
X91364819Y-51787619D02*
X91364819Y-51882857D01*
X91364819Y-51882857D02*
X91412438Y-52025714D01*
X91412438Y-52025714D02*
X91460057Y-52073333D01*
X91364819Y-52930476D02*
X91364819Y-52740000D01*
X91364819Y-52740000D02*
X91412438Y-52644762D01*
X91412438Y-52644762D02*
X91460057Y-52597143D01*
X91460057Y-52597143D02*
X91602914Y-52501905D01*
X91602914Y-52501905D02*
X91793390Y-52454286D01*
X91793390Y-52454286D02*
X92174342Y-52454286D01*
X92174342Y-52454286D02*
X92269580Y-52501905D01*
X92269580Y-52501905D02*
X92317200Y-52549524D01*
X92317200Y-52549524D02*
X92364819Y-52644762D01*
X92364819Y-52644762D02*
X92364819Y-52835238D01*
X92364819Y-52835238D02*
X92317200Y-52930476D01*
X92317200Y-52930476D02*
X92269580Y-52978095D01*
X92269580Y-52978095D02*
X92174342Y-53025714D01*
X92174342Y-53025714D02*
X91936247Y-53025714D01*
X91936247Y-53025714D02*
X91841009Y-52978095D01*
X91841009Y-52978095D02*
X91793390Y-52930476D01*
X91793390Y-52930476D02*
X91745771Y-52835238D01*
X91745771Y-52835238D02*
X91745771Y-52644762D01*
X91745771Y-52644762D02*
X91793390Y-52549524D01*
X91793390Y-52549524D02*
X91841009Y-52501905D01*
X91841009Y-52501905D02*
X91936247Y-52454286D01*
X92364819Y-43133333D02*
X91888628Y-42800000D01*
X92364819Y-42561905D02*
X91364819Y-42561905D01*
X91364819Y-42561905D02*
X91364819Y-42942857D01*
X91364819Y-42942857D02*
X91412438Y-43038095D01*
X91412438Y-43038095D02*
X91460057Y-43085714D01*
X91460057Y-43085714D02*
X91555295Y-43133333D01*
X91555295Y-43133333D02*
X91698152Y-43133333D01*
X91698152Y-43133333D02*
X91793390Y-43085714D01*
X91793390Y-43085714D02*
X91841009Y-43038095D01*
X91841009Y-43038095D02*
X91888628Y-42942857D01*
X91888628Y-42942857D02*
X91888628Y-42561905D01*
X91364819Y-43466667D02*
X91364819Y-44133333D01*
X91364819Y-44133333D02*
X92364819Y-43704762D01*
X94809580Y-52073333D02*
X94857200Y-52025714D01*
X94857200Y-52025714D02*
X94904819Y-51882857D01*
X94904819Y-51882857D02*
X94904819Y-51787619D01*
X94904819Y-51787619D02*
X94857200Y-51644762D01*
X94857200Y-51644762D02*
X94761961Y-51549524D01*
X94761961Y-51549524D02*
X94666723Y-51501905D01*
X94666723Y-51501905D02*
X94476247Y-51454286D01*
X94476247Y-51454286D02*
X94333390Y-51454286D01*
X94333390Y-51454286D02*
X94142914Y-51501905D01*
X94142914Y-51501905D02*
X94047676Y-51549524D01*
X94047676Y-51549524D02*
X93952438Y-51644762D01*
X93952438Y-51644762D02*
X93904819Y-51787619D01*
X93904819Y-51787619D02*
X93904819Y-51882857D01*
X93904819Y-51882857D02*
X93952438Y-52025714D01*
X93952438Y-52025714D02*
X94000057Y-52073333D01*
X93904819Y-52406667D02*
X93904819Y-53073333D01*
X93904819Y-53073333D02*
X94904819Y-52644762D01*
X97444819Y-51025714D02*
X96444819Y-51025714D01*
X96444819Y-51025714D02*
X96444819Y-51406666D01*
X96444819Y-51406666D02*
X96492438Y-51501904D01*
X96492438Y-51501904D02*
X96540057Y-51549523D01*
X96540057Y-51549523D02*
X96635295Y-51597142D01*
X96635295Y-51597142D02*
X96778152Y-51597142D01*
X96778152Y-51597142D02*
X96873390Y-51549523D01*
X96873390Y-51549523D02*
X96921009Y-51501904D01*
X96921009Y-51501904D02*
X96968628Y-51406666D01*
X96968628Y-51406666D02*
X96968628Y-51025714D01*
X97444819Y-52549523D02*
X97444819Y-51978095D01*
X97444819Y-52263809D02*
X96444819Y-52263809D01*
X96444819Y-52263809D02*
X96587676Y-52168571D01*
X96587676Y-52168571D02*
X96682914Y-52073333D01*
X96682914Y-52073333D02*
X96730533Y-51978095D01*
X96444819Y-53168571D02*
X96444819Y-53263809D01*
X96444819Y-53263809D02*
X96492438Y-53359047D01*
X96492438Y-53359047D02*
X96540057Y-53406666D01*
X96540057Y-53406666D02*
X96635295Y-53454285D01*
X96635295Y-53454285D02*
X96825771Y-53501904D01*
X96825771Y-53501904D02*
X97063866Y-53501904D01*
X97063866Y-53501904D02*
X97254342Y-53454285D01*
X97254342Y-53454285D02*
X97349580Y-53406666D01*
X97349580Y-53406666D02*
X97397200Y-53359047D01*
X97397200Y-53359047D02*
X97444819Y-53263809D01*
X97444819Y-53263809D02*
X97444819Y-53168571D01*
X97444819Y-53168571D02*
X97397200Y-53073333D01*
X97397200Y-53073333D02*
X97349580Y-53025714D01*
X97349580Y-53025714D02*
X97254342Y-52978095D01*
X97254342Y-52978095D02*
X97063866Y-52930476D01*
X97063866Y-52930476D02*
X96825771Y-52930476D01*
X96825771Y-52930476D02*
X96635295Y-52978095D01*
X96635295Y-52978095D02*
X96540057Y-53025714D01*
X96540057Y-53025714D02*
X96492438Y-53073333D01*
X96492438Y-53073333D02*
X96444819Y-53168571D01*
X97444819Y-43133333D02*
X96968628Y-42800000D01*
X97444819Y-42561905D02*
X96444819Y-42561905D01*
X96444819Y-42561905D02*
X96444819Y-42942857D01*
X96444819Y-42942857D02*
X96492438Y-43038095D01*
X96492438Y-43038095D02*
X96540057Y-43085714D01*
X96540057Y-43085714D02*
X96635295Y-43133333D01*
X96635295Y-43133333D02*
X96778152Y-43133333D01*
X96778152Y-43133333D02*
X96873390Y-43085714D01*
X96873390Y-43085714D02*
X96921009Y-43038095D01*
X96921009Y-43038095D02*
X96968628Y-42942857D01*
X96968628Y-42942857D02*
X96968628Y-42561905D01*
X96444819Y-44038095D02*
X96444819Y-43561905D01*
X96444819Y-43561905D02*
X96921009Y-43514286D01*
X96921009Y-43514286D02*
X96873390Y-43561905D01*
X96873390Y-43561905D02*
X96825771Y-43657143D01*
X96825771Y-43657143D02*
X96825771Y-43895238D01*
X96825771Y-43895238D02*
X96873390Y-43990476D01*
X96873390Y-43990476D02*
X96921009Y-44038095D01*
X96921009Y-44038095D02*
X97016247Y-44085714D01*
X97016247Y-44085714D02*
X97254342Y-44085714D01*
X97254342Y-44085714D02*
X97349580Y-44038095D01*
X97349580Y-44038095D02*
X97397200Y-43990476D01*
X97397200Y-43990476D02*
X97444819Y-43895238D01*
X97444819Y-43895238D02*
X97444819Y-43657143D01*
X97444819Y-43657143D02*
X97397200Y-43561905D01*
X97397200Y-43561905D02*
X97349580Y-43514286D01*
X36500000Y-141200000D02*
X37000000Y-140700000D01*
X33500000Y-141200000D02*
X36500000Y-141200000D01*
X33000000Y-140700000D02*
X33500000Y-141200000D01*
X33000000Y-140700000D02*
X33000000Y-139780000D01*
X32480000Y-139200000D02*
X28000000Y-139200000D01*
X28000000Y-139200000D02*
X28000000Y-138600000D01*
X32480000Y-139200000D02*
G75*
G02*
X33000000Y-139780000I-30000J-550000D01*
G01*
X36500000Y-136700000D02*
X37000000Y-137200000D01*
X34200000Y-136700000D02*
X36500000Y-136700000D01*
X32500000Y-134500000D02*
X32500000Y-135200000D01*
X28000000Y-134500000D02*
X32500000Y-134500000D01*
X28000000Y-135000000D02*
X28000000Y-134500000D01*
X34200000Y-136700000D02*
G75*
G02*
X32500000Y-135220000I-110000J1590000D01*
G01*
X36500000Y-124200000D02*
X37000000Y-123700000D01*
X33500000Y-124200000D02*
X36500000Y-124200000D01*
X33000000Y-123700000D02*
X33500000Y-124200000D01*
X33000000Y-123700000D02*
X33000000Y-122780000D01*
X32480000Y-122200000D02*
X28000000Y-122200000D01*
X28000000Y-122200000D02*
X28000000Y-121600000D01*
X32480000Y-122200000D02*
G75*
G02*
X33000000Y-122780000I-30000J-550000D01*
G01*
X36500000Y-119700000D02*
X37000000Y-120200000D01*
X34200000Y-119700000D02*
X36500000Y-119700000D01*
X32500000Y-117500000D02*
X32500000Y-118200000D01*
X28000000Y-117500000D02*
X32500000Y-117500000D01*
X28000000Y-118000000D02*
X28000000Y-117500000D01*
X34200000Y-119700000D02*
G75*
G02*
X32500000Y-118220000I-110000J1590000D01*
G01*
X36500000Y-107200000D02*
X37000000Y-106700000D01*
X33500000Y-107200000D02*
X36500000Y-107200000D01*
X33000000Y-106700000D02*
X33500000Y-107200000D01*
X33000000Y-106700000D02*
X33000000Y-105780000D01*
X32480000Y-105200000D02*
X28000000Y-105200000D01*
X28000000Y-105200000D02*
X28000000Y-104600000D01*
X32480000Y-105200000D02*
G75*
G02*
X33000000Y-105780000I-30000J-550000D01*
G01*
X36500000Y-102700000D02*
X37000000Y-103200000D01*
X34200000Y-102700000D02*
X36500000Y-102700000D01*
X32500000Y-100500000D02*
X32500000Y-101200000D01*
X28000000Y-100500000D02*
X32500000Y-100500000D01*
X28000000Y-101000000D02*
X28000000Y-100500000D01*
X34200000Y-102700000D02*
G75*
G02*
X32500000Y-101220000I-110000J1590000D01*
G01*
X36500000Y-90200000D02*
X37000000Y-89700000D01*
X33500000Y-90200000D02*
X36500000Y-90200000D01*
X33000000Y-89700000D02*
X33500000Y-90200000D01*
X33000000Y-89700000D02*
X33000000Y-88780000D01*
X32480000Y-88200000D02*
X28000000Y-88200000D01*
X28000000Y-88200000D02*
X28000000Y-87600000D01*
X32480000Y-88200000D02*
G75*
G02*
X33000000Y-88780000I-30000J-550000D01*
G01*
X36500000Y-85700000D02*
X37000000Y-86200000D01*
X34200000Y-85700000D02*
X36500000Y-85700000D01*
X32500000Y-83500000D02*
X32500000Y-84200000D01*
X28000000Y-83500000D02*
X32500000Y-83500000D01*
X28000000Y-84000000D02*
X28000000Y-83500000D01*
X34200000Y-85700000D02*
G75*
G02*
X32500000Y-84220000I-110000J1590000D01*
G01*
X53500000Y-153950000D02*
X54000000Y-153450000D01*
X50500000Y-153950000D02*
X53500000Y-153950000D01*
X50000000Y-153450000D02*
X50500000Y-153950000D01*
X50000000Y-153450000D02*
X50000000Y-152530000D01*
X49480000Y-151950000D02*
X45000000Y-151950000D01*
X45000000Y-151950000D02*
X45000000Y-151350000D01*
X49480000Y-151950000D02*
G75*
G02*
X50000000Y-152530000I-30000J-550000D01*
G01*
X53500000Y-149450000D02*
X54000000Y-149950000D01*
X51200000Y-149450000D02*
X53500000Y-149450000D01*
X49500000Y-147250000D02*
X49500000Y-147950000D01*
X45000000Y-147250000D02*
X49500000Y-147250000D01*
X45000000Y-147750000D02*
X45000000Y-147250000D01*
X51200000Y-149450000D02*
G75*
G02*
X49500000Y-147970000I-110000J1590000D01*
G01*
X53500000Y-136950000D02*
X54000000Y-136450000D01*
X50500000Y-136950000D02*
X53500000Y-136950000D01*
X50000000Y-136450000D02*
X50500000Y-136950000D01*
X50000000Y-136450000D02*
X50000000Y-135530000D01*
X49480000Y-134950000D02*
X45000000Y-134950000D01*
X45000000Y-134950000D02*
X45000000Y-134350000D01*
X49480000Y-134950000D02*
G75*
G02*
X50000000Y-135530000I-30000J-550000D01*
G01*
X53500000Y-132450000D02*
X54000000Y-132950000D01*
X51200000Y-132450000D02*
X53500000Y-132450000D01*
X49500000Y-130250000D02*
X49500000Y-130950000D01*
X45000000Y-130250000D02*
X49500000Y-130250000D01*
X45000000Y-130750000D02*
X45000000Y-130250000D01*
X51200000Y-132450000D02*
G75*
G02*
X49500000Y-130970000I-110000J1590000D01*
G01*
X53500000Y-119950000D02*
X54000000Y-119450000D01*
X50500000Y-119950000D02*
X53500000Y-119950000D01*
X50000000Y-119450000D02*
X50500000Y-119950000D01*
X50000000Y-119450000D02*
X50000000Y-118530000D01*
X49480000Y-117950000D02*
X45000000Y-117950000D01*
X45000000Y-117950000D02*
X45000000Y-117350000D01*
X49480000Y-117950000D02*
G75*
G02*
X50000000Y-118530000I-30000J-550000D01*
G01*
X53500000Y-115450000D02*
X54000000Y-115950000D01*
X51200000Y-115450000D02*
X53500000Y-115450000D01*
X49500000Y-113250000D02*
X49500000Y-113950000D01*
X45000000Y-113250000D02*
X49500000Y-113250000D01*
X45000000Y-113750000D02*
X45000000Y-113250000D01*
X51200000Y-115450000D02*
G75*
G02*
X49500000Y-113970000I-110000J1590000D01*
G01*
X53500000Y-102950000D02*
X54000000Y-102450000D01*
X50500000Y-102950000D02*
X53500000Y-102950000D01*
X50000000Y-102450000D02*
X50500000Y-102950000D01*
X50000000Y-102450000D02*
X50000000Y-101530000D01*
X49480000Y-100950000D02*
X45000000Y-100950000D01*
X45000000Y-100950000D02*
X45000000Y-100350000D01*
X49480000Y-100950000D02*
G75*
G02*
X50000000Y-101530000I-30000J-550000D01*
G01*
X53500000Y-98450000D02*
X54000000Y-98950000D01*
X51200000Y-98450000D02*
X53500000Y-98450000D01*
X49500000Y-96250000D02*
X49500000Y-96950000D01*
X45000000Y-96250000D02*
X49500000Y-96250000D01*
X45000000Y-96750000D02*
X45000000Y-96250000D01*
X51200000Y-98450000D02*
G75*
G02*
X49500000Y-96970000I-110000J1590000D01*
G01*
X53500000Y-85950000D02*
X54000000Y-85450000D01*
X50500000Y-85950000D02*
X53500000Y-85950000D01*
X50000000Y-85450000D02*
X50500000Y-85950000D01*
X50000000Y-85450000D02*
X50000000Y-84530000D01*
X49480000Y-83950000D02*
X45000000Y-83950000D01*
X45000000Y-83950000D02*
X45000000Y-83350000D01*
X49480000Y-83950000D02*
G75*
G02*
X50000000Y-84530000I-30000J-550000D01*
G01*
X53500000Y-81450000D02*
X54000000Y-81950000D01*
X51200000Y-81450000D02*
X53500000Y-81450000D01*
X49500000Y-79250000D02*
X49500000Y-79950000D01*
X45000000Y-79250000D02*
X49500000Y-79250000D01*
X45000000Y-79750000D02*
X45000000Y-79250000D01*
X51200000Y-81450000D02*
G75*
G02*
X49500000Y-79970000I-110000J1590000D01*
G01*
X70500000Y-142730000D02*
X71000000Y-142230000D01*
X67500000Y-142730000D02*
X70500000Y-142730000D01*
X67000000Y-142230000D02*
X67500000Y-142730000D01*
X67000000Y-142230000D02*
X67000000Y-141310000D01*
X66480000Y-140730000D02*
X62000000Y-140730000D01*
X62000000Y-140730000D02*
X62000000Y-140130000D01*
X66480000Y-140730000D02*
G75*
G02*
X67000000Y-141310000I-30000J-550000D01*
G01*
X70500000Y-138230000D02*
X71000000Y-138730000D01*
X68200000Y-138230000D02*
X70500000Y-138230000D01*
X66500000Y-136030000D02*
X66500000Y-136730000D01*
X62000000Y-136030000D02*
X66500000Y-136030000D01*
X62000000Y-136530000D02*
X62000000Y-136030000D01*
X68200000Y-138230000D02*
G75*
G02*
X66500000Y-136750000I-110000J1590000D01*
G01*
X70500000Y-125730000D02*
X71000000Y-125230000D01*
X67500000Y-125730000D02*
X70500000Y-125730000D01*
X67000000Y-125230000D02*
X67500000Y-125730000D01*
X67000000Y-125230000D02*
X67000000Y-124310000D01*
X66480000Y-123730000D02*
X62000000Y-123730000D01*
X62000000Y-123730000D02*
X62000000Y-123130000D01*
X66480000Y-123730000D02*
G75*
G02*
X67000000Y-124310000I-30000J-550000D01*
G01*
X70500000Y-121230000D02*
X71000000Y-121730000D01*
X68200000Y-121230000D02*
X70500000Y-121230000D01*
X66500000Y-119030000D02*
X66500000Y-119730000D01*
X62000000Y-119030000D02*
X66500000Y-119030000D01*
X62000000Y-119530000D02*
X62000000Y-119030000D01*
X68200000Y-121230000D02*
G75*
G02*
X66500000Y-119750000I-110000J1590000D01*
G01*
X70500000Y-108730000D02*
X71000000Y-108230000D01*
X67500000Y-108730000D02*
X70500000Y-108730000D01*
X67000000Y-108230000D02*
X67500000Y-108730000D01*
X67000000Y-108230000D02*
X67000000Y-107310000D01*
X66480000Y-106730000D02*
X62000000Y-106730000D01*
X62000000Y-106730000D02*
X62000000Y-106130000D01*
X66480000Y-106730000D02*
G75*
G02*
X67000000Y-107310000I-30000J-550000D01*
G01*
X70500000Y-104230000D02*
X71000000Y-104730000D01*
X68200000Y-104230000D02*
X70500000Y-104230000D01*
X66500000Y-102030000D02*
X66500000Y-102730000D01*
X62000000Y-102030000D02*
X66500000Y-102030000D01*
X62000000Y-102530000D02*
X62000000Y-102030000D01*
X68200000Y-104230000D02*
G75*
G02*
X66500000Y-102750000I-110000J1590000D01*
G01*
X70500000Y-91730000D02*
X71000000Y-91230000D01*
X67500000Y-91730000D02*
X70500000Y-91730000D01*
X67000000Y-91230000D02*
X67500000Y-91730000D01*
X67000000Y-91230000D02*
X67000000Y-90310000D01*
X66480000Y-89730000D02*
X62000000Y-89730000D01*
X62000000Y-89730000D02*
X62000000Y-89130000D01*
X66480000Y-89730000D02*
G75*
G02*
X67000000Y-90310000I-30000J-550000D01*
G01*
X70500000Y-87230000D02*
X71000000Y-87730000D01*
X68200000Y-87230000D02*
X70500000Y-87230000D01*
X66500000Y-85030000D02*
X66500000Y-85730000D01*
X62000000Y-85030000D02*
X66500000Y-85030000D01*
X62000000Y-85530000D02*
X62000000Y-85030000D01*
X68200000Y-87230000D02*
G75*
G02*
X66500000Y-85750000I-110000J1590000D01*
G01*
X70500000Y-74730000D02*
X71000000Y-74230000D01*
X67500000Y-74730000D02*
X70500000Y-74730000D01*
X67000000Y-74230000D02*
X67500000Y-74730000D01*
X67000000Y-74230000D02*
X67000000Y-73310000D01*
X66480000Y-72730000D02*
X62000000Y-72730000D01*
X62000000Y-72730000D02*
X62000000Y-72130000D01*
X66480000Y-72730000D02*
G75*
G02*
X67000000Y-73310000I-30000J-550000D01*
G01*
X70500000Y-70230000D02*
X71000000Y-70730000D01*
X68200000Y-70230000D02*
X70500000Y-70230000D01*
X66500000Y-68030000D02*
X66500000Y-68730000D01*
X62000000Y-68030000D02*
X66500000Y-68030000D01*
X62000000Y-68530000D02*
X62000000Y-68030000D01*
X68200000Y-70230000D02*
G75*
G02*
X66500000Y-68750000I-110000J1590000D01*
G01*
X87500000Y-129980000D02*
X88000000Y-129480000D01*
X84500000Y-129980000D02*
X87500000Y-129980000D01*
X84000000Y-129480000D02*
X84500000Y-129980000D01*
X84000000Y-129480000D02*
X84000000Y-128560000D01*
X83480000Y-127980000D02*
X79000000Y-127980000D01*
X79000000Y-127980000D02*
X79000000Y-127380000D01*
X83480000Y-127980000D02*
G75*
G02*
X84000000Y-128560000I-30000J-550000D01*
G01*
X87500000Y-125480000D02*
X88000000Y-125980000D01*
X85200000Y-125480000D02*
X87500000Y-125480000D01*
X83500000Y-123280000D02*
X83500000Y-123980000D01*
X79000000Y-123280000D02*
X83500000Y-123280000D01*
X79000000Y-123780000D02*
X79000000Y-123280000D01*
X85200000Y-125480000D02*
G75*
G02*
X83500000Y-124000000I-110000J1590000D01*
G01*
X87500000Y-112980000D02*
X88000000Y-112480000D01*
X84500000Y-112980000D02*
X87500000Y-112980000D01*
X84000000Y-112480000D02*
X84500000Y-112980000D01*
X84000000Y-112480000D02*
X84000000Y-111560000D01*
X83480000Y-110980000D02*
X79000000Y-110980000D01*
X79000000Y-110980000D02*
X79000000Y-110380000D01*
X83480000Y-110980000D02*
G75*
G02*
X84000000Y-111560000I-30000J-550000D01*
G01*
X87500000Y-108480000D02*
X88000000Y-108980000D01*
X85200000Y-108480000D02*
X87500000Y-108480000D01*
X83500000Y-106280000D02*
X83500000Y-106980000D01*
X79000000Y-106280000D02*
X83500000Y-106280000D01*
X79000000Y-106780000D02*
X79000000Y-106280000D01*
X85200000Y-108480000D02*
G75*
G02*
X83500000Y-107000000I-110000J1590000D01*
G01*
X87500000Y-95980000D02*
X88000000Y-95480000D01*
X84500000Y-95980000D02*
X87500000Y-95980000D01*
X84000000Y-95480000D02*
X84500000Y-95980000D01*
X84000000Y-95480000D02*
X84000000Y-94560000D01*
X83480000Y-93980000D02*
X79000000Y-93980000D01*
X79000000Y-93980000D02*
X79000000Y-93380000D01*
X83480000Y-93980000D02*
G75*
G02*
X84000000Y-94560000I-30000J-550000D01*
G01*
X87500000Y-91480000D02*
X88000000Y-91980000D01*
X85200000Y-91480000D02*
X87500000Y-91480000D01*
X83500000Y-89280000D02*
X83500000Y-89980000D01*
X79000000Y-89280000D02*
X83500000Y-89280000D01*
X79000000Y-89780000D02*
X79000000Y-89280000D01*
X85200000Y-91480000D02*
G75*
G02*
X83500000Y-90000000I-110000J1590000D01*
G01*
X87500000Y-78980000D02*
X88000000Y-78480000D01*
X84500000Y-78980000D02*
X87500000Y-78980000D01*
X84000000Y-78480000D02*
X84500000Y-78980000D01*
X84000000Y-78480000D02*
X84000000Y-77560000D01*
X83480000Y-76980000D02*
X79000000Y-76980000D01*
X79000000Y-76980000D02*
X79000000Y-76380000D01*
X83480000Y-76980000D02*
G75*
G02*
X84000000Y-77560000I-30000J-550000D01*
G01*
X87500000Y-74480000D02*
X88000000Y-74980000D01*
X85200000Y-74480000D02*
X87500000Y-74480000D01*
X83500000Y-72280000D02*
X83500000Y-72980000D01*
X79000000Y-72280000D02*
X83500000Y-72280000D01*
X79000000Y-72780000D02*
X79000000Y-72280000D01*
X85200000Y-74480000D02*
G75*
G02*
X83500000Y-73000000I-110000J1590000D01*
G01*
X104500000Y-132530000D02*
X105000000Y-132030000D01*
X101500000Y-132530000D02*
X104500000Y-132530000D01*
X101000000Y-132030000D02*
X101500000Y-132530000D01*
X101000000Y-132030000D02*
X101000000Y-131110000D01*
X100480000Y-130530000D02*
X96000000Y-130530000D01*
X96000000Y-130530000D02*
X96000000Y-129930000D01*
X100480000Y-130530000D02*
G75*
G02*
X101000000Y-131110000I-30000J-550000D01*
G01*
X104500000Y-128030000D02*
X105000000Y-128530000D01*
X102200000Y-128030000D02*
X104500000Y-128030000D01*
X100500000Y-125830000D02*
X100500000Y-126530000D01*
X96000000Y-125830000D02*
X100500000Y-125830000D01*
X96000000Y-126330000D02*
X96000000Y-125830000D01*
X102200000Y-128030000D02*
G75*
G02*
X100500000Y-126550000I-110000J1590000D01*
G01*
X104500000Y-115530000D02*
X105000000Y-115030000D01*
X101500000Y-115530000D02*
X104500000Y-115530000D01*
X101000000Y-115030000D02*
X101500000Y-115530000D01*
X101000000Y-115030000D02*
X101000000Y-114110000D01*
X100480000Y-113530000D02*
X96000000Y-113530000D01*
X96000000Y-113530000D02*
X96000000Y-112930000D01*
X100480000Y-113530000D02*
G75*
G02*
X101000000Y-114110000I-30000J-550000D01*
G01*
X104500000Y-111030000D02*
X105000000Y-111530000D01*
X102200000Y-111030000D02*
X104500000Y-111030000D01*
X100500000Y-108830000D02*
X100500000Y-109530000D01*
X96000000Y-108830000D02*
X100500000Y-108830000D01*
X96000000Y-109330000D02*
X96000000Y-108830000D01*
X102200000Y-111030000D02*
G75*
G02*
X100500000Y-109550000I-110000J1590000D01*
G01*
X104500000Y-98530000D02*
X105000000Y-98030000D01*
X101500000Y-98530000D02*
X104500000Y-98530000D01*
X101000000Y-98030000D02*
X101500000Y-98530000D01*
X101000000Y-98030000D02*
X101000000Y-97110000D01*
X100480000Y-96530000D02*
X96000000Y-96530000D01*
X96000000Y-96530000D02*
X96000000Y-95930000D01*
X100480000Y-96530000D02*
G75*
G02*
X101000000Y-97110000I-30000J-550000D01*
G01*
X104500000Y-94030000D02*
X105000000Y-94530000D01*
X102200000Y-94030000D02*
X104500000Y-94030000D01*
X100500000Y-91830000D02*
X100500000Y-92530000D01*
X96000000Y-91830000D02*
X100500000Y-91830000D01*
X96000000Y-92330000D02*
X96000000Y-91830000D01*
X102200000Y-94030000D02*
G75*
G02*
X100500000Y-92550000I-110000J1590000D01*
G01*
X104500000Y-81530000D02*
X105000000Y-81030000D01*
X101500000Y-81530000D02*
X104500000Y-81530000D01*
X101000000Y-81030000D02*
X101500000Y-81530000D01*
X101000000Y-81030000D02*
X101000000Y-80110000D01*
X100480000Y-79530000D02*
X96000000Y-79530000D01*
X96000000Y-79530000D02*
X96000000Y-78930000D01*
X100480000Y-79530000D02*
G75*
G02*
X101000000Y-80110000I-30000J-550000D01*
G01*
X104500000Y-77030000D02*
X105000000Y-77530000D01*
X102200000Y-77030000D02*
X104500000Y-77030000D01*
X100500000Y-74830000D02*
X100500000Y-75530000D01*
X96000000Y-74830000D02*
X100500000Y-74830000D01*
X96000000Y-75330000D02*
X96000000Y-74830000D01*
X102200000Y-77030000D02*
G75*
G02*
X100500000Y-75550000I-110000J1590000D01*
G01*
X121500000Y-135930000D02*
X122000000Y-135430000D01*
X118500000Y-135930000D02*
X121500000Y-135930000D01*
X118000000Y-135430000D02*
X118500000Y-135930000D01*
X118000000Y-135430000D02*
X118000000Y-134510000D01*
X117480000Y-133930000D02*
X113000000Y-133930000D01*
X113000000Y-133930000D02*
X113000000Y-133330000D01*
X117480000Y-133930000D02*
G75*
G02*
X118000000Y-134510000I-30000J-550000D01*
G01*
X121500000Y-131430000D02*
X122000000Y-131930000D01*
X119200000Y-131430000D02*
X121500000Y-131430000D01*
X117500000Y-129230000D02*
X117500000Y-129930000D01*
X113000000Y-129230000D02*
X117500000Y-129230000D01*
X113000000Y-129730000D02*
X113000000Y-129230000D01*
X119200000Y-131430000D02*
G75*
G02*
X117500000Y-129950000I-110000J1590000D01*
G01*
X121500000Y-118930000D02*
X122000000Y-118430000D01*
X118500000Y-118930000D02*
X121500000Y-118930000D01*
X118000000Y-118430000D02*
X118500000Y-118930000D01*
X118000000Y-118430000D02*
X118000000Y-117510000D01*
X117480000Y-116930000D02*
X113000000Y-116930000D01*
X113000000Y-116930000D02*
X113000000Y-116330000D01*
X117480000Y-116930000D02*
G75*
G02*
X118000000Y-117510000I-30000J-550000D01*
G01*
X121500000Y-114430000D02*
X122000000Y-114930000D01*
X119200000Y-114430000D02*
X121500000Y-114430000D01*
X117500000Y-112230000D02*
X117500000Y-112930000D01*
X113000000Y-112230000D02*
X117500000Y-112230000D01*
X113000000Y-112730000D02*
X113000000Y-112230000D01*
X119200000Y-114430000D02*
G75*
G02*
X117500000Y-112950000I-110000J1590000D01*
G01*
X121500000Y-101930000D02*
X122000000Y-101430000D01*
X118500000Y-101930000D02*
X121500000Y-101930000D01*
X118000000Y-101430000D02*
X118500000Y-101930000D01*
X118000000Y-101430000D02*
X118000000Y-100510000D01*
X117480000Y-99930000D02*
X113000000Y-99930000D01*
X113000000Y-99930000D02*
X113000000Y-99330000D01*
X117480000Y-99930000D02*
G75*
G02*
X118000000Y-100510000I-30000J-550000D01*
G01*
X121500000Y-97430000D02*
X122000000Y-97930000D01*
X119200000Y-97430000D02*
X121500000Y-97430000D01*
X117500000Y-95230000D02*
X117500000Y-95930000D01*
X113000000Y-95230000D02*
X117500000Y-95230000D01*
X113000000Y-95730000D02*
X113000000Y-95230000D01*
X119200000Y-97430000D02*
G75*
G02*
X117500000Y-95950000I-110000J1590000D01*
G01*
X121500000Y-84930000D02*
X122000000Y-84430000D01*
X118500000Y-84930000D02*
X121500000Y-84930000D01*
X118000000Y-84430000D02*
X118500000Y-84930000D01*
X118000000Y-84430000D02*
X118000000Y-83510000D01*
X117480000Y-82930000D02*
X113000000Y-82930000D01*
X113000000Y-82930000D02*
X113000000Y-82330000D01*
X117480000Y-82930000D02*
G75*
G02*
X118000000Y-83510000I-30000J-550000D01*
G01*
X121500000Y-80430000D02*
X122000000Y-80930000D01*
X119200000Y-80430000D02*
X121500000Y-80430000D01*
X117500000Y-78230000D02*
X117500000Y-78930000D01*
X113000000Y-78230000D02*
X117500000Y-78230000D01*
X113000000Y-78730000D02*
X113000000Y-78230000D01*
X119200000Y-80430000D02*
G75*
G02*
X117500000Y-78950000I-110000J1590000D01*
G01*
X138500000Y-132530000D02*
X139000000Y-132030000D01*
X135500000Y-132530000D02*
X138500000Y-132530000D01*
X135000000Y-132030000D02*
X135500000Y-132530000D01*
X135000000Y-132030000D02*
X135000000Y-131110000D01*
X134480000Y-130530000D02*
X130000000Y-130530000D01*
X130000000Y-130530000D02*
X130000000Y-129930000D01*
X134480000Y-130530000D02*
G75*
G02*
X135000000Y-131110000I-30000J-550000D01*
G01*
X138500000Y-128030000D02*
X139000000Y-128530000D01*
X136200000Y-128030000D02*
X138500000Y-128030000D01*
X134500000Y-125830000D02*
X134500000Y-126530000D01*
X130000000Y-125830000D02*
X134500000Y-125830000D01*
X130000000Y-126330000D02*
X130000000Y-125830000D01*
X136200000Y-128030000D02*
G75*
G02*
X134500000Y-126550000I-110000J1590000D01*
G01*
X138500000Y-115530000D02*
X139000000Y-115030000D01*
X135500000Y-115530000D02*
X138500000Y-115530000D01*
X135000000Y-115030000D02*
X135500000Y-115530000D01*
X135000000Y-115030000D02*
X135000000Y-114110000D01*
X134480000Y-113530000D02*
X130000000Y-113530000D01*
X130000000Y-113530000D02*
X130000000Y-112930000D01*
X134480000Y-113530000D02*
G75*
G02*
X135000000Y-114110000I-30000J-550000D01*
G01*
X138500000Y-111030000D02*
X139000000Y-111530000D01*
X136200000Y-111030000D02*
X138500000Y-111030000D01*
X134500000Y-108830000D02*
X134500000Y-109530000D01*
X130000000Y-108830000D02*
X134500000Y-108830000D01*
X130000000Y-109330000D02*
X130000000Y-108830000D01*
X136200000Y-111030000D02*
G75*
G02*
X134500000Y-109550000I-110000J1590000D01*
G01*
X138500000Y-98530000D02*
X139000000Y-98030000D01*
X135500000Y-98530000D02*
X138500000Y-98530000D01*
X135000000Y-98030000D02*
X135500000Y-98530000D01*
X135000000Y-98030000D02*
X135000000Y-97110000D01*
X134480000Y-96530000D02*
X130000000Y-96530000D01*
X130000000Y-96530000D02*
X130000000Y-95930000D01*
X134480000Y-96530000D02*
G75*
G02*
X135000000Y-97110000I-30000J-550000D01*
G01*
X138500000Y-94030000D02*
X139000000Y-94530000D01*
X136200000Y-94030000D02*
X138500000Y-94030000D01*
X134500000Y-91830000D02*
X134500000Y-92530000D01*
X130000000Y-91830000D02*
X134500000Y-91830000D01*
X130000000Y-92330000D02*
X130000000Y-91830000D01*
X136200000Y-94030000D02*
G75*
G02*
X134500000Y-92550000I-110000J1590000D01*
G01*
X108833297Y-153065896D02*
X109412525Y-152660316D01*
X105878873Y-152544951D02*
X108833297Y-153065896D01*
X105473294Y-151965723D02*
X105878873Y-152544951D01*
X105473294Y-151965723D02*
X105633050Y-151059700D01*
X105221666Y-150398215D02*
X100809727Y-149620271D01*
X100809727Y-149620271D02*
X100913916Y-149029386D01*
X105221666Y-150398215D02*
G75*
G02*
X105633049Y-151059700I-125051J-536434D01*
G01*
X109614713Y-148634261D02*
X110020293Y-149213489D01*
X107349656Y-148234870D02*
X109614713Y-148634261D01*
X106057508Y-145773091D02*
X105935955Y-146462457D01*
X101625873Y-144991674D02*
X106057508Y-145773091D01*
X101539049Y-145484078D02*
X101625873Y-144991674D01*
X107349656Y-148234870D02*
G75*
G02*
X105932482Y-146482153I167771J1584945D01*
G01*
X124864720Y-158531165D02*
X125529183Y-158289320D01*
X122145797Y-157263310D02*
X124864720Y-158531165D01*
X121903952Y-156598847D02*
X122145797Y-157263310D01*
X121903952Y-156598847D02*
X122292761Y-155765044D01*
X122066599Y-155019624D02*
X118006340Y-153126294D01*
X118006340Y-153126294D02*
X118259911Y-152582510D01*
X122066599Y-155019624D02*
G75*
G02*
X122292761Y-155765044I-259629J-485791D01*
G01*
X126766502Y-154452780D02*
X127008347Y-155117243D01*
X124681994Y-153480758D02*
X126766502Y-154452780D01*
X124071031Y-150768430D02*
X123775198Y-151402845D01*
X119992646Y-148866648D02*
X124071031Y-150768430D01*
X119781337Y-149319802D02*
X119992646Y-148866648D01*
X124681994Y-153480758D02*
G75*
G02*
X123766746Y-151420972I572269J1487517D01*
G01*
X139892343Y-166501578D02*
X140575356Y-166318566D01*
X137294267Y-165001578D02*
X139892343Y-166501578D01*
X137111254Y-164318566D02*
X137294267Y-165001578D01*
X137111254Y-164318566D02*
X137571254Y-163521822D01*
X137410921Y-162759528D02*
X133531127Y-160519528D01*
X133531127Y-160519528D02*
X133831127Y-159999912D01*
X137410921Y-162759528D02*
G75*
G02*
X137571253Y-163521822I-300981J-461313D01*
G01*
X142142343Y-162604464D02*
X142325356Y-163287477D01*
X140150485Y-161454464D02*
X142142343Y-162604464D01*
X139778241Y-158699208D02*
X139428241Y-159305426D01*
X135881127Y-156449208D02*
X139778241Y-158699208D01*
X135631127Y-156882221D02*
X135881127Y-156449208D01*
X140150485Y-161454464D02*
G75*
G02*
X139418242Y-159322747I699737J1431980D01*
G01*
D11*
X67720000Y-54060000D02*
X67720000Y-56720000D01*
X67720000Y-54060000D02*
X98320000Y-54060000D01*
X98320000Y-54060000D02*
X98320000Y-56720000D01*
X67720000Y-56720000D02*
X98320000Y-56720000D01*
X67720000Y-38820000D02*
X67720000Y-41480000D01*
X67720000Y-38820000D02*
X98320000Y-38820000D01*
X98320000Y-38820000D02*
X98320000Y-41480000D01*
X67720000Y-41480000D02*
X98320000Y-41480000D01*
X70320000Y-38820000D02*
X70320000Y-41480000D01*
%LPC*%
D12*
X35000000Y-133000000D03*
D13*
X29500000Y-133000000D03*
X40500000Y-133000000D03*
X40000000Y-127850000D03*
D14*
X35000000Y-138950000D03*
G36*
G01*
X39625000Y-137650000D02*
X39625000Y-140250000D01*
G75*
G02*
X39575000Y-140300000I-50000J0D01*
G01*
X36975000Y-140300000D01*
G75*
G02*
X36925000Y-140250000I0J50000D01*
G01*
X36925000Y-137650000D01*
G75*
G02*
X36975000Y-137600000I50000J0D01*
G01*
X39575000Y-137600000D01*
G75*
G02*
X39625000Y-137650000I0J-50000D01*
G01*
G37*
G36*
G01*
X28075000Y-135450000D02*
X28075000Y-138050000D01*
G75*
G02*
X28025000Y-138100000I-50000J0D01*
G01*
X25425000Y-138100000D01*
G75*
G02*
X25375000Y-138050000I0J50000D01*
G01*
X25375000Y-135450000D01*
G75*
G02*
X25425000Y-135400000I50000J0D01*
G01*
X28025000Y-135400000D01*
G75*
G02*
X28075000Y-135450000I0J-50000D01*
G01*
G37*
X30000000Y-136750000D03*
D12*
X35000000Y-116000000D03*
D13*
X29500000Y-116000000D03*
X40500000Y-116000000D03*
X40000000Y-110850000D03*
D14*
X35000000Y-121950000D03*
G36*
G01*
X39625000Y-120650000D02*
X39625000Y-123250000D01*
G75*
G02*
X39575000Y-123300000I-50000J0D01*
G01*
X36975000Y-123300000D01*
G75*
G02*
X36925000Y-123250000I0J50000D01*
G01*
X36925000Y-120650000D01*
G75*
G02*
X36975000Y-120600000I50000J0D01*
G01*
X39575000Y-120600000D01*
G75*
G02*
X39625000Y-120650000I0J-50000D01*
G01*
G37*
G36*
G01*
X28075000Y-118450000D02*
X28075000Y-121050000D01*
G75*
G02*
X28025000Y-121100000I-50000J0D01*
G01*
X25425000Y-121100000D01*
G75*
G02*
X25375000Y-121050000I0J50000D01*
G01*
X25375000Y-118450000D01*
G75*
G02*
X25425000Y-118400000I50000J0D01*
G01*
X28025000Y-118400000D01*
G75*
G02*
X28075000Y-118450000I0J-50000D01*
G01*
G37*
X30000000Y-119750000D03*
D12*
X35000000Y-99000000D03*
D13*
X29500000Y-99000000D03*
X40500000Y-99000000D03*
X40000000Y-93850000D03*
D14*
X35000000Y-104950000D03*
G36*
G01*
X39625000Y-103650000D02*
X39625000Y-106250000D01*
G75*
G02*
X39575000Y-106300000I-50000J0D01*
G01*
X36975000Y-106300000D01*
G75*
G02*
X36925000Y-106250000I0J50000D01*
G01*
X36925000Y-103650000D01*
G75*
G02*
X36975000Y-103600000I50000J0D01*
G01*
X39575000Y-103600000D01*
G75*
G02*
X39625000Y-103650000I0J-50000D01*
G01*
G37*
G36*
G01*
X28075000Y-101450000D02*
X28075000Y-104050000D01*
G75*
G02*
X28025000Y-104100000I-50000J0D01*
G01*
X25425000Y-104100000D01*
G75*
G02*
X25375000Y-104050000I0J50000D01*
G01*
X25375000Y-101450000D01*
G75*
G02*
X25425000Y-101400000I50000J0D01*
G01*
X28025000Y-101400000D01*
G75*
G02*
X28075000Y-101450000I0J-50000D01*
G01*
G37*
X30000000Y-102750000D03*
D12*
X35000000Y-82000000D03*
D13*
X29500000Y-82000000D03*
X40500000Y-82000000D03*
X40000000Y-76850000D03*
D14*
X35000000Y-87950000D03*
G36*
G01*
X39625000Y-86650000D02*
X39625000Y-89250000D01*
G75*
G02*
X39575000Y-89300000I-50000J0D01*
G01*
X36975000Y-89300000D01*
G75*
G02*
X36925000Y-89250000I0J50000D01*
G01*
X36925000Y-86650000D01*
G75*
G02*
X36975000Y-86600000I50000J0D01*
G01*
X39575000Y-86600000D01*
G75*
G02*
X39625000Y-86650000I0J-50000D01*
G01*
G37*
G36*
G01*
X28075000Y-84450000D02*
X28075000Y-87050000D01*
G75*
G02*
X28025000Y-87100000I-50000J0D01*
G01*
X25425000Y-87100000D01*
G75*
G02*
X25375000Y-87050000I0J50000D01*
G01*
X25375000Y-84450000D01*
G75*
G02*
X25425000Y-84400000I50000J0D01*
G01*
X28025000Y-84400000D01*
G75*
G02*
X28075000Y-84450000I0J-50000D01*
G01*
G37*
X30000000Y-85750000D03*
D12*
X52000000Y-145750000D03*
D13*
X46500000Y-145750000D03*
X57500000Y-145750000D03*
X57000000Y-140600000D03*
D14*
X52000000Y-151700000D03*
G36*
G01*
X56625000Y-150400000D02*
X56625000Y-153000000D01*
G75*
G02*
X56575000Y-153050000I-50000J0D01*
G01*
X53975000Y-153050000D01*
G75*
G02*
X53925000Y-153000000I0J50000D01*
G01*
X53925000Y-150400000D01*
G75*
G02*
X53975000Y-150350000I50000J0D01*
G01*
X56575000Y-150350000D01*
G75*
G02*
X56625000Y-150400000I0J-50000D01*
G01*
G37*
G36*
G01*
X45075000Y-148200000D02*
X45075000Y-150800000D01*
G75*
G02*
X45025000Y-150850000I-50000J0D01*
G01*
X42425000Y-150850000D01*
G75*
G02*
X42375000Y-150800000I0J50000D01*
G01*
X42375000Y-148200000D01*
G75*
G02*
X42425000Y-148150000I50000J0D01*
G01*
X45025000Y-148150000D01*
G75*
G02*
X45075000Y-148200000I0J-50000D01*
G01*
G37*
X47000000Y-149500000D03*
D12*
X52000000Y-128750000D03*
D13*
X46500000Y-128750000D03*
X57500000Y-128750000D03*
X57000000Y-123600000D03*
D14*
X52000000Y-134700000D03*
G36*
G01*
X56625000Y-133400000D02*
X56625000Y-136000000D01*
G75*
G02*
X56575000Y-136050000I-50000J0D01*
G01*
X53975000Y-136050000D01*
G75*
G02*
X53925000Y-136000000I0J50000D01*
G01*
X53925000Y-133400000D01*
G75*
G02*
X53975000Y-133350000I50000J0D01*
G01*
X56575000Y-133350000D01*
G75*
G02*
X56625000Y-133400000I0J-50000D01*
G01*
G37*
G36*
G01*
X45075000Y-131200000D02*
X45075000Y-133800000D01*
G75*
G02*
X45025000Y-133850000I-50000J0D01*
G01*
X42425000Y-133850000D01*
G75*
G02*
X42375000Y-133800000I0J50000D01*
G01*
X42375000Y-131200000D01*
G75*
G02*
X42425000Y-131150000I50000J0D01*
G01*
X45025000Y-131150000D01*
G75*
G02*
X45075000Y-131200000I0J-50000D01*
G01*
G37*
X47000000Y-132500000D03*
D12*
X52000000Y-111750000D03*
D13*
X46500000Y-111750000D03*
X57500000Y-111750000D03*
X57000000Y-106600000D03*
D14*
X52000000Y-117700000D03*
G36*
G01*
X56625000Y-116400000D02*
X56625000Y-119000000D01*
G75*
G02*
X56575000Y-119050000I-50000J0D01*
G01*
X53975000Y-119050000D01*
G75*
G02*
X53925000Y-119000000I0J50000D01*
G01*
X53925000Y-116400000D01*
G75*
G02*
X53975000Y-116350000I50000J0D01*
G01*
X56575000Y-116350000D01*
G75*
G02*
X56625000Y-116400000I0J-50000D01*
G01*
G37*
G36*
G01*
X45075000Y-114200000D02*
X45075000Y-116800000D01*
G75*
G02*
X45025000Y-116850000I-50000J0D01*
G01*
X42425000Y-116850000D01*
G75*
G02*
X42375000Y-116800000I0J50000D01*
G01*
X42375000Y-114200000D01*
G75*
G02*
X42425000Y-114150000I50000J0D01*
G01*
X45025000Y-114150000D01*
G75*
G02*
X45075000Y-114200000I0J-50000D01*
G01*
G37*
X47000000Y-115500000D03*
D12*
X52000000Y-94750000D03*
D13*
X46500000Y-94750000D03*
X57500000Y-94750000D03*
X57000000Y-89600000D03*
D14*
X52000000Y-100700000D03*
G36*
G01*
X56625000Y-99400000D02*
X56625000Y-102000000D01*
G75*
G02*
X56575000Y-102050000I-50000J0D01*
G01*
X53975000Y-102050000D01*
G75*
G02*
X53925000Y-102000000I0J50000D01*
G01*
X53925000Y-99400000D01*
G75*
G02*
X53975000Y-99350000I50000J0D01*
G01*
X56575000Y-99350000D01*
G75*
G02*
X56625000Y-99400000I0J-50000D01*
G01*
G37*
G36*
G01*
X45075000Y-97200000D02*
X45075000Y-99800000D01*
G75*
G02*
X45025000Y-99850000I-50000J0D01*
G01*
X42425000Y-99850000D01*
G75*
G02*
X42375000Y-99800000I0J50000D01*
G01*
X42375000Y-97200000D01*
G75*
G02*
X42425000Y-97150000I50000J0D01*
G01*
X45025000Y-97150000D01*
G75*
G02*
X45075000Y-97200000I0J-50000D01*
G01*
G37*
X47000000Y-98500000D03*
D12*
X52000000Y-77750000D03*
D13*
X46500000Y-77750000D03*
X57500000Y-77750000D03*
X57000000Y-72600000D03*
D14*
X52000000Y-83700000D03*
G36*
G01*
X56625000Y-82400000D02*
X56625000Y-85000000D01*
G75*
G02*
X56575000Y-85050000I-50000J0D01*
G01*
X53975000Y-85050000D01*
G75*
G02*
X53925000Y-85000000I0J50000D01*
G01*
X53925000Y-82400000D01*
G75*
G02*
X53975000Y-82350000I50000J0D01*
G01*
X56575000Y-82350000D01*
G75*
G02*
X56625000Y-82400000I0J-50000D01*
G01*
G37*
G36*
G01*
X45075000Y-80200000D02*
X45075000Y-82800000D01*
G75*
G02*
X45025000Y-82850000I-50000J0D01*
G01*
X42425000Y-82850000D01*
G75*
G02*
X42375000Y-82800000I0J50000D01*
G01*
X42375000Y-80200000D01*
G75*
G02*
X42425000Y-80150000I50000J0D01*
G01*
X45025000Y-80150000D01*
G75*
G02*
X45075000Y-80200000I0J-50000D01*
G01*
G37*
X47000000Y-81500000D03*
D12*
X69000000Y-134530000D03*
D13*
X63500000Y-134530000D03*
X74500000Y-134530000D03*
X74000000Y-129380000D03*
D14*
X69000000Y-140480000D03*
G36*
G01*
X73625000Y-139180000D02*
X73625000Y-141780000D01*
G75*
G02*
X73575000Y-141830000I-50000J0D01*
G01*
X70975000Y-141830000D01*
G75*
G02*
X70925000Y-141780000I0J50000D01*
G01*
X70925000Y-139180000D01*
G75*
G02*
X70975000Y-139130000I50000J0D01*
G01*
X73575000Y-139130000D01*
G75*
G02*
X73625000Y-139180000I0J-50000D01*
G01*
G37*
G36*
G01*
X62075000Y-136980000D02*
X62075000Y-139580000D01*
G75*
G02*
X62025000Y-139630000I-50000J0D01*
G01*
X59425000Y-139630000D01*
G75*
G02*
X59375000Y-139580000I0J50000D01*
G01*
X59375000Y-136980000D01*
G75*
G02*
X59425000Y-136930000I50000J0D01*
G01*
X62025000Y-136930000D01*
G75*
G02*
X62075000Y-136980000I0J-50000D01*
G01*
G37*
X64000000Y-138280000D03*
D12*
X69000000Y-117530000D03*
D13*
X63500000Y-117530000D03*
X74500000Y-117530000D03*
X74000000Y-112380000D03*
D14*
X69000000Y-123480000D03*
G36*
G01*
X73625000Y-122180000D02*
X73625000Y-124780000D01*
G75*
G02*
X73575000Y-124830000I-50000J0D01*
G01*
X70975000Y-124830000D01*
G75*
G02*
X70925000Y-124780000I0J50000D01*
G01*
X70925000Y-122180000D01*
G75*
G02*
X70975000Y-122130000I50000J0D01*
G01*
X73575000Y-122130000D01*
G75*
G02*
X73625000Y-122180000I0J-50000D01*
G01*
G37*
G36*
G01*
X62075000Y-119980000D02*
X62075000Y-122580000D01*
G75*
G02*
X62025000Y-122630000I-50000J0D01*
G01*
X59425000Y-122630000D01*
G75*
G02*
X59375000Y-122580000I0J50000D01*
G01*
X59375000Y-119980000D01*
G75*
G02*
X59425000Y-119930000I50000J0D01*
G01*
X62025000Y-119930000D01*
G75*
G02*
X62075000Y-119980000I0J-50000D01*
G01*
G37*
X64000000Y-121280000D03*
D12*
X69000000Y-100530000D03*
D13*
X63500000Y-100530000D03*
X74500000Y-100530000D03*
X74000000Y-95380000D03*
D14*
X69000000Y-106480000D03*
G36*
G01*
X73625000Y-105180000D02*
X73625000Y-107780000D01*
G75*
G02*
X73575000Y-107830000I-50000J0D01*
G01*
X70975000Y-107830000D01*
G75*
G02*
X70925000Y-107780000I0J50000D01*
G01*
X70925000Y-105180000D01*
G75*
G02*
X70975000Y-105130000I50000J0D01*
G01*
X73575000Y-105130000D01*
G75*
G02*
X73625000Y-105180000I0J-50000D01*
G01*
G37*
G36*
G01*
X62075000Y-102980000D02*
X62075000Y-105580000D01*
G75*
G02*
X62025000Y-105630000I-50000J0D01*
G01*
X59425000Y-105630000D01*
G75*
G02*
X59375000Y-105580000I0J50000D01*
G01*
X59375000Y-102980000D01*
G75*
G02*
X59425000Y-102930000I50000J0D01*
G01*
X62025000Y-102930000D01*
G75*
G02*
X62075000Y-102980000I0J-50000D01*
G01*
G37*
X64000000Y-104280000D03*
D12*
X69000000Y-83530000D03*
D13*
X63500000Y-83530000D03*
X74500000Y-83530000D03*
X74000000Y-78380000D03*
D14*
X69000000Y-89480000D03*
G36*
G01*
X73625000Y-88180000D02*
X73625000Y-90780000D01*
G75*
G02*
X73575000Y-90830000I-50000J0D01*
G01*
X70975000Y-90830000D01*
G75*
G02*
X70925000Y-90780000I0J50000D01*
G01*
X70925000Y-88180000D01*
G75*
G02*
X70975000Y-88130000I50000J0D01*
G01*
X73575000Y-88130000D01*
G75*
G02*
X73625000Y-88180000I0J-50000D01*
G01*
G37*
G36*
G01*
X62075000Y-85980000D02*
X62075000Y-88580000D01*
G75*
G02*
X62025000Y-88630000I-50000J0D01*
G01*
X59425000Y-88630000D01*
G75*
G02*
X59375000Y-88580000I0J50000D01*
G01*
X59375000Y-85980000D01*
G75*
G02*
X59425000Y-85930000I50000J0D01*
G01*
X62025000Y-85930000D01*
G75*
G02*
X62075000Y-85980000I0J-50000D01*
G01*
G37*
X64000000Y-87280000D03*
D12*
X69000000Y-66530000D03*
D13*
X63500000Y-66530000D03*
X74500000Y-66530000D03*
X74000000Y-61380000D03*
D14*
X69000000Y-72480000D03*
G36*
G01*
X73625000Y-71180000D02*
X73625000Y-73780000D01*
G75*
G02*
X73575000Y-73830000I-50000J0D01*
G01*
X70975000Y-73830000D01*
G75*
G02*
X70925000Y-73780000I0J50000D01*
G01*
X70925000Y-71180000D01*
G75*
G02*
X70975000Y-71130000I50000J0D01*
G01*
X73575000Y-71130000D01*
G75*
G02*
X73625000Y-71180000I0J-50000D01*
G01*
G37*
G36*
G01*
X62075000Y-68980000D02*
X62075000Y-71580000D01*
G75*
G02*
X62025000Y-71630000I-50000J0D01*
G01*
X59425000Y-71630000D01*
G75*
G02*
X59375000Y-71580000I0J50000D01*
G01*
X59375000Y-68980000D01*
G75*
G02*
X59425000Y-68930000I50000J0D01*
G01*
X62025000Y-68930000D01*
G75*
G02*
X62075000Y-68980000I0J-50000D01*
G01*
G37*
X64000000Y-70280000D03*
D12*
X86000000Y-121780000D03*
D13*
X80500000Y-121780000D03*
X91500000Y-121780000D03*
X91000000Y-116630000D03*
D14*
X86000000Y-127730000D03*
G36*
G01*
X90625000Y-126430000D02*
X90625000Y-129030000D01*
G75*
G02*
X90575000Y-129080000I-50000J0D01*
G01*
X87975000Y-129080000D01*
G75*
G02*
X87925000Y-129030000I0J50000D01*
G01*
X87925000Y-126430000D01*
G75*
G02*
X87975000Y-126380000I50000J0D01*
G01*
X90575000Y-126380000D01*
G75*
G02*
X90625000Y-126430000I0J-50000D01*
G01*
G37*
G36*
G01*
X79075000Y-124230000D02*
X79075000Y-126830000D01*
G75*
G02*
X79025000Y-126880000I-50000J0D01*
G01*
X76425000Y-126880000D01*
G75*
G02*
X76375000Y-126830000I0J50000D01*
G01*
X76375000Y-124230000D01*
G75*
G02*
X76425000Y-124180000I50000J0D01*
G01*
X79025000Y-124180000D01*
G75*
G02*
X79075000Y-124230000I0J-50000D01*
G01*
G37*
X81000000Y-125530000D03*
D12*
X86000000Y-104780000D03*
D13*
X80500000Y-104780000D03*
X91500000Y-104780000D03*
X91000000Y-99630000D03*
D14*
X86000000Y-110730000D03*
G36*
G01*
X90625000Y-109430000D02*
X90625000Y-112030000D01*
G75*
G02*
X90575000Y-112080000I-50000J0D01*
G01*
X87975000Y-112080000D01*
G75*
G02*
X87925000Y-112030000I0J50000D01*
G01*
X87925000Y-109430000D01*
G75*
G02*
X87975000Y-109380000I50000J0D01*
G01*
X90575000Y-109380000D01*
G75*
G02*
X90625000Y-109430000I0J-50000D01*
G01*
G37*
G36*
G01*
X79075000Y-107230000D02*
X79075000Y-109830000D01*
G75*
G02*
X79025000Y-109880000I-50000J0D01*
G01*
X76425000Y-109880000D01*
G75*
G02*
X76375000Y-109830000I0J50000D01*
G01*
X76375000Y-107230000D01*
G75*
G02*
X76425000Y-107180000I50000J0D01*
G01*
X79025000Y-107180000D01*
G75*
G02*
X79075000Y-107230000I0J-50000D01*
G01*
G37*
X81000000Y-108530000D03*
D12*
X86000000Y-87780000D03*
D13*
X80500000Y-87780000D03*
X91500000Y-87780000D03*
X91000000Y-82630000D03*
D14*
X86000000Y-93730000D03*
G36*
G01*
X90625000Y-92430000D02*
X90625000Y-95030000D01*
G75*
G02*
X90575000Y-95080000I-50000J0D01*
G01*
X87975000Y-95080000D01*
G75*
G02*
X87925000Y-95030000I0J50000D01*
G01*
X87925000Y-92430000D01*
G75*
G02*
X87975000Y-92380000I50000J0D01*
G01*
X90575000Y-92380000D01*
G75*
G02*
X90625000Y-92430000I0J-50000D01*
G01*
G37*
G36*
G01*
X79075000Y-90230000D02*
X79075000Y-92830000D01*
G75*
G02*
X79025000Y-92880000I-50000J0D01*
G01*
X76425000Y-92880000D01*
G75*
G02*
X76375000Y-92830000I0J50000D01*
G01*
X76375000Y-90230000D01*
G75*
G02*
X76425000Y-90180000I50000J0D01*
G01*
X79025000Y-90180000D01*
G75*
G02*
X79075000Y-90230000I0J-50000D01*
G01*
G37*
X81000000Y-91530000D03*
D12*
X86000000Y-70780000D03*
D13*
X80500000Y-70780000D03*
X91500000Y-70780000D03*
X91000000Y-65630000D03*
D14*
X86000000Y-76730000D03*
G36*
G01*
X90625000Y-75430000D02*
X90625000Y-78030000D01*
G75*
G02*
X90575000Y-78080000I-50000J0D01*
G01*
X87975000Y-78080000D01*
G75*
G02*
X87925000Y-78030000I0J50000D01*
G01*
X87925000Y-75430000D01*
G75*
G02*
X87975000Y-75380000I50000J0D01*
G01*
X90575000Y-75380000D01*
G75*
G02*
X90625000Y-75430000I0J-50000D01*
G01*
G37*
G36*
G01*
X79075000Y-73230000D02*
X79075000Y-75830000D01*
G75*
G02*
X79025000Y-75880000I-50000J0D01*
G01*
X76425000Y-75880000D01*
G75*
G02*
X76375000Y-75830000I0J50000D01*
G01*
X76375000Y-73230000D01*
G75*
G02*
X76425000Y-73180000I50000J0D01*
G01*
X79025000Y-73180000D01*
G75*
G02*
X79075000Y-73230000I0J-50000D01*
G01*
G37*
X81000000Y-74530000D03*
D12*
X103000000Y-124330000D03*
D13*
X97500000Y-124330000D03*
X108500000Y-124330000D03*
X108000000Y-119180000D03*
D14*
X103000000Y-130280000D03*
G36*
G01*
X107625000Y-128980000D02*
X107625000Y-131580000D01*
G75*
G02*
X107575000Y-131630000I-50000J0D01*
G01*
X104975000Y-131630000D01*
G75*
G02*
X104925000Y-131580000I0J50000D01*
G01*
X104925000Y-128980000D01*
G75*
G02*
X104975000Y-128930000I50000J0D01*
G01*
X107575000Y-128930000D01*
G75*
G02*
X107625000Y-128980000I0J-50000D01*
G01*
G37*
G36*
G01*
X96075000Y-126780000D02*
X96075000Y-129380000D01*
G75*
G02*
X96025000Y-129430000I-50000J0D01*
G01*
X93425000Y-129430000D01*
G75*
G02*
X93375000Y-129380000I0J50000D01*
G01*
X93375000Y-126780000D01*
G75*
G02*
X93425000Y-126730000I50000J0D01*
G01*
X96025000Y-126730000D01*
G75*
G02*
X96075000Y-126780000I0J-50000D01*
G01*
G37*
X98000000Y-128080000D03*
D12*
X103000000Y-107330000D03*
D13*
X97500000Y-107330000D03*
X108500000Y-107330000D03*
X108000000Y-102180000D03*
D14*
X103000000Y-113280000D03*
G36*
G01*
X107625000Y-111980000D02*
X107625000Y-114580000D01*
G75*
G02*
X107575000Y-114630000I-50000J0D01*
G01*
X104975000Y-114630000D01*
G75*
G02*
X104925000Y-114580000I0J50000D01*
G01*
X104925000Y-111980000D01*
G75*
G02*
X104975000Y-111930000I50000J0D01*
G01*
X107575000Y-111930000D01*
G75*
G02*
X107625000Y-111980000I0J-50000D01*
G01*
G37*
G36*
G01*
X96075000Y-109780000D02*
X96075000Y-112380000D01*
G75*
G02*
X96025000Y-112430000I-50000J0D01*
G01*
X93425000Y-112430000D01*
G75*
G02*
X93375000Y-112380000I0J50000D01*
G01*
X93375000Y-109780000D01*
G75*
G02*
X93425000Y-109730000I50000J0D01*
G01*
X96025000Y-109730000D01*
G75*
G02*
X96075000Y-109780000I0J-50000D01*
G01*
G37*
X98000000Y-111080000D03*
D12*
X103000000Y-90330000D03*
D13*
X97500000Y-90330000D03*
X108500000Y-90330000D03*
X108000000Y-85180000D03*
D14*
X103000000Y-96280000D03*
G36*
G01*
X107625000Y-94980000D02*
X107625000Y-97580000D01*
G75*
G02*
X107575000Y-97630000I-50000J0D01*
G01*
X104975000Y-97630000D01*
G75*
G02*
X104925000Y-97580000I0J50000D01*
G01*
X104925000Y-94980000D01*
G75*
G02*
X104975000Y-94930000I50000J0D01*
G01*
X107575000Y-94930000D01*
G75*
G02*
X107625000Y-94980000I0J-50000D01*
G01*
G37*
G36*
G01*
X96075000Y-92780000D02*
X96075000Y-95380000D01*
G75*
G02*
X96025000Y-95430000I-50000J0D01*
G01*
X93425000Y-95430000D01*
G75*
G02*
X93375000Y-95380000I0J50000D01*
G01*
X93375000Y-92780000D01*
G75*
G02*
X93425000Y-92730000I50000J0D01*
G01*
X96025000Y-92730000D01*
G75*
G02*
X96075000Y-92780000I0J-50000D01*
G01*
G37*
X98000000Y-94080000D03*
D12*
X103000000Y-73330000D03*
D13*
X97500000Y-73330000D03*
X108500000Y-73330000D03*
X108000000Y-68180000D03*
D14*
X103000000Y-79280000D03*
G36*
G01*
X107625000Y-77980000D02*
X107625000Y-80580000D01*
G75*
G02*
X107575000Y-80630000I-50000J0D01*
G01*
X104975000Y-80630000D01*
G75*
G02*
X104925000Y-80580000I0J50000D01*
G01*
X104925000Y-77980000D01*
G75*
G02*
X104975000Y-77930000I50000J0D01*
G01*
X107575000Y-77930000D01*
G75*
G02*
X107625000Y-77980000I0J-50000D01*
G01*
G37*
G36*
G01*
X96075000Y-75780000D02*
X96075000Y-78380000D01*
G75*
G02*
X96025000Y-78430000I-50000J0D01*
G01*
X93425000Y-78430000D01*
G75*
G02*
X93375000Y-78380000I0J50000D01*
G01*
X93375000Y-75780000D01*
G75*
G02*
X93425000Y-75730000I50000J0D01*
G01*
X96025000Y-75730000D01*
G75*
G02*
X96075000Y-75780000I0J-50000D01*
G01*
G37*
X98000000Y-77080000D03*
D12*
X120000000Y-127730000D03*
D13*
X114500000Y-127730000D03*
X125500000Y-127730000D03*
X125000000Y-122580000D03*
D14*
X120000000Y-133680000D03*
G36*
G01*
X124625000Y-132380000D02*
X124625000Y-134980000D01*
G75*
G02*
X124575000Y-135030000I-50000J0D01*
G01*
X121975000Y-135030000D01*
G75*
G02*
X121925000Y-134980000I0J50000D01*
G01*
X121925000Y-132380000D01*
G75*
G02*
X121975000Y-132330000I50000J0D01*
G01*
X124575000Y-132330000D01*
G75*
G02*
X124625000Y-132380000I0J-50000D01*
G01*
G37*
G36*
G01*
X113075000Y-130180000D02*
X113075000Y-132780000D01*
G75*
G02*
X113025000Y-132830000I-50000J0D01*
G01*
X110425000Y-132830000D01*
G75*
G02*
X110375000Y-132780000I0J50000D01*
G01*
X110375000Y-130180000D01*
G75*
G02*
X110425000Y-130130000I50000J0D01*
G01*
X113025000Y-130130000D01*
G75*
G02*
X113075000Y-130180000I0J-50000D01*
G01*
G37*
X115000000Y-131480000D03*
D12*
X120000000Y-110730000D03*
D13*
X114500000Y-110730000D03*
X125500000Y-110730000D03*
X125000000Y-105580000D03*
D14*
X120000000Y-116680000D03*
G36*
G01*
X124625000Y-115380000D02*
X124625000Y-117980000D01*
G75*
G02*
X124575000Y-118030000I-50000J0D01*
G01*
X121975000Y-118030000D01*
G75*
G02*
X121925000Y-117980000I0J50000D01*
G01*
X121925000Y-115380000D01*
G75*
G02*
X121975000Y-115330000I50000J0D01*
G01*
X124575000Y-115330000D01*
G75*
G02*
X124625000Y-115380000I0J-50000D01*
G01*
G37*
G36*
G01*
X113075000Y-113180000D02*
X113075000Y-115780000D01*
G75*
G02*
X113025000Y-115830000I-50000J0D01*
G01*
X110425000Y-115830000D01*
G75*
G02*
X110375000Y-115780000I0J50000D01*
G01*
X110375000Y-113180000D01*
G75*
G02*
X110425000Y-113130000I50000J0D01*
G01*
X113025000Y-113130000D01*
G75*
G02*
X113075000Y-113180000I0J-50000D01*
G01*
G37*
X115000000Y-114480000D03*
D12*
X120000000Y-93730000D03*
D13*
X114500000Y-93730000D03*
X125500000Y-93730000D03*
X125000000Y-88580000D03*
D14*
X120000000Y-99680000D03*
G36*
G01*
X124625000Y-98380000D02*
X124625000Y-100980000D01*
G75*
G02*
X124575000Y-101030000I-50000J0D01*
G01*
X121975000Y-101030000D01*
G75*
G02*
X121925000Y-100980000I0J50000D01*
G01*
X121925000Y-98380000D01*
G75*
G02*
X121975000Y-98330000I50000J0D01*
G01*
X124575000Y-98330000D01*
G75*
G02*
X124625000Y-98380000I0J-50000D01*
G01*
G37*
G36*
G01*
X113075000Y-96180000D02*
X113075000Y-98780000D01*
G75*
G02*
X113025000Y-98830000I-50000J0D01*
G01*
X110425000Y-98830000D01*
G75*
G02*
X110375000Y-98780000I0J50000D01*
G01*
X110375000Y-96180000D01*
G75*
G02*
X110425000Y-96130000I50000J0D01*
G01*
X113025000Y-96130000D01*
G75*
G02*
X113075000Y-96180000I0J-50000D01*
G01*
G37*
X115000000Y-97480000D03*
D12*
X120000000Y-76730000D03*
D13*
X114500000Y-76730000D03*
X125500000Y-76730000D03*
X125000000Y-71580000D03*
D14*
X120000000Y-82680000D03*
G36*
G01*
X124625000Y-81380000D02*
X124625000Y-83980000D01*
G75*
G02*
X124575000Y-84030000I-50000J0D01*
G01*
X121975000Y-84030000D01*
G75*
G02*
X121925000Y-83980000I0J50000D01*
G01*
X121925000Y-81380000D01*
G75*
G02*
X121975000Y-81330000I50000J0D01*
G01*
X124575000Y-81330000D01*
G75*
G02*
X124625000Y-81380000I0J-50000D01*
G01*
G37*
G36*
G01*
X113075000Y-79180000D02*
X113075000Y-81780000D01*
G75*
G02*
X113025000Y-81830000I-50000J0D01*
G01*
X110425000Y-81830000D01*
G75*
G02*
X110375000Y-81780000I0J50000D01*
G01*
X110375000Y-79180000D01*
G75*
G02*
X110425000Y-79130000I50000J0D01*
G01*
X113025000Y-79130000D01*
G75*
G02*
X113075000Y-79180000I0J-50000D01*
G01*
G37*
X115000000Y-80480000D03*
D12*
X137000000Y-124330000D03*
D13*
X131500000Y-124330000D03*
X142500000Y-124330000D03*
X142000000Y-119180000D03*
D14*
X137000000Y-130280000D03*
G36*
G01*
X141625000Y-128980000D02*
X141625000Y-131580000D01*
G75*
G02*
X141575000Y-131630000I-50000J0D01*
G01*
X138975000Y-131630000D01*
G75*
G02*
X138925000Y-131580000I0J50000D01*
G01*
X138925000Y-128980000D01*
G75*
G02*
X138975000Y-128930000I50000J0D01*
G01*
X141575000Y-128930000D01*
G75*
G02*
X141625000Y-128980000I0J-50000D01*
G01*
G37*
G36*
G01*
X130075000Y-126780000D02*
X130075000Y-129380000D01*
G75*
G02*
X130025000Y-129430000I-50000J0D01*
G01*
X127425000Y-129430000D01*
G75*
G02*
X127375000Y-129380000I0J50000D01*
G01*
X127375000Y-126780000D01*
G75*
G02*
X127425000Y-126730000I50000J0D01*
G01*
X130025000Y-126730000D01*
G75*
G02*
X130075000Y-126780000I0J-50000D01*
G01*
G37*
X132000000Y-128080000D03*
D12*
X137000000Y-107330000D03*
D13*
X131500000Y-107330000D03*
X142500000Y-107330000D03*
X142000000Y-102180000D03*
D14*
X137000000Y-113280000D03*
G36*
G01*
X141625000Y-111980000D02*
X141625000Y-114580000D01*
G75*
G02*
X141575000Y-114630000I-50000J0D01*
G01*
X138975000Y-114630000D01*
G75*
G02*
X138925000Y-114580000I0J50000D01*
G01*
X138925000Y-111980000D01*
G75*
G02*
X138975000Y-111930000I50000J0D01*
G01*
X141575000Y-111930000D01*
G75*
G02*
X141625000Y-111980000I0J-50000D01*
G01*
G37*
G36*
G01*
X130075000Y-109780000D02*
X130075000Y-112380000D01*
G75*
G02*
X130025000Y-112430000I-50000J0D01*
G01*
X127425000Y-112430000D01*
G75*
G02*
X127375000Y-112380000I0J50000D01*
G01*
X127375000Y-109780000D01*
G75*
G02*
X127425000Y-109730000I50000J0D01*
G01*
X130025000Y-109730000D01*
G75*
G02*
X130075000Y-109780000I0J-50000D01*
G01*
G37*
X132000000Y-111080000D03*
D12*
X137000000Y-90330000D03*
D13*
X131500000Y-90330000D03*
X142500000Y-90330000D03*
X142000000Y-85180000D03*
D14*
X137000000Y-96280000D03*
G36*
G01*
X141625000Y-94980000D02*
X141625000Y-97580000D01*
G75*
G02*
X141575000Y-97630000I-50000J0D01*
G01*
X138975000Y-97630000D01*
G75*
G02*
X138925000Y-97580000I0J50000D01*
G01*
X138925000Y-94980000D01*
G75*
G02*
X138975000Y-94930000I50000J0D01*
G01*
X141575000Y-94930000D01*
G75*
G02*
X141625000Y-94980000I0J-50000D01*
G01*
G37*
G36*
G01*
X130075000Y-92780000D02*
X130075000Y-95380000D01*
G75*
G02*
X130025000Y-95430000I-50000J0D01*
G01*
X127425000Y-95430000D01*
G75*
G02*
X127375000Y-95380000I0J50000D01*
G01*
X127375000Y-92780000D01*
G75*
G02*
X127425000Y-92730000I50000J0D01*
G01*
X130025000Y-92730000D01*
G75*
G02*
X130075000Y-92780000I0J-50000D01*
G01*
G37*
X132000000Y-94080000D03*
D12*
X108780000Y-144730000D03*
D13*
X103363557Y-143774935D03*
X114196443Y-145685065D03*
X114598327Y-140526481D03*
D14*
X107746793Y-150589606D03*
G36*
G01*
X112527272Y-150112479D02*
X112075786Y-152672979D01*
G75*
G02*
X112017864Y-152713537I-49240J8682D01*
G01*
X109457364Y-152262051D01*
G75*
G02*
X109416806Y-152204129I8682J49240D01*
G01*
X109868292Y-149643629D01*
G75*
G02*
X109926214Y-149603071I49240J-8682D01*
G01*
X112486714Y-150054557D01*
G75*
G02*
X112527272Y-150112479I-8682J-49240D01*
G01*
G37*
G36*
G01*
X101534768Y-145940265D02*
X101083282Y-148500765D01*
G75*
G02*
X101025360Y-148541323I-49240J8682D01*
G01*
X98464860Y-148089837D01*
G75*
G02*
X98424302Y-148031915I8682J49240D01*
G01*
X98875788Y-145471415D01*
G75*
G02*
X98933710Y-145430857I49240J-8682D01*
G01*
X101494210Y-145882343D01*
G75*
G02*
X101534768Y-145940265I-8682J-49240D01*
G01*
G37*
X103204781Y-147554788D03*
D12*
X126970728Y-150465514D03*
D13*
X121986035Y-148141114D03*
X131955421Y-152789914D03*
X133678751Y-147911120D03*
D14*
X124456149Y-155858045D03*
G36*
G01*
X129197226Y-156634455D02*
X128098418Y-158990855D01*
G75*
G02*
X128031972Y-159015039I-45315J21131D01*
G01*
X125675572Y-157916231D01*
G75*
G02*
X125651388Y-157849785I21131J45315D01*
G01*
X126750196Y-155493385D01*
G75*
G02*
X126816642Y-155469201I45315J-21131D01*
G01*
X129173042Y-156568009D01*
G75*
G02*
X129197226Y-156634455I-21131J-45315D01*
G01*
G37*
G36*
G01*
X119659132Y-149759337D02*
X118560324Y-152115737D01*
G75*
G02*
X118493878Y-152139921I-45315J21131D01*
G01*
X116137478Y-151041113D01*
G75*
G02*
X116113294Y-150974667I21131J45315D01*
G01*
X117212102Y-148618267D01*
G75*
G02*
X117278548Y-148594083I45315J-21131D01*
G01*
X119634948Y-149692891D01*
G75*
G02*
X119659132Y-149759337I-21131J-45315D01*
G01*
G37*
X120854371Y-151751077D03*
D12*
X142693305Y-158650170D03*
D13*
X137930165Y-155900170D03*
X147456445Y-161400170D03*
X149598432Y-156690139D03*
D14*
X139718305Y-163803021D03*
G36*
G01*
X144373672Y-164989688D02*
X143073672Y-167241354D01*
G75*
G02*
X143005371Y-167259655I-43301J25000D01*
G01*
X140753705Y-165959655D01*
G75*
G02*
X140735404Y-165891354I25000J43301D01*
G01*
X142035404Y-163639688D01*
G75*
G02*
X142103705Y-163621387I43301J-25000D01*
G01*
X144355371Y-164921387D01*
G75*
G02*
X144373672Y-164989688I-25000J-43301D01*
G01*
G37*
G36*
G01*
X135471079Y-157309432D02*
X134171079Y-159561098D01*
G75*
G02*
X134102778Y-159579399I-43301J25000D01*
G01*
X131851112Y-158279399D01*
G75*
G02*
X131832811Y-158211098I25000J43301D01*
G01*
X133132811Y-155959432D01*
G75*
G02*
X133201112Y-155941131I43301J-25000D01*
G01*
X135452778Y-157241131D01*
G75*
G02*
X135471079Y-157309432I-25000J-43301D01*
G01*
G37*
X136488178Y-159397765D03*
D15*
X69050000Y-55390000D03*
X69050000Y-40150000D03*
X71590000Y-55390000D03*
X71590000Y-40150000D03*
X74130000Y-55390000D03*
X74130000Y-40150000D03*
X76670000Y-55390000D03*
X76670000Y-40150000D03*
X79210000Y-55390000D03*
X79210000Y-40150000D03*
X81750000Y-55390000D03*
X81750000Y-40150000D03*
X84290000Y-55390000D03*
X84290000Y-40150000D03*
X86830000Y-55390000D03*
X86830000Y-40150000D03*
X89370000Y-55390000D03*
X89370000Y-40150000D03*
X91910000Y-55390000D03*
X91910000Y-40150000D03*
X94450000Y-55390000D03*
X94450000Y-40150000D03*
X96990000Y-55390000D03*
X96990000Y-40150000D03*
X94450000Y-42690000D03*
X94450000Y-45230000D03*
X94450000Y-47770000D03*
G36*
G01*
X113335000Y-56120000D02*
X114665000Y-56120000D01*
G75*
G02*
X114925000Y-56380000I0J-260000D01*
G01*
X114925000Y-57160000D01*
G75*
G02*
X114665000Y-57420000I-260000J0D01*
G01*
X113335000Y-57420000D01*
G75*
G02*
X113075000Y-57160000I0J260000D01*
G01*
X113075000Y-56380000D01*
G75*
G02*
X113335000Y-56120000I260000J0D01*
G01*
G37*
D16*
X114000000Y-58770000D03*
D17*
X106500000Y-39745000D03*
X109500000Y-39745000D03*
D18*
X41800000Y-85400000D03*
X41800000Y-136400000D03*
X126800000Y-80130000D03*
X126800000Y-131130000D03*
X131696719Y-156420765D03*
%LPD*%
M02*
