M48
; DRILL file {KiCad 9.0.7+1} date 2026-02-15T05:04:03+0000
; FORMAT={-:-/ absolute / metric / decimal}
; #@! TF.CreationDate,2026-02-15T05:04:03+00:00
; #@! TF.GenerationSoftware,Kicad,Pcbnew,9.0.7+1
; #@! TF.FileFunction,NonPlated,1,2,NPTH
FMAT,2
METRIC
; #@! TA.AperFunction,NonPlated,NPTH,ComponentDrill
T1C0.900
; #@! TA.AperFunction,NonPlated,NPTH,ComponentDrill
T2C1.900
; #@! TA.AperFunction,NonPlated,NPTH,ComponentDrill
T3C2.200
; #@! TA.AperFunction,NonPlated,NPTH,ComponentDrill
T4C3.000
; #@! TA.AperFunction,NonPlated,NPTH,ComponentDrill
T5C5.000
%
G90
G05
T1
X106.5Y-39.745
X109.5Y-39.745
T2
X29.5Y-82.0
X29.5Y-99.0
X29.5Y-116.0
X29.5Y-133.0
X40.5Y-82.0
X40.5Y-99.0
X40.5Y-116.0
X40.5Y-133.0
X46.5Y-77.75
X46.5Y-94.75
X46.5Y-111.75
X46.5Y-128.75
X46.5Y-145.75
X57.5Y-77.75
X57.5Y-94.75
X57.5Y-111.75
X57.5Y-128.75
X57.5Y-145.75
X63.5Y-66.53
X63.5Y-83.53
X63.5Y-100.53
X63.5Y-117.53
X63.5Y-134.53
X74.5Y-66.53
X74.5Y-83.53
X74.5Y-100.53
X74.5Y-117.53
X74.5Y-134.53
X80.5Y-70.78
X80.5Y-87.78
X80.5Y-104.78
X80.5Y-121.78
X91.5Y-70.78
X91.5Y-87.78
X91.5Y-104.78
X91.5Y-121.78
X97.5Y-73.33
X97.5Y-90.33
X97.5Y-107.33
X97.5Y-124.33
X103.364Y-143.775
X108.5Y-73.33
X108.5Y-90.33
X108.5Y-107.33
X108.5Y-124.33
X114.196Y-145.685
X114.5Y-76.73
X114.5Y-93.73
X114.5Y-110.73
X114.5Y-127.73
X121.986Y-148.141
X125.5Y-76.73
X125.5Y-93.73
X125.5Y-110.73
X125.5Y-127.73
X131.5Y-90.33
X131.5Y-107.33
X131.5Y-124.33
X131.955Y-152.79
X137.93Y-155.9
X142.5Y-90.33
X142.5Y-107.33
X142.5Y-124.33
X147.456Y-161.4
T3
X41.8Y-85.4
X41.8Y-136.4
X126.8Y-80.13
X126.8Y-131.13
X131.697Y-156.421
T4
X30.0Y-85.75
X30.0Y-102.75
X30.0Y-119.75
X30.0Y-136.75
X35.0Y-87.95
X35.0Y-104.95
X35.0Y-121.95
X35.0Y-138.95
X47.0Y-81.5
X47.0Y-98.5
X47.0Y-115.5
X47.0Y-132.5
X47.0Y-149.5
X52.0Y-83.7
X52.0Y-100.7
X52.0Y-117.7
X52.0Y-134.7
X52.0Y-151.7
X64.0Y-70.28
X64.0Y-87.28
X64.0Y-104.28
X64.0Y-121.28
X64.0Y-138.28
X69.0Y-72.48
X69.0Y-89.48
X69.0Y-106.48
X69.0Y-123.48
X69.0Y-140.48
X81.0Y-74.53
X81.0Y-91.53
X81.0Y-108.53
X81.0Y-125.53
X86.0Y-76.73
X86.0Y-93.73
X86.0Y-110.73
X86.0Y-127.73
X98.0Y-77.08
X98.0Y-94.08
X98.0Y-111.08
X98.0Y-128.08
X103.0Y-79.28
X103.0Y-96.28
X103.0Y-113.28
X103.0Y-130.28
X103.205Y-147.555
X107.747Y-150.59
X115.0Y-80.48
X115.0Y-97.48
X115.0Y-114.48
X115.0Y-131.48
X120.0Y-82.68
X120.0Y-99.68
X120.0Y-116.68
X120.0Y-133.68
X120.854Y-151.751
X124.456Y-155.858
X132.0Y-94.08
X132.0Y-111.08
X132.0Y-128.08
X136.488Y-159.398
X137.0Y-96.28
X137.0Y-113.28
X137.0Y-130.28
X139.718Y-163.803
T5
X35.0Y-82.0
X35.0Y-99.0
X35.0Y-116.0
X35.0Y-133.0
X52.0Y-77.75
X52.0Y-94.75
X52.0Y-111.75
X52.0Y-128.75
X52.0Y-145.75
X69.0Y-66.53
X69.0Y-83.53
X69.0Y-100.53
X69.0Y-117.53
X69.0Y-134.53
X86.0Y-70.78
X86.0Y-87.78
X86.0Y-104.78
X86.0Y-121.78
X103.0Y-73.33
X103.0Y-90.33
X103.0Y-107.33
X103.0Y-124.33
X108.78Y-144.73
X120.0Y-76.73
X120.0Y-93.73
X120.0Y-110.73
X120.0Y-127.73
X126.971Y-150.466
X137.0Y-90.33
X137.0Y-107.33
X137.0Y-124.33
X142.693Y-158.65
M30
