G04 #@! TF.GenerationSoftware,KiCad,Pcbnew,9.0.7+1*
G04 #@! TF.CreationDate,2026-02-15T05:04:03+00:00*
G04 #@! TF.ProjectId,left_pcb,6c656674-5f70-4636-922e-6b696361645f,v0.2*
G04 #@! TF.SameCoordinates,Original*
G04 #@! TF.FileFunction,Copper,L1,Top*
G04 #@! TF.FilePolarity,Positive*
%FSLAX46Y46*%
G04 Gerber Fmt 4.6, Leading zero omitted, Abs format (unit mm)*
G04 Created by KiCad (PCBNEW 9.0.7+1) date 2026-02-15 05:04:03*
%MOMM*%
%LPD*%
G01*
G04 APERTURE LIST*
G04 #@! TA.AperFunction,ComponentPad*
%ADD10C,1.900000*%
G04 #@! TD*
G04 #@! TA.AperFunction,SMDPad,CuDef*
%ADD11R,1.200000X0.900000*%
G04 #@! TD*
G04 #@! TA.AperFunction,ComponentPad*
%ADD12C,1.700000*%
G04 #@! TD*
G04 #@! TA.AperFunction,ComponentPad*
%ADD13O,1.750000X1.200000*%
G04 #@! TD*
G04 #@! TA.AperFunction,SMDPad,CuDef*
%ADD14R,1.000000X1.550000*%
G04 #@! TD*
G04 #@! TA.AperFunction,SMDPad,CuDef*
%ADD15R,1.000000X0.800000*%
G04 #@! TD*
G04 #@! TA.AperFunction,SMDPad,CuDef*
%ADD16R,0.700000X1.500000*%
G04 #@! TD*
G04 APERTURE END LIST*
D10*
X40000000Y-127850000D03*
X40000000Y-110850000D03*
X40000000Y-93850000D03*
X40000000Y-76850000D03*
X57000000Y-140600000D03*
X57000000Y-123600000D03*
X57000000Y-106600000D03*
X57000000Y-89600000D03*
X57000000Y-72600000D03*
X74000000Y-129380000D03*
X74000000Y-112380000D03*
X74000000Y-95380000D03*
X74000000Y-78380000D03*
X74000000Y-61380000D03*
X91000000Y-116630000D03*
X91000000Y-99630000D03*
X91000000Y-82630000D03*
X91000000Y-65630000D03*
X108000000Y-119180000D03*
X108000000Y-102180000D03*
X108000000Y-85180000D03*
X108000000Y-68180000D03*
X125000000Y-122580000D03*
X125000000Y-105580000D03*
X125000000Y-88580000D03*
X125000000Y-71580000D03*
X142000000Y-119180000D03*
X142000000Y-102180000D03*
X142000000Y-85180000D03*
X114598327Y-140526481D03*
X133678751Y-147911120D03*
X149598432Y-156690139D03*
D11*
X27250000Y-133150000D03*
X27250000Y-129850000D03*
X27250000Y-116150000D03*
X27250000Y-112850000D03*
X27250000Y-99150000D03*
X27250000Y-95850000D03*
X27250000Y-82150000D03*
X27250000Y-78850000D03*
X44250000Y-145900000D03*
X44250000Y-142600000D03*
X44250000Y-128900000D03*
X44250000Y-125600000D03*
X44250000Y-111900000D03*
X44250000Y-108600000D03*
X44250000Y-94900000D03*
X44250000Y-91600000D03*
X44250000Y-77900000D03*
X44250000Y-74600000D03*
X61250000Y-134680000D03*
X61250000Y-131380000D03*
X61250000Y-117680000D03*
X61250000Y-114380000D03*
X61250000Y-100680000D03*
X61250000Y-97380000D03*
X61250000Y-83680000D03*
X61250000Y-80380000D03*
X61250000Y-66680000D03*
X61250000Y-63380000D03*
X78250000Y-121930000D03*
X78250000Y-118630000D03*
X78250000Y-104930000D03*
X78250000Y-101630000D03*
X78250000Y-87930000D03*
X78250000Y-84630000D03*
X78250000Y-70930000D03*
X78250000Y-67630000D03*
X95250000Y-124480000D03*
X95250000Y-121180000D03*
X95250000Y-107480000D03*
X95250000Y-104180000D03*
X95250000Y-90480000D03*
X95250000Y-87180000D03*
X95250000Y-73480000D03*
X95250000Y-70180000D03*
X112250000Y-127880000D03*
X112250000Y-124580000D03*
X112250000Y-110880000D03*
X112250000Y-107580000D03*
X112250000Y-93880000D03*
X112250000Y-90580000D03*
X112250000Y-76880000D03*
X112250000Y-73580000D03*
X129250000Y-124480000D03*
X129250000Y-121180000D03*
X129250000Y-107480000D03*
X129250000Y-104180000D03*
X129250000Y-90480000D03*
X129250000Y-87180000D03*
G04 #@! TA.AperFunction,SMDPad,CuDef*
G36*
X101634436Y-144079300D02*
G01*
X100452667Y-143870923D01*
X100608950Y-142984596D01*
X101790719Y-143192973D01*
X101634436Y-144079300D01*
G37*
G04 #@! TD.AperFunction*
G04 #@! TA.AperFunction,SMDPad,CuDef*
G36*
X102207474Y-140829434D02*
G01*
X101025705Y-140621057D01*
X101181988Y-139734730D01*
X102363757Y-139943107D01*
X102207474Y-140829434D01*
G37*
G04 #@! TD.AperFunction*
G04 #@! TA.AperFunction,SMDPad,CuDef*
G36*
X120237056Y-147987578D02*
G01*
X119149487Y-147480437D01*
X119529844Y-146664760D01*
X120617413Y-147171901D01*
X120237056Y-147987578D01*
G37*
G04 #@! TD.AperFunction*
G04 #@! TA.AperFunction,SMDPad,CuDef*
G36*
X121631696Y-144996762D02*
G01*
X120544127Y-144489621D01*
X120924484Y-143673944D01*
X122012053Y-144181085D01*
X121631696Y-144996762D01*
G37*
G04 #@! TD.AperFunction*
G04 #@! TA.AperFunction,SMDPad,CuDef*
G36*
X136201223Y-155594785D02*
G01*
X135161993Y-154994785D01*
X135611993Y-154215363D01*
X136651223Y-154815363D01*
X136201223Y-155594785D01*
G37*
G04 #@! TD.AperFunction*
G04 #@! TA.AperFunction,SMDPad,CuDef*
G36*
X137851223Y-152736901D02*
G01*
X136811993Y-152136901D01*
X137261993Y-151357479D01*
X138301223Y-151957479D01*
X137851223Y-152736901D01*
G37*
G04 #@! TD.AperFunction*
D12*
X69050000Y-55390000D03*
X69050000Y-40150000D03*
X71590000Y-55390000D03*
X71590000Y-40150000D03*
X74130000Y-55390000D03*
X74130000Y-40150000D03*
X76670000Y-55390000D03*
X76670000Y-40150000D03*
X79210000Y-55390000D03*
X79210000Y-40150000D03*
X81750000Y-55390000D03*
X81750000Y-40150000D03*
X84290000Y-55390000D03*
X84290000Y-40150000D03*
X86830000Y-55390000D03*
X86830000Y-40150000D03*
X89370000Y-55390000D03*
X89370000Y-40150000D03*
X91910000Y-55390000D03*
X91910000Y-40150000D03*
X94450000Y-55390000D03*
X94450000Y-40150000D03*
X96990000Y-55390000D03*
X96990000Y-40150000D03*
X94450000Y-42690000D03*
X94450000Y-45230000D03*
X94450000Y-47770000D03*
G04 #@! TA.AperFunction,ComponentPad*
G36*
G01*
X113365000Y-56170000D02*
X114635000Y-56170000D01*
G75*
G02*
X114875000Y-56410000I0J-240000D01*
G01*
X114875000Y-57130000D01*
G75*
G02*
X114635000Y-57370000I-240000J0D01*
G01*
X113365000Y-57370000D01*
G75*
G02*
X113125000Y-57130000I0J240000D01*
G01*
X113125000Y-56410000D01*
G75*
G02*
X113365000Y-56170000I240000J0D01*
G01*
G37*
G04 #@! TD.AperFunction*
D13*
X114000000Y-58770000D03*
D14*
X112850000Y-50395000D03*
X111150000Y-50395000D03*
X112850000Y-45145000D03*
X111150000Y-45145000D03*
D15*
X104350000Y-38645000D03*
X104350000Y-40855000D03*
X111650000Y-40855000D03*
X111650000Y-38645000D03*
D16*
X110250000Y-41505000D03*
X107250000Y-41505000D03*
X105750000Y-41505000D03*
M02*
