G04 #@! TF.GenerationSoftware,KiCad,Pcbnew,9.0.7+1*
G04 #@! TF.CreationDate,2026-02-15T05:04:03+00:00*
G04 #@! TF.ProjectId,left_pcb,6c656674-5f70-4636-922e-6b696361645f,v0.2*
G04 #@! TF.SameCoordinates,Original*
G04 #@! TF.FileFunction,Soldermask,Bot*
G04 #@! TF.FilePolarity,Negative*
%FSLAX46Y46*%
G04 Gerber Fmt 4.6, Leading zero omitted, Abs format (unit mm)*
G04 Created by KiCad (PCBNEW 9.0.7+1) date 2026-02-15 05:04:03*
%MOMM*%
%LPD*%
G01*
G04 APERTURE LIST*
%ADD10C,5.100000*%
%ADD11C,2.000000*%
%ADD12C,3.100000*%
%ADD13C,1.800000*%
%ADD14O,1.850000X1.300000*%
%ADD15C,1.000000*%
%ADD16C,2.300000*%
G04 APERTURE END LIST*
D10*
X35000000Y-133000000D03*
D11*
X29500000Y-133000000D03*
X40500000Y-133000000D03*
X40000000Y-127850000D03*
D12*
X35000000Y-138950000D03*
G36*
G01*
X39625000Y-137650000D02*
X39625000Y-140250000D01*
G75*
G02*
X39575000Y-140300000I-50000J0D01*
G01*
X36975000Y-140300000D01*
G75*
G02*
X36925000Y-140250000I0J50000D01*
G01*
X36925000Y-137650000D01*
G75*
G02*
X36975000Y-137600000I50000J0D01*
G01*
X39575000Y-137600000D01*
G75*
G02*
X39625000Y-137650000I0J-50000D01*
G01*
G37*
G36*
G01*
X28075000Y-135450000D02*
X28075000Y-138050000D01*
G75*
G02*
X28025000Y-138100000I-50000J0D01*
G01*
X25425000Y-138100000D01*
G75*
G02*
X25375000Y-138050000I0J50000D01*
G01*
X25375000Y-135450000D01*
G75*
G02*
X25425000Y-135400000I50000J0D01*
G01*
X28025000Y-135400000D01*
G75*
G02*
X28075000Y-135450000I0J-50000D01*
G01*
G37*
X30000000Y-136750000D03*
D10*
X35000000Y-116000000D03*
D11*
X29500000Y-116000000D03*
X40500000Y-116000000D03*
X40000000Y-110850000D03*
D12*
X35000000Y-121950000D03*
G36*
G01*
X39625000Y-120650000D02*
X39625000Y-123250000D01*
G75*
G02*
X39575000Y-123300000I-50000J0D01*
G01*
X36975000Y-123300000D01*
G75*
G02*
X36925000Y-123250000I0J50000D01*
G01*
X36925000Y-120650000D01*
G75*
G02*
X36975000Y-120600000I50000J0D01*
G01*
X39575000Y-120600000D01*
G75*
G02*
X39625000Y-120650000I0J-50000D01*
G01*
G37*
G36*
G01*
X28075000Y-118450000D02*
X28075000Y-121050000D01*
G75*
G02*
X28025000Y-121100000I-50000J0D01*
G01*
X25425000Y-121100000D01*
G75*
G02*
X25375000Y-121050000I0J50000D01*
G01*
X25375000Y-118450000D01*
G75*
G02*
X25425000Y-118400000I50000J0D01*
G01*
X28025000Y-118400000D01*
G75*
G02*
X28075000Y-118450000I0J-50000D01*
G01*
G37*
X30000000Y-119750000D03*
D10*
X35000000Y-99000000D03*
D11*
X29500000Y-99000000D03*
X40500000Y-99000000D03*
X40000000Y-93850000D03*
D12*
X35000000Y-104950000D03*
G36*
G01*
X39625000Y-103650000D02*
X39625000Y-106250000D01*
G75*
G02*
X39575000Y-106300000I-50000J0D01*
G01*
X36975000Y-106300000D01*
G75*
G02*
X36925000Y-106250000I0J50000D01*
G01*
X36925000Y-103650000D01*
G75*
G02*
X36975000Y-103600000I50000J0D01*
G01*
X39575000Y-103600000D01*
G75*
G02*
X39625000Y-103650000I0J-50000D01*
G01*
G37*
G36*
G01*
X28075000Y-101450000D02*
X28075000Y-104050000D01*
G75*
G02*
X28025000Y-104100000I-50000J0D01*
G01*
X25425000Y-104100000D01*
G75*
G02*
X25375000Y-104050000I0J50000D01*
G01*
X25375000Y-101450000D01*
G75*
G02*
X25425000Y-101400000I50000J0D01*
G01*
X28025000Y-101400000D01*
G75*
G02*
X28075000Y-101450000I0J-50000D01*
G01*
G37*
X30000000Y-102750000D03*
D10*
X35000000Y-82000000D03*
D11*
X29500000Y-82000000D03*
X40500000Y-82000000D03*
X40000000Y-76850000D03*
D12*
X35000000Y-87950000D03*
G36*
G01*
X39625000Y-86650000D02*
X39625000Y-89250000D01*
G75*
G02*
X39575000Y-89300000I-50000J0D01*
G01*
X36975000Y-89300000D01*
G75*
G02*
X36925000Y-89250000I0J50000D01*
G01*
X36925000Y-86650000D01*
G75*
G02*
X36975000Y-86600000I50000J0D01*
G01*
X39575000Y-86600000D01*
G75*
G02*
X39625000Y-86650000I0J-50000D01*
G01*
G37*
G36*
G01*
X28075000Y-84450000D02*
X28075000Y-87050000D01*
G75*
G02*
X28025000Y-87100000I-50000J0D01*
G01*
X25425000Y-87100000D01*
G75*
G02*
X25375000Y-87050000I0J50000D01*
G01*
X25375000Y-84450000D01*
G75*
G02*
X25425000Y-84400000I50000J0D01*
G01*
X28025000Y-84400000D01*
G75*
G02*
X28075000Y-84450000I0J-50000D01*
G01*
G37*
X30000000Y-85750000D03*
D10*
X52000000Y-145750000D03*
D11*
X46500000Y-145750000D03*
X57500000Y-145750000D03*
X57000000Y-140600000D03*
D12*
X52000000Y-151700000D03*
G36*
G01*
X56625000Y-150400000D02*
X56625000Y-153000000D01*
G75*
G02*
X56575000Y-153050000I-50000J0D01*
G01*
X53975000Y-153050000D01*
G75*
G02*
X53925000Y-153000000I0J50000D01*
G01*
X53925000Y-150400000D01*
G75*
G02*
X53975000Y-150350000I50000J0D01*
G01*
X56575000Y-150350000D01*
G75*
G02*
X56625000Y-150400000I0J-50000D01*
G01*
G37*
G36*
G01*
X45075000Y-148200000D02*
X45075000Y-150800000D01*
G75*
G02*
X45025000Y-150850000I-50000J0D01*
G01*
X42425000Y-150850000D01*
G75*
G02*
X42375000Y-150800000I0J50000D01*
G01*
X42375000Y-148200000D01*
G75*
G02*
X42425000Y-148150000I50000J0D01*
G01*
X45025000Y-148150000D01*
G75*
G02*
X45075000Y-148200000I0J-50000D01*
G01*
G37*
X47000000Y-149500000D03*
D10*
X52000000Y-128750000D03*
D11*
X46500000Y-128750000D03*
X57500000Y-128750000D03*
X57000000Y-123600000D03*
D12*
X52000000Y-134700000D03*
G36*
G01*
X56625000Y-133400000D02*
X56625000Y-136000000D01*
G75*
G02*
X56575000Y-136050000I-50000J0D01*
G01*
X53975000Y-136050000D01*
G75*
G02*
X53925000Y-136000000I0J50000D01*
G01*
X53925000Y-133400000D01*
G75*
G02*
X53975000Y-133350000I50000J0D01*
G01*
X56575000Y-133350000D01*
G75*
G02*
X56625000Y-133400000I0J-50000D01*
G01*
G37*
G36*
G01*
X45075000Y-131200000D02*
X45075000Y-133800000D01*
G75*
G02*
X45025000Y-133850000I-50000J0D01*
G01*
X42425000Y-133850000D01*
G75*
G02*
X42375000Y-133800000I0J50000D01*
G01*
X42375000Y-131200000D01*
G75*
G02*
X42425000Y-131150000I50000J0D01*
G01*
X45025000Y-131150000D01*
G75*
G02*
X45075000Y-131200000I0J-50000D01*
G01*
G37*
X47000000Y-132500000D03*
D10*
X52000000Y-111750000D03*
D11*
X46500000Y-111750000D03*
X57500000Y-111750000D03*
X57000000Y-106600000D03*
D12*
X52000000Y-117700000D03*
G36*
G01*
X56625000Y-116400000D02*
X56625000Y-119000000D01*
G75*
G02*
X56575000Y-119050000I-50000J0D01*
G01*
X53975000Y-119050000D01*
G75*
G02*
X53925000Y-119000000I0J50000D01*
G01*
X53925000Y-116400000D01*
G75*
G02*
X53975000Y-116350000I50000J0D01*
G01*
X56575000Y-116350000D01*
G75*
G02*
X56625000Y-116400000I0J-50000D01*
G01*
G37*
G36*
G01*
X45075000Y-114200000D02*
X45075000Y-116800000D01*
G75*
G02*
X45025000Y-116850000I-50000J0D01*
G01*
X42425000Y-116850000D01*
G75*
G02*
X42375000Y-116800000I0J50000D01*
G01*
X42375000Y-114200000D01*
G75*
G02*
X42425000Y-114150000I50000J0D01*
G01*
X45025000Y-114150000D01*
G75*
G02*
X45075000Y-114200000I0J-50000D01*
G01*
G37*
X47000000Y-115500000D03*
D10*
X52000000Y-94750000D03*
D11*
X46500000Y-94750000D03*
X57500000Y-94750000D03*
X57000000Y-89600000D03*
D12*
X52000000Y-100700000D03*
G36*
G01*
X56625000Y-99400000D02*
X56625000Y-102000000D01*
G75*
G02*
X56575000Y-102050000I-50000J0D01*
G01*
X53975000Y-102050000D01*
G75*
G02*
X53925000Y-102000000I0J50000D01*
G01*
X53925000Y-99400000D01*
G75*
G02*
X53975000Y-99350000I50000J0D01*
G01*
X56575000Y-99350000D01*
G75*
G02*
X56625000Y-99400000I0J-50000D01*
G01*
G37*
G36*
G01*
X45075000Y-97200000D02*
X45075000Y-99800000D01*
G75*
G02*
X45025000Y-99850000I-50000J0D01*
G01*
X42425000Y-99850000D01*
G75*
G02*
X42375000Y-99800000I0J50000D01*
G01*
X42375000Y-97200000D01*
G75*
G02*
X42425000Y-97150000I50000J0D01*
G01*
X45025000Y-97150000D01*
G75*
G02*
X45075000Y-97200000I0J-50000D01*
G01*
G37*
X47000000Y-98500000D03*
D10*
X52000000Y-77750000D03*
D11*
X46500000Y-77750000D03*
X57500000Y-77750000D03*
X57000000Y-72600000D03*
D12*
X52000000Y-83700000D03*
G36*
G01*
X56625000Y-82400000D02*
X56625000Y-85000000D01*
G75*
G02*
X56575000Y-85050000I-50000J0D01*
G01*
X53975000Y-85050000D01*
G75*
G02*
X53925000Y-85000000I0J50000D01*
G01*
X53925000Y-82400000D01*
G75*
G02*
X53975000Y-82350000I50000J0D01*
G01*
X56575000Y-82350000D01*
G75*
G02*
X56625000Y-82400000I0J-50000D01*
G01*
G37*
G36*
G01*
X45075000Y-80200000D02*
X45075000Y-82800000D01*
G75*
G02*
X45025000Y-82850000I-50000J0D01*
G01*
X42425000Y-82850000D01*
G75*
G02*
X42375000Y-82800000I0J50000D01*
G01*
X42375000Y-80200000D01*
G75*
G02*
X42425000Y-80150000I50000J0D01*
G01*
X45025000Y-80150000D01*
G75*
G02*
X45075000Y-80200000I0J-50000D01*
G01*
G37*
X47000000Y-81500000D03*
D10*
X69000000Y-134530000D03*
D11*
X63500000Y-134530000D03*
X74500000Y-134530000D03*
X74000000Y-129380000D03*
D12*
X69000000Y-140480000D03*
G36*
G01*
X73625000Y-139180000D02*
X73625000Y-141780000D01*
G75*
G02*
X73575000Y-141830000I-50000J0D01*
G01*
X70975000Y-141830000D01*
G75*
G02*
X70925000Y-141780000I0J50000D01*
G01*
X70925000Y-139180000D01*
G75*
G02*
X70975000Y-139130000I50000J0D01*
G01*
X73575000Y-139130000D01*
G75*
G02*
X73625000Y-139180000I0J-50000D01*
G01*
G37*
G36*
G01*
X62075000Y-136980000D02*
X62075000Y-139580000D01*
G75*
G02*
X62025000Y-139630000I-50000J0D01*
G01*
X59425000Y-139630000D01*
G75*
G02*
X59375000Y-139580000I0J50000D01*
G01*
X59375000Y-136980000D01*
G75*
G02*
X59425000Y-136930000I50000J0D01*
G01*
X62025000Y-136930000D01*
G75*
G02*
X62075000Y-136980000I0J-50000D01*
G01*
G37*
X64000000Y-138280000D03*
D10*
X69000000Y-117530000D03*
D11*
X63500000Y-117530000D03*
X74500000Y-117530000D03*
X74000000Y-112380000D03*
D12*
X69000000Y-123480000D03*
G36*
G01*
X73625000Y-122180000D02*
X73625000Y-124780000D01*
G75*
G02*
X73575000Y-124830000I-50000J0D01*
G01*
X70975000Y-124830000D01*
G75*
G02*
X70925000Y-124780000I0J50000D01*
G01*
X70925000Y-122180000D01*
G75*
G02*
X70975000Y-122130000I50000J0D01*
G01*
X73575000Y-122130000D01*
G75*
G02*
X73625000Y-122180000I0J-50000D01*
G01*
G37*
G36*
G01*
X62075000Y-119980000D02*
X62075000Y-122580000D01*
G75*
G02*
X62025000Y-122630000I-50000J0D01*
G01*
X59425000Y-122630000D01*
G75*
G02*
X59375000Y-122580000I0J50000D01*
G01*
X59375000Y-119980000D01*
G75*
G02*
X59425000Y-119930000I50000J0D01*
G01*
X62025000Y-119930000D01*
G75*
G02*
X62075000Y-119980000I0J-50000D01*
G01*
G37*
X64000000Y-121280000D03*
D10*
X69000000Y-100530000D03*
D11*
X63500000Y-100530000D03*
X74500000Y-100530000D03*
X74000000Y-95380000D03*
D12*
X69000000Y-106480000D03*
G36*
G01*
X73625000Y-105180000D02*
X73625000Y-107780000D01*
G75*
G02*
X73575000Y-107830000I-50000J0D01*
G01*
X70975000Y-107830000D01*
G75*
G02*
X70925000Y-107780000I0J50000D01*
G01*
X70925000Y-105180000D01*
G75*
G02*
X70975000Y-105130000I50000J0D01*
G01*
X73575000Y-105130000D01*
G75*
G02*
X73625000Y-105180000I0J-50000D01*
G01*
G37*
G36*
G01*
X62075000Y-102980000D02*
X62075000Y-105580000D01*
G75*
G02*
X62025000Y-105630000I-50000J0D01*
G01*
X59425000Y-105630000D01*
G75*
G02*
X59375000Y-105580000I0J50000D01*
G01*
X59375000Y-102980000D01*
G75*
G02*
X59425000Y-102930000I50000J0D01*
G01*
X62025000Y-102930000D01*
G75*
G02*
X62075000Y-102980000I0J-50000D01*
G01*
G37*
X64000000Y-104280000D03*
D10*
X69000000Y-83530000D03*
D11*
X63500000Y-83530000D03*
X74500000Y-83530000D03*
X74000000Y-78380000D03*
D12*
X69000000Y-89480000D03*
G36*
G01*
X73625000Y-88180000D02*
X73625000Y-90780000D01*
G75*
G02*
X73575000Y-90830000I-50000J0D01*
G01*
X70975000Y-90830000D01*
G75*
G02*
X70925000Y-90780000I0J50000D01*
G01*
X70925000Y-88180000D01*
G75*
G02*
X70975000Y-88130000I50000J0D01*
G01*
X73575000Y-88130000D01*
G75*
G02*
X73625000Y-88180000I0J-50000D01*
G01*
G37*
G36*
G01*
X62075000Y-85980000D02*
X62075000Y-88580000D01*
G75*
G02*
X62025000Y-88630000I-50000J0D01*
G01*
X59425000Y-88630000D01*
G75*
G02*
X59375000Y-88580000I0J50000D01*
G01*
X59375000Y-85980000D01*
G75*
G02*
X59425000Y-85930000I50000J0D01*
G01*
X62025000Y-85930000D01*
G75*
G02*
X62075000Y-85980000I0J-50000D01*
G01*
G37*
X64000000Y-87280000D03*
D10*
X69000000Y-66530000D03*
D11*
X63500000Y-66530000D03*
X74500000Y-66530000D03*
X74000000Y-61380000D03*
D12*
X69000000Y-72480000D03*
G36*
G01*
X73625000Y-71180000D02*
X73625000Y-73780000D01*
G75*
G02*
X73575000Y-73830000I-50000J0D01*
G01*
X70975000Y-73830000D01*
G75*
G02*
X70925000Y-73780000I0J50000D01*
G01*
X70925000Y-71180000D01*
G75*
G02*
X70975000Y-71130000I50000J0D01*
G01*
X73575000Y-71130000D01*
G75*
G02*
X73625000Y-71180000I0J-50000D01*
G01*
G37*
G36*
G01*
X62075000Y-68980000D02*
X62075000Y-71580000D01*
G75*
G02*
X62025000Y-71630000I-50000J0D01*
G01*
X59425000Y-71630000D01*
G75*
G02*
X59375000Y-71580000I0J50000D01*
G01*
X59375000Y-68980000D01*
G75*
G02*
X59425000Y-68930000I50000J0D01*
G01*
X62025000Y-68930000D01*
G75*
G02*
X62075000Y-68980000I0J-50000D01*
G01*
G37*
X64000000Y-70280000D03*
D10*
X86000000Y-121780000D03*
D11*
X80500000Y-121780000D03*
X91500000Y-121780000D03*
X91000000Y-116630000D03*
D12*
X86000000Y-127730000D03*
G36*
G01*
X90625000Y-126430000D02*
X90625000Y-129030000D01*
G75*
G02*
X90575000Y-129080000I-50000J0D01*
G01*
X87975000Y-129080000D01*
G75*
G02*
X87925000Y-129030000I0J50000D01*
G01*
X87925000Y-126430000D01*
G75*
G02*
X87975000Y-126380000I50000J0D01*
G01*
X90575000Y-126380000D01*
G75*
G02*
X90625000Y-126430000I0J-50000D01*
G01*
G37*
G36*
G01*
X79075000Y-124230000D02*
X79075000Y-126830000D01*
G75*
G02*
X79025000Y-126880000I-50000J0D01*
G01*
X76425000Y-126880000D01*
G75*
G02*
X76375000Y-126830000I0J50000D01*
G01*
X76375000Y-124230000D01*
G75*
G02*
X76425000Y-124180000I50000J0D01*
G01*
X79025000Y-124180000D01*
G75*
G02*
X79075000Y-124230000I0J-50000D01*
G01*
G37*
X81000000Y-125530000D03*
D10*
X86000000Y-104780000D03*
D11*
X80500000Y-104780000D03*
X91500000Y-104780000D03*
X91000000Y-99630000D03*
D12*
X86000000Y-110730000D03*
G36*
G01*
X90625000Y-109430000D02*
X90625000Y-112030000D01*
G75*
G02*
X90575000Y-112080000I-50000J0D01*
G01*
X87975000Y-112080000D01*
G75*
G02*
X87925000Y-112030000I0J50000D01*
G01*
X87925000Y-109430000D01*
G75*
G02*
X87975000Y-109380000I50000J0D01*
G01*
X90575000Y-109380000D01*
G75*
G02*
X90625000Y-109430000I0J-50000D01*
G01*
G37*
G36*
G01*
X79075000Y-107230000D02*
X79075000Y-109830000D01*
G75*
G02*
X79025000Y-109880000I-50000J0D01*
G01*
X76425000Y-109880000D01*
G75*
G02*
X76375000Y-109830000I0J50000D01*
G01*
X76375000Y-107230000D01*
G75*
G02*
X76425000Y-107180000I50000J0D01*
G01*
X79025000Y-107180000D01*
G75*
G02*
X79075000Y-107230000I0J-50000D01*
G01*
G37*
X81000000Y-108530000D03*
D10*
X86000000Y-87780000D03*
D11*
X80500000Y-87780000D03*
X91500000Y-87780000D03*
X91000000Y-82630000D03*
D12*
X86000000Y-93730000D03*
G36*
G01*
X90625000Y-92430000D02*
X90625000Y-95030000D01*
G75*
G02*
X90575000Y-95080000I-50000J0D01*
G01*
X87975000Y-95080000D01*
G75*
G02*
X87925000Y-95030000I0J50000D01*
G01*
X87925000Y-92430000D01*
G75*
G02*
X87975000Y-92380000I50000J0D01*
G01*
X90575000Y-92380000D01*
G75*
G02*
X90625000Y-92430000I0J-50000D01*
G01*
G37*
G36*
G01*
X79075000Y-90230000D02*
X79075000Y-92830000D01*
G75*
G02*
X79025000Y-92880000I-50000J0D01*
G01*
X76425000Y-92880000D01*
G75*
G02*
X76375000Y-92830000I0J50000D01*
G01*
X76375000Y-90230000D01*
G75*
G02*
X76425000Y-90180000I50000J0D01*
G01*
X79025000Y-90180000D01*
G75*
G02*
X79075000Y-90230000I0J-50000D01*
G01*
G37*
X81000000Y-91530000D03*
D10*
X86000000Y-70780000D03*
D11*
X80500000Y-70780000D03*
X91500000Y-70780000D03*
X91000000Y-65630000D03*
D12*
X86000000Y-76730000D03*
G36*
G01*
X90625000Y-75430000D02*
X90625000Y-78030000D01*
G75*
G02*
X90575000Y-78080000I-50000J0D01*
G01*
X87975000Y-78080000D01*
G75*
G02*
X87925000Y-78030000I0J50000D01*
G01*
X87925000Y-75430000D01*
G75*
G02*
X87975000Y-75380000I50000J0D01*
G01*
X90575000Y-75380000D01*
G75*
G02*
X90625000Y-75430000I0J-50000D01*
G01*
G37*
G36*
G01*
X79075000Y-73230000D02*
X79075000Y-75830000D01*
G75*
G02*
X79025000Y-75880000I-50000J0D01*
G01*
X76425000Y-75880000D01*
G75*
G02*
X76375000Y-75830000I0J50000D01*
G01*
X76375000Y-73230000D01*
G75*
G02*
X76425000Y-73180000I50000J0D01*
G01*
X79025000Y-73180000D01*
G75*
G02*
X79075000Y-73230000I0J-50000D01*
G01*
G37*
X81000000Y-74530000D03*
D10*
X103000000Y-124330000D03*
D11*
X97500000Y-124330000D03*
X108500000Y-124330000D03*
X108000000Y-119180000D03*
D12*
X103000000Y-130280000D03*
G36*
G01*
X107625000Y-128980000D02*
X107625000Y-131580000D01*
G75*
G02*
X107575000Y-131630000I-50000J0D01*
G01*
X104975000Y-131630000D01*
G75*
G02*
X104925000Y-131580000I0J50000D01*
G01*
X104925000Y-128980000D01*
G75*
G02*
X104975000Y-128930000I50000J0D01*
G01*
X107575000Y-128930000D01*
G75*
G02*
X107625000Y-128980000I0J-50000D01*
G01*
G37*
G36*
G01*
X96075000Y-126780000D02*
X96075000Y-129380000D01*
G75*
G02*
X96025000Y-129430000I-50000J0D01*
G01*
X93425000Y-129430000D01*
G75*
G02*
X93375000Y-129380000I0J50000D01*
G01*
X93375000Y-126780000D01*
G75*
G02*
X93425000Y-126730000I50000J0D01*
G01*
X96025000Y-126730000D01*
G75*
G02*
X96075000Y-126780000I0J-50000D01*
G01*
G37*
X98000000Y-128080000D03*
D10*
X103000000Y-107330000D03*
D11*
X97500000Y-107330000D03*
X108500000Y-107330000D03*
X108000000Y-102180000D03*
D12*
X103000000Y-113280000D03*
G36*
G01*
X107625000Y-111980000D02*
X107625000Y-114580000D01*
G75*
G02*
X107575000Y-114630000I-50000J0D01*
G01*
X104975000Y-114630000D01*
G75*
G02*
X104925000Y-114580000I0J50000D01*
G01*
X104925000Y-111980000D01*
G75*
G02*
X104975000Y-111930000I50000J0D01*
G01*
X107575000Y-111930000D01*
G75*
G02*
X107625000Y-111980000I0J-50000D01*
G01*
G37*
G36*
G01*
X96075000Y-109780000D02*
X96075000Y-112380000D01*
G75*
G02*
X96025000Y-112430000I-50000J0D01*
G01*
X93425000Y-112430000D01*
G75*
G02*
X93375000Y-112380000I0J50000D01*
G01*
X93375000Y-109780000D01*
G75*
G02*
X93425000Y-109730000I50000J0D01*
G01*
X96025000Y-109730000D01*
G75*
G02*
X96075000Y-109780000I0J-50000D01*
G01*
G37*
X98000000Y-111080000D03*
D10*
X103000000Y-90330000D03*
D11*
X97500000Y-90330000D03*
X108500000Y-90330000D03*
X108000000Y-85180000D03*
D12*
X103000000Y-96280000D03*
G36*
G01*
X107625000Y-94980000D02*
X107625000Y-97580000D01*
G75*
G02*
X107575000Y-97630000I-50000J0D01*
G01*
X104975000Y-97630000D01*
G75*
G02*
X104925000Y-97580000I0J50000D01*
G01*
X104925000Y-94980000D01*
G75*
G02*
X104975000Y-94930000I50000J0D01*
G01*
X107575000Y-94930000D01*
G75*
G02*
X107625000Y-94980000I0J-50000D01*
G01*
G37*
G36*
G01*
X96075000Y-92780000D02*
X96075000Y-95380000D01*
G75*
G02*
X96025000Y-95430000I-50000J0D01*
G01*
X93425000Y-95430000D01*
G75*
G02*
X93375000Y-95380000I0J50000D01*
G01*
X93375000Y-92780000D01*
G75*
G02*
X93425000Y-92730000I50000J0D01*
G01*
X96025000Y-92730000D01*
G75*
G02*
X96075000Y-92780000I0J-50000D01*
G01*
G37*
X98000000Y-94080000D03*
D10*
X103000000Y-73330000D03*
D11*
X97500000Y-73330000D03*
X108500000Y-73330000D03*
X108000000Y-68180000D03*
D12*
X103000000Y-79280000D03*
G36*
G01*
X107625000Y-77980000D02*
X107625000Y-80580000D01*
G75*
G02*
X107575000Y-80630000I-50000J0D01*
G01*
X104975000Y-80630000D01*
G75*
G02*
X104925000Y-80580000I0J50000D01*
G01*
X104925000Y-77980000D01*
G75*
G02*
X104975000Y-77930000I50000J0D01*
G01*
X107575000Y-77930000D01*
G75*
G02*
X107625000Y-77980000I0J-50000D01*
G01*
G37*
G36*
G01*
X96075000Y-75780000D02*
X96075000Y-78380000D01*
G75*
G02*
X96025000Y-78430000I-50000J0D01*
G01*
X93425000Y-78430000D01*
G75*
G02*
X93375000Y-78380000I0J50000D01*
G01*
X93375000Y-75780000D01*
G75*
G02*
X93425000Y-75730000I50000J0D01*
G01*
X96025000Y-75730000D01*
G75*
G02*
X96075000Y-75780000I0J-50000D01*
G01*
G37*
X98000000Y-77080000D03*
D10*
X120000000Y-127730000D03*
D11*
X114500000Y-127730000D03*
X125500000Y-127730000D03*
X125000000Y-122580000D03*
D12*
X120000000Y-133680000D03*
G36*
G01*
X124625000Y-132380000D02*
X124625000Y-134980000D01*
G75*
G02*
X124575000Y-135030000I-50000J0D01*
G01*
X121975000Y-135030000D01*
G75*
G02*
X121925000Y-134980000I0J50000D01*
G01*
X121925000Y-132380000D01*
G75*
G02*
X121975000Y-132330000I50000J0D01*
G01*
X124575000Y-132330000D01*
G75*
G02*
X124625000Y-132380000I0J-50000D01*
G01*
G37*
G36*
G01*
X113075000Y-130180000D02*
X113075000Y-132780000D01*
G75*
G02*
X113025000Y-132830000I-50000J0D01*
G01*
X110425000Y-132830000D01*
G75*
G02*
X110375000Y-132780000I0J50000D01*
G01*
X110375000Y-130180000D01*
G75*
G02*
X110425000Y-130130000I50000J0D01*
G01*
X113025000Y-130130000D01*
G75*
G02*
X113075000Y-130180000I0J-50000D01*
G01*
G37*
X115000000Y-131480000D03*
D10*
X120000000Y-110730000D03*
D11*
X114500000Y-110730000D03*
X125500000Y-110730000D03*
X125000000Y-105580000D03*
D12*
X120000000Y-116680000D03*
G36*
G01*
X124625000Y-115380000D02*
X124625000Y-117980000D01*
G75*
G02*
X124575000Y-118030000I-50000J0D01*
G01*
X121975000Y-118030000D01*
G75*
G02*
X121925000Y-117980000I0J50000D01*
G01*
X121925000Y-115380000D01*
G75*
G02*
X121975000Y-115330000I50000J0D01*
G01*
X124575000Y-115330000D01*
G75*
G02*
X124625000Y-115380000I0J-50000D01*
G01*
G37*
G36*
G01*
X113075000Y-113180000D02*
X113075000Y-115780000D01*
G75*
G02*
X113025000Y-115830000I-50000J0D01*
G01*
X110425000Y-115830000D01*
G75*
G02*
X110375000Y-115780000I0J50000D01*
G01*
X110375000Y-113180000D01*
G75*
G02*
X110425000Y-113130000I50000J0D01*
G01*
X113025000Y-113130000D01*
G75*
G02*
X113075000Y-113180000I0J-50000D01*
G01*
G37*
X115000000Y-114480000D03*
D10*
X120000000Y-93730000D03*
D11*
X114500000Y-93730000D03*
X125500000Y-93730000D03*
X125000000Y-88580000D03*
D12*
X120000000Y-99680000D03*
G36*
G01*
X124625000Y-98380000D02*
X124625000Y-100980000D01*
G75*
G02*
X124575000Y-101030000I-50000J0D01*
G01*
X121975000Y-101030000D01*
G75*
G02*
X121925000Y-100980000I0J50000D01*
G01*
X121925000Y-98380000D01*
G75*
G02*
X121975000Y-98330000I50000J0D01*
G01*
X124575000Y-98330000D01*
G75*
G02*
X124625000Y-98380000I0J-50000D01*
G01*
G37*
G36*
G01*
X113075000Y-96180000D02*
X113075000Y-98780000D01*
G75*
G02*
X113025000Y-98830000I-50000J0D01*
G01*
X110425000Y-98830000D01*
G75*
G02*
X110375000Y-98780000I0J50000D01*
G01*
X110375000Y-96180000D01*
G75*
G02*
X110425000Y-96130000I50000J0D01*
G01*
X113025000Y-96130000D01*
G75*
G02*
X113075000Y-96180000I0J-50000D01*
G01*
G37*
X115000000Y-97480000D03*
D10*
X120000000Y-76730000D03*
D11*
X114500000Y-76730000D03*
X125500000Y-76730000D03*
X125000000Y-71580000D03*
D12*
X120000000Y-82680000D03*
G36*
G01*
X124625000Y-81380000D02*
X124625000Y-83980000D01*
G75*
G02*
X124575000Y-84030000I-50000J0D01*
G01*
X121975000Y-84030000D01*
G75*
G02*
X121925000Y-83980000I0J50000D01*
G01*
X121925000Y-81380000D01*
G75*
G02*
X121975000Y-81330000I50000J0D01*
G01*
X124575000Y-81330000D01*
G75*
G02*
X124625000Y-81380000I0J-50000D01*
G01*
G37*
G36*
G01*
X113075000Y-79180000D02*
X113075000Y-81780000D01*
G75*
G02*
X113025000Y-81830000I-50000J0D01*
G01*
X110425000Y-81830000D01*
G75*
G02*
X110375000Y-81780000I0J50000D01*
G01*
X110375000Y-79180000D01*
G75*
G02*
X110425000Y-79130000I50000J0D01*
G01*
X113025000Y-79130000D01*
G75*
G02*
X113075000Y-79180000I0J-50000D01*
G01*
G37*
X115000000Y-80480000D03*
D10*
X137000000Y-124330000D03*
D11*
X131500000Y-124330000D03*
X142500000Y-124330000D03*
X142000000Y-119180000D03*
D12*
X137000000Y-130280000D03*
G36*
G01*
X141625000Y-128980000D02*
X141625000Y-131580000D01*
G75*
G02*
X141575000Y-131630000I-50000J0D01*
G01*
X138975000Y-131630000D01*
G75*
G02*
X138925000Y-131580000I0J50000D01*
G01*
X138925000Y-128980000D01*
G75*
G02*
X138975000Y-128930000I50000J0D01*
G01*
X141575000Y-128930000D01*
G75*
G02*
X141625000Y-128980000I0J-50000D01*
G01*
G37*
G36*
G01*
X130075000Y-126780000D02*
X130075000Y-129380000D01*
G75*
G02*
X130025000Y-129430000I-50000J0D01*
G01*
X127425000Y-129430000D01*
G75*
G02*
X127375000Y-129380000I0J50000D01*
G01*
X127375000Y-126780000D01*
G75*
G02*
X127425000Y-126730000I50000J0D01*
G01*
X130025000Y-126730000D01*
G75*
G02*
X130075000Y-126780000I0J-50000D01*
G01*
G37*
X132000000Y-128080000D03*
D10*
X137000000Y-107330000D03*
D11*
X131500000Y-107330000D03*
X142500000Y-107330000D03*
X142000000Y-102180000D03*
D12*
X137000000Y-113280000D03*
G36*
G01*
X141625000Y-111980000D02*
X141625000Y-114580000D01*
G75*
G02*
X141575000Y-114630000I-50000J0D01*
G01*
X138975000Y-114630000D01*
G75*
G02*
X138925000Y-114580000I0J50000D01*
G01*
X138925000Y-111980000D01*
G75*
G02*
X138975000Y-111930000I50000J0D01*
G01*
X141575000Y-111930000D01*
G75*
G02*
X141625000Y-111980000I0J-50000D01*
G01*
G37*
G36*
G01*
X130075000Y-109780000D02*
X130075000Y-112380000D01*
G75*
G02*
X130025000Y-112430000I-50000J0D01*
G01*
X127425000Y-112430000D01*
G75*
G02*
X127375000Y-112380000I0J50000D01*
G01*
X127375000Y-109780000D01*
G75*
G02*
X127425000Y-109730000I50000J0D01*
G01*
X130025000Y-109730000D01*
G75*
G02*
X130075000Y-109780000I0J-50000D01*
G01*
G37*
X132000000Y-111080000D03*
D10*
X137000000Y-90330000D03*
D11*
X131500000Y-90330000D03*
X142500000Y-90330000D03*
X142000000Y-85180000D03*
D12*
X137000000Y-96280000D03*
G36*
G01*
X141625000Y-94980000D02*
X141625000Y-97580000D01*
G75*
G02*
X141575000Y-97630000I-50000J0D01*
G01*
X138975000Y-97630000D01*
G75*
G02*
X138925000Y-97580000I0J50000D01*
G01*
X138925000Y-94980000D01*
G75*
G02*
X138975000Y-94930000I50000J0D01*
G01*
X141575000Y-94930000D01*
G75*
G02*
X141625000Y-94980000I0J-50000D01*
G01*
G37*
G36*
G01*
X130075000Y-92780000D02*
X130075000Y-95380000D01*
G75*
G02*
X130025000Y-95430000I-50000J0D01*
G01*
X127425000Y-95430000D01*
G75*
G02*
X127375000Y-95380000I0J50000D01*
G01*
X127375000Y-92780000D01*
G75*
G02*
X127425000Y-92730000I50000J0D01*
G01*
X130025000Y-92730000D01*
G75*
G02*
X130075000Y-92780000I0J-50000D01*
G01*
G37*
X132000000Y-94080000D03*
D10*
X108780000Y-144730000D03*
D11*
X103363557Y-143774935D03*
X114196443Y-145685065D03*
X114598327Y-140526481D03*
D12*
X107746793Y-150589606D03*
G36*
G01*
X112527272Y-150112479D02*
X112075786Y-152672979D01*
G75*
G02*
X112017864Y-152713537I-49240J8682D01*
G01*
X109457364Y-152262051D01*
G75*
G02*
X109416806Y-152204129I8682J49240D01*
G01*
X109868292Y-149643629D01*
G75*
G02*
X109926214Y-149603071I49240J-8682D01*
G01*
X112486714Y-150054557D01*
G75*
G02*
X112527272Y-150112479I-8682J-49240D01*
G01*
G37*
G36*
G01*
X101534768Y-145940265D02*
X101083282Y-148500765D01*
G75*
G02*
X101025360Y-148541323I-49240J8682D01*
G01*
X98464860Y-148089837D01*
G75*
G02*
X98424302Y-148031915I8682J49240D01*
G01*
X98875788Y-145471415D01*
G75*
G02*
X98933710Y-145430857I49240J-8682D01*
G01*
X101494210Y-145882343D01*
G75*
G02*
X101534768Y-145940265I-8682J-49240D01*
G01*
G37*
X103204781Y-147554788D03*
D10*
X126970728Y-150465514D03*
D11*
X121986035Y-148141114D03*
X131955421Y-152789914D03*
X133678751Y-147911120D03*
D12*
X124456149Y-155858045D03*
G36*
G01*
X129197226Y-156634455D02*
X128098418Y-158990855D01*
G75*
G02*
X128031972Y-159015039I-45315J21131D01*
G01*
X125675572Y-157916231D01*
G75*
G02*
X125651388Y-157849785I21131J45315D01*
G01*
X126750196Y-155493385D01*
G75*
G02*
X126816642Y-155469201I45315J-21131D01*
G01*
X129173042Y-156568009D01*
G75*
G02*
X129197226Y-156634455I-21131J-45315D01*
G01*
G37*
G36*
G01*
X119659132Y-149759337D02*
X118560324Y-152115737D01*
G75*
G02*
X118493878Y-152139921I-45315J21131D01*
G01*
X116137478Y-151041113D01*
G75*
G02*
X116113294Y-150974667I21131J45315D01*
G01*
X117212102Y-148618267D01*
G75*
G02*
X117278548Y-148594083I45315J-21131D01*
G01*
X119634948Y-149692891D01*
G75*
G02*
X119659132Y-149759337I-21131J-45315D01*
G01*
G37*
X120854371Y-151751077D03*
D10*
X142693305Y-158650170D03*
D11*
X137930165Y-155900170D03*
X147456445Y-161400170D03*
X149598432Y-156690139D03*
D12*
X139718305Y-163803021D03*
G36*
G01*
X144373672Y-164989688D02*
X143073672Y-167241354D01*
G75*
G02*
X143005371Y-167259655I-43301J25000D01*
G01*
X140753705Y-165959655D01*
G75*
G02*
X140735404Y-165891354I25000J43301D01*
G01*
X142035404Y-163639688D01*
G75*
G02*
X142103705Y-163621387I43301J-25000D01*
G01*
X144355371Y-164921387D01*
G75*
G02*
X144373672Y-164989688I-25000J-43301D01*
G01*
G37*
G36*
G01*
X135471079Y-157309432D02*
X134171079Y-159561098D01*
G75*
G02*
X134102778Y-159579399I-43301J25000D01*
G01*
X131851112Y-158279399D01*
G75*
G02*
X131832811Y-158211098I25000J43301D01*
G01*
X133132811Y-155959432D01*
G75*
G02*
X133201112Y-155941131I43301J-25000D01*
G01*
X135452778Y-157241131D01*
G75*
G02*
X135471079Y-157309432I-25000J-43301D01*
G01*
G37*
X136488178Y-159397765D03*
D13*
X69050000Y-55390000D03*
X69050000Y-40150000D03*
X71590000Y-55390000D03*
X71590000Y-40150000D03*
X74130000Y-55390000D03*
X74130000Y-40150000D03*
X76670000Y-55390000D03*
X76670000Y-40150000D03*
X79210000Y-55390000D03*
X79210000Y-40150000D03*
X81750000Y-55390000D03*
X81750000Y-40150000D03*
X84290000Y-55390000D03*
X84290000Y-40150000D03*
X86830000Y-55390000D03*
X86830000Y-40150000D03*
X89370000Y-55390000D03*
X89370000Y-40150000D03*
X91910000Y-55390000D03*
X91910000Y-40150000D03*
X94450000Y-55390000D03*
X94450000Y-40150000D03*
X96990000Y-55390000D03*
X96990000Y-40150000D03*
X94450000Y-42690000D03*
X94450000Y-45230000D03*
X94450000Y-47770000D03*
G36*
G01*
X113335000Y-56120000D02*
X114665000Y-56120000D01*
G75*
G02*
X114925000Y-56380000I0J-260000D01*
G01*
X114925000Y-57160000D01*
G75*
G02*
X114665000Y-57420000I-260000J0D01*
G01*
X113335000Y-57420000D01*
G75*
G02*
X113075000Y-57160000I0J260000D01*
G01*
X113075000Y-56380000D01*
G75*
G02*
X113335000Y-56120000I260000J0D01*
G01*
G37*
D14*
X114000000Y-58770000D03*
D15*
X106500000Y-39745000D03*
X109500000Y-39745000D03*
D16*
X41800000Y-85400000D03*
X41800000Y-136400000D03*
X126800000Y-80130000D03*
X126800000Y-131130000D03*
X131696719Y-156420765D03*
M02*
