G04 #@! TF.GenerationSoftware,KiCad,Pcbnew,9.0.7+1*
G04 #@! TF.CreationDate,2026-02-15T05:04:03+00:00*
G04 #@! TF.ProjectId,left_pcb,6c656674-5f70-4636-922e-6b696361645f,v0.2*
G04 #@! TF.SameCoordinates,Original*
G04 #@! TF.FileFunction,Profile,NP*
%FSLAX46Y46*%
G04 Gerber Fmt 4.6, Leading zero omitted, Abs format (unit mm)*
G04 Created by KiCad (PCBNEW 9.0.7+1) date 2026-02-15 05:04:03*
%MOMM*%
%LPD*%
G01*
G04 APERTURE LIST*
G04 #@! TA.AperFunction,Profile*
%ADD10C,0.150000*%
G04 #@! TD*
G04 APERTURE END LIST*
D10*
X27000000Y-144000000D02*
X41000000Y-144000000D01*
X24000000Y-125000000D02*
G75*
G02*
X24041961Y-124500000I2999900J0D01*
G01*
X24000000Y-125000000D02*
X24000000Y-141000000D01*
X27000000Y-144000000D02*
G75*
G02*
X24000000Y-141000000I0J3000000D01*
G01*
X24000000Y-108000000D02*
G75*
G02*
X24041961Y-107500000I2999900J0D01*
G01*
X24000000Y-108000000D02*
X24000000Y-124000000D01*
X24041960Y-124500000D02*
G75*
G02*
X23999998Y-124000000I2957940J500000D01*
G01*
X24000000Y-91000000D02*
G75*
G02*
X24041961Y-90500000I2999900J0D01*
G01*
X24000000Y-91000000D02*
X24000000Y-107000000D01*
X24041960Y-107500000D02*
G75*
G02*
X23999998Y-107000000I2957940J500000D01*
G01*
X41000000Y-71000000D02*
X27000000Y-71000000D01*
X24000000Y-74000000D02*
G75*
G02*
X27000000Y-71000000I3000000J0D01*
G01*
X24000000Y-74000000D02*
X24000000Y-90000000D01*
X24041960Y-90500000D02*
G75*
G02*
X23999998Y-90000000I2957940J500000D01*
G01*
X44000000Y-156750000D02*
X60000000Y-156750000D01*
X63000000Y-153750000D02*
G75*
G02*
X60000000Y-156750000I-3000000J0D01*
G01*
X63000000Y-153750000D02*
X63000000Y-145530000D01*
X41000000Y-144000000D02*
X41000000Y-153750000D01*
X44000000Y-156750000D02*
G75*
G02*
X41000000Y-153750000I0J3000000D01*
G01*
X58000000Y-66750000D02*
X44000000Y-66750000D01*
X41000000Y-69750000D02*
G75*
G02*
X44000000Y-66750000I3000000J0D01*
G01*
X41000000Y-69750000D02*
X41000000Y-71000000D01*
X63000000Y-145530000D02*
X77000000Y-145530000D01*
X80000000Y-142530000D02*
G75*
G02*
X77000000Y-145530000I-3000000J0D01*
G01*
X80000000Y-142530000D02*
X80000000Y-132780000D01*
X64750000Y-55530000D02*
X61000000Y-55530000D01*
X58000000Y-58530000D02*
G75*
G02*
X61000000Y-55530000I3000000J0D01*
G01*
X58000000Y-58530000D02*
X58000000Y-66750000D01*
X80000000Y-132780000D02*
X92033942Y-132780000D01*
X95000000Y-135330000D02*
X99267781Y-135330000D01*
X95000000Y-135330000D02*
G75*
G02*
X92033942Y-132780000I0J3000000D01*
G01*
X127832053Y-138730000D02*
X128000000Y-138730000D01*
X131000000Y-135730000D02*
G75*
G02*
X128000000Y-138730000I-3000000J0D01*
G01*
X131000000Y-135730000D02*
X131000000Y-135330000D01*
X131000000Y-79330000D02*
X131000000Y-68730000D01*
X128000000Y-65730000D02*
G75*
G02*
X131000000Y-68730000I0J-3000000D01*
G01*
X128000000Y-65730000D02*
X118000000Y-65730000D01*
X131000000Y-135330000D02*
X145000000Y-135330000D01*
X148000000Y-132330000D02*
G75*
G02*
X145000000Y-135330000I-3000000J0D01*
G01*
X148000000Y-132330000D02*
X148000000Y-116330000D01*
X147958040Y-115830000D02*
G75*
G02*
X148000002Y-116330000I-2957940J-500000D01*
G01*
X148000000Y-115330000D02*
G75*
G02*
X147958039Y-115830000I-2999900J0D01*
G01*
X148000000Y-115330000D02*
X148000000Y-99330000D01*
X147958040Y-98830000D02*
G75*
G02*
X148000002Y-99330000I-2957940J-500000D01*
G01*
X148000000Y-98330000D02*
G75*
G02*
X147958039Y-98830000I-2999900J0D01*
G01*
X148000000Y-98330000D02*
X148000000Y-82330000D01*
X145000000Y-79330000D02*
G75*
G02*
X148000000Y-82330000I0J-3000000D01*
G01*
X145000000Y-79330000D02*
X131000000Y-79330000D01*
X98991408Y-154173700D02*
X114748332Y-156952071D01*
X114918093Y-156977022D02*
G75*
G02*
X114748332Y-156952073I351307J2980422D01*
G01*
X99267781Y-135330000D02*
X96557929Y-150698332D01*
X98991408Y-154173700D02*
G75*
G02*
X96557994Y-150698343I520992J2954400D01*
G01*
X115071465Y-157053954D02*
X129572389Y-163815846D01*
X129938504Y-163958193D02*
G75*
G02*
X129572391Y-163815841I901796J2861293D01*
G01*
X138869991Y-143877075D02*
G75*
G02*
X139949292Y-144727635I-1267891J-2718925D01*
G01*
X138869991Y-143877075D02*
X127832053Y-138730000D01*
X115071465Y-157053954D02*
G75*
G02*
X114918092Y-156977023I1267135J2717554D01*
G01*
X130265101Y-164176449D02*
X144121508Y-172176449D01*
X148219584Y-171078373D02*
G75*
G02*
X144121498Y-172176467I-2598084J1499973D01*
G01*
X148219584Y-171078373D02*
X156219584Y-157221967D01*
X155121508Y-153123890D02*
G75*
G02*
X156219621Y-157221989I-1500008J-2598110D01*
G01*
X155121508Y-153123891D02*
X141265102Y-145123891D01*
X139949302Y-144727627D02*
G75*
G02*
X141265104Y-145123888I-184202J-2994373D01*
G01*
X130265101Y-164176449D02*
G75*
G02*
X129938505Y-163958191I1499999J2598049D01*
G01*
X114750000Y-52770000D02*
X114750000Y-40770000D01*
X111750000Y-37770000D02*
G75*
G02*
X114750000Y-40770000I0J-3000000D01*
G01*
X111750000Y-37770000D02*
X67750000Y-37770000D01*
X64750000Y-40770000D02*
G75*
G02*
X67750000Y-37770000I3000000J0D01*
G01*
X64750000Y-40770000D02*
X64750000Y-55530000D01*
X118000000Y-65730000D02*
X118000000Y-55770000D01*
X115000000Y-52770000D02*
G75*
G02*
X118000000Y-55770000I0J-3000000D01*
G01*
X115000000Y-52770000D02*
X114750000Y-52770000D01*
M02*
