G04 #@! TF.GenerationSoftware,KiCad,Pcbnew,9.0.7+1*
G04 #@! TF.CreationDate,2026-02-15T05:04:06+00:00*
G04 #@! TF.ProjectId,right_pcb,72696768-745f-4706-9362-2e6b69636164,v0.2*
G04 #@! TF.SameCoordinates,Original*
G04 #@! TF.FileFunction,Legend,Bot*
G04 #@! TF.FilePolarity,Positive*
%FSLAX46Y46*%
G04 Gerber Fmt 4.6, Leading zero omitted, Abs format (unit mm)*
G04 Created by KiCad (PCBNEW 9.0.7+1) date 2026-02-15 05:04:06*
%MOMM*%
%LPD*%
G01*
G04 APERTURE LIST*
%ADD10C,0.150000*%
%ADD11C,0.120000*%
%ADD12C,5.100000*%
%ADD13C,2.000000*%
%ADD14C,3.100000*%
%ADD15C,1.800000*%
%ADD16O,1.850000X1.300000*%
%ADD17C,1.000000*%
G04 APERTURE END LIST*
D10*
X268404819Y-42609523D02*
X267928628Y-42276190D01*
X268404819Y-42038095D02*
X267404819Y-42038095D01*
X267404819Y-42038095D02*
X267404819Y-42419047D01*
X267404819Y-42419047D02*
X267452438Y-42514285D01*
X267452438Y-42514285D02*
X267500057Y-42561904D01*
X267500057Y-42561904D02*
X267595295Y-42609523D01*
X267595295Y-42609523D02*
X267738152Y-42609523D01*
X267738152Y-42609523D02*
X267833390Y-42561904D01*
X267833390Y-42561904D02*
X267881009Y-42514285D01*
X267881009Y-42514285D02*
X267928628Y-42419047D01*
X267928628Y-42419047D02*
X267928628Y-42038095D01*
X268119104Y-42990476D02*
X268119104Y-43466666D01*
X268404819Y-42895238D02*
X267404819Y-43228571D01*
X267404819Y-43228571D02*
X268404819Y-43561904D01*
X267404819Y-43800000D02*
X268404819Y-44038095D01*
X268404819Y-44038095D02*
X267690533Y-44228571D01*
X267690533Y-44228571D02*
X268404819Y-44419047D01*
X268404819Y-44419047D02*
X267404819Y-44657143D01*
X268404819Y-50978095D02*
X267404819Y-50978095D01*
X267404819Y-50978095D02*
X267404819Y-51216190D01*
X267404819Y-51216190D02*
X267452438Y-51359047D01*
X267452438Y-51359047D02*
X267547676Y-51454285D01*
X267547676Y-51454285D02*
X267642914Y-51501904D01*
X267642914Y-51501904D02*
X267833390Y-51549523D01*
X267833390Y-51549523D02*
X267976247Y-51549523D01*
X267976247Y-51549523D02*
X268166723Y-51501904D01*
X268166723Y-51501904D02*
X268261961Y-51454285D01*
X268261961Y-51454285D02*
X268357200Y-51359047D01*
X268357200Y-51359047D02*
X268404819Y-51216190D01*
X268404819Y-51216190D02*
X268404819Y-50978095D01*
X268404819Y-51978095D02*
X267404819Y-51978095D01*
X267404819Y-51978095D02*
X267404819Y-52359047D01*
X267404819Y-52359047D02*
X267452438Y-52454285D01*
X267452438Y-52454285D02*
X267500057Y-52501904D01*
X267500057Y-52501904D02*
X267595295Y-52549523D01*
X267595295Y-52549523D02*
X267738152Y-52549523D01*
X267738152Y-52549523D02*
X267833390Y-52501904D01*
X267833390Y-52501904D02*
X267881009Y-52454285D01*
X267881009Y-52454285D02*
X267928628Y-52359047D01*
X267928628Y-52359047D02*
X267928628Y-51978095D01*
X268309580Y-53549523D02*
X268357200Y-53501904D01*
X268357200Y-53501904D02*
X268404819Y-53359047D01*
X268404819Y-53359047D02*
X268404819Y-53263809D01*
X268404819Y-53263809D02*
X268357200Y-53120952D01*
X268357200Y-53120952D02*
X268261961Y-53025714D01*
X268261961Y-53025714D02*
X268166723Y-52978095D01*
X268166723Y-52978095D02*
X267976247Y-52930476D01*
X267976247Y-52930476D02*
X267833390Y-52930476D01*
X267833390Y-52930476D02*
X267642914Y-52978095D01*
X267642914Y-52978095D02*
X267547676Y-53025714D01*
X267547676Y-53025714D02*
X267452438Y-53120952D01*
X267452438Y-53120952D02*
X267404819Y-53263809D01*
X267404819Y-53263809D02*
X267404819Y-53359047D01*
X267404819Y-53359047D02*
X267452438Y-53501904D01*
X267452438Y-53501904D02*
X267500057Y-53549523D01*
X264912438Y-42538095D02*
X264864819Y-42442857D01*
X264864819Y-42442857D02*
X264864819Y-42300000D01*
X264864819Y-42300000D02*
X264912438Y-42157143D01*
X264912438Y-42157143D02*
X265007676Y-42061905D01*
X265007676Y-42061905D02*
X265102914Y-42014286D01*
X265102914Y-42014286D02*
X265293390Y-41966667D01*
X265293390Y-41966667D02*
X265436247Y-41966667D01*
X265436247Y-41966667D02*
X265626723Y-42014286D01*
X265626723Y-42014286D02*
X265721961Y-42061905D01*
X265721961Y-42061905D02*
X265817200Y-42157143D01*
X265817200Y-42157143D02*
X265864819Y-42300000D01*
X265864819Y-42300000D02*
X265864819Y-42395238D01*
X265864819Y-42395238D02*
X265817200Y-42538095D01*
X265817200Y-42538095D02*
X265769580Y-42585714D01*
X265769580Y-42585714D02*
X265436247Y-42585714D01*
X265436247Y-42585714D02*
X265436247Y-42395238D01*
X265864819Y-43014286D02*
X264864819Y-43014286D01*
X264864819Y-43014286D02*
X265864819Y-43585714D01*
X265864819Y-43585714D02*
X264864819Y-43585714D01*
X265864819Y-44061905D02*
X264864819Y-44061905D01*
X264864819Y-44061905D02*
X264864819Y-44300000D01*
X264864819Y-44300000D02*
X264912438Y-44442857D01*
X264912438Y-44442857D02*
X265007676Y-44538095D01*
X265007676Y-44538095D02*
X265102914Y-44585714D01*
X265102914Y-44585714D02*
X265293390Y-44633333D01*
X265293390Y-44633333D02*
X265436247Y-44633333D01*
X265436247Y-44633333D02*
X265626723Y-44585714D01*
X265626723Y-44585714D02*
X265721961Y-44538095D01*
X265721961Y-44538095D02*
X265817200Y-44442857D01*
X265817200Y-44442857D02*
X265864819Y-44300000D01*
X265864819Y-44300000D02*
X265864819Y-44061905D01*
X265864819Y-50978095D02*
X264864819Y-50978095D01*
X264864819Y-50978095D02*
X264864819Y-51216190D01*
X264864819Y-51216190D02*
X264912438Y-51359047D01*
X264912438Y-51359047D02*
X265007676Y-51454285D01*
X265007676Y-51454285D02*
X265102914Y-51501904D01*
X265102914Y-51501904D02*
X265293390Y-51549523D01*
X265293390Y-51549523D02*
X265436247Y-51549523D01*
X265436247Y-51549523D02*
X265626723Y-51501904D01*
X265626723Y-51501904D02*
X265721961Y-51454285D01*
X265721961Y-51454285D02*
X265817200Y-51359047D01*
X265817200Y-51359047D02*
X265864819Y-51216190D01*
X265864819Y-51216190D02*
X265864819Y-50978095D01*
X265864819Y-51978095D02*
X264864819Y-51978095D01*
X264864819Y-51978095D02*
X264864819Y-52359047D01*
X264864819Y-52359047D02*
X264912438Y-52454285D01*
X264912438Y-52454285D02*
X264960057Y-52501904D01*
X264960057Y-52501904D02*
X265055295Y-52549523D01*
X265055295Y-52549523D02*
X265198152Y-52549523D01*
X265198152Y-52549523D02*
X265293390Y-52501904D01*
X265293390Y-52501904D02*
X265341009Y-52454285D01*
X265341009Y-52454285D02*
X265388628Y-52359047D01*
X265388628Y-52359047D02*
X265388628Y-51978095D01*
X265864819Y-52978095D02*
X264864819Y-52978095D01*
X264864819Y-52978095D02*
X264864819Y-53216190D01*
X264864819Y-53216190D02*
X264912438Y-53359047D01*
X264912438Y-53359047D02*
X265007676Y-53454285D01*
X265007676Y-53454285D02*
X265102914Y-53501904D01*
X265102914Y-53501904D02*
X265293390Y-53549523D01*
X265293390Y-53549523D02*
X265436247Y-53549523D01*
X265436247Y-53549523D02*
X265626723Y-53501904D01*
X265626723Y-53501904D02*
X265721961Y-53454285D01*
X265721961Y-53454285D02*
X265817200Y-53359047D01*
X265817200Y-53359047D02*
X265864819Y-53216190D01*
X265864819Y-53216190D02*
X265864819Y-52978095D01*
X263324819Y-42752380D02*
X262848628Y-42419047D01*
X263324819Y-42180952D02*
X262324819Y-42180952D01*
X262324819Y-42180952D02*
X262324819Y-42561904D01*
X262324819Y-42561904D02*
X262372438Y-42657142D01*
X262372438Y-42657142D02*
X262420057Y-42704761D01*
X262420057Y-42704761D02*
X262515295Y-42752380D01*
X262515295Y-42752380D02*
X262658152Y-42752380D01*
X262658152Y-42752380D02*
X262753390Y-42704761D01*
X262753390Y-42704761D02*
X262801009Y-42657142D01*
X262801009Y-42657142D02*
X262848628Y-42561904D01*
X262848628Y-42561904D02*
X262848628Y-42180952D01*
X263277200Y-43133333D02*
X263324819Y-43276190D01*
X263324819Y-43276190D02*
X263324819Y-43514285D01*
X263324819Y-43514285D02*
X263277200Y-43609523D01*
X263277200Y-43609523D02*
X263229580Y-43657142D01*
X263229580Y-43657142D02*
X263134342Y-43704761D01*
X263134342Y-43704761D02*
X263039104Y-43704761D01*
X263039104Y-43704761D02*
X262943866Y-43657142D01*
X262943866Y-43657142D02*
X262896247Y-43609523D01*
X262896247Y-43609523D02*
X262848628Y-43514285D01*
X262848628Y-43514285D02*
X262801009Y-43323809D01*
X262801009Y-43323809D02*
X262753390Y-43228571D01*
X262753390Y-43228571D02*
X262705771Y-43180952D01*
X262705771Y-43180952D02*
X262610533Y-43133333D01*
X262610533Y-43133333D02*
X262515295Y-43133333D01*
X262515295Y-43133333D02*
X262420057Y-43180952D01*
X262420057Y-43180952D02*
X262372438Y-43228571D01*
X262372438Y-43228571D02*
X262324819Y-43323809D01*
X262324819Y-43323809D02*
X262324819Y-43561904D01*
X262324819Y-43561904D02*
X262372438Y-43704761D01*
X262324819Y-43990476D02*
X262324819Y-44561904D01*
X263324819Y-44276190D02*
X262324819Y-44276190D01*
X262372438Y-51478095D02*
X262324819Y-51382857D01*
X262324819Y-51382857D02*
X262324819Y-51240000D01*
X262324819Y-51240000D02*
X262372438Y-51097143D01*
X262372438Y-51097143D02*
X262467676Y-51001905D01*
X262467676Y-51001905D02*
X262562914Y-50954286D01*
X262562914Y-50954286D02*
X262753390Y-50906667D01*
X262753390Y-50906667D02*
X262896247Y-50906667D01*
X262896247Y-50906667D02*
X263086723Y-50954286D01*
X263086723Y-50954286D02*
X263181961Y-51001905D01*
X263181961Y-51001905D02*
X263277200Y-51097143D01*
X263277200Y-51097143D02*
X263324819Y-51240000D01*
X263324819Y-51240000D02*
X263324819Y-51335238D01*
X263324819Y-51335238D02*
X263277200Y-51478095D01*
X263277200Y-51478095D02*
X263229580Y-51525714D01*
X263229580Y-51525714D02*
X262896247Y-51525714D01*
X262896247Y-51525714D02*
X262896247Y-51335238D01*
X263324819Y-51954286D02*
X262324819Y-51954286D01*
X262324819Y-51954286D02*
X263324819Y-52525714D01*
X263324819Y-52525714D02*
X262324819Y-52525714D01*
X263324819Y-53001905D02*
X262324819Y-53001905D01*
X262324819Y-53001905D02*
X262324819Y-53240000D01*
X262324819Y-53240000D02*
X262372438Y-53382857D01*
X262372438Y-53382857D02*
X262467676Y-53478095D01*
X262467676Y-53478095D02*
X262562914Y-53525714D01*
X262562914Y-53525714D02*
X262753390Y-53573333D01*
X262753390Y-53573333D02*
X262896247Y-53573333D01*
X262896247Y-53573333D02*
X263086723Y-53525714D01*
X263086723Y-53525714D02*
X263181961Y-53478095D01*
X263181961Y-53478095D02*
X263277200Y-53382857D01*
X263277200Y-53382857D02*
X263324819Y-53240000D01*
X263324819Y-53240000D02*
X263324819Y-53001905D01*
X259784819Y-41966667D02*
X260784819Y-42300000D01*
X260784819Y-42300000D02*
X259784819Y-42633333D01*
X260689580Y-43538095D02*
X260737200Y-43490476D01*
X260737200Y-43490476D02*
X260784819Y-43347619D01*
X260784819Y-43347619D02*
X260784819Y-43252381D01*
X260784819Y-43252381D02*
X260737200Y-43109524D01*
X260737200Y-43109524D02*
X260641961Y-43014286D01*
X260641961Y-43014286D02*
X260546723Y-42966667D01*
X260546723Y-42966667D02*
X260356247Y-42919048D01*
X260356247Y-42919048D02*
X260213390Y-42919048D01*
X260213390Y-42919048D02*
X260022914Y-42966667D01*
X260022914Y-42966667D02*
X259927676Y-43014286D01*
X259927676Y-43014286D02*
X259832438Y-43109524D01*
X259832438Y-43109524D02*
X259784819Y-43252381D01*
X259784819Y-43252381D02*
X259784819Y-43347619D01*
X259784819Y-43347619D02*
X259832438Y-43490476D01*
X259832438Y-43490476D02*
X259880057Y-43538095D01*
X260689580Y-44538095D02*
X260737200Y-44490476D01*
X260737200Y-44490476D02*
X260784819Y-44347619D01*
X260784819Y-44347619D02*
X260784819Y-44252381D01*
X260784819Y-44252381D02*
X260737200Y-44109524D01*
X260737200Y-44109524D02*
X260641961Y-44014286D01*
X260641961Y-44014286D02*
X260546723Y-43966667D01*
X260546723Y-43966667D02*
X260356247Y-43919048D01*
X260356247Y-43919048D02*
X260213390Y-43919048D01*
X260213390Y-43919048D02*
X260022914Y-43966667D01*
X260022914Y-43966667D02*
X259927676Y-44014286D01*
X259927676Y-44014286D02*
X259832438Y-44109524D01*
X259832438Y-44109524D02*
X259784819Y-44252381D01*
X259784819Y-44252381D02*
X259784819Y-44347619D01*
X259784819Y-44347619D02*
X259832438Y-44490476D01*
X259832438Y-44490476D02*
X259880057Y-44538095D01*
X259832438Y-51478095D02*
X259784819Y-51382857D01*
X259784819Y-51382857D02*
X259784819Y-51240000D01*
X259784819Y-51240000D02*
X259832438Y-51097143D01*
X259832438Y-51097143D02*
X259927676Y-51001905D01*
X259927676Y-51001905D02*
X260022914Y-50954286D01*
X260022914Y-50954286D02*
X260213390Y-50906667D01*
X260213390Y-50906667D02*
X260356247Y-50906667D01*
X260356247Y-50906667D02*
X260546723Y-50954286D01*
X260546723Y-50954286D02*
X260641961Y-51001905D01*
X260641961Y-51001905D02*
X260737200Y-51097143D01*
X260737200Y-51097143D02*
X260784819Y-51240000D01*
X260784819Y-51240000D02*
X260784819Y-51335238D01*
X260784819Y-51335238D02*
X260737200Y-51478095D01*
X260737200Y-51478095D02*
X260689580Y-51525714D01*
X260689580Y-51525714D02*
X260356247Y-51525714D01*
X260356247Y-51525714D02*
X260356247Y-51335238D01*
X260784819Y-51954286D02*
X259784819Y-51954286D01*
X259784819Y-51954286D02*
X260784819Y-52525714D01*
X260784819Y-52525714D02*
X259784819Y-52525714D01*
X260784819Y-53001905D02*
X259784819Y-53001905D01*
X259784819Y-53001905D02*
X259784819Y-53240000D01*
X259784819Y-53240000D02*
X259832438Y-53382857D01*
X259832438Y-53382857D02*
X259927676Y-53478095D01*
X259927676Y-53478095D02*
X260022914Y-53525714D01*
X260022914Y-53525714D02*
X260213390Y-53573333D01*
X260213390Y-53573333D02*
X260356247Y-53573333D01*
X260356247Y-53573333D02*
X260546723Y-53525714D01*
X260546723Y-53525714D02*
X260641961Y-53478095D01*
X260641961Y-53478095D02*
X260737200Y-53382857D01*
X260737200Y-53382857D02*
X260784819Y-53240000D01*
X260784819Y-53240000D02*
X260784819Y-53001905D01*
X258149580Y-43133333D02*
X258197200Y-43085714D01*
X258197200Y-43085714D02*
X258244819Y-42942857D01*
X258244819Y-42942857D02*
X258244819Y-42847619D01*
X258244819Y-42847619D02*
X258197200Y-42704762D01*
X258197200Y-42704762D02*
X258101961Y-42609524D01*
X258101961Y-42609524D02*
X258006723Y-42561905D01*
X258006723Y-42561905D02*
X257816247Y-42514286D01*
X257816247Y-42514286D02*
X257673390Y-42514286D01*
X257673390Y-42514286D02*
X257482914Y-42561905D01*
X257482914Y-42561905D02*
X257387676Y-42609524D01*
X257387676Y-42609524D02*
X257292438Y-42704762D01*
X257292438Y-42704762D02*
X257244819Y-42847619D01*
X257244819Y-42847619D02*
X257244819Y-42942857D01*
X257244819Y-42942857D02*
X257292438Y-43085714D01*
X257292438Y-43085714D02*
X257340057Y-43133333D01*
X258244819Y-44085714D02*
X258244819Y-43514286D01*
X258244819Y-43800000D02*
X257244819Y-43800000D01*
X257244819Y-43800000D02*
X257387676Y-43704762D01*
X257387676Y-43704762D02*
X257482914Y-43609524D01*
X257482914Y-43609524D02*
X257530533Y-43514286D01*
X258244819Y-51025714D02*
X257244819Y-51025714D01*
X257244819Y-51025714D02*
X257244819Y-51263809D01*
X257244819Y-51263809D02*
X257292438Y-51406666D01*
X257292438Y-51406666D02*
X257387676Y-51501904D01*
X257387676Y-51501904D02*
X257482914Y-51549523D01*
X257482914Y-51549523D02*
X257673390Y-51597142D01*
X257673390Y-51597142D02*
X257816247Y-51597142D01*
X257816247Y-51597142D02*
X258006723Y-51549523D01*
X258006723Y-51549523D02*
X258101961Y-51501904D01*
X258101961Y-51501904D02*
X258197200Y-51406666D01*
X258197200Y-51406666D02*
X258244819Y-51263809D01*
X258244819Y-51263809D02*
X258244819Y-51025714D01*
X258244819Y-52025714D02*
X257244819Y-52025714D01*
X257244819Y-52025714D02*
X257244819Y-52406666D01*
X257244819Y-52406666D02*
X257292438Y-52501904D01*
X257292438Y-52501904D02*
X257340057Y-52549523D01*
X257340057Y-52549523D02*
X257435295Y-52597142D01*
X257435295Y-52597142D02*
X257578152Y-52597142D01*
X257578152Y-52597142D02*
X257673390Y-52549523D01*
X257673390Y-52549523D02*
X257721009Y-52501904D01*
X257721009Y-52501904D02*
X257768628Y-52406666D01*
X257768628Y-52406666D02*
X257768628Y-52025714D01*
X257721009Y-53025714D02*
X257721009Y-53359047D01*
X258244819Y-53501904D02*
X258244819Y-53025714D01*
X258244819Y-53025714D02*
X257244819Y-53025714D01*
X257244819Y-53025714D02*
X257244819Y-53501904D01*
X255609580Y-43133333D02*
X255657200Y-43085714D01*
X255657200Y-43085714D02*
X255704819Y-42942857D01*
X255704819Y-42942857D02*
X255704819Y-42847619D01*
X255704819Y-42847619D02*
X255657200Y-42704762D01*
X255657200Y-42704762D02*
X255561961Y-42609524D01*
X255561961Y-42609524D02*
X255466723Y-42561905D01*
X255466723Y-42561905D02*
X255276247Y-42514286D01*
X255276247Y-42514286D02*
X255133390Y-42514286D01*
X255133390Y-42514286D02*
X254942914Y-42561905D01*
X254942914Y-42561905D02*
X254847676Y-42609524D01*
X254847676Y-42609524D02*
X254752438Y-42704762D01*
X254752438Y-42704762D02*
X254704819Y-42847619D01*
X254704819Y-42847619D02*
X254704819Y-42942857D01*
X254704819Y-42942857D02*
X254752438Y-43085714D01*
X254752438Y-43085714D02*
X254800057Y-43133333D01*
X254800057Y-43514286D02*
X254752438Y-43561905D01*
X254752438Y-43561905D02*
X254704819Y-43657143D01*
X254704819Y-43657143D02*
X254704819Y-43895238D01*
X254704819Y-43895238D02*
X254752438Y-43990476D01*
X254752438Y-43990476D02*
X254800057Y-44038095D01*
X254800057Y-44038095D02*
X254895295Y-44085714D01*
X254895295Y-44085714D02*
X254990533Y-44085714D01*
X254990533Y-44085714D02*
X255133390Y-44038095D01*
X255133390Y-44038095D02*
X255704819Y-43466667D01*
X255704819Y-43466667D02*
X255704819Y-44085714D01*
X255704819Y-52073333D02*
X255228628Y-51740000D01*
X255704819Y-51501905D02*
X254704819Y-51501905D01*
X254704819Y-51501905D02*
X254704819Y-51882857D01*
X254704819Y-51882857D02*
X254752438Y-51978095D01*
X254752438Y-51978095D02*
X254800057Y-52025714D01*
X254800057Y-52025714D02*
X254895295Y-52073333D01*
X254895295Y-52073333D02*
X255038152Y-52073333D01*
X255038152Y-52073333D02*
X255133390Y-52025714D01*
X255133390Y-52025714D02*
X255181009Y-51978095D01*
X255181009Y-51978095D02*
X255228628Y-51882857D01*
X255228628Y-51882857D02*
X255228628Y-51501905D01*
X254800057Y-52454286D02*
X254752438Y-52501905D01*
X254752438Y-52501905D02*
X254704819Y-52597143D01*
X254704819Y-52597143D02*
X254704819Y-52835238D01*
X254704819Y-52835238D02*
X254752438Y-52930476D01*
X254752438Y-52930476D02*
X254800057Y-52978095D01*
X254800057Y-52978095D02*
X254895295Y-53025714D01*
X254895295Y-53025714D02*
X254990533Y-53025714D01*
X254990533Y-53025714D02*
X255133390Y-52978095D01*
X255133390Y-52978095D02*
X255704819Y-52406667D01*
X255704819Y-52406667D02*
X255704819Y-53025714D01*
X253069580Y-43133333D02*
X253117200Y-43085714D01*
X253117200Y-43085714D02*
X253164819Y-42942857D01*
X253164819Y-42942857D02*
X253164819Y-42847619D01*
X253164819Y-42847619D02*
X253117200Y-42704762D01*
X253117200Y-42704762D02*
X253021961Y-42609524D01*
X253021961Y-42609524D02*
X252926723Y-42561905D01*
X252926723Y-42561905D02*
X252736247Y-42514286D01*
X252736247Y-42514286D02*
X252593390Y-42514286D01*
X252593390Y-42514286D02*
X252402914Y-42561905D01*
X252402914Y-42561905D02*
X252307676Y-42609524D01*
X252307676Y-42609524D02*
X252212438Y-42704762D01*
X252212438Y-42704762D02*
X252164819Y-42847619D01*
X252164819Y-42847619D02*
X252164819Y-42942857D01*
X252164819Y-42942857D02*
X252212438Y-43085714D01*
X252212438Y-43085714D02*
X252260057Y-43133333D01*
X252164819Y-43466667D02*
X252164819Y-44085714D01*
X252164819Y-44085714D02*
X252545771Y-43752381D01*
X252545771Y-43752381D02*
X252545771Y-43895238D01*
X252545771Y-43895238D02*
X252593390Y-43990476D01*
X252593390Y-43990476D02*
X252641009Y-44038095D01*
X252641009Y-44038095D02*
X252736247Y-44085714D01*
X252736247Y-44085714D02*
X252974342Y-44085714D01*
X252974342Y-44085714D02*
X253069580Y-44038095D01*
X253069580Y-44038095D02*
X253117200Y-43990476D01*
X253117200Y-43990476D02*
X253164819Y-43895238D01*
X253164819Y-43895238D02*
X253164819Y-43609524D01*
X253164819Y-43609524D02*
X253117200Y-43514286D01*
X253117200Y-43514286D02*
X253069580Y-43466667D01*
X253164819Y-52073333D02*
X252688628Y-51740000D01*
X253164819Y-51501905D02*
X252164819Y-51501905D01*
X252164819Y-51501905D02*
X252164819Y-51882857D01*
X252164819Y-51882857D02*
X252212438Y-51978095D01*
X252212438Y-51978095D02*
X252260057Y-52025714D01*
X252260057Y-52025714D02*
X252355295Y-52073333D01*
X252355295Y-52073333D02*
X252498152Y-52073333D01*
X252498152Y-52073333D02*
X252593390Y-52025714D01*
X252593390Y-52025714D02*
X252641009Y-51978095D01*
X252641009Y-51978095D02*
X252688628Y-51882857D01*
X252688628Y-51882857D02*
X252688628Y-51501905D01*
X252164819Y-52406667D02*
X252164819Y-53025714D01*
X252164819Y-53025714D02*
X252545771Y-52692381D01*
X252545771Y-52692381D02*
X252545771Y-52835238D01*
X252545771Y-52835238D02*
X252593390Y-52930476D01*
X252593390Y-52930476D02*
X252641009Y-52978095D01*
X252641009Y-52978095D02*
X252736247Y-53025714D01*
X252736247Y-53025714D02*
X252974342Y-53025714D01*
X252974342Y-53025714D02*
X253069580Y-52978095D01*
X253069580Y-52978095D02*
X253117200Y-52930476D01*
X253117200Y-52930476D02*
X253164819Y-52835238D01*
X253164819Y-52835238D02*
X253164819Y-52549524D01*
X253164819Y-52549524D02*
X253117200Y-52454286D01*
X253117200Y-52454286D02*
X253069580Y-52406667D01*
X250529580Y-43133333D02*
X250577200Y-43085714D01*
X250577200Y-43085714D02*
X250624819Y-42942857D01*
X250624819Y-42942857D02*
X250624819Y-42847619D01*
X250624819Y-42847619D02*
X250577200Y-42704762D01*
X250577200Y-42704762D02*
X250481961Y-42609524D01*
X250481961Y-42609524D02*
X250386723Y-42561905D01*
X250386723Y-42561905D02*
X250196247Y-42514286D01*
X250196247Y-42514286D02*
X250053390Y-42514286D01*
X250053390Y-42514286D02*
X249862914Y-42561905D01*
X249862914Y-42561905D02*
X249767676Y-42609524D01*
X249767676Y-42609524D02*
X249672438Y-42704762D01*
X249672438Y-42704762D02*
X249624819Y-42847619D01*
X249624819Y-42847619D02*
X249624819Y-42942857D01*
X249624819Y-42942857D02*
X249672438Y-43085714D01*
X249672438Y-43085714D02*
X249720057Y-43133333D01*
X249958152Y-43990476D02*
X250624819Y-43990476D01*
X249577200Y-43752381D02*
X250291485Y-43514286D01*
X250291485Y-43514286D02*
X250291485Y-44133333D01*
X250624819Y-52073333D02*
X250148628Y-51740000D01*
X250624819Y-51501905D02*
X249624819Y-51501905D01*
X249624819Y-51501905D02*
X249624819Y-51882857D01*
X249624819Y-51882857D02*
X249672438Y-51978095D01*
X249672438Y-51978095D02*
X249720057Y-52025714D01*
X249720057Y-52025714D02*
X249815295Y-52073333D01*
X249815295Y-52073333D02*
X249958152Y-52073333D01*
X249958152Y-52073333D02*
X250053390Y-52025714D01*
X250053390Y-52025714D02*
X250101009Y-51978095D01*
X250101009Y-51978095D02*
X250148628Y-51882857D01*
X250148628Y-51882857D02*
X250148628Y-51501905D01*
X249958152Y-52930476D02*
X250624819Y-52930476D01*
X249577200Y-52692381D02*
X250291485Y-52454286D01*
X250291485Y-52454286D02*
X250291485Y-53073333D01*
X247989580Y-43133333D02*
X248037200Y-43085714D01*
X248037200Y-43085714D02*
X248084819Y-42942857D01*
X248084819Y-42942857D02*
X248084819Y-42847619D01*
X248084819Y-42847619D02*
X248037200Y-42704762D01*
X248037200Y-42704762D02*
X247941961Y-42609524D01*
X247941961Y-42609524D02*
X247846723Y-42561905D01*
X247846723Y-42561905D02*
X247656247Y-42514286D01*
X247656247Y-42514286D02*
X247513390Y-42514286D01*
X247513390Y-42514286D02*
X247322914Y-42561905D01*
X247322914Y-42561905D02*
X247227676Y-42609524D01*
X247227676Y-42609524D02*
X247132438Y-42704762D01*
X247132438Y-42704762D02*
X247084819Y-42847619D01*
X247084819Y-42847619D02*
X247084819Y-42942857D01*
X247084819Y-42942857D02*
X247132438Y-43085714D01*
X247132438Y-43085714D02*
X247180057Y-43133333D01*
X247084819Y-44038095D02*
X247084819Y-43561905D01*
X247084819Y-43561905D02*
X247561009Y-43514286D01*
X247561009Y-43514286D02*
X247513390Y-43561905D01*
X247513390Y-43561905D02*
X247465771Y-43657143D01*
X247465771Y-43657143D02*
X247465771Y-43895238D01*
X247465771Y-43895238D02*
X247513390Y-43990476D01*
X247513390Y-43990476D02*
X247561009Y-44038095D01*
X247561009Y-44038095D02*
X247656247Y-44085714D01*
X247656247Y-44085714D02*
X247894342Y-44085714D01*
X247894342Y-44085714D02*
X247989580Y-44038095D01*
X247989580Y-44038095D02*
X248037200Y-43990476D01*
X248037200Y-43990476D02*
X248084819Y-43895238D01*
X248084819Y-43895238D02*
X248084819Y-43657143D01*
X248084819Y-43657143D02*
X248037200Y-43561905D01*
X248037200Y-43561905D02*
X247989580Y-43514286D01*
X248084819Y-52073333D02*
X247608628Y-51740000D01*
X248084819Y-51501905D02*
X247084819Y-51501905D01*
X247084819Y-51501905D02*
X247084819Y-51882857D01*
X247084819Y-51882857D02*
X247132438Y-51978095D01*
X247132438Y-51978095D02*
X247180057Y-52025714D01*
X247180057Y-52025714D02*
X247275295Y-52073333D01*
X247275295Y-52073333D02*
X247418152Y-52073333D01*
X247418152Y-52073333D02*
X247513390Y-52025714D01*
X247513390Y-52025714D02*
X247561009Y-51978095D01*
X247561009Y-51978095D02*
X247608628Y-51882857D01*
X247608628Y-51882857D02*
X247608628Y-51501905D01*
X247084819Y-52978095D02*
X247084819Y-52501905D01*
X247084819Y-52501905D02*
X247561009Y-52454286D01*
X247561009Y-52454286D02*
X247513390Y-52501905D01*
X247513390Y-52501905D02*
X247465771Y-52597143D01*
X247465771Y-52597143D02*
X247465771Y-52835238D01*
X247465771Y-52835238D02*
X247513390Y-52930476D01*
X247513390Y-52930476D02*
X247561009Y-52978095D01*
X247561009Y-52978095D02*
X247656247Y-53025714D01*
X247656247Y-53025714D02*
X247894342Y-53025714D01*
X247894342Y-53025714D02*
X247989580Y-52978095D01*
X247989580Y-52978095D02*
X248037200Y-52930476D01*
X248037200Y-52930476D02*
X248084819Y-52835238D01*
X248084819Y-52835238D02*
X248084819Y-52597143D01*
X248084819Y-52597143D02*
X248037200Y-52501905D01*
X248037200Y-52501905D02*
X247989580Y-52454286D01*
X245449580Y-43133333D02*
X245497200Y-43085714D01*
X245497200Y-43085714D02*
X245544819Y-42942857D01*
X245544819Y-42942857D02*
X245544819Y-42847619D01*
X245544819Y-42847619D02*
X245497200Y-42704762D01*
X245497200Y-42704762D02*
X245401961Y-42609524D01*
X245401961Y-42609524D02*
X245306723Y-42561905D01*
X245306723Y-42561905D02*
X245116247Y-42514286D01*
X245116247Y-42514286D02*
X244973390Y-42514286D01*
X244973390Y-42514286D02*
X244782914Y-42561905D01*
X244782914Y-42561905D02*
X244687676Y-42609524D01*
X244687676Y-42609524D02*
X244592438Y-42704762D01*
X244592438Y-42704762D02*
X244544819Y-42847619D01*
X244544819Y-42847619D02*
X244544819Y-42942857D01*
X244544819Y-42942857D02*
X244592438Y-43085714D01*
X244592438Y-43085714D02*
X244640057Y-43133333D01*
X244544819Y-43990476D02*
X244544819Y-43800000D01*
X244544819Y-43800000D02*
X244592438Y-43704762D01*
X244592438Y-43704762D02*
X244640057Y-43657143D01*
X244640057Y-43657143D02*
X244782914Y-43561905D01*
X244782914Y-43561905D02*
X244973390Y-43514286D01*
X244973390Y-43514286D02*
X245354342Y-43514286D01*
X245354342Y-43514286D02*
X245449580Y-43561905D01*
X245449580Y-43561905D02*
X245497200Y-43609524D01*
X245497200Y-43609524D02*
X245544819Y-43704762D01*
X245544819Y-43704762D02*
X245544819Y-43895238D01*
X245544819Y-43895238D02*
X245497200Y-43990476D01*
X245497200Y-43990476D02*
X245449580Y-44038095D01*
X245449580Y-44038095D02*
X245354342Y-44085714D01*
X245354342Y-44085714D02*
X245116247Y-44085714D01*
X245116247Y-44085714D02*
X245021009Y-44038095D01*
X245021009Y-44038095D02*
X244973390Y-43990476D01*
X244973390Y-43990476D02*
X244925771Y-43895238D01*
X244925771Y-43895238D02*
X244925771Y-43704762D01*
X244925771Y-43704762D02*
X244973390Y-43609524D01*
X244973390Y-43609524D02*
X245021009Y-43561905D01*
X245021009Y-43561905D02*
X245116247Y-43514286D01*
X245544819Y-52073333D02*
X245068628Y-51740000D01*
X245544819Y-51501905D02*
X244544819Y-51501905D01*
X244544819Y-51501905D02*
X244544819Y-51882857D01*
X244544819Y-51882857D02*
X244592438Y-51978095D01*
X244592438Y-51978095D02*
X244640057Y-52025714D01*
X244640057Y-52025714D02*
X244735295Y-52073333D01*
X244735295Y-52073333D02*
X244878152Y-52073333D01*
X244878152Y-52073333D02*
X244973390Y-52025714D01*
X244973390Y-52025714D02*
X245021009Y-51978095D01*
X245021009Y-51978095D02*
X245068628Y-51882857D01*
X245068628Y-51882857D02*
X245068628Y-51501905D01*
X244544819Y-52978095D02*
X244544819Y-52501905D01*
X244544819Y-52501905D02*
X245021009Y-52454286D01*
X245021009Y-52454286D02*
X244973390Y-52501905D01*
X244973390Y-52501905D02*
X244925771Y-52597143D01*
X244925771Y-52597143D02*
X244925771Y-52835238D01*
X244925771Y-52835238D02*
X244973390Y-52930476D01*
X244973390Y-52930476D02*
X245021009Y-52978095D01*
X245021009Y-52978095D02*
X245116247Y-53025714D01*
X245116247Y-53025714D02*
X245354342Y-53025714D01*
X245354342Y-53025714D02*
X245449580Y-52978095D01*
X245449580Y-52978095D02*
X245497200Y-52930476D01*
X245497200Y-52930476D02*
X245544819Y-52835238D01*
X245544819Y-52835238D02*
X245544819Y-52597143D01*
X245544819Y-52597143D02*
X245497200Y-52501905D01*
X245497200Y-52501905D02*
X245449580Y-52454286D01*
X242909580Y-43133333D02*
X242957200Y-43085714D01*
X242957200Y-43085714D02*
X243004819Y-42942857D01*
X243004819Y-42942857D02*
X243004819Y-42847619D01*
X243004819Y-42847619D02*
X242957200Y-42704762D01*
X242957200Y-42704762D02*
X242861961Y-42609524D01*
X242861961Y-42609524D02*
X242766723Y-42561905D01*
X242766723Y-42561905D02*
X242576247Y-42514286D01*
X242576247Y-42514286D02*
X242433390Y-42514286D01*
X242433390Y-42514286D02*
X242242914Y-42561905D01*
X242242914Y-42561905D02*
X242147676Y-42609524D01*
X242147676Y-42609524D02*
X242052438Y-42704762D01*
X242052438Y-42704762D02*
X242004819Y-42847619D01*
X242004819Y-42847619D02*
X242004819Y-42942857D01*
X242004819Y-42942857D02*
X242052438Y-43085714D01*
X242052438Y-43085714D02*
X242100057Y-43133333D01*
X242004819Y-43466667D02*
X242004819Y-44133333D01*
X242004819Y-44133333D02*
X243004819Y-43704762D01*
X240464819Y-42085714D02*
X239464819Y-42085714D01*
X239464819Y-42085714D02*
X239464819Y-42466666D01*
X239464819Y-42466666D02*
X239512438Y-42561904D01*
X239512438Y-42561904D02*
X239560057Y-42609523D01*
X239560057Y-42609523D02*
X239655295Y-42657142D01*
X239655295Y-42657142D02*
X239798152Y-42657142D01*
X239798152Y-42657142D02*
X239893390Y-42609523D01*
X239893390Y-42609523D02*
X239941009Y-42561904D01*
X239941009Y-42561904D02*
X239988628Y-42466666D01*
X239988628Y-42466666D02*
X239988628Y-42085714D01*
X240464819Y-43609523D02*
X240464819Y-43038095D01*
X240464819Y-43323809D02*
X239464819Y-43323809D01*
X239464819Y-43323809D02*
X239607676Y-43228571D01*
X239607676Y-43228571D02*
X239702914Y-43133333D01*
X239702914Y-43133333D02*
X239750533Y-43038095D01*
X239464819Y-44228571D02*
X239464819Y-44323809D01*
X239464819Y-44323809D02*
X239512438Y-44419047D01*
X239512438Y-44419047D02*
X239560057Y-44466666D01*
X239560057Y-44466666D02*
X239655295Y-44514285D01*
X239655295Y-44514285D02*
X239845771Y-44561904D01*
X239845771Y-44561904D02*
X240083866Y-44561904D01*
X240083866Y-44561904D02*
X240274342Y-44514285D01*
X240274342Y-44514285D02*
X240369580Y-44466666D01*
X240369580Y-44466666D02*
X240417200Y-44419047D01*
X240417200Y-44419047D02*
X240464819Y-44323809D01*
X240464819Y-44323809D02*
X240464819Y-44228571D01*
X240464819Y-44228571D02*
X240417200Y-44133333D01*
X240417200Y-44133333D02*
X240369580Y-44085714D01*
X240369580Y-44085714D02*
X240274342Y-44038095D01*
X240274342Y-44038095D02*
X240083866Y-43990476D01*
X240083866Y-43990476D02*
X239845771Y-43990476D01*
X239845771Y-43990476D02*
X239655295Y-44038095D01*
X239655295Y-44038095D02*
X239560057Y-44085714D01*
X239560057Y-44085714D02*
X239512438Y-44133333D01*
X239512438Y-44133333D02*
X239464819Y-44228571D01*
X240464819Y-52073333D02*
X239988628Y-51740000D01*
X240464819Y-51501905D02*
X239464819Y-51501905D01*
X239464819Y-51501905D02*
X239464819Y-51882857D01*
X239464819Y-51882857D02*
X239512438Y-51978095D01*
X239512438Y-51978095D02*
X239560057Y-52025714D01*
X239560057Y-52025714D02*
X239655295Y-52073333D01*
X239655295Y-52073333D02*
X239798152Y-52073333D01*
X239798152Y-52073333D02*
X239893390Y-52025714D01*
X239893390Y-52025714D02*
X239941009Y-51978095D01*
X239941009Y-51978095D02*
X239988628Y-51882857D01*
X239988628Y-51882857D02*
X239988628Y-51501905D01*
X239464819Y-52406667D02*
X239464819Y-53073333D01*
X239464819Y-53073333D02*
X240464819Y-52644762D01*
X306500000Y-141200000D02*
X307000000Y-140700000D01*
X303500000Y-141200000D02*
X306500000Y-141200000D01*
X303000000Y-140700000D02*
X303500000Y-141200000D01*
X303000000Y-140700000D02*
X303000000Y-139780000D01*
X302480000Y-139200000D02*
X298000000Y-139200000D01*
X298000000Y-139200000D02*
X298000000Y-138600000D01*
X302480000Y-139200000D02*
G75*
G02*
X303000000Y-139780000I-30000J-550000D01*
G01*
X306500000Y-136700000D02*
X307000000Y-137200000D01*
X304200000Y-136700000D02*
X306500000Y-136700000D01*
X302500000Y-134500000D02*
X302500000Y-135200000D01*
X298000000Y-134500000D02*
X302500000Y-134500000D01*
X298000000Y-135000000D02*
X298000000Y-134500000D01*
X304200000Y-136700000D02*
G75*
G02*
X302500000Y-135220000I-110000J1590000D01*
G01*
X306500000Y-124200000D02*
X307000000Y-123700000D01*
X303500000Y-124200000D02*
X306500000Y-124200000D01*
X303000000Y-123700000D02*
X303500000Y-124200000D01*
X303000000Y-123700000D02*
X303000000Y-122780000D01*
X302480000Y-122200000D02*
X298000000Y-122200000D01*
X298000000Y-122200000D02*
X298000000Y-121600000D01*
X302480000Y-122200000D02*
G75*
G02*
X303000000Y-122780000I-30000J-550000D01*
G01*
X306500000Y-119700000D02*
X307000000Y-120200000D01*
X304200000Y-119700000D02*
X306500000Y-119700000D01*
X302500000Y-117500000D02*
X302500000Y-118200000D01*
X298000000Y-117500000D02*
X302500000Y-117500000D01*
X298000000Y-118000000D02*
X298000000Y-117500000D01*
X304200000Y-119700000D02*
G75*
G02*
X302500000Y-118220000I-110000J1590000D01*
G01*
X306500000Y-107200000D02*
X307000000Y-106700000D01*
X303500000Y-107200000D02*
X306500000Y-107200000D01*
X303000000Y-106700000D02*
X303500000Y-107200000D01*
X303000000Y-106700000D02*
X303000000Y-105780000D01*
X302480000Y-105200000D02*
X298000000Y-105200000D01*
X298000000Y-105200000D02*
X298000000Y-104600000D01*
X302480000Y-105200000D02*
G75*
G02*
X303000000Y-105780000I-30000J-550000D01*
G01*
X306500000Y-102700000D02*
X307000000Y-103200000D01*
X304200000Y-102700000D02*
X306500000Y-102700000D01*
X302500000Y-100500000D02*
X302500000Y-101200000D01*
X298000000Y-100500000D02*
X302500000Y-100500000D01*
X298000000Y-101000000D02*
X298000000Y-100500000D01*
X304200000Y-102700000D02*
G75*
G02*
X302500000Y-101220000I-110000J1590000D01*
G01*
X306500000Y-90200000D02*
X307000000Y-89700000D01*
X303500000Y-90200000D02*
X306500000Y-90200000D01*
X303000000Y-89700000D02*
X303500000Y-90200000D01*
X303000000Y-89700000D02*
X303000000Y-88780000D01*
X302480000Y-88200000D02*
X298000000Y-88200000D01*
X298000000Y-88200000D02*
X298000000Y-87600000D01*
X302480000Y-88200000D02*
G75*
G02*
X303000000Y-88780000I-30000J-550000D01*
G01*
X306500000Y-85700000D02*
X307000000Y-86200000D01*
X304200000Y-85700000D02*
X306500000Y-85700000D01*
X302500000Y-83500000D02*
X302500000Y-84200000D01*
X298000000Y-83500000D02*
X302500000Y-83500000D01*
X298000000Y-84000000D02*
X298000000Y-83500000D01*
X304200000Y-85700000D02*
G75*
G02*
X302500000Y-84220000I-110000J1590000D01*
G01*
X289500000Y-153950000D02*
X290000000Y-153450000D01*
X286500000Y-153950000D02*
X289500000Y-153950000D01*
X286000000Y-153450000D02*
X286500000Y-153950000D01*
X286000000Y-153450000D02*
X286000000Y-152530000D01*
X285480000Y-151950000D02*
X281000000Y-151950000D01*
X281000000Y-151950000D02*
X281000000Y-151350000D01*
X285480000Y-151950000D02*
G75*
G02*
X286000000Y-152530000I-30000J-550000D01*
G01*
X289500000Y-149450000D02*
X290000000Y-149950000D01*
X287200000Y-149450000D02*
X289500000Y-149450000D01*
X285500000Y-147250000D02*
X285500000Y-147950000D01*
X281000000Y-147250000D02*
X285500000Y-147250000D01*
X281000000Y-147750000D02*
X281000000Y-147250000D01*
X287200000Y-149450000D02*
G75*
G02*
X285500000Y-147970000I-110000J1590000D01*
G01*
X289500000Y-136950000D02*
X290000000Y-136450000D01*
X286500000Y-136950000D02*
X289500000Y-136950000D01*
X286000000Y-136450000D02*
X286500000Y-136950000D01*
X286000000Y-136450000D02*
X286000000Y-135530000D01*
X285480000Y-134950000D02*
X281000000Y-134950000D01*
X281000000Y-134950000D02*
X281000000Y-134350000D01*
X285480000Y-134950000D02*
G75*
G02*
X286000000Y-135530000I-30000J-550000D01*
G01*
X289500000Y-132450000D02*
X290000000Y-132950000D01*
X287200000Y-132450000D02*
X289500000Y-132450000D01*
X285500000Y-130250000D02*
X285500000Y-130950000D01*
X281000000Y-130250000D02*
X285500000Y-130250000D01*
X281000000Y-130750000D02*
X281000000Y-130250000D01*
X287200000Y-132450000D02*
G75*
G02*
X285500000Y-130970000I-110000J1590000D01*
G01*
X289500000Y-119950000D02*
X290000000Y-119450000D01*
X286500000Y-119950000D02*
X289500000Y-119950000D01*
X286000000Y-119450000D02*
X286500000Y-119950000D01*
X286000000Y-119450000D02*
X286000000Y-118530000D01*
X285480000Y-117950000D02*
X281000000Y-117950000D01*
X281000000Y-117950000D02*
X281000000Y-117350000D01*
X285480000Y-117950000D02*
G75*
G02*
X286000000Y-118530000I-30000J-550000D01*
G01*
X289500000Y-115450000D02*
X290000000Y-115950000D01*
X287200000Y-115450000D02*
X289500000Y-115450000D01*
X285500000Y-113250000D02*
X285500000Y-113950000D01*
X281000000Y-113250000D02*
X285500000Y-113250000D01*
X281000000Y-113750000D02*
X281000000Y-113250000D01*
X287200000Y-115450000D02*
G75*
G02*
X285500000Y-113970000I-110000J1590000D01*
G01*
X289500000Y-102950000D02*
X290000000Y-102450000D01*
X286500000Y-102950000D02*
X289500000Y-102950000D01*
X286000000Y-102450000D02*
X286500000Y-102950000D01*
X286000000Y-102450000D02*
X286000000Y-101530000D01*
X285480000Y-100950000D02*
X281000000Y-100950000D01*
X281000000Y-100950000D02*
X281000000Y-100350000D01*
X285480000Y-100950000D02*
G75*
G02*
X286000000Y-101530000I-30000J-550000D01*
G01*
X289500000Y-98450000D02*
X290000000Y-98950000D01*
X287200000Y-98450000D02*
X289500000Y-98450000D01*
X285500000Y-96250000D02*
X285500000Y-96950000D01*
X281000000Y-96250000D02*
X285500000Y-96250000D01*
X281000000Y-96750000D02*
X281000000Y-96250000D01*
X287200000Y-98450000D02*
G75*
G02*
X285500000Y-96970000I-110000J1590000D01*
G01*
X289500000Y-85950000D02*
X290000000Y-85450000D01*
X286500000Y-85950000D02*
X289500000Y-85950000D01*
X286000000Y-85450000D02*
X286500000Y-85950000D01*
X286000000Y-85450000D02*
X286000000Y-84530000D01*
X285480000Y-83950000D02*
X281000000Y-83950000D01*
X281000000Y-83950000D02*
X281000000Y-83350000D01*
X285480000Y-83950000D02*
G75*
G02*
X286000000Y-84530000I-30000J-550000D01*
G01*
X289500000Y-81450000D02*
X290000000Y-81950000D01*
X287200000Y-81450000D02*
X289500000Y-81450000D01*
X285500000Y-79250000D02*
X285500000Y-79950000D01*
X281000000Y-79250000D02*
X285500000Y-79250000D01*
X281000000Y-79750000D02*
X281000000Y-79250000D01*
X287200000Y-81450000D02*
G75*
G02*
X285500000Y-79970000I-110000J1590000D01*
G01*
X272500000Y-142730000D02*
X273000000Y-142230000D01*
X269500000Y-142730000D02*
X272500000Y-142730000D01*
X269000000Y-142230000D02*
X269500000Y-142730000D01*
X269000000Y-142230000D02*
X269000000Y-141310000D01*
X268480000Y-140730000D02*
X264000000Y-140730000D01*
X264000000Y-140730000D02*
X264000000Y-140130000D01*
X268480000Y-140730000D02*
G75*
G02*
X269000000Y-141310000I-30000J-550000D01*
G01*
X272500000Y-138230000D02*
X273000000Y-138730000D01*
X270200000Y-138230000D02*
X272500000Y-138230000D01*
X268500000Y-136030000D02*
X268500000Y-136730000D01*
X264000000Y-136030000D02*
X268500000Y-136030000D01*
X264000000Y-136530000D02*
X264000000Y-136030000D01*
X270200000Y-138230000D02*
G75*
G02*
X268500000Y-136750000I-110000J1590000D01*
G01*
X272500000Y-125730000D02*
X273000000Y-125230000D01*
X269500000Y-125730000D02*
X272500000Y-125730000D01*
X269000000Y-125230000D02*
X269500000Y-125730000D01*
X269000000Y-125230000D02*
X269000000Y-124310000D01*
X268480000Y-123730000D02*
X264000000Y-123730000D01*
X264000000Y-123730000D02*
X264000000Y-123130000D01*
X268480000Y-123730000D02*
G75*
G02*
X269000000Y-124310000I-30000J-550000D01*
G01*
X272500000Y-121230000D02*
X273000000Y-121730000D01*
X270200000Y-121230000D02*
X272500000Y-121230000D01*
X268500000Y-119030000D02*
X268500000Y-119730000D01*
X264000000Y-119030000D02*
X268500000Y-119030000D01*
X264000000Y-119530000D02*
X264000000Y-119030000D01*
X270200000Y-121230000D02*
G75*
G02*
X268500000Y-119750000I-110000J1590000D01*
G01*
X272500000Y-108730000D02*
X273000000Y-108230000D01*
X269500000Y-108730000D02*
X272500000Y-108730000D01*
X269000000Y-108230000D02*
X269500000Y-108730000D01*
X269000000Y-108230000D02*
X269000000Y-107310000D01*
X268480000Y-106730000D02*
X264000000Y-106730000D01*
X264000000Y-106730000D02*
X264000000Y-106130000D01*
X268480000Y-106730000D02*
G75*
G02*
X269000000Y-107310000I-30000J-550000D01*
G01*
X272500000Y-104230000D02*
X273000000Y-104730000D01*
X270200000Y-104230000D02*
X272500000Y-104230000D01*
X268500000Y-102030000D02*
X268500000Y-102730000D01*
X264000000Y-102030000D02*
X268500000Y-102030000D01*
X264000000Y-102530000D02*
X264000000Y-102030000D01*
X270200000Y-104230000D02*
G75*
G02*
X268500000Y-102750000I-110000J1590000D01*
G01*
X272500000Y-91730000D02*
X273000000Y-91230000D01*
X269500000Y-91730000D02*
X272500000Y-91730000D01*
X269000000Y-91230000D02*
X269500000Y-91730000D01*
X269000000Y-91230000D02*
X269000000Y-90310000D01*
X268480000Y-89730000D02*
X264000000Y-89730000D01*
X264000000Y-89730000D02*
X264000000Y-89130000D01*
X268480000Y-89730000D02*
G75*
G02*
X269000000Y-90310000I-30000J-550000D01*
G01*
X272500000Y-87230000D02*
X273000000Y-87730000D01*
X270200000Y-87230000D02*
X272500000Y-87230000D01*
X268500000Y-85030000D02*
X268500000Y-85730000D01*
X264000000Y-85030000D02*
X268500000Y-85030000D01*
X264000000Y-85530000D02*
X264000000Y-85030000D01*
X270200000Y-87230000D02*
G75*
G02*
X268500000Y-85750000I-110000J1590000D01*
G01*
X272500000Y-74730000D02*
X273000000Y-74230000D01*
X269500000Y-74730000D02*
X272500000Y-74730000D01*
X269000000Y-74230000D02*
X269500000Y-74730000D01*
X269000000Y-74230000D02*
X269000000Y-73310000D01*
X268480000Y-72730000D02*
X264000000Y-72730000D01*
X264000000Y-72730000D02*
X264000000Y-72130000D01*
X268480000Y-72730000D02*
G75*
G02*
X269000000Y-73310000I-30000J-550000D01*
G01*
X272500000Y-70230000D02*
X273000000Y-70730000D01*
X270200000Y-70230000D02*
X272500000Y-70230000D01*
X268500000Y-68030000D02*
X268500000Y-68730000D01*
X264000000Y-68030000D02*
X268500000Y-68030000D01*
X264000000Y-68530000D02*
X264000000Y-68030000D01*
X270200000Y-70230000D02*
G75*
G02*
X268500000Y-68750000I-110000J1590000D01*
G01*
X255500000Y-129980000D02*
X256000000Y-129480000D01*
X252500000Y-129980000D02*
X255500000Y-129980000D01*
X252000000Y-129480000D02*
X252500000Y-129980000D01*
X252000000Y-129480000D02*
X252000000Y-128560000D01*
X251480000Y-127980000D02*
X247000000Y-127980000D01*
X247000000Y-127980000D02*
X247000000Y-127380000D01*
X251480000Y-127980000D02*
G75*
G02*
X252000000Y-128560000I-30000J-550000D01*
G01*
X255500000Y-125480000D02*
X256000000Y-125980000D01*
X253200000Y-125480000D02*
X255500000Y-125480000D01*
X251500000Y-123280000D02*
X251500000Y-123980000D01*
X247000000Y-123280000D02*
X251500000Y-123280000D01*
X247000000Y-123780000D02*
X247000000Y-123280000D01*
X253200000Y-125480000D02*
G75*
G02*
X251500000Y-124000000I-110000J1590000D01*
G01*
X255500000Y-112980000D02*
X256000000Y-112480000D01*
X252500000Y-112980000D02*
X255500000Y-112980000D01*
X252000000Y-112480000D02*
X252500000Y-112980000D01*
X252000000Y-112480000D02*
X252000000Y-111560000D01*
X251480000Y-110980000D02*
X247000000Y-110980000D01*
X247000000Y-110980000D02*
X247000000Y-110380000D01*
X251480000Y-110980000D02*
G75*
G02*
X252000000Y-111560000I-30000J-550000D01*
G01*
X255500000Y-108480000D02*
X256000000Y-108980000D01*
X253200000Y-108480000D02*
X255500000Y-108480000D01*
X251500000Y-106280000D02*
X251500000Y-106980000D01*
X247000000Y-106280000D02*
X251500000Y-106280000D01*
X247000000Y-106780000D02*
X247000000Y-106280000D01*
X253200000Y-108480000D02*
G75*
G02*
X251500000Y-107000000I-110000J1590000D01*
G01*
X255500000Y-95980000D02*
X256000000Y-95480000D01*
X252500000Y-95980000D02*
X255500000Y-95980000D01*
X252000000Y-95480000D02*
X252500000Y-95980000D01*
X252000000Y-95480000D02*
X252000000Y-94560000D01*
X251480000Y-93980000D02*
X247000000Y-93980000D01*
X247000000Y-93980000D02*
X247000000Y-93380000D01*
X251480000Y-93980000D02*
G75*
G02*
X252000000Y-94560000I-30000J-550000D01*
G01*
X255500000Y-91480000D02*
X256000000Y-91980000D01*
X253200000Y-91480000D02*
X255500000Y-91480000D01*
X251500000Y-89280000D02*
X251500000Y-89980000D01*
X247000000Y-89280000D02*
X251500000Y-89280000D01*
X247000000Y-89780000D02*
X247000000Y-89280000D01*
X253200000Y-91480000D02*
G75*
G02*
X251500000Y-90000000I-110000J1590000D01*
G01*
X255500000Y-78980000D02*
X256000000Y-78480000D01*
X252500000Y-78980000D02*
X255500000Y-78980000D01*
X252000000Y-78480000D02*
X252500000Y-78980000D01*
X252000000Y-78480000D02*
X252000000Y-77560000D01*
X251480000Y-76980000D02*
X247000000Y-76980000D01*
X247000000Y-76980000D02*
X247000000Y-76380000D01*
X251480000Y-76980000D02*
G75*
G02*
X252000000Y-77560000I-30000J-550000D01*
G01*
X255500000Y-74480000D02*
X256000000Y-74980000D01*
X253200000Y-74480000D02*
X255500000Y-74480000D01*
X251500000Y-72280000D02*
X251500000Y-72980000D01*
X247000000Y-72280000D02*
X251500000Y-72280000D01*
X247000000Y-72780000D02*
X247000000Y-72280000D01*
X253200000Y-74480000D02*
G75*
G02*
X251500000Y-73000000I-110000J1590000D01*
G01*
X238500000Y-132530000D02*
X239000000Y-132030000D01*
X235500000Y-132530000D02*
X238500000Y-132530000D01*
X235000000Y-132030000D02*
X235500000Y-132530000D01*
X235000000Y-132030000D02*
X235000000Y-131110000D01*
X234480000Y-130530000D02*
X230000000Y-130530000D01*
X230000000Y-130530000D02*
X230000000Y-129930000D01*
X234480000Y-130530000D02*
G75*
G02*
X235000000Y-131110000I-30000J-550000D01*
G01*
X238500000Y-128030000D02*
X239000000Y-128530000D01*
X236200000Y-128030000D02*
X238500000Y-128030000D01*
X234500000Y-125830000D02*
X234500000Y-126530000D01*
X230000000Y-125830000D02*
X234500000Y-125830000D01*
X230000000Y-126330000D02*
X230000000Y-125830000D01*
X236200000Y-128030000D02*
G75*
G02*
X234500000Y-126550000I-110000J1590000D01*
G01*
X238500000Y-115530000D02*
X239000000Y-115030000D01*
X235500000Y-115530000D02*
X238500000Y-115530000D01*
X235000000Y-115030000D02*
X235500000Y-115530000D01*
X235000000Y-115030000D02*
X235000000Y-114110000D01*
X234480000Y-113530000D02*
X230000000Y-113530000D01*
X230000000Y-113530000D02*
X230000000Y-112930000D01*
X234480000Y-113530000D02*
G75*
G02*
X235000000Y-114110000I-30000J-550000D01*
G01*
X238500000Y-111030000D02*
X239000000Y-111530000D01*
X236200000Y-111030000D02*
X238500000Y-111030000D01*
X234500000Y-108830000D02*
X234500000Y-109530000D01*
X230000000Y-108830000D02*
X234500000Y-108830000D01*
X230000000Y-109330000D02*
X230000000Y-108830000D01*
X236200000Y-111030000D02*
G75*
G02*
X234500000Y-109550000I-110000J1590000D01*
G01*
X238500000Y-98530000D02*
X239000000Y-98030000D01*
X235500000Y-98530000D02*
X238500000Y-98530000D01*
X235000000Y-98030000D02*
X235500000Y-98530000D01*
X235000000Y-98030000D02*
X235000000Y-97110000D01*
X234480000Y-96530000D02*
X230000000Y-96530000D01*
X230000000Y-96530000D02*
X230000000Y-95930000D01*
X234480000Y-96530000D02*
G75*
G02*
X235000000Y-97110000I-30000J-550000D01*
G01*
X238500000Y-94030000D02*
X239000000Y-94530000D01*
X236200000Y-94030000D02*
X238500000Y-94030000D01*
X234500000Y-91830000D02*
X234500000Y-92530000D01*
X230000000Y-91830000D02*
X234500000Y-91830000D01*
X230000000Y-92330000D02*
X230000000Y-91830000D01*
X236200000Y-94030000D02*
G75*
G02*
X234500000Y-92550000I-110000J1590000D01*
G01*
X238500000Y-81530000D02*
X239000000Y-81030000D01*
X235500000Y-81530000D02*
X238500000Y-81530000D01*
X235000000Y-81030000D02*
X235500000Y-81530000D01*
X235000000Y-81030000D02*
X235000000Y-80110000D01*
X234480000Y-79530000D02*
X230000000Y-79530000D01*
X230000000Y-79530000D02*
X230000000Y-78930000D01*
X234480000Y-79530000D02*
G75*
G02*
X235000000Y-80110000I-30000J-550000D01*
G01*
X238500000Y-77030000D02*
X239000000Y-77530000D01*
X236200000Y-77030000D02*
X238500000Y-77030000D01*
X234500000Y-74830000D02*
X234500000Y-75530000D01*
X230000000Y-74830000D02*
X234500000Y-74830000D01*
X230000000Y-75330000D02*
X230000000Y-74830000D01*
X236200000Y-77030000D02*
G75*
G02*
X234500000Y-75550000I-110000J1590000D01*
G01*
X221500000Y-135930000D02*
X222000000Y-135430000D01*
X218500000Y-135930000D02*
X221500000Y-135930000D01*
X218000000Y-135430000D02*
X218500000Y-135930000D01*
X218000000Y-135430000D02*
X218000000Y-134510000D01*
X217480000Y-133930000D02*
X213000000Y-133930000D01*
X213000000Y-133930000D02*
X213000000Y-133330000D01*
X217480000Y-133930000D02*
G75*
G02*
X218000000Y-134510000I-30000J-550000D01*
G01*
X221500000Y-131430000D02*
X222000000Y-131930000D01*
X219200000Y-131430000D02*
X221500000Y-131430000D01*
X217500000Y-129230000D02*
X217500000Y-129930000D01*
X213000000Y-129230000D02*
X217500000Y-129230000D01*
X213000000Y-129730000D02*
X213000000Y-129230000D01*
X219200000Y-131430000D02*
G75*
G02*
X217500000Y-129950000I-110000J1590000D01*
G01*
X221500000Y-118930000D02*
X222000000Y-118430000D01*
X218500000Y-118930000D02*
X221500000Y-118930000D01*
X218000000Y-118430000D02*
X218500000Y-118930000D01*
X218000000Y-118430000D02*
X218000000Y-117510000D01*
X217480000Y-116930000D02*
X213000000Y-116930000D01*
X213000000Y-116930000D02*
X213000000Y-116330000D01*
X217480000Y-116930000D02*
G75*
G02*
X218000000Y-117510000I-30000J-550000D01*
G01*
X221500000Y-114430000D02*
X222000000Y-114930000D01*
X219200000Y-114430000D02*
X221500000Y-114430000D01*
X217500000Y-112230000D02*
X217500000Y-112930000D01*
X213000000Y-112230000D02*
X217500000Y-112230000D01*
X213000000Y-112730000D02*
X213000000Y-112230000D01*
X219200000Y-114430000D02*
G75*
G02*
X217500000Y-112950000I-110000J1590000D01*
G01*
X221500000Y-101930000D02*
X222000000Y-101430000D01*
X218500000Y-101930000D02*
X221500000Y-101930000D01*
X218000000Y-101430000D02*
X218500000Y-101930000D01*
X218000000Y-101430000D02*
X218000000Y-100510000D01*
X217480000Y-99930000D02*
X213000000Y-99930000D01*
X213000000Y-99930000D02*
X213000000Y-99330000D01*
X217480000Y-99930000D02*
G75*
G02*
X218000000Y-100510000I-30000J-550000D01*
G01*
X221500000Y-97430000D02*
X222000000Y-97930000D01*
X219200000Y-97430000D02*
X221500000Y-97430000D01*
X217500000Y-95230000D02*
X217500000Y-95930000D01*
X213000000Y-95230000D02*
X217500000Y-95230000D01*
X213000000Y-95730000D02*
X213000000Y-95230000D01*
X219200000Y-97430000D02*
G75*
G02*
X217500000Y-95950000I-110000J1590000D01*
G01*
X221500000Y-84930000D02*
X222000000Y-84430000D01*
X218500000Y-84930000D02*
X221500000Y-84930000D01*
X218000000Y-84430000D02*
X218500000Y-84930000D01*
X218000000Y-84430000D02*
X218000000Y-83510000D01*
X217480000Y-82930000D02*
X213000000Y-82930000D01*
X213000000Y-82930000D02*
X213000000Y-82330000D01*
X217480000Y-82930000D02*
G75*
G02*
X218000000Y-83510000I-30000J-550000D01*
G01*
X221500000Y-80430000D02*
X222000000Y-80930000D01*
X219200000Y-80430000D02*
X221500000Y-80430000D01*
X217500000Y-78230000D02*
X217500000Y-78930000D01*
X213000000Y-78230000D02*
X217500000Y-78230000D01*
X213000000Y-78730000D02*
X213000000Y-78230000D01*
X219200000Y-80430000D02*
G75*
G02*
X217500000Y-78950000I-110000J1590000D01*
G01*
X204500000Y-132530000D02*
X205000000Y-132030000D01*
X201500000Y-132530000D02*
X204500000Y-132530000D01*
X201000000Y-132030000D02*
X201500000Y-132530000D01*
X201000000Y-132030000D02*
X201000000Y-131110000D01*
X200480000Y-130530000D02*
X196000000Y-130530000D01*
X196000000Y-130530000D02*
X196000000Y-129930000D01*
X200480000Y-130530000D02*
G75*
G02*
X201000000Y-131110000I-30000J-550000D01*
G01*
X204500000Y-128030000D02*
X205000000Y-128530000D01*
X202200000Y-128030000D02*
X204500000Y-128030000D01*
X200500000Y-125830000D02*
X200500000Y-126530000D01*
X196000000Y-125830000D02*
X200500000Y-125830000D01*
X196000000Y-126330000D02*
X196000000Y-125830000D01*
X202200000Y-128030000D02*
G75*
G02*
X200500000Y-126550000I-110000J1590000D01*
G01*
X204500000Y-115530000D02*
X205000000Y-115030000D01*
X201500000Y-115530000D02*
X204500000Y-115530000D01*
X201000000Y-115030000D02*
X201500000Y-115530000D01*
X201000000Y-115030000D02*
X201000000Y-114110000D01*
X200480000Y-113530000D02*
X196000000Y-113530000D01*
X196000000Y-113530000D02*
X196000000Y-112930000D01*
X200480000Y-113530000D02*
G75*
G02*
X201000000Y-114110000I-30000J-550000D01*
G01*
X204500000Y-111030000D02*
X205000000Y-111530000D01*
X202200000Y-111030000D02*
X204500000Y-111030000D01*
X200500000Y-108830000D02*
X200500000Y-109530000D01*
X196000000Y-108830000D02*
X200500000Y-108830000D01*
X196000000Y-109330000D02*
X196000000Y-108830000D01*
X202200000Y-111030000D02*
G75*
G02*
X200500000Y-109550000I-110000J1590000D01*
G01*
X204500000Y-98530000D02*
X205000000Y-98030000D01*
X201500000Y-98530000D02*
X204500000Y-98530000D01*
X201000000Y-98030000D02*
X201500000Y-98530000D01*
X201000000Y-98030000D02*
X201000000Y-97110000D01*
X200480000Y-96530000D02*
X196000000Y-96530000D01*
X196000000Y-96530000D02*
X196000000Y-95930000D01*
X200480000Y-96530000D02*
G75*
G02*
X201000000Y-97110000I-30000J-550000D01*
G01*
X204500000Y-94030000D02*
X205000000Y-94530000D01*
X202200000Y-94030000D02*
X204500000Y-94030000D01*
X200500000Y-91830000D02*
X200500000Y-92530000D01*
X196000000Y-91830000D02*
X200500000Y-91830000D01*
X196000000Y-92330000D02*
X196000000Y-91830000D01*
X202200000Y-94030000D02*
G75*
G02*
X200500000Y-92550000I-110000J1590000D01*
G01*
X234121127Y-152544951D02*
X234526706Y-151965723D01*
X231166703Y-153065896D02*
X234121127Y-152544951D01*
X230587475Y-152660316D02*
X231166703Y-153065896D01*
X230587475Y-152660316D02*
X230427719Y-151754293D01*
X229814903Y-151273401D02*
X225402964Y-152051345D01*
X225402964Y-152051345D02*
X225298776Y-151460461D01*
X229814903Y-151273401D02*
G75*
G02*
X230427719Y-151754293I65962J-546854D01*
G01*
X233339710Y-148113316D02*
X233918938Y-148518896D01*
X231074652Y-148512707D02*
X233339710Y-148113316D01*
X229018453Y-146641332D02*
X229140007Y-147330698D01*
X224586818Y-147422749D02*
X229018453Y-146641332D01*
X224673642Y-147915153D02*
X224586818Y-147422749D01*
X231074652Y-148512707D02*
G75*
G02*
X229143480Y-147350394I-384429J1546743D01*
G01*
X217854203Y-157263310D02*
X218096048Y-156598847D01*
X215135280Y-158531165D02*
X217854203Y-157263310D01*
X214470817Y-158289320D02*
X215135280Y-158531165D01*
X214470817Y-158289320D02*
X214082008Y-157455517D01*
X213365610Y-157149620D02*
X209305351Y-159042950D01*
X209305351Y-159042950D02*
X209051780Y-158499165D01*
X213365610Y-157149620D02*
G75*
G02*
X214082008Y-157455517I205250J-511148D01*
G01*
X215952421Y-153184925D02*
X216616884Y-153426770D01*
X213867913Y-154156947D02*
X215952421Y-153184925D01*
X211397430Y-152881521D02*
X211693263Y-153515937D01*
X207319045Y-154783304D02*
X211397430Y-152881521D01*
X207530354Y-155236457D02*
X207319045Y-154783304D01*
X213867913Y-154156947D02*
G75*
G02*
X211701715Y-153534063I-771657J1394541D01*
G01*
X202705733Y-165001578D02*
X202888746Y-164318566D01*
X200107657Y-166501578D02*
X202705733Y-165001578D01*
X199424644Y-166318566D02*
X200107657Y-166501578D01*
X199424644Y-166318566D02*
X198964644Y-165521822D01*
X198224311Y-165279528D02*
X194344517Y-167519528D01*
X194344517Y-167519528D02*
X194044517Y-166999912D01*
X198224311Y-165279528D02*
G75*
G02*
X198964643Y-165521822I249019J-491313D01*
G01*
X200455733Y-161104464D02*
X201138746Y-161287477D01*
X198463875Y-162254464D02*
X200455733Y-161104464D01*
X195891631Y-161199208D02*
X196241631Y-161805426D01*
X191994517Y-163449208D02*
X195891631Y-161199208D01*
X192244517Y-163882221D02*
X191994517Y-163449208D01*
X198463875Y-162254464D02*
G75*
G02*
X196251631Y-161822746I-890263J1321980D01*
G01*
D11*
X269280000Y-41480000D02*
X269280000Y-38820000D01*
X269280000Y-41480000D02*
X238680000Y-41480000D01*
X238680000Y-41480000D02*
X238680000Y-38820000D01*
X269280000Y-38820000D02*
X238680000Y-38820000D01*
X269280000Y-56720000D02*
X269280000Y-54060000D01*
X269280000Y-56720000D02*
X238680000Y-56720000D01*
X238680000Y-56720000D02*
X238680000Y-54060000D01*
X269280000Y-54060000D02*
X238680000Y-54060000D01*
X266680000Y-56720000D02*
X266680000Y-54060000D01*
%LPC*%
D12*
X305000000Y-133000000D03*
D13*
X299500000Y-133000000D03*
X310500000Y-133000000D03*
X310000000Y-127850000D03*
D14*
X305000000Y-138950000D03*
G36*
G01*
X309625000Y-137650000D02*
X309625000Y-140250000D01*
G75*
G02*
X309575000Y-140300000I-50000J0D01*
G01*
X306975000Y-140300000D01*
G75*
G02*
X306925000Y-140250000I0J50000D01*
G01*
X306925000Y-137650000D01*
G75*
G02*
X306975000Y-137600000I50000J0D01*
G01*
X309575000Y-137600000D01*
G75*
G02*
X309625000Y-137650000I0J-50000D01*
G01*
G37*
G36*
G01*
X298075000Y-135450000D02*
X298075000Y-138050000D01*
G75*
G02*
X298025000Y-138100000I-50000J0D01*
G01*
X295425000Y-138100000D01*
G75*
G02*
X295375000Y-138050000I0J50000D01*
G01*
X295375000Y-135450000D01*
G75*
G02*
X295425000Y-135400000I50000J0D01*
G01*
X298025000Y-135400000D01*
G75*
G02*
X298075000Y-135450000I0J-50000D01*
G01*
G37*
X300000000Y-136750000D03*
D12*
X305000000Y-116000000D03*
D13*
X299500000Y-116000000D03*
X310500000Y-116000000D03*
X310000000Y-110850000D03*
D14*
X305000000Y-121950000D03*
G36*
G01*
X309625000Y-120650000D02*
X309625000Y-123250000D01*
G75*
G02*
X309575000Y-123300000I-50000J0D01*
G01*
X306975000Y-123300000D01*
G75*
G02*
X306925000Y-123250000I0J50000D01*
G01*
X306925000Y-120650000D01*
G75*
G02*
X306975000Y-120600000I50000J0D01*
G01*
X309575000Y-120600000D01*
G75*
G02*
X309625000Y-120650000I0J-50000D01*
G01*
G37*
G36*
G01*
X298075000Y-118450000D02*
X298075000Y-121050000D01*
G75*
G02*
X298025000Y-121100000I-50000J0D01*
G01*
X295425000Y-121100000D01*
G75*
G02*
X295375000Y-121050000I0J50000D01*
G01*
X295375000Y-118450000D01*
G75*
G02*
X295425000Y-118400000I50000J0D01*
G01*
X298025000Y-118400000D01*
G75*
G02*
X298075000Y-118450000I0J-50000D01*
G01*
G37*
X300000000Y-119750000D03*
D12*
X305000000Y-99000000D03*
D13*
X299500000Y-99000000D03*
X310500000Y-99000000D03*
X310000000Y-93850000D03*
D14*
X305000000Y-104950000D03*
G36*
G01*
X309625000Y-103650000D02*
X309625000Y-106250000D01*
G75*
G02*
X309575000Y-106300000I-50000J0D01*
G01*
X306975000Y-106300000D01*
G75*
G02*
X306925000Y-106250000I0J50000D01*
G01*
X306925000Y-103650000D01*
G75*
G02*
X306975000Y-103600000I50000J0D01*
G01*
X309575000Y-103600000D01*
G75*
G02*
X309625000Y-103650000I0J-50000D01*
G01*
G37*
G36*
G01*
X298075000Y-101450000D02*
X298075000Y-104050000D01*
G75*
G02*
X298025000Y-104100000I-50000J0D01*
G01*
X295425000Y-104100000D01*
G75*
G02*
X295375000Y-104050000I0J50000D01*
G01*
X295375000Y-101450000D01*
G75*
G02*
X295425000Y-101400000I50000J0D01*
G01*
X298025000Y-101400000D01*
G75*
G02*
X298075000Y-101450000I0J-50000D01*
G01*
G37*
X300000000Y-102750000D03*
D12*
X305000000Y-82000000D03*
D13*
X299500000Y-82000000D03*
X310500000Y-82000000D03*
X310000000Y-76850000D03*
D14*
X305000000Y-87950000D03*
G36*
G01*
X309625000Y-86650000D02*
X309625000Y-89250000D01*
G75*
G02*
X309575000Y-89300000I-50000J0D01*
G01*
X306975000Y-89300000D01*
G75*
G02*
X306925000Y-89250000I0J50000D01*
G01*
X306925000Y-86650000D01*
G75*
G02*
X306975000Y-86600000I50000J0D01*
G01*
X309575000Y-86600000D01*
G75*
G02*
X309625000Y-86650000I0J-50000D01*
G01*
G37*
G36*
G01*
X298075000Y-84450000D02*
X298075000Y-87050000D01*
G75*
G02*
X298025000Y-87100000I-50000J0D01*
G01*
X295425000Y-87100000D01*
G75*
G02*
X295375000Y-87050000I0J50000D01*
G01*
X295375000Y-84450000D01*
G75*
G02*
X295425000Y-84400000I50000J0D01*
G01*
X298025000Y-84400000D01*
G75*
G02*
X298075000Y-84450000I0J-50000D01*
G01*
G37*
X300000000Y-85750000D03*
D12*
X288000000Y-145750000D03*
D13*
X282500000Y-145750000D03*
X293500000Y-145750000D03*
X293000000Y-140600000D03*
D14*
X288000000Y-151700000D03*
G36*
G01*
X292625000Y-150400000D02*
X292625000Y-153000000D01*
G75*
G02*
X292575000Y-153050000I-50000J0D01*
G01*
X289975000Y-153050000D01*
G75*
G02*
X289925000Y-153000000I0J50000D01*
G01*
X289925000Y-150400000D01*
G75*
G02*
X289975000Y-150350000I50000J0D01*
G01*
X292575000Y-150350000D01*
G75*
G02*
X292625000Y-150400000I0J-50000D01*
G01*
G37*
G36*
G01*
X281075000Y-148200000D02*
X281075000Y-150800000D01*
G75*
G02*
X281025000Y-150850000I-50000J0D01*
G01*
X278425000Y-150850000D01*
G75*
G02*
X278375000Y-150800000I0J50000D01*
G01*
X278375000Y-148200000D01*
G75*
G02*
X278425000Y-148150000I50000J0D01*
G01*
X281025000Y-148150000D01*
G75*
G02*
X281075000Y-148200000I0J-50000D01*
G01*
G37*
X283000000Y-149500000D03*
D12*
X288000000Y-128750000D03*
D13*
X282500000Y-128750000D03*
X293500000Y-128750000D03*
X293000000Y-123600000D03*
D14*
X288000000Y-134700000D03*
G36*
G01*
X292625000Y-133400000D02*
X292625000Y-136000000D01*
G75*
G02*
X292575000Y-136050000I-50000J0D01*
G01*
X289975000Y-136050000D01*
G75*
G02*
X289925000Y-136000000I0J50000D01*
G01*
X289925000Y-133400000D01*
G75*
G02*
X289975000Y-133350000I50000J0D01*
G01*
X292575000Y-133350000D01*
G75*
G02*
X292625000Y-133400000I0J-50000D01*
G01*
G37*
G36*
G01*
X281075000Y-131200000D02*
X281075000Y-133800000D01*
G75*
G02*
X281025000Y-133850000I-50000J0D01*
G01*
X278425000Y-133850000D01*
G75*
G02*
X278375000Y-133800000I0J50000D01*
G01*
X278375000Y-131200000D01*
G75*
G02*
X278425000Y-131150000I50000J0D01*
G01*
X281025000Y-131150000D01*
G75*
G02*
X281075000Y-131200000I0J-50000D01*
G01*
G37*
X283000000Y-132500000D03*
D12*
X288000000Y-111750000D03*
D13*
X282500000Y-111750000D03*
X293500000Y-111750000D03*
X293000000Y-106600000D03*
D14*
X288000000Y-117700000D03*
G36*
G01*
X292625000Y-116400000D02*
X292625000Y-119000000D01*
G75*
G02*
X292575000Y-119050000I-50000J0D01*
G01*
X289975000Y-119050000D01*
G75*
G02*
X289925000Y-119000000I0J50000D01*
G01*
X289925000Y-116400000D01*
G75*
G02*
X289975000Y-116350000I50000J0D01*
G01*
X292575000Y-116350000D01*
G75*
G02*
X292625000Y-116400000I0J-50000D01*
G01*
G37*
G36*
G01*
X281075000Y-114200000D02*
X281075000Y-116800000D01*
G75*
G02*
X281025000Y-116850000I-50000J0D01*
G01*
X278425000Y-116850000D01*
G75*
G02*
X278375000Y-116800000I0J50000D01*
G01*
X278375000Y-114200000D01*
G75*
G02*
X278425000Y-114150000I50000J0D01*
G01*
X281025000Y-114150000D01*
G75*
G02*
X281075000Y-114200000I0J-50000D01*
G01*
G37*
X283000000Y-115500000D03*
D12*
X288000000Y-94750000D03*
D13*
X282500000Y-94750000D03*
X293500000Y-94750000D03*
X293000000Y-89600000D03*
D14*
X288000000Y-100700000D03*
G36*
G01*
X292625000Y-99400000D02*
X292625000Y-102000000D01*
G75*
G02*
X292575000Y-102050000I-50000J0D01*
G01*
X289975000Y-102050000D01*
G75*
G02*
X289925000Y-102000000I0J50000D01*
G01*
X289925000Y-99400000D01*
G75*
G02*
X289975000Y-99350000I50000J0D01*
G01*
X292575000Y-99350000D01*
G75*
G02*
X292625000Y-99400000I0J-50000D01*
G01*
G37*
G36*
G01*
X281075000Y-97200000D02*
X281075000Y-99800000D01*
G75*
G02*
X281025000Y-99850000I-50000J0D01*
G01*
X278425000Y-99850000D01*
G75*
G02*
X278375000Y-99800000I0J50000D01*
G01*
X278375000Y-97200000D01*
G75*
G02*
X278425000Y-97150000I50000J0D01*
G01*
X281025000Y-97150000D01*
G75*
G02*
X281075000Y-97200000I0J-50000D01*
G01*
G37*
X283000000Y-98500000D03*
D12*
X288000000Y-77750000D03*
D13*
X282500000Y-77750000D03*
X293500000Y-77750000D03*
X293000000Y-72600000D03*
D14*
X288000000Y-83700000D03*
G36*
G01*
X292625000Y-82400000D02*
X292625000Y-85000000D01*
G75*
G02*
X292575000Y-85050000I-50000J0D01*
G01*
X289975000Y-85050000D01*
G75*
G02*
X289925000Y-85000000I0J50000D01*
G01*
X289925000Y-82400000D01*
G75*
G02*
X289975000Y-82350000I50000J0D01*
G01*
X292575000Y-82350000D01*
G75*
G02*
X292625000Y-82400000I0J-50000D01*
G01*
G37*
G36*
G01*
X281075000Y-80200000D02*
X281075000Y-82800000D01*
G75*
G02*
X281025000Y-82850000I-50000J0D01*
G01*
X278425000Y-82850000D01*
G75*
G02*
X278375000Y-82800000I0J50000D01*
G01*
X278375000Y-80200000D01*
G75*
G02*
X278425000Y-80150000I50000J0D01*
G01*
X281025000Y-80150000D01*
G75*
G02*
X281075000Y-80200000I0J-50000D01*
G01*
G37*
X283000000Y-81500000D03*
D12*
X271000000Y-134530000D03*
D13*
X265500000Y-134530000D03*
X276500000Y-134530000D03*
X276000000Y-129380000D03*
D14*
X271000000Y-140480000D03*
G36*
G01*
X275625000Y-139180000D02*
X275625000Y-141780000D01*
G75*
G02*
X275575000Y-141830000I-50000J0D01*
G01*
X272975000Y-141830000D01*
G75*
G02*
X272925000Y-141780000I0J50000D01*
G01*
X272925000Y-139180000D01*
G75*
G02*
X272975000Y-139130000I50000J0D01*
G01*
X275575000Y-139130000D01*
G75*
G02*
X275625000Y-139180000I0J-50000D01*
G01*
G37*
G36*
G01*
X264075000Y-136980000D02*
X264075000Y-139580000D01*
G75*
G02*
X264025000Y-139630000I-50000J0D01*
G01*
X261425000Y-139630000D01*
G75*
G02*
X261375000Y-139580000I0J50000D01*
G01*
X261375000Y-136980000D01*
G75*
G02*
X261425000Y-136930000I50000J0D01*
G01*
X264025000Y-136930000D01*
G75*
G02*
X264075000Y-136980000I0J-50000D01*
G01*
G37*
X266000000Y-138280000D03*
D12*
X271000000Y-117530000D03*
D13*
X265500000Y-117530000D03*
X276500000Y-117530000D03*
X276000000Y-112380000D03*
D14*
X271000000Y-123480000D03*
G36*
G01*
X275625000Y-122180000D02*
X275625000Y-124780000D01*
G75*
G02*
X275575000Y-124830000I-50000J0D01*
G01*
X272975000Y-124830000D01*
G75*
G02*
X272925000Y-124780000I0J50000D01*
G01*
X272925000Y-122180000D01*
G75*
G02*
X272975000Y-122130000I50000J0D01*
G01*
X275575000Y-122130000D01*
G75*
G02*
X275625000Y-122180000I0J-50000D01*
G01*
G37*
G36*
G01*
X264075000Y-119980000D02*
X264075000Y-122580000D01*
G75*
G02*
X264025000Y-122630000I-50000J0D01*
G01*
X261425000Y-122630000D01*
G75*
G02*
X261375000Y-122580000I0J50000D01*
G01*
X261375000Y-119980000D01*
G75*
G02*
X261425000Y-119930000I50000J0D01*
G01*
X264025000Y-119930000D01*
G75*
G02*
X264075000Y-119980000I0J-50000D01*
G01*
G37*
X266000000Y-121280000D03*
D12*
X271000000Y-100530000D03*
D13*
X265500000Y-100530000D03*
X276500000Y-100530000D03*
X276000000Y-95380000D03*
D14*
X271000000Y-106480000D03*
G36*
G01*
X275625000Y-105180000D02*
X275625000Y-107780000D01*
G75*
G02*
X275575000Y-107830000I-50000J0D01*
G01*
X272975000Y-107830000D01*
G75*
G02*
X272925000Y-107780000I0J50000D01*
G01*
X272925000Y-105180000D01*
G75*
G02*
X272975000Y-105130000I50000J0D01*
G01*
X275575000Y-105130000D01*
G75*
G02*
X275625000Y-105180000I0J-50000D01*
G01*
G37*
G36*
G01*
X264075000Y-102980000D02*
X264075000Y-105580000D01*
G75*
G02*
X264025000Y-105630000I-50000J0D01*
G01*
X261425000Y-105630000D01*
G75*
G02*
X261375000Y-105580000I0J50000D01*
G01*
X261375000Y-102980000D01*
G75*
G02*
X261425000Y-102930000I50000J0D01*
G01*
X264025000Y-102930000D01*
G75*
G02*
X264075000Y-102980000I0J-50000D01*
G01*
G37*
X266000000Y-104280000D03*
D12*
X271000000Y-83530000D03*
D13*
X265500000Y-83530000D03*
X276500000Y-83530000D03*
X276000000Y-78380000D03*
D14*
X271000000Y-89480000D03*
G36*
G01*
X275625000Y-88180000D02*
X275625000Y-90780000D01*
G75*
G02*
X275575000Y-90830000I-50000J0D01*
G01*
X272975000Y-90830000D01*
G75*
G02*
X272925000Y-90780000I0J50000D01*
G01*
X272925000Y-88180000D01*
G75*
G02*
X272975000Y-88130000I50000J0D01*
G01*
X275575000Y-88130000D01*
G75*
G02*
X275625000Y-88180000I0J-50000D01*
G01*
G37*
G36*
G01*
X264075000Y-85980000D02*
X264075000Y-88580000D01*
G75*
G02*
X264025000Y-88630000I-50000J0D01*
G01*
X261425000Y-88630000D01*
G75*
G02*
X261375000Y-88580000I0J50000D01*
G01*
X261375000Y-85980000D01*
G75*
G02*
X261425000Y-85930000I50000J0D01*
G01*
X264025000Y-85930000D01*
G75*
G02*
X264075000Y-85980000I0J-50000D01*
G01*
G37*
X266000000Y-87280000D03*
D12*
X271000000Y-66530000D03*
D13*
X265500000Y-66530000D03*
X276500000Y-66530000D03*
X276000000Y-61380000D03*
D14*
X271000000Y-72480000D03*
G36*
G01*
X275625000Y-71180000D02*
X275625000Y-73780000D01*
G75*
G02*
X275575000Y-73830000I-50000J0D01*
G01*
X272975000Y-73830000D01*
G75*
G02*
X272925000Y-73780000I0J50000D01*
G01*
X272925000Y-71180000D01*
G75*
G02*
X272975000Y-71130000I50000J0D01*
G01*
X275575000Y-71130000D01*
G75*
G02*
X275625000Y-71180000I0J-50000D01*
G01*
G37*
G36*
G01*
X264075000Y-68980000D02*
X264075000Y-71580000D01*
G75*
G02*
X264025000Y-71630000I-50000J0D01*
G01*
X261425000Y-71630000D01*
G75*
G02*
X261375000Y-71580000I0J50000D01*
G01*
X261375000Y-68980000D01*
G75*
G02*
X261425000Y-68930000I50000J0D01*
G01*
X264025000Y-68930000D01*
G75*
G02*
X264075000Y-68980000I0J-50000D01*
G01*
G37*
X266000000Y-70280000D03*
D12*
X254000000Y-121780000D03*
D13*
X248500000Y-121780000D03*
X259500000Y-121780000D03*
X259000000Y-116630000D03*
D14*
X254000000Y-127730000D03*
G36*
G01*
X258625000Y-126430000D02*
X258625000Y-129030000D01*
G75*
G02*
X258575000Y-129080000I-50000J0D01*
G01*
X255975000Y-129080000D01*
G75*
G02*
X255925000Y-129030000I0J50000D01*
G01*
X255925000Y-126430000D01*
G75*
G02*
X255975000Y-126380000I50000J0D01*
G01*
X258575000Y-126380000D01*
G75*
G02*
X258625000Y-126430000I0J-50000D01*
G01*
G37*
G36*
G01*
X247075000Y-124230000D02*
X247075000Y-126830000D01*
G75*
G02*
X247025000Y-126880000I-50000J0D01*
G01*
X244425000Y-126880000D01*
G75*
G02*
X244375000Y-126830000I0J50000D01*
G01*
X244375000Y-124230000D01*
G75*
G02*
X244425000Y-124180000I50000J0D01*
G01*
X247025000Y-124180000D01*
G75*
G02*
X247075000Y-124230000I0J-50000D01*
G01*
G37*
X249000000Y-125530000D03*
D12*
X254000000Y-104780000D03*
D13*
X248500000Y-104780000D03*
X259500000Y-104780000D03*
X259000000Y-99630000D03*
D14*
X254000000Y-110730000D03*
G36*
G01*
X258625000Y-109430000D02*
X258625000Y-112030000D01*
G75*
G02*
X258575000Y-112080000I-50000J0D01*
G01*
X255975000Y-112080000D01*
G75*
G02*
X255925000Y-112030000I0J50000D01*
G01*
X255925000Y-109430000D01*
G75*
G02*
X255975000Y-109380000I50000J0D01*
G01*
X258575000Y-109380000D01*
G75*
G02*
X258625000Y-109430000I0J-50000D01*
G01*
G37*
G36*
G01*
X247075000Y-107230000D02*
X247075000Y-109830000D01*
G75*
G02*
X247025000Y-109880000I-50000J0D01*
G01*
X244425000Y-109880000D01*
G75*
G02*
X244375000Y-109830000I0J50000D01*
G01*
X244375000Y-107230000D01*
G75*
G02*
X244425000Y-107180000I50000J0D01*
G01*
X247025000Y-107180000D01*
G75*
G02*
X247075000Y-107230000I0J-50000D01*
G01*
G37*
X249000000Y-108530000D03*
D12*
X254000000Y-87780000D03*
D13*
X248500000Y-87780000D03*
X259500000Y-87780000D03*
X259000000Y-82630000D03*
D14*
X254000000Y-93730000D03*
G36*
G01*
X258625000Y-92430000D02*
X258625000Y-95030000D01*
G75*
G02*
X258575000Y-95080000I-50000J0D01*
G01*
X255975000Y-95080000D01*
G75*
G02*
X255925000Y-95030000I0J50000D01*
G01*
X255925000Y-92430000D01*
G75*
G02*
X255975000Y-92380000I50000J0D01*
G01*
X258575000Y-92380000D01*
G75*
G02*
X258625000Y-92430000I0J-50000D01*
G01*
G37*
G36*
G01*
X247075000Y-90230000D02*
X247075000Y-92830000D01*
G75*
G02*
X247025000Y-92880000I-50000J0D01*
G01*
X244425000Y-92880000D01*
G75*
G02*
X244375000Y-92830000I0J50000D01*
G01*
X244375000Y-90230000D01*
G75*
G02*
X244425000Y-90180000I50000J0D01*
G01*
X247025000Y-90180000D01*
G75*
G02*
X247075000Y-90230000I0J-50000D01*
G01*
G37*
X249000000Y-91530000D03*
D12*
X254000000Y-70780000D03*
D13*
X248500000Y-70780000D03*
X259500000Y-70780000D03*
X259000000Y-65630000D03*
D14*
X254000000Y-76730000D03*
G36*
G01*
X258625000Y-75430000D02*
X258625000Y-78030000D01*
G75*
G02*
X258575000Y-78080000I-50000J0D01*
G01*
X255975000Y-78080000D01*
G75*
G02*
X255925000Y-78030000I0J50000D01*
G01*
X255925000Y-75430000D01*
G75*
G02*
X255975000Y-75380000I50000J0D01*
G01*
X258575000Y-75380000D01*
G75*
G02*
X258625000Y-75430000I0J-50000D01*
G01*
G37*
G36*
G01*
X247075000Y-73230000D02*
X247075000Y-75830000D01*
G75*
G02*
X247025000Y-75880000I-50000J0D01*
G01*
X244425000Y-75880000D01*
G75*
G02*
X244375000Y-75830000I0J50000D01*
G01*
X244375000Y-73230000D01*
G75*
G02*
X244425000Y-73180000I50000J0D01*
G01*
X247025000Y-73180000D01*
G75*
G02*
X247075000Y-73230000I0J-50000D01*
G01*
G37*
X249000000Y-74530000D03*
D12*
X237000000Y-124330000D03*
D13*
X231500000Y-124330000D03*
X242500000Y-124330000D03*
X242000000Y-119180000D03*
D14*
X237000000Y-130280000D03*
G36*
G01*
X241625000Y-128980000D02*
X241625000Y-131580000D01*
G75*
G02*
X241575000Y-131630000I-50000J0D01*
G01*
X238975000Y-131630000D01*
G75*
G02*
X238925000Y-131580000I0J50000D01*
G01*
X238925000Y-128980000D01*
G75*
G02*
X238975000Y-128930000I50000J0D01*
G01*
X241575000Y-128930000D01*
G75*
G02*
X241625000Y-128980000I0J-50000D01*
G01*
G37*
G36*
G01*
X230075000Y-126780000D02*
X230075000Y-129380000D01*
G75*
G02*
X230025000Y-129430000I-50000J0D01*
G01*
X227425000Y-129430000D01*
G75*
G02*
X227375000Y-129380000I0J50000D01*
G01*
X227375000Y-126780000D01*
G75*
G02*
X227425000Y-126730000I50000J0D01*
G01*
X230025000Y-126730000D01*
G75*
G02*
X230075000Y-126780000I0J-50000D01*
G01*
G37*
X232000000Y-128080000D03*
D12*
X237000000Y-107330000D03*
D13*
X231500000Y-107330000D03*
X242500000Y-107330000D03*
X242000000Y-102180000D03*
D14*
X237000000Y-113280000D03*
G36*
G01*
X241625000Y-111980000D02*
X241625000Y-114580000D01*
G75*
G02*
X241575000Y-114630000I-50000J0D01*
G01*
X238975000Y-114630000D01*
G75*
G02*
X238925000Y-114580000I0J50000D01*
G01*
X238925000Y-111980000D01*
G75*
G02*
X238975000Y-111930000I50000J0D01*
G01*
X241575000Y-111930000D01*
G75*
G02*
X241625000Y-111980000I0J-50000D01*
G01*
G37*
G36*
G01*
X230075000Y-109780000D02*
X230075000Y-112380000D01*
G75*
G02*
X230025000Y-112430000I-50000J0D01*
G01*
X227425000Y-112430000D01*
G75*
G02*
X227375000Y-112380000I0J50000D01*
G01*
X227375000Y-109780000D01*
G75*
G02*
X227425000Y-109730000I50000J0D01*
G01*
X230025000Y-109730000D01*
G75*
G02*
X230075000Y-109780000I0J-50000D01*
G01*
G37*
X232000000Y-111080000D03*
D12*
X237000000Y-90330000D03*
D13*
X231500000Y-90330000D03*
X242500000Y-90330000D03*
X242000000Y-85180000D03*
D14*
X237000000Y-96280000D03*
G36*
G01*
X241625000Y-94980000D02*
X241625000Y-97580000D01*
G75*
G02*
X241575000Y-97630000I-50000J0D01*
G01*
X238975000Y-97630000D01*
G75*
G02*
X238925000Y-97580000I0J50000D01*
G01*
X238925000Y-94980000D01*
G75*
G02*
X238975000Y-94930000I50000J0D01*
G01*
X241575000Y-94930000D01*
G75*
G02*
X241625000Y-94980000I0J-50000D01*
G01*
G37*
G36*
G01*
X230075000Y-92780000D02*
X230075000Y-95380000D01*
G75*
G02*
X230025000Y-95430000I-50000J0D01*
G01*
X227425000Y-95430000D01*
G75*
G02*
X227375000Y-95380000I0J50000D01*
G01*
X227375000Y-92780000D01*
G75*
G02*
X227425000Y-92730000I50000J0D01*
G01*
X230025000Y-92730000D01*
G75*
G02*
X230075000Y-92780000I0J-50000D01*
G01*
G37*
X232000000Y-94080000D03*
D12*
X237000000Y-73330000D03*
D13*
X231500000Y-73330000D03*
X242500000Y-73330000D03*
X242000000Y-68180000D03*
D14*
X237000000Y-79280000D03*
G36*
G01*
X241625000Y-77980000D02*
X241625000Y-80580000D01*
G75*
G02*
X241575000Y-80630000I-50000J0D01*
G01*
X238975000Y-80630000D01*
G75*
G02*
X238925000Y-80580000I0J50000D01*
G01*
X238925000Y-77980000D01*
G75*
G02*
X238975000Y-77930000I50000J0D01*
G01*
X241575000Y-77930000D01*
G75*
G02*
X241625000Y-77980000I0J-50000D01*
G01*
G37*
G36*
G01*
X230075000Y-75780000D02*
X230075000Y-78380000D01*
G75*
G02*
X230025000Y-78430000I-50000J0D01*
G01*
X227425000Y-78430000D01*
G75*
G02*
X227375000Y-78380000I0J50000D01*
G01*
X227375000Y-75780000D01*
G75*
G02*
X227425000Y-75730000I50000J0D01*
G01*
X230025000Y-75730000D01*
G75*
G02*
X230075000Y-75780000I0J-50000D01*
G01*
G37*
X232000000Y-77080000D03*
D12*
X220000000Y-127730000D03*
D13*
X214500000Y-127730000D03*
X225500000Y-127730000D03*
X225000000Y-122580000D03*
D14*
X220000000Y-133680000D03*
G36*
G01*
X224625000Y-132380000D02*
X224625000Y-134980000D01*
G75*
G02*
X224575000Y-135030000I-50000J0D01*
G01*
X221975000Y-135030000D01*
G75*
G02*
X221925000Y-134980000I0J50000D01*
G01*
X221925000Y-132380000D01*
G75*
G02*
X221975000Y-132330000I50000J0D01*
G01*
X224575000Y-132330000D01*
G75*
G02*
X224625000Y-132380000I0J-50000D01*
G01*
G37*
G36*
G01*
X213075000Y-130180000D02*
X213075000Y-132780000D01*
G75*
G02*
X213025000Y-132830000I-50000J0D01*
G01*
X210425000Y-132830000D01*
G75*
G02*
X210375000Y-132780000I0J50000D01*
G01*
X210375000Y-130180000D01*
G75*
G02*
X210425000Y-130130000I50000J0D01*
G01*
X213025000Y-130130000D01*
G75*
G02*
X213075000Y-130180000I0J-50000D01*
G01*
G37*
X215000000Y-131480000D03*
D12*
X220000000Y-110730000D03*
D13*
X214500000Y-110730000D03*
X225500000Y-110730000D03*
X225000000Y-105580000D03*
D14*
X220000000Y-116680000D03*
G36*
G01*
X224625000Y-115380000D02*
X224625000Y-117980000D01*
G75*
G02*
X224575000Y-118030000I-50000J0D01*
G01*
X221975000Y-118030000D01*
G75*
G02*
X221925000Y-117980000I0J50000D01*
G01*
X221925000Y-115380000D01*
G75*
G02*
X221975000Y-115330000I50000J0D01*
G01*
X224575000Y-115330000D01*
G75*
G02*
X224625000Y-115380000I0J-50000D01*
G01*
G37*
G36*
G01*
X213075000Y-113180000D02*
X213075000Y-115780000D01*
G75*
G02*
X213025000Y-115830000I-50000J0D01*
G01*
X210425000Y-115830000D01*
G75*
G02*
X210375000Y-115780000I0J50000D01*
G01*
X210375000Y-113180000D01*
G75*
G02*
X210425000Y-113130000I50000J0D01*
G01*
X213025000Y-113130000D01*
G75*
G02*
X213075000Y-113180000I0J-50000D01*
G01*
G37*
X215000000Y-114480000D03*
D12*
X220000000Y-93730000D03*
D13*
X214500000Y-93730000D03*
X225500000Y-93730000D03*
X225000000Y-88580000D03*
D14*
X220000000Y-99680000D03*
G36*
G01*
X224625000Y-98380000D02*
X224625000Y-100980000D01*
G75*
G02*
X224575000Y-101030000I-50000J0D01*
G01*
X221975000Y-101030000D01*
G75*
G02*
X221925000Y-100980000I0J50000D01*
G01*
X221925000Y-98380000D01*
G75*
G02*
X221975000Y-98330000I50000J0D01*
G01*
X224575000Y-98330000D01*
G75*
G02*
X224625000Y-98380000I0J-50000D01*
G01*
G37*
G36*
G01*
X213075000Y-96180000D02*
X213075000Y-98780000D01*
G75*
G02*
X213025000Y-98830000I-50000J0D01*
G01*
X210425000Y-98830000D01*
G75*
G02*
X210375000Y-98780000I0J50000D01*
G01*
X210375000Y-96180000D01*
G75*
G02*
X210425000Y-96130000I50000J0D01*
G01*
X213025000Y-96130000D01*
G75*
G02*
X213075000Y-96180000I0J-50000D01*
G01*
G37*
X215000000Y-97480000D03*
D12*
X220000000Y-76730000D03*
D13*
X214500000Y-76730000D03*
X225500000Y-76730000D03*
X225000000Y-71580000D03*
D14*
X220000000Y-82680000D03*
G36*
G01*
X224625000Y-81380000D02*
X224625000Y-83980000D01*
G75*
G02*
X224575000Y-84030000I-50000J0D01*
G01*
X221975000Y-84030000D01*
G75*
G02*
X221925000Y-83980000I0J50000D01*
G01*
X221925000Y-81380000D01*
G75*
G02*
X221975000Y-81330000I50000J0D01*
G01*
X224575000Y-81330000D01*
G75*
G02*
X224625000Y-81380000I0J-50000D01*
G01*
G37*
G36*
G01*
X213075000Y-79180000D02*
X213075000Y-81780000D01*
G75*
G02*
X213025000Y-81830000I-50000J0D01*
G01*
X210425000Y-81830000D01*
G75*
G02*
X210375000Y-81780000I0J50000D01*
G01*
X210375000Y-79180000D01*
G75*
G02*
X210425000Y-79130000I50000J0D01*
G01*
X213025000Y-79130000D01*
G75*
G02*
X213075000Y-79180000I0J-50000D01*
G01*
G37*
X215000000Y-80480000D03*
D12*
X203000000Y-124330000D03*
D13*
X197500000Y-124330000D03*
X208500000Y-124330000D03*
X208000000Y-119180000D03*
D14*
X203000000Y-130280000D03*
G36*
G01*
X207625000Y-128980000D02*
X207625000Y-131580000D01*
G75*
G02*
X207575000Y-131630000I-50000J0D01*
G01*
X204975000Y-131630000D01*
G75*
G02*
X204925000Y-131580000I0J50000D01*
G01*
X204925000Y-128980000D01*
G75*
G02*
X204975000Y-128930000I50000J0D01*
G01*
X207575000Y-128930000D01*
G75*
G02*
X207625000Y-128980000I0J-50000D01*
G01*
G37*
G36*
G01*
X196075000Y-126780000D02*
X196075000Y-129380000D01*
G75*
G02*
X196025000Y-129430000I-50000J0D01*
G01*
X193425000Y-129430000D01*
G75*
G02*
X193375000Y-129380000I0J50000D01*
G01*
X193375000Y-126780000D01*
G75*
G02*
X193425000Y-126730000I50000J0D01*
G01*
X196025000Y-126730000D01*
G75*
G02*
X196075000Y-126780000I0J-50000D01*
G01*
G37*
X198000000Y-128080000D03*
D12*
X203000000Y-107330000D03*
D13*
X197500000Y-107330000D03*
X208500000Y-107330000D03*
X208000000Y-102180000D03*
D14*
X203000000Y-113280000D03*
G36*
G01*
X207625000Y-111980000D02*
X207625000Y-114580000D01*
G75*
G02*
X207575000Y-114630000I-50000J0D01*
G01*
X204975000Y-114630000D01*
G75*
G02*
X204925000Y-114580000I0J50000D01*
G01*
X204925000Y-111980000D01*
G75*
G02*
X204975000Y-111930000I50000J0D01*
G01*
X207575000Y-111930000D01*
G75*
G02*
X207625000Y-111980000I0J-50000D01*
G01*
G37*
G36*
G01*
X196075000Y-109780000D02*
X196075000Y-112380000D01*
G75*
G02*
X196025000Y-112430000I-50000J0D01*
G01*
X193425000Y-112430000D01*
G75*
G02*
X193375000Y-112380000I0J50000D01*
G01*
X193375000Y-109780000D01*
G75*
G02*
X193425000Y-109730000I50000J0D01*
G01*
X196025000Y-109730000D01*
G75*
G02*
X196075000Y-109780000I0J-50000D01*
G01*
G37*
X198000000Y-111080000D03*
D12*
X203000000Y-90330000D03*
D13*
X197500000Y-90330000D03*
X208500000Y-90330000D03*
X208000000Y-85180000D03*
D14*
X203000000Y-96280000D03*
G36*
G01*
X207625000Y-94980000D02*
X207625000Y-97580000D01*
G75*
G02*
X207575000Y-97630000I-50000J0D01*
G01*
X204975000Y-97630000D01*
G75*
G02*
X204925000Y-97580000I0J50000D01*
G01*
X204925000Y-94980000D01*
G75*
G02*
X204975000Y-94930000I50000J0D01*
G01*
X207575000Y-94930000D01*
G75*
G02*
X207625000Y-94980000I0J-50000D01*
G01*
G37*
G36*
G01*
X196075000Y-92780000D02*
X196075000Y-95380000D01*
G75*
G02*
X196025000Y-95430000I-50000J0D01*
G01*
X193425000Y-95430000D01*
G75*
G02*
X193375000Y-95380000I0J50000D01*
G01*
X193375000Y-92780000D01*
G75*
G02*
X193425000Y-92730000I50000J0D01*
G01*
X196025000Y-92730000D01*
G75*
G02*
X196075000Y-92780000I0J-50000D01*
G01*
G37*
X198000000Y-94080000D03*
D12*
X231220000Y-144730000D03*
D13*
X225803557Y-145685065D03*
X236636443Y-143774935D03*
X235249751Y-138789999D03*
D14*
X232253207Y-150589606D03*
G36*
G01*
X236582199Y-148506233D02*
X237033685Y-151066733D01*
G75*
G02*
X236993127Y-151124655I-49240J-8682D01*
G01*
X234432627Y-151576141D01*
G75*
G02*
X234374705Y-151535583I-8682J49240D01*
G01*
X233923219Y-148975083D01*
G75*
G02*
X233963777Y-148917161I49240J8682D01*
G01*
X236524277Y-148465675D01*
G75*
G02*
X236582199Y-148506233I8682J-49240D01*
G01*
G37*
G36*
G01*
X224825644Y-148345293D02*
X225277130Y-150905793D01*
G75*
G02*
X225236572Y-150963715I-49240J-8682D01*
G01*
X222676072Y-151415201D01*
G75*
G02*
X222618150Y-151374643I-8682J49240D01*
G01*
X222166664Y-148814143D01*
G75*
G02*
X222207222Y-148756221I49240J8682D01*
G01*
X224767722Y-148304735D01*
G75*
G02*
X224825644Y-148345293I8682J-49240D01*
G01*
G37*
X226947142Y-149291270D03*
D12*
X213029272Y-150465514D03*
D13*
X208044579Y-152789914D03*
X218013965Y-148141114D03*
X215384327Y-143684938D03*
D14*
X215543851Y-155858045D03*
G36*
G01*
X219186120Y-152725236D02*
X220284928Y-155081636D01*
G75*
G02*
X220260744Y-155148082I-45315J-21131D01*
G01*
X217904344Y-156246890D01*
G75*
G02*
X217837898Y-156222706I-21131J45315D01*
G01*
X216739090Y-153866306D01*
G75*
G02*
X216763274Y-153799860I45315J21131D01*
G01*
X219119674Y-152701052D01*
G75*
G02*
X219186120Y-152725236I21131J-45315D01*
G01*
G37*
G36*
G01*
X207788505Y-155612599D02*
X208887313Y-157968999D01*
G75*
G02*
X208863129Y-158035445I-45315J-21131D01*
G01*
X206506729Y-159134253D01*
G75*
G02*
X206440283Y-159110069I-21131J45315D01*
G01*
X205341475Y-156753669D01*
G75*
G02*
X205365659Y-156687223I45315J21131D01*
G01*
X207722059Y-155588415D01*
G75*
G02*
X207788505Y-155612599I21131J-45315D01*
G01*
G37*
X210082552Y-155977260D03*
D12*
X197306695Y-158650170D03*
D13*
X192543555Y-161400170D03*
X202069835Y-155900170D03*
X199061822Y-151690139D03*
D14*
X200281695Y-163803021D03*
G36*
G01*
X203637062Y-160364688D02*
X204937062Y-162616354D01*
G75*
G02*
X204918761Y-162684655I-43301J-25000D01*
G01*
X202667095Y-163984655D01*
G75*
G02*
X202598794Y-163966354I-25000J43301D01*
G01*
X201298794Y-161714688D01*
G75*
G02*
X201317095Y-161646387I43301J25000D01*
G01*
X203568761Y-160346387D01*
G75*
G02*
X203637062Y-160364688I25000J-43301D01*
G01*
G37*
G36*
G01*
X192534469Y-164234432D02*
X193834469Y-166486098D01*
G75*
G02*
X193816168Y-166554399I-43301J-25000D01*
G01*
X191564502Y-167854399D01*
G75*
G02*
X191496201Y-167836098I-25000J43301D01*
G01*
X190196201Y-165584432D01*
G75*
G02*
X190214502Y-165516131I43301J25000D01*
G01*
X192466168Y-164216131D01*
G75*
G02*
X192534469Y-164234432I25000J-43301D01*
G01*
G37*
X194851568Y-164397765D03*
D15*
X267950000Y-40150000D03*
X267950000Y-55390000D03*
X265410000Y-40150000D03*
X265410000Y-55390000D03*
X262870000Y-40150000D03*
X262870000Y-55390000D03*
X260330000Y-40150000D03*
X260330000Y-55390000D03*
X257790000Y-40150000D03*
X257790000Y-55390000D03*
X255250000Y-40150000D03*
X255250000Y-55390000D03*
X252710000Y-40150000D03*
X252710000Y-55390000D03*
X250170000Y-40150000D03*
X250170000Y-55390000D03*
X247630000Y-40150000D03*
X247630000Y-55390000D03*
X245090000Y-40150000D03*
X245090000Y-55390000D03*
X242550000Y-40150000D03*
X242550000Y-55390000D03*
X240010000Y-40150000D03*
X240010000Y-55390000D03*
X242550000Y-52850000D03*
X242550000Y-50310000D03*
X242550000Y-47770000D03*
G36*
G01*
X223665000Y-59420000D02*
X222335000Y-59420000D01*
G75*
G02*
X222075000Y-59160000I0J260000D01*
G01*
X222075000Y-58380000D01*
G75*
G02*
X222335000Y-58120000I260000J0D01*
G01*
X223665000Y-58120000D01*
G75*
G02*
X223925000Y-58380000I0J-260000D01*
G01*
X223925000Y-59160000D01*
G75*
G02*
X223665000Y-59420000I-260000J0D01*
G01*
G37*
D16*
X223000000Y-56770000D03*
D17*
X227500000Y-39745000D03*
X230500000Y-39745000D03*
%LPD*%
M02*
