G04 #@! TF.GenerationSoftware,KiCad,Pcbnew,9.0.7+1*
G04 #@! TF.CreationDate,2026-02-15T05:04:06+00:00*
G04 #@! TF.ProjectId,right_pcb,72696768-745f-4706-9362-2e6b69636164,v0.2*
G04 #@! TF.SameCoordinates,Original*
G04 #@! TF.FileFunction,Soldermask,Bot*
G04 #@! TF.FilePolarity,Negative*
%FSLAX46Y46*%
G04 Gerber Fmt 4.6, Leading zero omitted, Abs format (unit mm)*
G04 Created by KiCad (PCBNEW 9.0.7+1) date 2026-02-15 05:04:06*
%MOMM*%
%LPD*%
G01*
G04 APERTURE LIST*
%ADD10C,5.100000*%
%ADD11C,2.000000*%
%ADD12C,3.100000*%
%ADD13C,1.800000*%
%ADD14O,1.850000X1.300000*%
%ADD15C,1.000000*%
G04 APERTURE END LIST*
D10*
X305000000Y-133000000D03*
D11*
X299500000Y-133000000D03*
X310500000Y-133000000D03*
X310000000Y-127850000D03*
D12*
X305000000Y-138950000D03*
G36*
G01*
X309625000Y-137650000D02*
X309625000Y-140250000D01*
G75*
G02*
X309575000Y-140300000I-50000J0D01*
G01*
X306975000Y-140300000D01*
G75*
G02*
X306925000Y-140250000I0J50000D01*
G01*
X306925000Y-137650000D01*
G75*
G02*
X306975000Y-137600000I50000J0D01*
G01*
X309575000Y-137600000D01*
G75*
G02*
X309625000Y-137650000I0J-50000D01*
G01*
G37*
G36*
G01*
X298075000Y-135450000D02*
X298075000Y-138050000D01*
G75*
G02*
X298025000Y-138100000I-50000J0D01*
G01*
X295425000Y-138100000D01*
G75*
G02*
X295375000Y-138050000I0J50000D01*
G01*
X295375000Y-135450000D01*
G75*
G02*
X295425000Y-135400000I50000J0D01*
G01*
X298025000Y-135400000D01*
G75*
G02*
X298075000Y-135450000I0J-50000D01*
G01*
G37*
X300000000Y-136750000D03*
D10*
X305000000Y-116000000D03*
D11*
X299500000Y-116000000D03*
X310500000Y-116000000D03*
X310000000Y-110850000D03*
D12*
X305000000Y-121950000D03*
G36*
G01*
X309625000Y-120650000D02*
X309625000Y-123250000D01*
G75*
G02*
X309575000Y-123300000I-50000J0D01*
G01*
X306975000Y-123300000D01*
G75*
G02*
X306925000Y-123250000I0J50000D01*
G01*
X306925000Y-120650000D01*
G75*
G02*
X306975000Y-120600000I50000J0D01*
G01*
X309575000Y-120600000D01*
G75*
G02*
X309625000Y-120650000I0J-50000D01*
G01*
G37*
G36*
G01*
X298075000Y-118450000D02*
X298075000Y-121050000D01*
G75*
G02*
X298025000Y-121100000I-50000J0D01*
G01*
X295425000Y-121100000D01*
G75*
G02*
X295375000Y-121050000I0J50000D01*
G01*
X295375000Y-118450000D01*
G75*
G02*
X295425000Y-118400000I50000J0D01*
G01*
X298025000Y-118400000D01*
G75*
G02*
X298075000Y-118450000I0J-50000D01*
G01*
G37*
X300000000Y-119750000D03*
D10*
X305000000Y-99000000D03*
D11*
X299500000Y-99000000D03*
X310500000Y-99000000D03*
X310000000Y-93850000D03*
D12*
X305000000Y-104950000D03*
G36*
G01*
X309625000Y-103650000D02*
X309625000Y-106250000D01*
G75*
G02*
X309575000Y-106300000I-50000J0D01*
G01*
X306975000Y-106300000D01*
G75*
G02*
X306925000Y-106250000I0J50000D01*
G01*
X306925000Y-103650000D01*
G75*
G02*
X306975000Y-103600000I50000J0D01*
G01*
X309575000Y-103600000D01*
G75*
G02*
X309625000Y-103650000I0J-50000D01*
G01*
G37*
G36*
G01*
X298075000Y-101450000D02*
X298075000Y-104050000D01*
G75*
G02*
X298025000Y-104100000I-50000J0D01*
G01*
X295425000Y-104100000D01*
G75*
G02*
X295375000Y-104050000I0J50000D01*
G01*
X295375000Y-101450000D01*
G75*
G02*
X295425000Y-101400000I50000J0D01*
G01*
X298025000Y-101400000D01*
G75*
G02*
X298075000Y-101450000I0J-50000D01*
G01*
G37*
X300000000Y-102750000D03*
D10*
X305000000Y-82000000D03*
D11*
X299500000Y-82000000D03*
X310500000Y-82000000D03*
X310000000Y-76850000D03*
D12*
X305000000Y-87950000D03*
G36*
G01*
X309625000Y-86650000D02*
X309625000Y-89250000D01*
G75*
G02*
X309575000Y-89300000I-50000J0D01*
G01*
X306975000Y-89300000D01*
G75*
G02*
X306925000Y-89250000I0J50000D01*
G01*
X306925000Y-86650000D01*
G75*
G02*
X306975000Y-86600000I50000J0D01*
G01*
X309575000Y-86600000D01*
G75*
G02*
X309625000Y-86650000I0J-50000D01*
G01*
G37*
G36*
G01*
X298075000Y-84450000D02*
X298075000Y-87050000D01*
G75*
G02*
X298025000Y-87100000I-50000J0D01*
G01*
X295425000Y-87100000D01*
G75*
G02*
X295375000Y-87050000I0J50000D01*
G01*
X295375000Y-84450000D01*
G75*
G02*
X295425000Y-84400000I50000J0D01*
G01*
X298025000Y-84400000D01*
G75*
G02*
X298075000Y-84450000I0J-50000D01*
G01*
G37*
X300000000Y-85750000D03*
D10*
X288000000Y-145750000D03*
D11*
X282500000Y-145750000D03*
X293500000Y-145750000D03*
X293000000Y-140600000D03*
D12*
X288000000Y-151700000D03*
G36*
G01*
X292625000Y-150400000D02*
X292625000Y-153000000D01*
G75*
G02*
X292575000Y-153050000I-50000J0D01*
G01*
X289975000Y-153050000D01*
G75*
G02*
X289925000Y-153000000I0J50000D01*
G01*
X289925000Y-150400000D01*
G75*
G02*
X289975000Y-150350000I50000J0D01*
G01*
X292575000Y-150350000D01*
G75*
G02*
X292625000Y-150400000I0J-50000D01*
G01*
G37*
G36*
G01*
X281075000Y-148200000D02*
X281075000Y-150800000D01*
G75*
G02*
X281025000Y-150850000I-50000J0D01*
G01*
X278425000Y-150850000D01*
G75*
G02*
X278375000Y-150800000I0J50000D01*
G01*
X278375000Y-148200000D01*
G75*
G02*
X278425000Y-148150000I50000J0D01*
G01*
X281025000Y-148150000D01*
G75*
G02*
X281075000Y-148200000I0J-50000D01*
G01*
G37*
X283000000Y-149500000D03*
D10*
X288000000Y-128750000D03*
D11*
X282500000Y-128750000D03*
X293500000Y-128750000D03*
X293000000Y-123600000D03*
D12*
X288000000Y-134700000D03*
G36*
G01*
X292625000Y-133400000D02*
X292625000Y-136000000D01*
G75*
G02*
X292575000Y-136050000I-50000J0D01*
G01*
X289975000Y-136050000D01*
G75*
G02*
X289925000Y-136000000I0J50000D01*
G01*
X289925000Y-133400000D01*
G75*
G02*
X289975000Y-133350000I50000J0D01*
G01*
X292575000Y-133350000D01*
G75*
G02*
X292625000Y-133400000I0J-50000D01*
G01*
G37*
G36*
G01*
X281075000Y-131200000D02*
X281075000Y-133800000D01*
G75*
G02*
X281025000Y-133850000I-50000J0D01*
G01*
X278425000Y-133850000D01*
G75*
G02*
X278375000Y-133800000I0J50000D01*
G01*
X278375000Y-131200000D01*
G75*
G02*
X278425000Y-131150000I50000J0D01*
G01*
X281025000Y-131150000D01*
G75*
G02*
X281075000Y-131200000I0J-50000D01*
G01*
G37*
X283000000Y-132500000D03*
D10*
X288000000Y-111750000D03*
D11*
X282500000Y-111750000D03*
X293500000Y-111750000D03*
X293000000Y-106600000D03*
D12*
X288000000Y-117700000D03*
G36*
G01*
X292625000Y-116400000D02*
X292625000Y-119000000D01*
G75*
G02*
X292575000Y-119050000I-50000J0D01*
G01*
X289975000Y-119050000D01*
G75*
G02*
X289925000Y-119000000I0J50000D01*
G01*
X289925000Y-116400000D01*
G75*
G02*
X289975000Y-116350000I50000J0D01*
G01*
X292575000Y-116350000D01*
G75*
G02*
X292625000Y-116400000I0J-50000D01*
G01*
G37*
G36*
G01*
X281075000Y-114200000D02*
X281075000Y-116800000D01*
G75*
G02*
X281025000Y-116850000I-50000J0D01*
G01*
X278425000Y-116850000D01*
G75*
G02*
X278375000Y-116800000I0J50000D01*
G01*
X278375000Y-114200000D01*
G75*
G02*
X278425000Y-114150000I50000J0D01*
G01*
X281025000Y-114150000D01*
G75*
G02*
X281075000Y-114200000I0J-50000D01*
G01*
G37*
X283000000Y-115500000D03*
D10*
X288000000Y-94750000D03*
D11*
X282500000Y-94750000D03*
X293500000Y-94750000D03*
X293000000Y-89600000D03*
D12*
X288000000Y-100700000D03*
G36*
G01*
X292625000Y-99400000D02*
X292625000Y-102000000D01*
G75*
G02*
X292575000Y-102050000I-50000J0D01*
G01*
X289975000Y-102050000D01*
G75*
G02*
X289925000Y-102000000I0J50000D01*
G01*
X289925000Y-99400000D01*
G75*
G02*
X289975000Y-99350000I50000J0D01*
G01*
X292575000Y-99350000D01*
G75*
G02*
X292625000Y-99400000I0J-50000D01*
G01*
G37*
G36*
G01*
X281075000Y-97200000D02*
X281075000Y-99800000D01*
G75*
G02*
X281025000Y-99850000I-50000J0D01*
G01*
X278425000Y-99850000D01*
G75*
G02*
X278375000Y-99800000I0J50000D01*
G01*
X278375000Y-97200000D01*
G75*
G02*
X278425000Y-97150000I50000J0D01*
G01*
X281025000Y-97150000D01*
G75*
G02*
X281075000Y-97200000I0J-50000D01*
G01*
G37*
X283000000Y-98500000D03*
D10*
X288000000Y-77750000D03*
D11*
X282500000Y-77750000D03*
X293500000Y-77750000D03*
X293000000Y-72600000D03*
D12*
X288000000Y-83700000D03*
G36*
G01*
X292625000Y-82400000D02*
X292625000Y-85000000D01*
G75*
G02*
X292575000Y-85050000I-50000J0D01*
G01*
X289975000Y-85050000D01*
G75*
G02*
X289925000Y-85000000I0J50000D01*
G01*
X289925000Y-82400000D01*
G75*
G02*
X289975000Y-82350000I50000J0D01*
G01*
X292575000Y-82350000D01*
G75*
G02*
X292625000Y-82400000I0J-50000D01*
G01*
G37*
G36*
G01*
X281075000Y-80200000D02*
X281075000Y-82800000D01*
G75*
G02*
X281025000Y-82850000I-50000J0D01*
G01*
X278425000Y-82850000D01*
G75*
G02*
X278375000Y-82800000I0J50000D01*
G01*
X278375000Y-80200000D01*
G75*
G02*
X278425000Y-80150000I50000J0D01*
G01*
X281025000Y-80150000D01*
G75*
G02*
X281075000Y-80200000I0J-50000D01*
G01*
G37*
X283000000Y-81500000D03*
D10*
X271000000Y-134530000D03*
D11*
X265500000Y-134530000D03*
X276500000Y-134530000D03*
X276000000Y-129380000D03*
D12*
X271000000Y-140480000D03*
G36*
G01*
X275625000Y-139180000D02*
X275625000Y-141780000D01*
G75*
G02*
X275575000Y-141830000I-50000J0D01*
G01*
X272975000Y-141830000D01*
G75*
G02*
X272925000Y-141780000I0J50000D01*
G01*
X272925000Y-139180000D01*
G75*
G02*
X272975000Y-139130000I50000J0D01*
G01*
X275575000Y-139130000D01*
G75*
G02*
X275625000Y-139180000I0J-50000D01*
G01*
G37*
G36*
G01*
X264075000Y-136980000D02*
X264075000Y-139580000D01*
G75*
G02*
X264025000Y-139630000I-50000J0D01*
G01*
X261425000Y-139630000D01*
G75*
G02*
X261375000Y-139580000I0J50000D01*
G01*
X261375000Y-136980000D01*
G75*
G02*
X261425000Y-136930000I50000J0D01*
G01*
X264025000Y-136930000D01*
G75*
G02*
X264075000Y-136980000I0J-50000D01*
G01*
G37*
X266000000Y-138280000D03*
D10*
X271000000Y-117530000D03*
D11*
X265500000Y-117530000D03*
X276500000Y-117530000D03*
X276000000Y-112380000D03*
D12*
X271000000Y-123480000D03*
G36*
G01*
X275625000Y-122180000D02*
X275625000Y-124780000D01*
G75*
G02*
X275575000Y-124830000I-50000J0D01*
G01*
X272975000Y-124830000D01*
G75*
G02*
X272925000Y-124780000I0J50000D01*
G01*
X272925000Y-122180000D01*
G75*
G02*
X272975000Y-122130000I50000J0D01*
G01*
X275575000Y-122130000D01*
G75*
G02*
X275625000Y-122180000I0J-50000D01*
G01*
G37*
G36*
G01*
X264075000Y-119980000D02*
X264075000Y-122580000D01*
G75*
G02*
X264025000Y-122630000I-50000J0D01*
G01*
X261425000Y-122630000D01*
G75*
G02*
X261375000Y-122580000I0J50000D01*
G01*
X261375000Y-119980000D01*
G75*
G02*
X261425000Y-119930000I50000J0D01*
G01*
X264025000Y-119930000D01*
G75*
G02*
X264075000Y-119980000I0J-50000D01*
G01*
G37*
X266000000Y-121280000D03*
D10*
X271000000Y-100530000D03*
D11*
X265500000Y-100530000D03*
X276500000Y-100530000D03*
X276000000Y-95380000D03*
D12*
X271000000Y-106480000D03*
G36*
G01*
X275625000Y-105180000D02*
X275625000Y-107780000D01*
G75*
G02*
X275575000Y-107830000I-50000J0D01*
G01*
X272975000Y-107830000D01*
G75*
G02*
X272925000Y-107780000I0J50000D01*
G01*
X272925000Y-105180000D01*
G75*
G02*
X272975000Y-105130000I50000J0D01*
G01*
X275575000Y-105130000D01*
G75*
G02*
X275625000Y-105180000I0J-50000D01*
G01*
G37*
G36*
G01*
X264075000Y-102980000D02*
X264075000Y-105580000D01*
G75*
G02*
X264025000Y-105630000I-50000J0D01*
G01*
X261425000Y-105630000D01*
G75*
G02*
X261375000Y-105580000I0J50000D01*
G01*
X261375000Y-102980000D01*
G75*
G02*
X261425000Y-102930000I50000J0D01*
G01*
X264025000Y-102930000D01*
G75*
G02*
X264075000Y-102980000I0J-50000D01*
G01*
G37*
X266000000Y-104280000D03*
D10*
X271000000Y-83530000D03*
D11*
X265500000Y-83530000D03*
X276500000Y-83530000D03*
X276000000Y-78380000D03*
D12*
X271000000Y-89480000D03*
G36*
G01*
X275625000Y-88180000D02*
X275625000Y-90780000D01*
G75*
G02*
X275575000Y-90830000I-50000J0D01*
G01*
X272975000Y-90830000D01*
G75*
G02*
X272925000Y-90780000I0J50000D01*
G01*
X272925000Y-88180000D01*
G75*
G02*
X272975000Y-88130000I50000J0D01*
G01*
X275575000Y-88130000D01*
G75*
G02*
X275625000Y-88180000I0J-50000D01*
G01*
G37*
G36*
G01*
X264075000Y-85980000D02*
X264075000Y-88580000D01*
G75*
G02*
X264025000Y-88630000I-50000J0D01*
G01*
X261425000Y-88630000D01*
G75*
G02*
X261375000Y-88580000I0J50000D01*
G01*
X261375000Y-85980000D01*
G75*
G02*
X261425000Y-85930000I50000J0D01*
G01*
X264025000Y-85930000D01*
G75*
G02*
X264075000Y-85980000I0J-50000D01*
G01*
G37*
X266000000Y-87280000D03*
D10*
X271000000Y-66530000D03*
D11*
X265500000Y-66530000D03*
X276500000Y-66530000D03*
X276000000Y-61380000D03*
D12*
X271000000Y-72480000D03*
G36*
G01*
X275625000Y-71180000D02*
X275625000Y-73780000D01*
G75*
G02*
X275575000Y-73830000I-50000J0D01*
G01*
X272975000Y-73830000D01*
G75*
G02*
X272925000Y-73780000I0J50000D01*
G01*
X272925000Y-71180000D01*
G75*
G02*
X272975000Y-71130000I50000J0D01*
G01*
X275575000Y-71130000D01*
G75*
G02*
X275625000Y-71180000I0J-50000D01*
G01*
G37*
G36*
G01*
X264075000Y-68980000D02*
X264075000Y-71580000D01*
G75*
G02*
X264025000Y-71630000I-50000J0D01*
G01*
X261425000Y-71630000D01*
G75*
G02*
X261375000Y-71580000I0J50000D01*
G01*
X261375000Y-68980000D01*
G75*
G02*
X261425000Y-68930000I50000J0D01*
G01*
X264025000Y-68930000D01*
G75*
G02*
X264075000Y-68980000I0J-50000D01*
G01*
G37*
X266000000Y-70280000D03*
D10*
X254000000Y-121780000D03*
D11*
X248500000Y-121780000D03*
X259500000Y-121780000D03*
X259000000Y-116630000D03*
D12*
X254000000Y-127730000D03*
G36*
G01*
X258625000Y-126430000D02*
X258625000Y-129030000D01*
G75*
G02*
X258575000Y-129080000I-50000J0D01*
G01*
X255975000Y-129080000D01*
G75*
G02*
X255925000Y-129030000I0J50000D01*
G01*
X255925000Y-126430000D01*
G75*
G02*
X255975000Y-126380000I50000J0D01*
G01*
X258575000Y-126380000D01*
G75*
G02*
X258625000Y-126430000I0J-50000D01*
G01*
G37*
G36*
G01*
X247075000Y-124230000D02*
X247075000Y-126830000D01*
G75*
G02*
X247025000Y-126880000I-50000J0D01*
G01*
X244425000Y-126880000D01*
G75*
G02*
X244375000Y-126830000I0J50000D01*
G01*
X244375000Y-124230000D01*
G75*
G02*
X244425000Y-124180000I50000J0D01*
G01*
X247025000Y-124180000D01*
G75*
G02*
X247075000Y-124230000I0J-50000D01*
G01*
G37*
X249000000Y-125530000D03*
D10*
X254000000Y-104780000D03*
D11*
X248500000Y-104780000D03*
X259500000Y-104780000D03*
X259000000Y-99630000D03*
D12*
X254000000Y-110730000D03*
G36*
G01*
X258625000Y-109430000D02*
X258625000Y-112030000D01*
G75*
G02*
X258575000Y-112080000I-50000J0D01*
G01*
X255975000Y-112080000D01*
G75*
G02*
X255925000Y-112030000I0J50000D01*
G01*
X255925000Y-109430000D01*
G75*
G02*
X255975000Y-109380000I50000J0D01*
G01*
X258575000Y-109380000D01*
G75*
G02*
X258625000Y-109430000I0J-50000D01*
G01*
G37*
G36*
G01*
X247075000Y-107230000D02*
X247075000Y-109830000D01*
G75*
G02*
X247025000Y-109880000I-50000J0D01*
G01*
X244425000Y-109880000D01*
G75*
G02*
X244375000Y-109830000I0J50000D01*
G01*
X244375000Y-107230000D01*
G75*
G02*
X244425000Y-107180000I50000J0D01*
G01*
X247025000Y-107180000D01*
G75*
G02*
X247075000Y-107230000I0J-50000D01*
G01*
G37*
X249000000Y-108530000D03*
D10*
X254000000Y-87780000D03*
D11*
X248500000Y-87780000D03*
X259500000Y-87780000D03*
X259000000Y-82630000D03*
D12*
X254000000Y-93730000D03*
G36*
G01*
X258625000Y-92430000D02*
X258625000Y-95030000D01*
G75*
G02*
X258575000Y-95080000I-50000J0D01*
G01*
X255975000Y-95080000D01*
G75*
G02*
X255925000Y-95030000I0J50000D01*
G01*
X255925000Y-92430000D01*
G75*
G02*
X255975000Y-92380000I50000J0D01*
G01*
X258575000Y-92380000D01*
G75*
G02*
X258625000Y-92430000I0J-50000D01*
G01*
G37*
G36*
G01*
X247075000Y-90230000D02*
X247075000Y-92830000D01*
G75*
G02*
X247025000Y-92880000I-50000J0D01*
G01*
X244425000Y-92880000D01*
G75*
G02*
X244375000Y-92830000I0J50000D01*
G01*
X244375000Y-90230000D01*
G75*
G02*
X244425000Y-90180000I50000J0D01*
G01*
X247025000Y-90180000D01*
G75*
G02*
X247075000Y-90230000I0J-50000D01*
G01*
G37*
X249000000Y-91530000D03*
D10*
X254000000Y-70780000D03*
D11*
X248500000Y-70780000D03*
X259500000Y-70780000D03*
X259000000Y-65630000D03*
D12*
X254000000Y-76730000D03*
G36*
G01*
X258625000Y-75430000D02*
X258625000Y-78030000D01*
G75*
G02*
X258575000Y-78080000I-50000J0D01*
G01*
X255975000Y-78080000D01*
G75*
G02*
X255925000Y-78030000I0J50000D01*
G01*
X255925000Y-75430000D01*
G75*
G02*
X255975000Y-75380000I50000J0D01*
G01*
X258575000Y-75380000D01*
G75*
G02*
X258625000Y-75430000I0J-50000D01*
G01*
G37*
G36*
G01*
X247075000Y-73230000D02*
X247075000Y-75830000D01*
G75*
G02*
X247025000Y-75880000I-50000J0D01*
G01*
X244425000Y-75880000D01*
G75*
G02*
X244375000Y-75830000I0J50000D01*
G01*
X244375000Y-73230000D01*
G75*
G02*
X244425000Y-73180000I50000J0D01*
G01*
X247025000Y-73180000D01*
G75*
G02*
X247075000Y-73230000I0J-50000D01*
G01*
G37*
X249000000Y-74530000D03*
D10*
X237000000Y-124330000D03*
D11*
X231500000Y-124330000D03*
X242500000Y-124330000D03*
X242000000Y-119180000D03*
D12*
X237000000Y-130280000D03*
G36*
G01*
X241625000Y-128980000D02*
X241625000Y-131580000D01*
G75*
G02*
X241575000Y-131630000I-50000J0D01*
G01*
X238975000Y-131630000D01*
G75*
G02*
X238925000Y-131580000I0J50000D01*
G01*
X238925000Y-128980000D01*
G75*
G02*
X238975000Y-128930000I50000J0D01*
G01*
X241575000Y-128930000D01*
G75*
G02*
X241625000Y-128980000I0J-50000D01*
G01*
G37*
G36*
G01*
X230075000Y-126780000D02*
X230075000Y-129380000D01*
G75*
G02*
X230025000Y-129430000I-50000J0D01*
G01*
X227425000Y-129430000D01*
G75*
G02*
X227375000Y-129380000I0J50000D01*
G01*
X227375000Y-126780000D01*
G75*
G02*
X227425000Y-126730000I50000J0D01*
G01*
X230025000Y-126730000D01*
G75*
G02*
X230075000Y-126780000I0J-50000D01*
G01*
G37*
X232000000Y-128080000D03*
D10*
X237000000Y-107330000D03*
D11*
X231500000Y-107330000D03*
X242500000Y-107330000D03*
X242000000Y-102180000D03*
D12*
X237000000Y-113280000D03*
G36*
G01*
X241625000Y-111980000D02*
X241625000Y-114580000D01*
G75*
G02*
X241575000Y-114630000I-50000J0D01*
G01*
X238975000Y-114630000D01*
G75*
G02*
X238925000Y-114580000I0J50000D01*
G01*
X238925000Y-111980000D01*
G75*
G02*
X238975000Y-111930000I50000J0D01*
G01*
X241575000Y-111930000D01*
G75*
G02*
X241625000Y-111980000I0J-50000D01*
G01*
G37*
G36*
G01*
X230075000Y-109780000D02*
X230075000Y-112380000D01*
G75*
G02*
X230025000Y-112430000I-50000J0D01*
G01*
X227425000Y-112430000D01*
G75*
G02*
X227375000Y-112380000I0J50000D01*
G01*
X227375000Y-109780000D01*
G75*
G02*
X227425000Y-109730000I50000J0D01*
G01*
X230025000Y-109730000D01*
G75*
G02*
X230075000Y-109780000I0J-50000D01*
G01*
G37*
X232000000Y-111080000D03*
D10*
X237000000Y-90330000D03*
D11*
X231500000Y-90330000D03*
X242500000Y-90330000D03*
X242000000Y-85180000D03*
D12*
X237000000Y-96280000D03*
G36*
G01*
X241625000Y-94980000D02*
X241625000Y-97580000D01*
G75*
G02*
X241575000Y-97630000I-50000J0D01*
G01*
X238975000Y-97630000D01*
G75*
G02*
X238925000Y-97580000I0J50000D01*
G01*
X238925000Y-94980000D01*
G75*
G02*
X238975000Y-94930000I50000J0D01*
G01*
X241575000Y-94930000D01*
G75*
G02*
X241625000Y-94980000I0J-50000D01*
G01*
G37*
G36*
G01*
X230075000Y-92780000D02*
X230075000Y-95380000D01*
G75*
G02*
X230025000Y-95430000I-50000J0D01*
G01*
X227425000Y-95430000D01*
G75*
G02*
X227375000Y-95380000I0J50000D01*
G01*
X227375000Y-92780000D01*
G75*
G02*
X227425000Y-92730000I50000J0D01*
G01*
X230025000Y-92730000D01*
G75*
G02*
X230075000Y-92780000I0J-50000D01*
G01*
G37*
X232000000Y-94080000D03*
D10*
X237000000Y-73330000D03*
D11*
X231500000Y-73330000D03*
X242500000Y-73330000D03*
X242000000Y-68180000D03*
D12*
X237000000Y-79280000D03*
G36*
G01*
X241625000Y-77980000D02*
X241625000Y-80580000D01*
G75*
G02*
X241575000Y-80630000I-50000J0D01*
G01*
X238975000Y-80630000D01*
G75*
G02*
X238925000Y-80580000I0J50000D01*
G01*
X238925000Y-77980000D01*
G75*
G02*
X238975000Y-77930000I50000J0D01*
G01*
X241575000Y-77930000D01*
G75*
G02*
X241625000Y-77980000I0J-50000D01*
G01*
G37*
G36*
G01*
X230075000Y-75780000D02*
X230075000Y-78380000D01*
G75*
G02*
X230025000Y-78430000I-50000J0D01*
G01*
X227425000Y-78430000D01*
G75*
G02*
X227375000Y-78380000I0J50000D01*
G01*
X227375000Y-75780000D01*
G75*
G02*
X227425000Y-75730000I50000J0D01*
G01*
X230025000Y-75730000D01*
G75*
G02*
X230075000Y-75780000I0J-50000D01*
G01*
G37*
X232000000Y-77080000D03*
D10*
X220000000Y-127730000D03*
D11*
X214500000Y-127730000D03*
X225500000Y-127730000D03*
X225000000Y-122580000D03*
D12*
X220000000Y-133680000D03*
G36*
G01*
X224625000Y-132380000D02*
X224625000Y-134980000D01*
G75*
G02*
X224575000Y-135030000I-50000J0D01*
G01*
X221975000Y-135030000D01*
G75*
G02*
X221925000Y-134980000I0J50000D01*
G01*
X221925000Y-132380000D01*
G75*
G02*
X221975000Y-132330000I50000J0D01*
G01*
X224575000Y-132330000D01*
G75*
G02*
X224625000Y-132380000I0J-50000D01*
G01*
G37*
G36*
G01*
X213075000Y-130180000D02*
X213075000Y-132780000D01*
G75*
G02*
X213025000Y-132830000I-50000J0D01*
G01*
X210425000Y-132830000D01*
G75*
G02*
X210375000Y-132780000I0J50000D01*
G01*
X210375000Y-130180000D01*
G75*
G02*
X210425000Y-130130000I50000J0D01*
G01*
X213025000Y-130130000D01*
G75*
G02*
X213075000Y-130180000I0J-50000D01*
G01*
G37*
X215000000Y-131480000D03*
D10*
X220000000Y-110730000D03*
D11*
X214500000Y-110730000D03*
X225500000Y-110730000D03*
X225000000Y-105580000D03*
D12*
X220000000Y-116680000D03*
G36*
G01*
X224625000Y-115380000D02*
X224625000Y-117980000D01*
G75*
G02*
X224575000Y-118030000I-50000J0D01*
G01*
X221975000Y-118030000D01*
G75*
G02*
X221925000Y-117980000I0J50000D01*
G01*
X221925000Y-115380000D01*
G75*
G02*
X221975000Y-115330000I50000J0D01*
G01*
X224575000Y-115330000D01*
G75*
G02*
X224625000Y-115380000I0J-50000D01*
G01*
G37*
G36*
G01*
X213075000Y-113180000D02*
X213075000Y-115780000D01*
G75*
G02*
X213025000Y-115830000I-50000J0D01*
G01*
X210425000Y-115830000D01*
G75*
G02*
X210375000Y-115780000I0J50000D01*
G01*
X210375000Y-113180000D01*
G75*
G02*
X210425000Y-113130000I50000J0D01*
G01*
X213025000Y-113130000D01*
G75*
G02*
X213075000Y-113180000I0J-50000D01*
G01*
G37*
X215000000Y-114480000D03*
D10*
X220000000Y-93730000D03*
D11*
X214500000Y-93730000D03*
X225500000Y-93730000D03*
X225000000Y-88580000D03*
D12*
X220000000Y-99680000D03*
G36*
G01*
X224625000Y-98380000D02*
X224625000Y-100980000D01*
G75*
G02*
X224575000Y-101030000I-50000J0D01*
G01*
X221975000Y-101030000D01*
G75*
G02*
X221925000Y-100980000I0J50000D01*
G01*
X221925000Y-98380000D01*
G75*
G02*
X221975000Y-98330000I50000J0D01*
G01*
X224575000Y-98330000D01*
G75*
G02*
X224625000Y-98380000I0J-50000D01*
G01*
G37*
G36*
G01*
X213075000Y-96180000D02*
X213075000Y-98780000D01*
G75*
G02*
X213025000Y-98830000I-50000J0D01*
G01*
X210425000Y-98830000D01*
G75*
G02*
X210375000Y-98780000I0J50000D01*
G01*
X210375000Y-96180000D01*
G75*
G02*
X210425000Y-96130000I50000J0D01*
G01*
X213025000Y-96130000D01*
G75*
G02*
X213075000Y-96180000I0J-50000D01*
G01*
G37*
X215000000Y-97480000D03*
D10*
X220000000Y-76730000D03*
D11*
X214500000Y-76730000D03*
X225500000Y-76730000D03*
X225000000Y-71580000D03*
D12*
X220000000Y-82680000D03*
G36*
G01*
X224625000Y-81380000D02*
X224625000Y-83980000D01*
G75*
G02*
X224575000Y-84030000I-50000J0D01*
G01*
X221975000Y-84030000D01*
G75*
G02*
X221925000Y-83980000I0J50000D01*
G01*
X221925000Y-81380000D01*
G75*
G02*
X221975000Y-81330000I50000J0D01*
G01*
X224575000Y-81330000D01*
G75*
G02*
X224625000Y-81380000I0J-50000D01*
G01*
G37*
G36*
G01*
X213075000Y-79180000D02*
X213075000Y-81780000D01*
G75*
G02*
X213025000Y-81830000I-50000J0D01*
G01*
X210425000Y-81830000D01*
G75*
G02*
X210375000Y-81780000I0J50000D01*
G01*
X210375000Y-79180000D01*
G75*
G02*
X210425000Y-79130000I50000J0D01*
G01*
X213025000Y-79130000D01*
G75*
G02*
X213075000Y-79180000I0J-50000D01*
G01*
G37*
X215000000Y-80480000D03*
D10*
X203000000Y-124330000D03*
D11*
X197500000Y-124330000D03*
X208500000Y-124330000D03*
X208000000Y-119180000D03*
D12*
X203000000Y-130280000D03*
G36*
G01*
X207625000Y-128980000D02*
X207625000Y-131580000D01*
G75*
G02*
X207575000Y-131630000I-50000J0D01*
G01*
X204975000Y-131630000D01*
G75*
G02*
X204925000Y-131580000I0J50000D01*
G01*
X204925000Y-128980000D01*
G75*
G02*
X204975000Y-128930000I50000J0D01*
G01*
X207575000Y-128930000D01*
G75*
G02*
X207625000Y-128980000I0J-50000D01*
G01*
G37*
G36*
G01*
X196075000Y-126780000D02*
X196075000Y-129380000D01*
G75*
G02*
X196025000Y-129430000I-50000J0D01*
G01*
X193425000Y-129430000D01*
G75*
G02*
X193375000Y-129380000I0J50000D01*
G01*
X193375000Y-126780000D01*
G75*
G02*
X193425000Y-126730000I50000J0D01*
G01*
X196025000Y-126730000D01*
G75*
G02*
X196075000Y-126780000I0J-50000D01*
G01*
G37*
X198000000Y-128080000D03*
D10*
X203000000Y-107330000D03*
D11*
X197500000Y-107330000D03*
X208500000Y-107330000D03*
X208000000Y-102180000D03*
D12*
X203000000Y-113280000D03*
G36*
G01*
X207625000Y-111980000D02*
X207625000Y-114580000D01*
G75*
G02*
X207575000Y-114630000I-50000J0D01*
G01*
X204975000Y-114630000D01*
G75*
G02*
X204925000Y-114580000I0J50000D01*
G01*
X204925000Y-111980000D01*
G75*
G02*
X204975000Y-111930000I50000J0D01*
G01*
X207575000Y-111930000D01*
G75*
G02*
X207625000Y-111980000I0J-50000D01*
G01*
G37*
G36*
G01*
X196075000Y-109780000D02*
X196075000Y-112380000D01*
G75*
G02*
X196025000Y-112430000I-50000J0D01*
G01*
X193425000Y-112430000D01*
G75*
G02*
X193375000Y-112380000I0J50000D01*
G01*
X193375000Y-109780000D01*
G75*
G02*
X193425000Y-109730000I50000J0D01*
G01*
X196025000Y-109730000D01*
G75*
G02*
X196075000Y-109780000I0J-50000D01*
G01*
G37*
X198000000Y-111080000D03*
D10*
X203000000Y-90330000D03*
D11*
X197500000Y-90330000D03*
X208500000Y-90330000D03*
X208000000Y-85180000D03*
D12*
X203000000Y-96280000D03*
G36*
G01*
X207625000Y-94980000D02*
X207625000Y-97580000D01*
G75*
G02*
X207575000Y-97630000I-50000J0D01*
G01*
X204975000Y-97630000D01*
G75*
G02*
X204925000Y-97580000I0J50000D01*
G01*
X204925000Y-94980000D01*
G75*
G02*
X204975000Y-94930000I50000J0D01*
G01*
X207575000Y-94930000D01*
G75*
G02*
X207625000Y-94980000I0J-50000D01*
G01*
G37*
G36*
G01*
X196075000Y-92780000D02*
X196075000Y-95380000D01*
G75*
G02*
X196025000Y-95430000I-50000J0D01*
G01*
X193425000Y-95430000D01*
G75*
G02*
X193375000Y-95380000I0J50000D01*
G01*
X193375000Y-92780000D01*
G75*
G02*
X193425000Y-92730000I50000J0D01*
G01*
X196025000Y-92730000D01*
G75*
G02*
X196075000Y-92780000I0J-50000D01*
G01*
G37*
X198000000Y-94080000D03*
D10*
X231220000Y-144730000D03*
D11*
X225803557Y-145685065D03*
X236636443Y-143774935D03*
X235249751Y-138789999D03*
D12*
X232253207Y-150589606D03*
G36*
G01*
X236582199Y-148506233D02*
X237033685Y-151066733D01*
G75*
G02*
X236993127Y-151124655I-49240J-8682D01*
G01*
X234432627Y-151576141D01*
G75*
G02*
X234374705Y-151535583I-8682J49240D01*
G01*
X233923219Y-148975083D01*
G75*
G02*
X233963777Y-148917161I49240J8682D01*
G01*
X236524277Y-148465675D01*
G75*
G02*
X236582199Y-148506233I8682J-49240D01*
G01*
G37*
G36*
G01*
X224825644Y-148345293D02*
X225277130Y-150905793D01*
G75*
G02*
X225236572Y-150963715I-49240J-8682D01*
G01*
X222676072Y-151415201D01*
G75*
G02*
X222618150Y-151374643I-8682J49240D01*
G01*
X222166664Y-148814143D01*
G75*
G02*
X222207222Y-148756221I49240J8682D01*
G01*
X224767722Y-148304735D01*
G75*
G02*
X224825644Y-148345293I8682J-49240D01*
G01*
G37*
X226947142Y-149291270D03*
D10*
X213029272Y-150465514D03*
D11*
X208044579Y-152789914D03*
X218013965Y-148141114D03*
X215384327Y-143684938D03*
D12*
X215543851Y-155858045D03*
G36*
G01*
X219186120Y-152725236D02*
X220284928Y-155081636D01*
G75*
G02*
X220260744Y-155148082I-45315J-21131D01*
G01*
X217904344Y-156246890D01*
G75*
G02*
X217837898Y-156222706I-21131J45315D01*
G01*
X216739090Y-153866306D01*
G75*
G02*
X216763274Y-153799860I45315J21131D01*
G01*
X219119674Y-152701052D01*
G75*
G02*
X219186120Y-152725236I21131J-45315D01*
G01*
G37*
G36*
G01*
X207788505Y-155612599D02*
X208887313Y-157968999D01*
G75*
G02*
X208863129Y-158035445I-45315J-21131D01*
G01*
X206506729Y-159134253D01*
G75*
G02*
X206440283Y-159110069I-21131J45315D01*
G01*
X205341475Y-156753669D01*
G75*
G02*
X205365659Y-156687223I45315J21131D01*
G01*
X207722059Y-155588415D01*
G75*
G02*
X207788505Y-155612599I21131J-45315D01*
G01*
G37*
X210082552Y-155977260D03*
D10*
X197306695Y-158650170D03*
D11*
X192543555Y-161400170D03*
X202069835Y-155900170D03*
X199061822Y-151690139D03*
D12*
X200281695Y-163803021D03*
G36*
G01*
X203637062Y-160364688D02*
X204937062Y-162616354D01*
G75*
G02*
X204918761Y-162684655I-43301J-25000D01*
G01*
X202667095Y-163984655D01*
G75*
G02*
X202598794Y-163966354I-25000J43301D01*
G01*
X201298794Y-161714688D01*
G75*
G02*
X201317095Y-161646387I43301J25000D01*
G01*
X203568761Y-160346387D01*
G75*
G02*
X203637062Y-160364688I25000J-43301D01*
G01*
G37*
G36*
G01*
X192534469Y-164234432D02*
X193834469Y-166486098D01*
G75*
G02*
X193816168Y-166554399I-43301J-25000D01*
G01*
X191564502Y-167854399D01*
G75*
G02*
X191496201Y-167836098I-25000J43301D01*
G01*
X190196201Y-165584432D01*
G75*
G02*
X190214502Y-165516131I43301J25000D01*
G01*
X192466168Y-164216131D01*
G75*
G02*
X192534469Y-164234432I25000J-43301D01*
G01*
G37*
X194851568Y-164397765D03*
D13*
X267950000Y-40150000D03*
X267950000Y-55390000D03*
X265410000Y-40150000D03*
X265410000Y-55390000D03*
X262870000Y-40150000D03*
X262870000Y-55390000D03*
X260330000Y-40150000D03*
X260330000Y-55390000D03*
X257790000Y-40150000D03*
X257790000Y-55390000D03*
X255250000Y-40150000D03*
X255250000Y-55390000D03*
X252710000Y-40150000D03*
X252710000Y-55390000D03*
X250170000Y-40150000D03*
X250170000Y-55390000D03*
X247630000Y-40150000D03*
X247630000Y-55390000D03*
X245090000Y-40150000D03*
X245090000Y-55390000D03*
X242550000Y-40150000D03*
X242550000Y-55390000D03*
X240010000Y-40150000D03*
X240010000Y-55390000D03*
X242550000Y-52850000D03*
X242550000Y-50310000D03*
X242550000Y-47770000D03*
G36*
G01*
X223665000Y-59420000D02*
X222335000Y-59420000D01*
G75*
G02*
X222075000Y-59160000I0J260000D01*
G01*
X222075000Y-58380000D01*
G75*
G02*
X222335000Y-58120000I260000J0D01*
G01*
X223665000Y-58120000D01*
G75*
G02*
X223925000Y-58380000I0J-260000D01*
G01*
X223925000Y-59160000D01*
G75*
G02*
X223665000Y-59420000I-260000J0D01*
G01*
G37*
D14*
X223000000Y-56770000D03*
D15*
X227500000Y-39745000D03*
X230500000Y-39745000D03*
M02*
