M48
; DRILL file {KiCad 9.0.7+1} date 2026-02-15T05:04:06+0000
; FORMAT={-:-/ absolute / metric / decimal}
; #@! TF.CreationDate,2026-02-15T05:04:06+00:00
; #@! TF.GenerationSoftware,Kicad,Pcbnew,9.0.7+1
; #@! TF.FileFunction,Plated,1,2,PTH
FMAT,2
METRIC
; #@! TA.AperFunction,Plated,PTH,ComponentDrill
T1C0.750
; #@! TA.AperFunction,Plated,PTH,ComponentDrill
T2C1.000
; #@! TA.AperFunction,Plated,PTH,ComponentDrill
T3C1.600
%
G90
G05
T1
X223.0Y-56.77
X223.0Y-58.77
T2
X240.01Y-40.15
X240.01Y-55.39
X242.55Y-40.15
X242.55Y-47.77
X242.55Y-50.31
X242.55Y-52.85
X242.55Y-55.39
X245.09Y-40.15
X245.09Y-55.39
X247.63Y-40.15
X247.63Y-55.39
X250.17Y-40.15
X250.17Y-55.39
X252.71Y-40.15
X252.71Y-55.39
X255.25Y-40.15
X255.25Y-55.39
X257.79Y-40.15
X257.79Y-55.39
X260.33Y-40.15
X260.33Y-55.39
X262.87Y-40.15
X262.87Y-55.39
X265.41Y-40.15
X265.41Y-55.39
X267.95Y-40.15
X267.95Y-55.39
T3
X199.062Y-151.69
X208.0Y-85.18
X208.0Y-102.18
X208.0Y-119.18
X215.384Y-143.685
X225.0Y-71.58
X225.0Y-88.58
X225.0Y-105.58
X225.0Y-122.58
X235.25Y-138.79
X242.0Y-68.18
X242.0Y-85.18
X242.0Y-102.18
X242.0Y-119.18
X259.0Y-65.63
X259.0Y-82.63
X259.0Y-99.63
X259.0Y-116.63
X276.0Y-61.38
X276.0Y-78.38
X276.0Y-95.38
X276.0Y-112.38
X276.0Y-129.38
X293.0Y-72.6
X293.0Y-89.6
X293.0Y-106.6
X293.0Y-123.6
X293.0Y-140.6
X310.0Y-76.85
X310.0Y-93.85
X310.0Y-110.85
X310.0Y-127.85
M30
