G04 #@! TF.GenerationSoftware,KiCad,Pcbnew,9.0.7+1*
G04 #@! TF.CreationDate,2026-02-15T05:04:06+00:00*
G04 #@! TF.ProjectId,right_pcb,72696768-745f-4706-9362-2e6b69636164,v0.2*
G04 #@! TF.SameCoordinates,Original*
G04 #@! TF.FileFunction,Profile,NP*
%FSLAX46Y46*%
G04 Gerber Fmt 4.6, Leading zero omitted, Abs format (unit mm)*
G04 Created by KiCad (PCBNEW 9.0.7+1) date 2026-02-15 05:04:06*
%MOMM*%
%LPD*%
G01*
G04 APERTURE LIST*
G04 #@! TA.AperFunction,Profile*
%ADD10C,0.150000*%
G04 #@! TD*
G04 APERTURE END LIST*
D10*
X299000000Y-144000000D02*
X313000000Y-144000000D01*
X316000000Y-141000000D02*
G75*
G02*
X313000000Y-144000000I-3000000J0D01*
G01*
X316000000Y-141000000D02*
X316000000Y-125000000D01*
X315958040Y-124500000D02*
G75*
G02*
X316000002Y-125000000I-2957940J-500000D01*
G01*
X316000000Y-124000000D02*
G75*
G02*
X315958039Y-124500000I-2999900J0D01*
G01*
X316000000Y-124000000D02*
X316000000Y-108000000D01*
X315958040Y-107500000D02*
G75*
G02*
X316000002Y-108000000I-2957940J-500000D01*
G01*
X316000000Y-107000000D02*
G75*
G02*
X315958039Y-107500000I-2999900J0D01*
G01*
X316000000Y-107000000D02*
X316000000Y-91000000D01*
X315958040Y-90500000D02*
G75*
G02*
X316000002Y-91000000I-2957940J-500000D01*
G01*
X316000000Y-90000000D02*
G75*
G02*
X315958039Y-90500000I-2999900J0D01*
G01*
X316000000Y-90000000D02*
X316000000Y-74000000D01*
X313000000Y-71000000D02*
G75*
G02*
X316000000Y-74000000I0J-3000000D01*
G01*
X313000000Y-71000000D02*
X299000000Y-71000000D01*
X280000000Y-156750000D02*
X296000000Y-156750000D01*
X299000000Y-153750000D02*
G75*
G02*
X296000000Y-156750000I-3000000J0D01*
G01*
X299000000Y-153750000D02*
X299000000Y-144000000D01*
X277000000Y-145530000D02*
X277000000Y-153750000D01*
X280000000Y-156750000D02*
G75*
G02*
X277000000Y-153750000I0J3000000D01*
G01*
X299000000Y-71000000D02*
X299000000Y-69750000D01*
X296000000Y-66750000D02*
G75*
G02*
X299000000Y-69750000I0J-3000000D01*
G01*
X296000000Y-66750000D02*
X282000000Y-66750000D01*
X263000000Y-145530000D02*
X277000000Y-145530000D01*
X260000000Y-132780000D02*
X260000000Y-142530000D01*
X263000000Y-145530000D02*
G75*
G02*
X260000000Y-142530000I0J3000000D01*
G01*
X282000000Y-66750000D02*
X282000000Y-58530000D01*
X279000000Y-55530000D02*
G75*
G02*
X282000000Y-58530000I0J-3000000D01*
G01*
X279000000Y-55530000D02*
X272250000Y-55530000D01*
X247966058Y-132780000D02*
X260000000Y-132780000D01*
X240732219Y-135330000D02*
X245000000Y-135330000D01*
X247966058Y-132780000D02*
G75*
G02*
X245000000Y-135330000I-2966058J450000D01*
G01*
X212000000Y-138730000D02*
X212167947Y-138730000D01*
X209000000Y-135330000D02*
X209000000Y-135730000D01*
X212000000Y-138730000D02*
G75*
G02*
X209000000Y-135730000I0J3000000D01*
G01*
X219000000Y-65730000D02*
X212000000Y-65730000D01*
X209000000Y-68730000D02*
G75*
G02*
X212000000Y-65730000I3000000J0D01*
G01*
X209000000Y-68730000D02*
X209000000Y-79330000D01*
X195000000Y-135330000D02*
X209000000Y-135330000D01*
X192000000Y-116330000D02*
G75*
G02*
X192041961Y-115830000I2999900J0D01*
G01*
X192000000Y-116330000D02*
X192000000Y-132330000D01*
X195000000Y-135330000D02*
G75*
G02*
X192000000Y-132330000I0J3000000D01*
G01*
X192000000Y-99330000D02*
G75*
G02*
X192041961Y-98830000I2999900J0D01*
G01*
X192000000Y-99330000D02*
X192000000Y-115330000D01*
X192041960Y-115830000D02*
G75*
G02*
X191999998Y-115330000I2957940J500000D01*
G01*
X209000000Y-79330000D02*
X195000000Y-79330000D01*
X192000000Y-82330000D02*
G75*
G02*
X195000000Y-79330000I3000000J0D01*
G01*
X192000000Y-82330000D02*
X192000000Y-98330000D01*
X192041960Y-98830000D02*
G75*
G02*
X191999998Y-98330000I2957940J500000D01*
G01*
X225251668Y-156952071D02*
X241008592Y-154173700D01*
X243442071Y-150698332D02*
G75*
G02*
X241008603Y-154173765I-2954471J-520968D01*
G01*
X243442071Y-150698332D02*
X240732219Y-135330000D01*
X225251668Y-156952071D02*
G75*
G02*
X225081907Y-156977019I-520868J2954271D01*
G01*
X210427611Y-163815846D02*
X224928535Y-157053954D01*
X225081907Y-156977022D02*
G75*
G02*
X224928535Y-157053953I-1421007J2641622D01*
G01*
X212167947Y-138730000D02*
X201130009Y-143877075D01*
X200050698Y-144727627D02*
G75*
G02*
X201130004Y-143877064I2347202J-1868373D01*
G01*
X210427611Y-163815846D02*
G75*
G02*
X210061498Y-163958198I-1267911J2718946D01*
G01*
X195878492Y-172176449D02*
X209734899Y-164176449D01*
X210061496Y-163958193D02*
G75*
G02*
X209734900Y-164176451I-1826596J2379793D01*
G01*
X198734899Y-145123891D02*
G75*
G02*
X200050698Y-144727631I1500001J-2598109D01*
G01*
X198734899Y-145123891D02*
X184878492Y-153123891D01*
X183780416Y-157221967D02*
G75*
G02*
X184878514Y-153123927I2598084J1499967D01*
G01*
X183780416Y-157221967D02*
X191780416Y-171078373D01*
X195878492Y-172176449D02*
G75*
G02*
X191780434Y-171078363I-1499992J2598049D01*
G01*
X272250000Y-55530000D02*
X272250000Y-40770000D01*
X269250000Y-37770000D02*
G75*
G02*
X272250000Y-40770000I0J-3000000D01*
G01*
X269250000Y-37770000D02*
X225250000Y-37770000D01*
X222250000Y-40770000D02*
G75*
G02*
X225250000Y-37770000I3000000J0D01*
G01*
X222250000Y-40770000D02*
X222250000Y-52770000D01*
X219000000Y-55770000D02*
X219000000Y-65730000D01*
X222250000Y-52770000D02*
X222000000Y-52770000D01*
X219000000Y-55770000D02*
G75*
G02*
X222000000Y-52770000I3000000J0D01*
G01*
M02*
