G04 #@! TF.GenerationSoftware,KiCad,Pcbnew,9.0.7+1*
G04 #@! TF.CreationDate,2026-02-15T05:04:06+00:00*
G04 #@! TF.ProjectId,right_pcb,72696768-745f-4706-9362-2e6b69636164,v0.2*
G04 #@! TF.SameCoordinates,Original*
G04 #@! TF.FileFunction,Legend,Top*
G04 #@! TF.FilePolarity,Positive*
%FSLAX46Y46*%
G04 Gerber Fmt 4.6, Leading zero omitted, Abs format (unit mm)*
G04 Created by KiCad (PCBNEW 9.0.7+1) date 2026-02-15 05:04:06*
%MOMM*%
%LPD*%
G01*
G04 APERTURE LIST*
%ADD10C,0.150000*%
%ADD11C,0.100000*%
%ADD12C,0.120000*%
%ADD13C,5.100000*%
%ADD14C,2.000000*%
%ADD15C,3.100000*%
%ADD16C,1.800000*%
%ADD17O,1.850000X1.300000*%
%ADD18C,1.000000*%
G04 APERTURE END LIST*
D10*
X268404819Y-43990476D02*
X267928628Y-44323809D01*
X268404819Y-44561904D02*
X267404819Y-44561904D01*
X267404819Y-44561904D02*
X267404819Y-44180952D01*
X267404819Y-44180952D02*
X267452438Y-44085714D01*
X267452438Y-44085714D02*
X267500057Y-44038095D01*
X267500057Y-44038095D02*
X267595295Y-43990476D01*
X267595295Y-43990476D02*
X267738152Y-43990476D01*
X267738152Y-43990476D02*
X267833390Y-44038095D01*
X267833390Y-44038095D02*
X267881009Y-44085714D01*
X267881009Y-44085714D02*
X267928628Y-44180952D01*
X267928628Y-44180952D02*
X267928628Y-44561904D01*
X268119104Y-43609523D02*
X268119104Y-43133333D01*
X268404819Y-43704761D02*
X267404819Y-43371428D01*
X267404819Y-43371428D02*
X268404819Y-43038095D01*
X267404819Y-42799999D02*
X268404819Y-42561904D01*
X268404819Y-42561904D02*
X267690533Y-42371428D01*
X267690533Y-42371428D02*
X268404819Y-42180952D01*
X268404819Y-42180952D02*
X267404819Y-41942857D01*
X268404819Y-53501904D02*
X267404819Y-53501904D01*
X267404819Y-53501904D02*
X267404819Y-53263809D01*
X267404819Y-53263809D02*
X267452438Y-53120952D01*
X267452438Y-53120952D02*
X267547676Y-53025714D01*
X267547676Y-53025714D02*
X267642914Y-52978095D01*
X267642914Y-52978095D02*
X267833390Y-52930476D01*
X267833390Y-52930476D02*
X267976247Y-52930476D01*
X267976247Y-52930476D02*
X268166723Y-52978095D01*
X268166723Y-52978095D02*
X268261961Y-53025714D01*
X268261961Y-53025714D02*
X268357200Y-53120952D01*
X268357200Y-53120952D02*
X268404819Y-53263809D01*
X268404819Y-53263809D02*
X268404819Y-53501904D01*
X268404819Y-52501904D02*
X267404819Y-52501904D01*
X267404819Y-52501904D02*
X267404819Y-52120952D01*
X267404819Y-52120952D02*
X267452438Y-52025714D01*
X267452438Y-52025714D02*
X267500057Y-51978095D01*
X267500057Y-51978095D02*
X267595295Y-51930476D01*
X267595295Y-51930476D02*
X267738152Y-51930476D01*
X267738152Y-51930476D02*
X267833390Y-51978095D01*
X267833390Y-51978095D02*
X267881009Y-52025714D01*
X267881009Y-52025714D02*
X267928628Y-52120952D01*
X267928628Y-52120952D02*
X267928628Y-52501904D01*
X268309580Y-50930476D02*
X268357200Y-50978095D01*
X268357200Y-50978095D02*
X268404819Y-51120952D01*
X268404819Y-51120952D02*
X268404819Y-51216190D01*
X268404819Y-51216190D02*
X268357200Y-51359047D01*
X268357200Y-51359047D02*
X268261961Y-51454285D01*
X268261961Y-51454285D02*
X268166723Y-51501904D01*
X268166723Y-51501904D02*
X267976247Y-51549523D01*
X267976247Y-51549523D02*
X267833390Y-51549523D01*
X267833390Y-51549523D02*
X267642914Y-51501904D01*
X267642914Y-51501904D02*
X267547676Y-51454285D01*
X267547676Y-51454285D02*
X267452438Y-51359047D01*
X267452438Y-51359047D02*
X267404819Y-51216190D01*
X267404819Y-51216190D02*
X267404819Y-51120952D01*
X267404819Y-51120952D02*
X267452438Y-50978095D01*
X267452438Y-50978095D02*
X267500057Y-50930476D01*
X264912438Y-44061904D02*
X264864819Y-44157142D01*
X264864819Y-44157142D02*
X264864819Y-44299999D01*
X264864819Y-44299999D02*
X264912438Y-44442856D01*
X264912438Y-44442856D02*
X265007676Y-44538094D01*
X265007676Y-44538094D02*
X265102914Y-44585713D01*
X265102914Y-44585713D02*
X265293390Y-44633332D01*
X265293390Y-44633332D02*
X265436247Y-44633332D01*
X265436247Y-44633332D02*
X265626723Y-44585713D01*
X265626723Y-44585713D02*
X265721961Y-44538094D01*
X265721961Y-44538094D02*
X265817200Y-44442856D01*
X265817200Y-44442856D02*
X265864819Y-44299999D01*
X265864819Y-44299999D02*
X265864819Y-44204761D01*
X265864819Y-44204761D02*
X265817200Y-44061904D01*
X265817200Y-44061904D02*
X265769580Y-44014285D01*
X265769580Y-44014285D02*
X265436247Y-44014285D01*
X265436247Y-44014285D02*
X265436247Y-44204761D01*
X265864819Y-43585713D02*
X264864819Y-43585713D01*
X264864819Y-43585713D02*
X265864819Y-43014285D01*
X265864819Y-43014285D02*
X264864819Y-43014285D01*
X265864819Y-42538094D02*
X264864819Y-42538094D01*
X264864819Y-42538094D02*
X264864819Y-42299999D01*
X264864819Y-42299999D02*
X264912438Y-42157142D01*
X264912438Y-42157142D02*
X265007676Y-42061904D01*
X265007676Y-42061904D02*
X265102914Y-42014285D01*
X265102914Y-42014285D02*
X265293390Y-41966666D01*
X265293390Y-41966666D02*
X265436247Y-41966666D01*
X265436247Y-41966666D02*
X265626723Y-42014285D01*
X265626723Y-42014285D02*
X265721961Y-42061904D01*
X265721961Y-42061904D02*
X265817200Y-42157142D01*
X265817200Y-42157142D02*
X265864819Y-42299999D01*
X265864819Y-42299999D02*
X265864819Y-42538094D01*
X265864819Y-53501904D02*
X264864819Y-53501904D01*
X264864819Y-53501904D02*
X264864819Y-53263809D01*
X264864819Y-53263809D02*
X264912438Y-53120952D01*
X264912438Y-53120952D02*
X265007676Y-53025714D01*
X265007676Y-53025714D02*
X265102914Y-52978095D01*
X265102914Y-52978095D02*
X265293390Y-52930476D01*
X265293390Y-52930476D02*
X265436247Y-52930476D01*
X265436247Y-52930476D02*
X265626723Y-52978095D01*
X265626723Y-52978095D02*
X265721961Y-53025714D01*
X265721961Y-53025714D02*
X265817200Y-53120952D01*
X265817200Y-53120952D02*
X265864819Y-53263809D01*
X265864819Y-53263809D02*
X265864819Y-53501904D01*
X265864819Y-52501904D02*
X264864819Y-52501904D01*
X264864819Y-52501904D02*
X264864819Y-52120952D01*
X264864819Y-52120952D02*
X264912438Y-52025714D01*
X264912438Y-52025714D02*
X264960057Y-51978095D01*
X264960057Y-51978095D02*
X265055295Y-51930476D01*
X265055295Y-51930476D02*
X265198152Y-51930476D01*
X265198152Y-51930476D02*
X265293390Y-51978095D01*
X265293390Y-51978095D02*
X265341009Y-52025714D01*
X265341009Y-52025714D02*
X265388628Y-52120952D01*
X265388628Y-52120952D02*
X265388628Y-52501904D01*
X265864819Y-51501904D02*
X264864819Y-51501904D01*
X264864819Y-51501904D02*
X264864819Y-51263809D01*
X264864819Y-51263809D02*
X264912438Y-51120952D01*
X264912438Y-51120952D02*
X265007676Y-51025714D01*
X265007676Y-51025714D02*
X265102914Y-50978095D01*
X265102914Y-50978095D02*
X265293390Y-50930476D01*
X265293390Y-50930476D02*
X265436247Y-50930476D01*
X265436247Y-50930476D02*
X265626723Y-50978095D01*
X265626723Y-50978095D02*
X265721961Y-51025714D01*
X265721961Y-51025714D02*
X265817200Y-51120952D01*
X265817200Y-51120952D02*
X265864819Y-51263809D01*
X265864819Y-51263809D02*
X265864819Y-51501904D01*
X263324819Y-43847619D02*
X262848628Y-44180952D01*
X263324819Y-44419047D02*
X262324819Y-44419047D01*
X262324819Y-44419047D02*
X262324819Y-44038095D01*
X262324819Y-44038095D02*
X262372438Y-43942857D01*
X262372438Y-43942857D02*
X262420057Y-43895238D01*
X262420057Y-43895238D02*
X262515295Y-43847619D01*
X262515295Y-43847619D02*
X262658152Y-43847619D01*
X262658152Y-43847619D02*
X262753390Y-43895238D01*
X262753390Y-43895238D02*
X262801009Y-43942857D01*
X262801009Y-43942857D02*
X262848628Y-44038095D01*
X262848628Y-44038095D02*
X262848628Y-44419047D01*
X263277200Y-43466666D02*
X263324819Y-43323809D01*
X263324819Y-43323809D02*
X263324819Y-43085714D01*
X263324819Y-43085714D02*
X263277200Y-42990476D01*
X263277200Y-42990476D02*
X263229580Y-42942857D01*
X263229580Y-42942857D02*
X263134342Y-42895238D01*
X263134342Y-42895238D02*
X263039104Y-42895238D01*
X263039104Y-42895238D02*
X262943866Y-42942857D01*
X262943866Y-42942857D02*
X262896247Y-42990476D01*
X262896247Y-42990476D02*
X262848628Y-43085714D01*
X262848628Y-43085714D02*
X262801009Y-43276190D01*
X262801009Y-43276190D02*
X262753390Y-43371428D01*
X262753390Y-43371428D02*
X262705771Y-43419047D01*
X262705771Y-43419047D02*
X262610533Y-43466666D01*
X262610533Y-43466666D02*
X262515295Y-43466666D01*
X262515295Y-43466666D02*
X262420057Y-43419047D01*
X262420057Y-43419047D02*
X262372438Y-43371428D01*
X262372438Y-43371428D02*
X262324819Y-43276190D01*
X262324819Y-43276190D02*
X262324819Y-43038095D01*
X262324819Y-43038095D02*
X262372438Y-42895238D01*
X262324819Y-42609523D02*
X262324819Y-42038095D01*
X263324819Y-42323809D02*
X262324819Y-42323809D01*
X262372438Y-53001904D02*
X262324819Y-53097142D01*
X262324819Y-53097142D02*
X262324819Y-53239999D01*
X262324819Y-53239999D02*
X262372438Y-53382856D01*
X262372438Y-53382856D02*
X262467676Y-53478094D01*
X262467676Y-53478094D02*
X262562914Y-53525713D01*
X262562914Y-53525713D02*
X262753390Y-53573332D01*
X262753390Y-53573332D02*
X262896247Y-53573332D01*
X262896247Y-53573332D02*
X263086723Y-53525713D01*
X263086723Y-53525713D02*
X263181961Y-53478094D01*
X263181961Y-53478094D02*
X263277200Y-53382856D01*
X263277200Y-53382856D02*
X263324819Y-53239999D01*
X263324819Y-53239999D02*
X263324819Y-53144761D01*
X263324819Y-53144761D02*
X263277200Y-53001904D01*
X263277200Y-53001904D02*
X263229580Y-52954285D01*
X263229580Y-52954285D02*
X262896247Y-52954285D01*
X262896247Y-52954285D02*
X262896247Y-53144761D01*
X263324819Y-52525713D02*
X262324819Y-52525713D01*
X262324819Y-52525713D02*
X263324819Y-51954285D01*
X263324819Y-51954285D02*
X262324819Y-51954285D01*
X263324819Y-51478094D02*
X262324819Y-51478094D01*
X262324819Y-51478094D02*
X262324819Y-51239999D01*
X262324819Y-51239999D02*
X262372438Y-51097142D01*
X262372438Y-51097142D02*
X262467676Y-51001904D01*
X262467676Y-51001904D02*
X262562914Y-50954285D01*
X262562914Y-50954285D02*
X262753390Y-50906666D01*
X262753390Y-50906666D02*
X262896247Y-50906666D01*
X262896247Y-50906666D02*
X263086723Y-50954285D01*
X263086723Y-50954285D02*
X263181961Y-51001904D01*
X263181961Y-51001904D02*
X263277200Y-51097142D01*
X263277200Y-51097142D02*
X263324819Y-51239999D01*
X263324819Y-51239999D02*
X263324819Y-51478094D01*
X259784819Y-44633332D02*
X260784819Y-44299999D01*
X260784819Y-44299999D02*
X259784819Y-43966666D01*
X260689580Y-43061904D02*
X260737200Y-43109523D01*
X260737200Y-43109523D02*
X260784819Y-43252380D01*
X260784819Y-43252380D02*
X260784819Y-43347618D01*
X260784819Y-43347618D02*
X260737200Y-43490475D01*
X260737200Y-43490475D02*
X260641961Y-43585713D01*
X260641961Y-43585713D02*
X260546723Y-43633332D01*
X260546723Y-43633332D02*
X260356247Y-43680951D01*
X260356247Y-43680951D02*
X260213390Y-43680951D01*
X260213390Y-43680951D02*
X260022914Y-43633332D01*
X260022914Y-43633332D02*
X259927676Y-43585713D01*
X259927676Y-43585713D02*
X259832438Y-43490475D01*
X259832438Y-43490475D02*
X259784819Y-43347618D01*
X259784819Y-43347618D02*
X259784819Y-43252380D01*
X259784819Y-43252380D02*
X259832438Y-43109523D01*
X259832438Y-43109523D02*
X259880057Y-43061904D01*
X260689580Y-42061904D02*
X260737200Y-42109523D01*
X260737200Y-42109523D02*
X260784819Y-42252380D01*
X260784819Y-42252380D02*
X260784819Y-42347618D01*
X260784819Y-42347618D02*
X260737200Y-42490475D01*
X260737200Y-42490475D02*
X260641961Y-42585713D01*
X260641961Y-42585713D02*
X260546723Y-42633332D01*
X260546723Y-42633332D02*
X260356247Y-42680951D01*
X260356247Y-42680951D02*
X260213390Y-42680951D01*
X260213390Y-42680951D02*
X260022914Y-42633332D01*
X260022914Y-42633332D02*
X259927676Y-42585713D01*
X259927676Y-42585713D02*
X259832438Y-42490475D01*
X259832438Y-42490475D02*
X259784819Y-42347618D01*
X259784819Y-42347618D02*
X259784819Y-42252380D01*
X259784819Y-42252380D02*
X259832438Y-42109523D01*
X259832438Y-42109523D02*
X259880057Y-42061904D01*
X259832438Y-53001904D02*
X259784819Y-53097142D01*
X259784819Y-53097142D02*
X259784819Y-53239999D01*
X259784819Y-53239999D02*
X259832438Y-53382856D01*
X259832438Y-53382856D02*
X259927676Y-53478094D01*
X259927676Y-53478094D02*
X260022914Y-53525713D01*
X260022914Y-53525713D02*
X260213390Y-53573332D01*
X260213390Y-53573332D02*
X260356247Y-53573332D01*
X260356247Y-53573332D02*
X260546723Y-53525713D01*
X260546723Y-53525713D02*
X260641961Y-53478094D01*
X260641961Y-53478094D02*
X260737200Y-53382856D01*
X260737200Y-53382856D02*
X260784819Y-53239999D01*
X260784819Y-53239999D02*
X260784819Y-53144761D01*
X260784819Y-53144761D02*
X260737200Y-53001904D01*
X260737200Y-53001904D02*
X260689580Y-52954285D01*
X260689580Y-52954285D02*
X260356247Y-52954285D01*
X260356247Y-52954285D02*
X260356247Y-53144761D01*
X260784819Y-52525713D02*
X259784819Y-52525713D01*
X259784819Y-52525713D02*
X260784819Y-51954285D01*
X260784819Y-51954285D02*
X259784819Y-51954285D01*
X260784819Y-51478094D02*
X259784819Y-51478094D01*
X259784819Y-51478094D02*
X259784819Y-51239999D01*
X259784819Y-51239999D02*
X259832438Y-51097142D01*
X259832438Y-51097142D02*
X259927676Y-51001904D01*
X259927676Y-51001904D02*
X260022914Y-50954285D01*
X260022914Y-50954285D02*
X260213390Y-50906666D01*
X260213390Y-50906666D02*
X260356247Y-50906666D01*
X260356247Y-50906666D02*
X260546723Y-50954285D01*
X260546723Y-50954285D02*
X260641961Y-51001904D01*
X260641961Y-51001904D02*
X260737200Y-51097142D01*
X260737200Y-51097142D02*
X260784819Y-51239999D01*
X260784819Y-51239999D02*
X260784819Y-51478094D01*
X258149580Y-43466666D02*
X258197200Y-43514285D01*
X258197200Y-43514285D02*
X258244819Y-43657142D01*
X258244819Y-43657142D02*
X258244819Y-43752380D01*
X258244819Y-43752380D02*
X258197200Y-43895237D01*
X258197200Y-43895237D02*
X258101961Y-43990475D01*
X258101961Y-43990475D02*
X258006723Y-44038094D01*
X258006723Y-44038094D02*
X257816247Y-44085713D01*
X257816247Y-44085713D02*
X257673390Y-44085713D01*
X257673390Y-44085713D02*
X257482914Y-44038094D01*
X257482914Y-44038094D02*
X257387676Y-43990475D01*
X257387676Y-43990475D02*
X257292438Y-43895237D01*
X257292438Y-43895237D02*
X257244819Y-43752380D01*
X257244819Y-43752380D02*
X257244819Y-43657142D01*
X257244819Y-43657142D02*
X257292438Y-43514285D01*
X257292438Y-43514285D02*
X257340057Y-43466666D01*
X258244819Y-42514285D02*
X258244819Y-43085713D01*
X258244819Y-42799999D02*
X257244819Y-42799999D01*
X257244819Y-42799999D02*
X257387676Y-42895237D01*
X257387676Y-42895237D02*
X257482914Y-42990475D01*
X257482914Y-42990475D02*
X257530533Y-43085713D01*
X258244819Y-53454285D02*
X257244819Y-53454285D01*
X257244819Y-53454285D02*
X257244819Y-53216190D01*
X257244819Y-53216190D02*
X257292438Y-53073333D01*
X257292438Y-53073333D02*
X257387676Y-52978095D01*
X257387676Y-52978095D02*
X257482914Y-52930476D01*
X257482914Y-52930476D02*
X257673390Y-52882857D01*
X257673390Y-52882857D02*
X257816247Y-52882857D01*
X257816247Y-52882857D02*
X258006723Y-52930476D01*
X258006723Y-52930476D02*
X258101961Y-52978095D01*
X258101961Y-52978095D02*
X258197200Y-53073333D01*
X258197200Y-53073333D02*
X258244819Y-53216190D01*
X258244819Y-53216190D02*
X258244819Y-53454285D01*
X258244819Y-52454285D02*
X257244819Y-52454285D01*
X257244819Y-52454285D02*
X257244819Y-52073333D01*
X257244819Y-52073333D02*
X257292438Y-51978095D01*
X257292438Y-51978095D02*
X257340057Y-51930476D01*
X257340057Y-51930476D02*
X257435295Y-51882857D01*
X257435295Y-51882857D02*
X257578152Y-51882857D01*
X257578152Y-51882857D02*
X257673390Y-51930476D01*
X257673390Y-51930476D02*
X257721009Y-51978095D01*
X257721009Y-51978095D02*
X257768628Y-52073333D01*
X257768628Y-52073333D02*
X257768628Y-52454285D01*
X257721009Y-51454285D02*
X257721009Y-51120952D01*
X258244819Y-50978095D02*
X258244819Y-51454285D01*
X258244819Y-51454285D02*
X257244819Y-51454285D01*
X257244819Y-51454285D02*
X257244819Y-50978095D01*
X255609580Y-43466666D02*
X255657200Y-43514285D01*
X255657200Y-43514285D02*
X255704819Y-43657142D01*
X255704819Y-43657142D02*
X255704819Y-43752380D01*
X255704819Y-43752380D02*
X255657200Y-43895237D01*
X255657200Y-43895237D02*
X255561961Y-43990475D01*
X255561961Y-43990475D02*
X255466723Y-44038094D01*
X255466723Y-44038094D02*
X255276247Y-44085713D01*
X255276247Y-44085713D02*
X255133390Y-44085713D01*
X255133390Y-44085713D02*
X254942914Y-44038094D01*
X254942914Y-44038094D02*
X254847676Y-43990475D01*
X254847676Y-43990475D02*
X254752438Y-43895237D01*
X254752438Y-43895237D02*
X254704819Y-43752380D01*
X254704819Y-43752380D02*
X254704819Y-43657142D01*
X254704819Y-43657142D02*
X254752438Y-43514285D01*
X254752438Y-43514285D02*
X254800057Y-43466666D01*
X254800057Y-43085713D02*
X254752438Y-43038094D01*
X254752438Y-43038094D02*
X254704819Y-42942856D01*
X254704819Y-42942856D02*
X254704819Y-42704761D01*
X254704819Y-42704761D02*
X254752438Y-42609523D01*
X254752438Y-42609523D02*
X254800057Y-42561904D01*
X254800057Y-42561904D02*
X254895295Y-42514285D01*
X254895295Y-42514285D02*
X254990533Y-42514285D01*
X254990533Y-42514285D02*
X255133390Y-42561904D01*
X255133390Y-42561904D02*
X255704819Y-43133332D01*
X255704819Y-43133332D02*
X255704819Y-42514285D01*
X255704819Y-52406666D02*
X255228628Y-52739999D01*
X255704819Y-52978094D02*
X254704819Y-52978094D01*
X254704819Y-52978094D02*
X254704819Y-52597142D01*
X254704819Y-52597142D02*
X254752438Y-52501904D01*
X254752438Y-52501904D02*
X254800057Y-52454285D01*
X254800057Y-52454285D02*
X254895295Y-52406666D01*
X254895295Y-52406666D02*
X255038152Y-52406666D01*
X255038152Y-52406666D02*
X255133390Y-52454285D01*
X255133390Y-52454285D02*
X255181009Y-52501904D01*
X255181009Y-52501904D02*
X255228628Y-52597142D01*
X255228628Y-52597142D02*
X255228628Y-52978094D01*
X254800057Y-52025713D02*
X254752438Y-51978094D01*
X254752438Y-51978094D02*
X254704819Y-51882856D01*
X254704819Y-51882856D02*
X254704819Y-51644761D01*
X254704819Y-51644761D02*
X254752438Y-51549523D01*
X254752438Y-51549523D02*
X254800057Y-51501904D01*
X254800057Y-51501904D02*
X254895295Y-51454285D01*
X254895295Y-51454285D02*
X254990533Y-51454285D01*
X254990533Y-51454285D02*
X255133390Y-51501904D01*
X255133390Y-51501904D02*
X255704819Y-52073332D01*
X255704819Y-52073332D02*
X255704819Y-51454285D01*
X253069580Y-43466666D02*
X253117200Y-43514285D01*
X253117200Y-43514285D02*
X253164819Y-43657142D01*
X253164819Y-43657142D02*
X253164819Y-43752380D01*
X253164819Y-43752380D02*
X253117200Y-43895237D01*
X253117200Y-43895237D02*
X253021961Y-43990475D01*
X253021961Y-43990475D02*
X252926723Y-44038094D01*
X252926723Y-44038094D02*
X252736247Y-44085713D01*
X252736247Y-44085713D02*
X252593390Y-44085713D01*
X252593390Y-44085713D02*
X252402914Y-44038094D01*
X252402914Y-44038094D02*
X252307676Y-43990475D01*
X252307676Y-43990475D02*
X252212438Y-43895237D01*
X252212438Y-43895237D02*
X252164819Y-43752380D01*
X252164819Y-43752380D02*
X252164819Y-43657142D01*
X252164819Y-43657142D02*
X252212438Y-43514285D01*
X252212438Y-43514285D02*
X252260057Y-43466666D01*
X252164819Y-43133332D02*
X252164819Y-42514285D01*
X252164819Y-42514285D02*
X252545771Y-42847618D01*
X252545771Y-42847618D02*
X252545771Y-42704761D01*
X252545771Y-42704761D02*
X252593390Y-42609523D01*
X252593390Y-42609523D02*
X252641009Y-42561904D01*
X252641009Y-42561904D02*
X252736247Y-42514285D01*
X252736247Y-42514285D02*
X252974342Y-42514285D01*
X252974342Y-42514285D02*
X253069580Y-42561904D01*
X253069580Y-42561904D02*
X253117200Y-42609523D01*
X253117200Y-42609523D02*
X253164819Y-42704761D01*
X253164819Y-42704761D02*
X253164819Y-42990475D01*
X253164819Y-42990475D02*
X253117200Y-43085713D01*
X253117200Y-43085713D02*
X253069580Y-43133332D01*
X253164819Y-52406666D02*
X252688628Y-52739999D01*
X253164819Y-52978094D02*
X252164819Y-52978094D01*
X252164819Y-52978094D02*
X252164819Y-52597142D01*
X252164819Y-52597142D02*
X252212438Y-52501904D01*
X252212438Y-52501904D02*
X252260057Y-52454285D01*
X252260057Y-52454285D02*
X252355295Y-52406666D01*
X252355295Y-52406666D02*
X252498152Y-52406666D01*
X252498152Y-52406666D02*
X252593390Y-52454285D01*
X252593390Y-52454285D02*
X252641009Y-52501904D01*
X252641009Y-52501904D02*
X252688628Y-52597142D01*
X252688628Y-52597142D02*
X252688628Y-52978094D01*
X252164819Y-52073332D02*
X252164819Y-51454285D01*
X252164819Y-51454285D02*
X252545771Y-51787618D01*
X252545771Y-51787618D02*
X252545771Y-51644761D01*
X252545771Y-51644761D02*
X252593390Y-51549523D01*
X252593390Y-51549523D02*
X252641009Y-51501904D01*
X252641009Y-51501904D02*
X252736247Y-51454285D01*
X252736247Y-51454285D02*
X252974342Y-51454285D01*
X252974342Y-51454285D02*
X253069580Y-51501904D01*
X253069580Y-51501904D02*
X253117200Y-51549523D01*
X253117200Y-51549523D02*
X253164819Y-51644761D01*
X253164819Y-51644761D02*
X253164819Y-51930475D01*
X253164819Y-51930475D02*
X253117200Y-52025713D01*
X253117200Y-52025713D02*
X253069580Y-52073332D01*
X250529580Y-43466666D02*
X250577200Y-43514285D01*
X250577200Y-43514285D02*
X250624819Y-43657142D01*
X250624819Y-43657142D02*
X250624819Y-43752380D01*
X250624819Y-43752380D02*
X250577200Y-43895237D01*
X250577200Y-43895237D02*
X250481961Y-43990475D01*
X250481961Y-43990475D02*
X250386723Y-44038094D01*
X250386723Y-44038094D02*
X250196247Y-44085713D01*
X250196247Y-44085713D02*
X250053390Y-44085713D01*
X250053390Y-44085713D02*
X249862914Y-44038094D01*
X249862914Y-44038094D02*
X249767676Y-43990475D01*
X249767676Y-43990475D02*
X249672438Y-43895237D01*
X249672438Y-43895237D02*
X249624819Y-43752380D01*
X249624819Y-43752380D02*
X249624819Y-43657142D01*
X249624819Y-43657142D02*
X249672438Y-43514285D01*
X249672438Y-43514285D02*
X249720057Y-43466666D01*
X249958152Y-42609523D02*
X250624819Y-42609523D01*
X249577200Y-42847618D02*
X250291485Y-43085713D01*
X250291485Y-43085713D02*
X250291485Y-42466666D01*
X250624819Y-52406666D02*
X250148628Y-52739999D01*
X250624819Y-52978094D02*
X249624819Y-52978094D01*
X249624819Y-52978094D02*
X249624819Y-52597142D01*
X249624819Y-52597142D02*
X249672438Y-52501904D01*
X249672438Y-52501904D02*
X249720057Y-52454285D01*
X249720057Y-52454285D02*
X249815295Y-52406666D01*
X249815295Y-52406666D02*
X249958152Y-52406666D01*
X249958152Y-52406666D02*
X250053390Y-52454285D01*
X250053390Y-52454285D02*
X250101009Y-52501904D01*
X250101009Y-52501904D02*
X250148628Y-52597142D01*
X250148628Y-52597142D02*
X250148628Y-52978094D01*
X249958152Y-51549523D02*
X250624819Y-51549523D01*
X249577200Y-51787618D02*
X250291485Y-52025713D01*
X250291485Y-52025713D02*
X250291485Y-51406666D01*
X247989580Y-43466666D02*
X248037200Y-43514285D01*
X248037200Y-43514285D02*
X248084819Y-43657142D01*
X248084819Y-43657142D02*
X248084819Y-43752380D01*
X248084819Y-43752380D02*
X248037200Y-43895237D01*
X248037200Y-43895237D02*
X247941961Y-43990475D01*
X247941961Y-43990475D02*
X247846723Y-44038094D01*
X247846723Y-44038094D02*
X247656247Y-44085713D01*
X247656247Y-44085713D02*
X247513390Y-44085713D01*
X247513390Y-44085713D02*
X247322914Y-44038094D01*
X247322914Y-44038094D02*
X247227676Y-43990475D01*
X247227676Y-43990475D02*
X247132438Y-43895237D01*
X247132438Y-43895237D02*
X247084819Y-43752380D01*
X247084819Y-43752380D02*
X247084819Y-43657142D01*
X247084819Y-43657142D02*
X247132438Y-43514285D01*
X247132438Y-43514285D02*
X247180057Y-43466666D01*
X247084819Y-42561904D02*
X247084819Y-43038094D01*
X247084819Y-43038094D02*
X247561009Y-43085713D01*
X247561009Y-43085713D02*
X247513390Y-43038094D01*
X247513390Y-43038094D02*
X247465771Y-42942856D01*
X247465771Y-42942856D02*
X247465771Y-42704761D01*
X247465771Y-42704761D02*
X247513390Y-42609523D01*
X247513390Y-42609523D02*
X247561009Y-42561904D01*
X247561009Y-42561904D02*
X247656247Y-42514285D01*
X247656247Y-42514285D02*
X247894342Y-42514285D01*
X247894342Y-42514285D02*
X247989580Y-42561904D01*
X247989580Y-42561904D02*
X248037200Y-42609523D01*
X248037200Y-42609523D02*
X248084819Y-42704761D01*
X248084819Y-42704761D02*
X248084819Y-42942856D01*
X248084819Y-42942856D02*
X248037200Y-43038094D01*
X248037200Y-43038094D02*
X247989580Y-43085713D01*
X248084819Y-52406666D02*
X247608628Y-52739999D01*
X248084819Y-52978094D02*
X247084819Y-52978094D01*
X247084819Y-52978094D02*
X247084819Y-52597142D01*
X247084819Y-52597142D02*
X247132438Y-52501904D01*
X247132438Y-52501904D02*
X247180057Y-52454285D01*
X247180057Y-52454285D02*
X247275295Y-52406666D01*
X247275295Y-52406666D02*
X247418152Y-52406666D01*
X247418152Y-52406666D02*
X247513390Y-52454285D01*
X247513390Y-52454285D02*
X247561009Y-52501904D01*
X247561009Y-52501904D02*
X247608628Y-52597142D01*
X247608628Y-52597142D02*
X247608628Y-52978094D01*
X247084819Y-51501904D02*
X247084819Y-51978094D01*
X247084819Y-51978094D02*
X247561009Y-52025713D01*
X247561009Y-52025713D02*
X247513390Y-51978094D01*
X247513390Y-51978094D02*
X247465771Y-51882856D01*
X247465771Y-51882856D02*
X247465771Y-51644761D01*
X247465771Y-51644761D02*
X247513390Y-51549523D01*
X247513390Y-51549523D02*
X247561009Y-51501904D01*
X247561009Y-51501904D02*
X247656247Y-51454285D01*
X247656247Y-51454285D02*
X247894342Y-51454285D01*
X247894342Y-51454285D02*
X247989580Y-51501904D01*
X247989580Y-51501904D02*
X248037200Y-51549523D01*
X248037200Y-51549523D02*
X248084819Y-51644761D01*
X248084819Y-51644761D02*
X248084819Y-51882856D01*
X248084819Y-51882856D02*
X248037200Y-51978094D01*
X248037200Y-51978094D02*
X247989580Y-52025713D01*
X245449580Y-43466666D02*
X245497200Y-43514285D01*
X245497200Y-43514285D02*
X245544819Y-43657142D01*
X245544819Y-43657142D02*
X245544819Y-43752380D01*
X245544819Y-43752380D02*
X245497200Y-43895237D01*
X245497200Y-43895237D02*
X245401961Y-43990475D01*
X245401961Y-43990475D02*
X245306723Y-44038094D01*
X245306723Y-44038094D02*
X245116247Y-44085713D01*
X245116247Y-44085713D02*
X244973390Y-44085713D01*
X244973390Y-44085713D02*
X244782914Y-44038094D01*
X244782914Y-44038094D02*
X244687676Y-43990475D01*
X244687676Y-43990475D02*
X244592438Y-43895237D01*
X244592438Y-43895237D02*
X244544819Y-43752380D01*
X244544819Y-43752380D02*
X244544819Y-43657142D01*
X244544819Y-43657142D02*
X244592438Y-43514285D01*
X244592438Y-43514285D02*
X244640057Y-43466666D01*
X244544819Y-42609523D02*
X244544819Y-42799999D01*
X244544819Y-42799999D02*
X244592438Y-42895237D01*
X244592438Y-42895237D02*
X244640057Y-42942856D01*
X244640057Y-42942856D02*
X244782914Y-43038094D01*
X244782914Y-43038094D02*
X244973390Y-43085713D01*
X244973390Y-43085713D02*
X245354342Y-43085713D01*
X245354342Y-43085713D02*
X245449580Y-43038094D01*
X245449580Y-43038094D02*
X245497200Y-42990475D01*
X245497200Y-42990475D02*
X245544819Y-42895237D01*
X245544819Y-42895237D02*
X245544819Y-42704761D01*
X245544819Y-42704761D02*
X245497200Y-42609523D01*
X245497200Y-42609523D02*
X245449580Y-42561904D01*
X245449580Y-42561904D02*
X245354342Y-42514285D01*
X245354342Y-42514285D02*
X245116247Y-42514285D01*
X245116247Y-42514285D02*
X245021009Y-42561904D01*
X245021009Y-42561904D02*
X244973390Y-42609523D01*
X244973390Y-42609523D02*
X244925771Y-42704761D01*
X244925771Y-42704761D02*
X244925771Y-42895237D01*
X244925771Y-42895237D02*
X244973390Y-42990475D01*
X244973390Y-42990475D02*
X245021009Y-43038094D01*
X245021009Y-43038094D02*
X245116247Y-43085713D01*
X245544819Y-52406666D02*
X245068628Y-52739999D01*
X245544819Y-52978094D02*
X244544819Y-52978094D01*
X244544819Y-52978094D02*
X244544819Y-52597142D01*
X244544819Y-52597142D02*
X244592438Y-52501904D01*
X244592438Y-52501904D02*
X244640057Y-52454285D01*
X244640057Y-52454285D02*
X244735295Y-52406666D01*
X244735295Y-52406666D02*
X244878152Y-52406666D01*
X244878152Y-52406666D02*
X244973390Y-52454285D01*
X244973390Y-52454285D02*
X245021009Y-52501904D01*
X245021009Y-52501904D02*
X245068628Y-52597142D01*
X245068628Y-52597142D02*
X245068628Y-52978094D01*
X244544819Y-51501904D02*
X244544819Y-51978094D01*
X244544819Y-51978094D02*
X245021009Y-52025713D01*
X245021009Y-52025713D02*
X244973390Y-51978094D01*
X244973390Y-51978094D02*
X244925771Y-51882856D01*
X244925771Y-51882856D02*
X244925771Y-51644761D01*
X244925771Y-51644761D02*
X244973390Y-51549523D01*
X244973390Y-51549523D02*
X245021009Y-51501904D01*
X245021009Y-51501904D02*
X245116247Y-51454285D01*
X245116247Y-51454285D02*
X245354342Y-51454285D01*
X245354342Y-51454285D02*
X245449580Y-51501904D01*
X245449580Y-51501904D02*
X245497200Y-51549523D01*
X245497200Y-51549523D02*
X245544819Y-51644761D01*
X245544819Y-51644761D02*
X245544819Y-51882856D01*
X245544819Y-51882856D02*
X245497200Y-51978094D01*
X245497200Y-51978094D02*
X245449580Y-52025713D01*
X242909580Y-43466666D02*
X242957200Y-43514285D01*
X242957200Y-43514285D02*
X243004819Y-43657142D01*
X243004819Y-43657142D02*
X243004819Y-43752380D01*
X243004819Y-43752380D02*
X242957200Y-43895237D01*
X242957200Y-43895237D02*
X242861961Y-43990475D01*
X242861961Y-43990475D02*
X242766723Y-44038094D01*
X242766723Y-44038094D02*
X242576247Y-44085713D01*
X242576247Y-44085713D02*
X242433390Y-44085713D01*
X242433390Y-44085713D02*
X242242914Y-44038094D01*
X242242914Y-44038094D02*
X242147676Y-43990475D01*
X242147676Y-43990475D02*
X242052438Y-43895237D01*
X242052438Y-43895237D02*
X242004819Y-43752380D01*
X242004819Y-43752380D02*
X242004819Y-43657142D01*
X242004819Y-43657142D02*
X242052438Y-43514285D01*
X242052438Y-43514285D02*
X242100057Y-43466666D01*
X242004819Y-43133332D02*
X242004819Y-42466666D01*
X242004819Y-42466666D02*
X243004819Y-42895237D01*
X240464819Y-44514285D02*
X239464819Y-44514285D01*
X239464819Y-44514285D02*
X239464819Y-44133333D01*
X239464819Y-44133333D02*
X239512438Y-44038095D01*
X239512438Y-44038095D02*
X239560057Y-43990476D01*
X239560057Y-43990476D02*
X239655295Y-43942857D01*
X239655295Y-43942857D02*
X239798152Y-43942857D01*
X239798152Y-43942857D02*
X239893390Y-43990476D01*
X239893390Y-43990476D02*
X239941009Y-44038095D01*
X239941009Y-44038095D02*
X239988628Y-44133333D01*
X239988628Y-44133333D02*
X239988628Y-44514285D01*
X240464819Y-42990476D02*
X240464819Y-43561904D01*
X240464819Y-43276190D02*
X239464819Y-43276190D01*
X239464819Y-43276190D02*
X239607676Y-43371428D01*
X239607676Y-43371428D02*
X239702914Y-43466666D01*
X239702914Y-43466666D02*
X239750533Y-43561904D01*
X239464819Y-42371428D02*
X239464819Y-42276190D01*
X239464819Y-42276190D02*
X239512438Y-42180952D01*
X239512438Y-42180952D02*
X239560057Y-42133333D01*
X239560057Y-42133333D02*
X239655295Y-42085714D01*
X239655295Y-42085714D02*
X239845771Y-42038095D01*
X239845771Y-42038095D02*
X240083866Y-42038095D01*
X240083866Y-42038095D02*
X240274342Y-42085714D01*
X240274342Y-42085714D02*
X240369580Y-42133333D01*
X240369580Y-42133333D02*
X240417200Y-42180952D01*
X240417200Y-42180952D02*
X240464819Y-42276190D01*
X240464819Y-42276190D02*
X240464819Y-42371428D01*
X240464819Y-42371428D02*
X240417200Y-42466666D01*
X240417200Y-42466666D02*
X240369580Y-42514285D01*
X240369580Y-42514285D02*
X240274342Y-42561904D01*
X240274342Y-42561904D02*
X240083866Y-42609523D01*
X240083866Y-42609523D02*
X239845771Y-42609523D01*
X239845771Y-42609523D02*
X239655295Y-42561904D01*
X239655295Y-42561904D02*
X239560057Y-42514285D01*
X239560057Y-42514285D02*
X239512438Y-42466666D01*
X239512438Y-42466666D02*
X239464819Y-42371428D01*
X240464819Y-52406666D02*
X239988628Y-52739999D01*
X240464819Y-52978094D02*
X239464819Y-52978094D01*
X239464819Y-52978094D02*
X239464819Y-52597142D01*
X239464819Y-52597142D02*
X239512438Y-52501904D01*
X239512438Y-52501904D02*
X239560057Y-52454285D01*
X239560057Y-52454285D02*
X239655295Y-52406666D01*
X239655295Y-52406666D02*
X239798152Y-52406666D01*
X239798152Y-52406666D02*
X239893390Y-52454285D01*
X239893390Y-52454285D02*
X239941009Y-52501904D01*
X239941009Y-52501904D02*
X239988628Y-52597142D01*
X239988628Y-52597142D02*
X239988628Y-52978094D01*
X239464819Y-52073332D02*
X239464819Y-51406666D01*
X239464819Y-51406666D02*
X240464819Y-51835237D01*
X223454819Y-40389047D02*
X223454819Y-40198571D01*
X223454819Y-40198571D02*
X223502438Y-40103333D01*
X223502438Y-40103333D02*
X223597676Y-40008095D01*
X223597676Y-40008095D02*
X223788152Y-39960476D01*
X223788152Y-39960476D02*
X224121485Y-39960476D01*
X224121485Y-39960476D02*
X224311961Y-40008095D01*
X224311961Y-40008095D02*
X224407200Y-40103333D01*
X224407200Y-40103333D02*
X224454819Y-40198571D01*
X224454819Y-40198571D02*
X224454819Y-40389047D01*
X224454819Y-40389047D02*
X224407200Y-40484285D01*
X224407200Y-40484285D02*
X224311961Y-40579523D01*
X224311961Y-40579523D02*
X224121485Y-40627142D01*
X224121485Y-40627142D02*
X223788152Y-40627142D01*
X223788152Y-40627142D02*
X223597676Y-40579523D01*
X223597676Y-40579523D02*
X223502438Y-40484285D01*
X223502438Y-40484285D02*
X223454819Y-40389047D01*
X224454819Y-39531904D02*
X223454819Y-39531904D01*
X223454819Y-39531904D02*
X224454819Y-38960476D01*
X224454819Y-38960476D02*
X223454819Y-38960476D01*
X233454819Y-40722380D02*
X233454819Y-40531904D01*
X233454819Y-40531904D02*
X233502438Y-40436666D01*
X233502438Y-40436666D02*
X233597676Y-40341428D01*
X233597676Y-40341428D02*
X233788152Y-40293809D01*
X233788152Y-40293809D02*
X234121485Y-40293809D01*
X234121485Y-40293809D02*
X234311961Y-40341428D01*
X234311961Y-40341428D02*
X234407200Y-40436666D01*
X234407200Y-40436666D02*
X234454819Y-40531904D01*
X234454819Y-40531904D02*
X234454819Y-40722380D01*
X234454819Y-40722380D02*
X234407200Y-40817618D01*
X234407200Y-40817618D02*
X234311961Y-40912856D01*
X234311961Y-40912856D02*
X234121485Y-40960475D01*
X234121485Y-40960475D02*
X233788152Y-40960475D01*
X233788152Y-40960475D02*
X233597676Y-40912856D01*
X233597676Y-40912856D02*
X233502438Y-40817618D01*
X233502438Y-40817618D02*
X233454819Y-40722380D01*
X233931009Y-39531904D02*
X233931009Y-39865237D01*
X234454819Y-39865237D02*
X233454819Y-39865237D01*
X233454819Y-39865237D02*
X233454819Y-39389047D01*
X233931009Y-38674761D02*
X233931009Y-39008094D01*
X234454819Y-39008094D02*
X233454819Y-39008094D01*
X233454819Y-39008094D02*
X233454819Y-38531904D01*
D11*
X312750000Y-131750000D02*
X312750000Y-132250000D01*
X312350000Y-131750000D02*
X312750000Y-131150000D01*
X313150000Y-131750000D02*
X312350000Y-131750000D01*
X312750000Y-131150000D02*
X313150000Y-131750000D01*
X312750000Y-131150000D02*
X312200000Y-131150000D01*
X312750000Y-131150000D02*
X313300000Y-131150000D01*
X312750000Y-130750000D02*
X312750000Y-131150000D01*
X312750000Y-114750000D02*
X312750000Y-115250000D01*
X312350000Y-114750000D02*
X312750000Y-114150000D01*
X313150000Y-114750000D02*
X312350000Y-114750000D01*
X312750000Y-114150000D02*
X313150000Y-114750000D01*
X312750000Y-114150000D02*
X312200000Y-114150000D01*
X312750000Y-114150000D02*
X313300000Y-114150000D01*
X312750000Y-113750000D02*
X312750000Y-114150000D01*
X312750000Y-97750000D02*
X312750000Y-98250000D01*
X312350000Y-97750000D02*
X312750000Y-97150000D01*
X313150000Y-97750000D02*
X312350000Y-97750000D01*
X312750000Y-97150000D02*
X313150000Y-97750000D01*
X312750000Y-97150000D02*
X312200000Y-97150000D01*
X312750000Y-97150000D02*
X313300000Y-97150000D01*
X312750000Y-96750000D02*
X312750000Y-97150000D01*
X312750000Y-80750000D02*
X312750000Y-81250000D01*
X312350000Y-80750000D02*
X312750000Y-80150000D01*
X313150000Y-80750000D02*
X312350000Y-80750000D01*
X312750000Y-80150000D02*
X313150000Y-80750000D01*
X312750000Y-80150000D02*
X312200000Y-80150000D01*
X312750000Y-80150000D02*
X313300000Y-80150000D01*
X312750000Y-79750000D02*
X312750000Y-80150000D01*
X295750000Y-144500000D02*
X295750000Y-145000000D01*
X295350000Y-144500000D02*
X295750000Y-143900000D01*
X296150000Y-144500000D02*
X295350000Y-144500000D01*
X295750000Y-143900000D02*
X296150000Y-144500000D01*
X295750000Y-143900000D02*
X295200000Y-143900000D01*
X295750000Y-143900000D02*
X296300000Y-143900000D01*
X295750000Y-143500000D02*
X295750000Y-143900000D01*
X295750000Y-127500000D02*
X295750000Y-128000000D01*
X295350000Y-127500000D02*
X295750000Y-126900000D01*
X296150000Y-127500000D02*
X295350000Y-127500000D01*
X295750000Y-126900000D02*
X296150000Y-127500000D01*
X295750000Y-126900000D02*
X295200000Y-126900000D01*
X295750000Y-126900000D02*
X296300000Y-126900000D01*
X295750000Y-126500000D02*
X295750000Y-126900000D01*
X295750000Y-110500000D02*
X295750000Y-111000000D01*
X295350000Y-110500000D02*
X295750000Y-109900000D01*
X296150000Y-110500000D02*
X295350000Y-110500000D01*
X295750000Y-109900000D02*
X296150000Y-110500000D01*
X295750000Y-109900000D02*
X295200000Y-109900000D01*
X295750000Y-109900000D02*
X296300000Y-109900000D01*
X295750000Y-109500000D02*
X295750000Y-109900000D01*
X295750000Y-93500000D02*
X295750000Y-94000000D01*
X295350000Y-93500000D02*
X295750000Y-92900000D01*
X296150000Y-93500000D02*
X295350000Y-93500000D01*
X295750000Y-92900000D02*
X296150000Y-93500000D01*
X295750000Y-92900000D02*
X295200000Y-92900000D01*
X295750000Y-92900000D02*
X296300000Y-92900000D01*
X295750000Y-92500000D02*
X295750000Y-92900000D01*
X295750000Y-76500000D02*
X295750000Y-77000000D01*
X295350000Y-76500000D02*
X295750000Y-75900000D01*
X296150000Y-76500000D02*
X295350000Y-76500000D01*
X295750000Y-75900000D02*
X296150000Y-76500000D01*
X295750000Y-75900000D02*
X295200000Y-75900000D01*
X295750000Y-75900000D02*
X296300000Y-75900000D01*
X295750000Y-75500000D02*
X295750000Y-75900000D01*
X278750000Y-133280000D02*
X278750000Y-133780000D01*
X278350000Y-133280000D02*
X278750000Y-132680000D01*
X279150000Y-133280000D02*
X278350000Y-133280000D01*
X278750000Y-132680000D02*
X279150000Y-133280000D01*
X278750000Y-132680000D02*
X278200000Y-132680000D01*
X278750000Y-132680000D02*
X279300000Y-132680000D01*
X278750000Y-132280000D02*
X278750000Y-132680000D01*
X278750000Y-116280000D02*
X278750000Y-116780000D01*
X278350000Y-116280000D02*
X278750000Y-115680000D01*
X279150000Y-116280000D02*
X278350000Y-116280000D01*
X278750000Y-115680000D02*
X279150000Y-116280000D01*
X278750000Y-115680000D02*
X278200000Y-115680000D01*
X278750000Y-115680000D02*
X279300000Y-115680000D01*
X278750000Y-115280000D02*
X278750000Y-115680000D01*
X278750000Y-99280000D02*
X278750000Y-99780000D01*
X278350000Y-99280000D02*
X278750000Y-98680000D01*
X279150000Y-99280000D02*
X278350000Y-99280000D01*
X278750000Y-98680000D02*
X279150000Y-99280000D01*
X278750000Y-98680000D02*
X278200000Y-98680000D01*
X278750000Y-98680000D02*
X279300000Y-98680000D01*
X278750000Y-98280000D02*
X278750000Y-98680000D01*
X278750000Y-82280000D02*
X278750000Y-82780000D01*
X278350000Y-82280000D02*
X278750000Y-81680000D01*
X279150000Y-82280000D02*
X278350000Y-82280000D01*
X278750000Y-81680000D02*
X279150000Y-82280000D01*
X278750000Y-81680000D02*
X278200000Y-81680000D01*
X278750000Y-81680000D02*
X279300000Y-81680000D01*
X278750000Y-81280000D02*
X278750000Y-81680000D01*
X278750000Y-65280000D02*
X278750000Y-65780000D01*
X278350000Y-65280000D02*
X278750000Y-64680000D01*
X279150000Y-65280000D02*
X278350000Y-65280000D01*
X278750000Y-64680000D02*
X279150000Y-65280000D01*
X278750000Y-64680000D02*
X278200000Y-64680000D01*
X278750000Y-64680000D02*
X279300000Y-64680000D01*
X278750000Y-64280000D02*
X278750000Y-64680000D01*
X261750000Y-120530000D02*
X261750000Y-121030000D01*
X261350000Y-120530000D02*
X261750000Y-119930000D01*
X262150000Y-120530000D02*
X261350000Y-120530000D01*
X261750000Y-119930000D02*
X262150000Y-120530000D01*
X261750000Y-119930000D02*
X261200000Y-119930000D01*
X261750000Y-119930000D02*
X262300000Y-119930000D01*
X261750000Y-119530000D02*
X261750000Y-119930000D01*
X261750000Y-103530000D02*
X261750000Y-104030000D01*
X261350000Y-103530000D02*
X261750000Y-102930000D01*
X262150000Y-103530000D02*
X261350000Y-103530000D01*
X261750000Y-102930000D02*
X262150000Y-103530000D01*
X261750000Y-102930000D02*
X261200000Y-102930000D01*
X261750000Y-102930000D02*
X262300000Y-102930000D01*
X261750000Y-102530000D02*
X261750000Y-102930000D01*
X261750000Y-86530000D02*
X261750000Y-87030000D01*
X261350000Y-86530000D02*
X261750000Y-85930000D01*
X262150000Y-86530000D02*
X261350000Y-86530000D01*
X261750000Y-85930000D02*
X262150000Y-86530000D01*
X261750000Y-85930000D02*
X261200000Y-85930000D01*
X261750000Y-85930000D02*
X262300000Y-85930000D01*
X261750000Y-85530000D02*
X261750000Y-85930000D01*
X261750000Y-69530000D02*
X261750000Y-70030000D01*
X261350000Y-69530000D02*
X261750000Y-68930000D01*
X262150000Y-69530000D02*
X261350000Y-69530000D01*
X261750000Y-68930000D02*
X262150000Y-69530000D01*
X261750000Y-68930000D02*
X261200000Y-68930000D01*
X261750000Y-68930000D02*
X262300000Y-68930000D01*
X261750000Y-68530000D02*
X261750000Y-68930000D01*
X244750000Y-123080000D02*
X244750000Y-123580000D01*
X244350000Y-123080000D02*
X244750000Y-122480000D01*
X245150000Y-123080000D02*
X244350000Y-123080000D01*
X244750000Y-122480000D02*
X245150000Y-123080000D01*
X244750000Y-122480000D02*
X244200000Y-122480000D01*
X244750000Y-122480000D02*
X245300000Y-122480000D01*
X244750000Y-122080000D02*
X244750000Y-122480000D01*
X244750000Y-106080000D02*
X244750000Y-106580000D01*
X244350000Y-106080000D02*
X244750000Y-105480000D01*
X245150000Y-106080000D02*
X244350000Y-106080000D01*
X244750000Y-105480000D02*
X245150000Y-106080000D01*
X244750000Y-105480000D02*
X244200000Y-105480000D01*
X244750000Y-105480000D02*
X245300000Y-105480000D01*
X244750000Y-105080000D02*
X244750000Y-105480000D01*
X244750000Y-89080000D02*
X244750000Y-89580000D01*
X244350000Y-89080000D02*
X244750000Y-88480000D01*
X245150000Y-89080000D02*
X244350000Y-89080000D01*
X244750000Y-88480000D02*
X245150000Y-89080000D01*
X244750000Y-88480000D02*
X244200000Y-88480000D01*
X244750000Y-88480000D02*
X245300000Y-88480000D01*
X244750000Y-88080000D02*
X244750000Y-88480000D01*
X244750000Y-72080000D02*
X244750000Y-72580000D01*
X244350000Y-72080000D02*
X244750000Y-71480000D01*
X245150000Y-72080000D02*
X244350000Y-72080000D01*
X244750000Y-71480000D02*
X245150000Y-72080000D01*
X244750000Y-71480000D02*
X244200000Y-71480000D01*
X244750000Y-71480000D02*
X245300000Y-71480000D01*
X244750000Y-71080000D02*
X244750000Y-71480000D01*
X227750000Y-126480000D02*
X227750000Y-126980000D01*
X227350000Y-126480000D02*
X227750000Y-125880000D01*
X228150000Y-126480000D02*
X227350000Y-126480000D01*
X227750000Y-125880000D02*
X228150000Y-126480000D01*
X227750000Y-125880000D02*
X227200000Y-125880000D01*
X227750000Y-125880000D02*
X228300000Y-125880000D01*
X227750000Y-125480000D02*
X227750000Y-125880000D01*
X227750000Y-109480000D02*
X227750000Y-109980000D01*
X227350000Y-109480000D02*
X227750000Y-108880000D01*
X228150000Y-109480000D02*
X227350000Y-109480000D01*
X227750000Y-108880000D02*
X228150000Y-109480000D01*
X227750000Y-108880000D02*
X227200000Y-108880000D01*
X227750000Y-108880000D02*
X228300000Y-108880000D01*
X227750000Y-108480000D02*
X227750000Y-108880000D01*
X227750000Y-92480000D02*
X227750000Y-92980000D01*
X227350000Y-92480000D02*
X227750000Y-91880000D01*
X228150000Y-92480000D02*
X227350000Y-92480000D01*
X227750000Y-91880000D02*
X228150000Y-92480000D01*
X227750000Y-91880000D02*
X227200000Y-91880000D01*
X227750000Y-91880000D02*
X228300000Y-91880000D01*
X227750000Y-91480000D02*
X227750000Y-91880000D01*
X227750000Y-75480000D02*
X227750000Y-75980000D01*
X227350000Y-75480000D02*
X227750000Y-74880000D01*
X228150000Y-75480000D02*
X227350000Y-75480000D01*
X227750000Y-74880000D02*
X228150000Y-75480000D01*
X227750000Y-74880000D02*
X227200000Y-74880000D01*
X227750000Y-74880000D02*
X228300000Y-74880000D01*
X227750000Y-74480000D02*
X227750000Y-74880000D01*
X210750000Y-123080000D02*
X210750000Y-123580000D01*
X210350000Y-123080000D02*
X210750000Y-122480000D01*
X211150000Y-123080000D02*
X210350000Y-123080000D01*
X210750000Y-122480000D02*
X211150000Y-123080000D01*
X210750000Y-122480000D02*
X210200000Y-122480000D01*
X210750000Y-122480000D02*
X211300000Y-122480000D01*
X210750000Y-122080000D02*
X210750000Y-122480000D01*
X210750000Y-106080000D02*
X210750000Y-106580000D01*
X210350000Y-106080000D02*
X210750000Y-105480000D01*
X211150000Y-106080000D02*
X210350000Y-106080000D01*
X210750000Y-105480000D02*
X211150000Y-106080000D01*
X210750000Y-105480000D02*
X210200000Y-105480000D01*
X210750000Y-105480000D02*
X211300000Y-105480000D01*
X210750000Y-105080000D02*
X210750000Y-105480000D01*
X210750000Y-89080000D02*
X210750000Y-89580000D01*
X210350000Y-89080000D02*
X210750000Y-88480000D01*
X211150000Y-89080000D02*
X210350000Y-89080000D01*
X210750000Y-88480000D02*
X211150000Y-89080000D01*
X210750000Y-88480000D02*
X210200000Y-88480000D01*
X210750000Y-88480000D02*
X211300000Y-88480000D01*
X210750000Y-88080000D02*
X210750000Y-88480000D01*
X238635200Y-142153217D02*
X238722024Y-142645621D01*
X238241277Y-142222676D02*
X238531011Y-141562332D01*
X239029123Y-142083758D02*
X238241277Y-142222676D01*
X238531011Y-141562332D02*
X239029123Y-142083758D01*
X238531011Y-141562332D02*
X237989367Y-141657839D01*
X238531011Y-141562332D02*
X239072655Y-141466826D01*
X238461552Y-141168409D02*
X238531011Y-141562332D01*
X219524885Y-146057338D02*
X219736194Y-146510492D01*
X219162361Y-146226385D02*
X219271314Y-145513553D01*
X219887408Y-145888291D02*
X219162361Y-146226385D01*
X219271314Y-145513553D02*
X219887408Y-145888291D01*
X219271314Y-145513553D02*
X218772844Y-145745993D01*
X219271314Y-145513553D02*
X219769783Y-145281113D01*
X219102266Y-145151030D02*
X219271314Y-145513553D01*
X203393392Y-153692638D02*
X203643392Y-154125651D01*
X203046982Y-153892638D02*
X203093392Y-153173023D01*
X203739802Y-153492638D02*
X203046982Y-153892638D01*
X203093392Y-153173023D02*
X203739802Y-153492638D01*
X203093392Y-153173023D02*
X202617078Y-153448023D01*
X203093392Y-153173023D02*
X203569706Y-152898023D01*
X202893392Y-152826613D02*
X203093392Y-153173023D01*
D12*
X269280000Y-54060000D02*
X269280000Y-56720000D01*
X269280000Y-54060000D02*
X238680000Y-54060000D01*
X238680000Y-54060000D02*
X238680000Y-56720000D01*
X269280000Y-41480000D02*
X238680000Y-41480000D01*
X269280000Y-56720000D02*
X238680000Y-56720000D01*
X269280000Y-38820000D02*
X269280000Y-41480000D01*
X269280000Y-38820000D02*
X238680000Y-38820000D01*
X238680000Y-38820000D02*
X238680000Y-41480000D01*
X266680000Y-54060000D02*
X266680000Y-56720000D01*
D11*
X230400000Y-59270000D02*
X230400000Y-58270000D01*
X230400000Y-56270000D02*
X230400000Y-57270000D01*
X229900000Y-56770000D02*
X230900000Y-56770000D01*
D12*
X221540000Y-59830000D02*
X221540000Y-60830000D01*
X221540000Y-60830000D02*
X222540000Y-60830000D01*
X221540000Y-55630000D02*
X221540000Y-54710000D01*
X221540000Y-54710000D02*
X222540000Y-54710000D01*
X229360000Y-59910000D02*
X229360000Y-60830000D01*
X229360000Y-60830000D02*
X228360000Y-60830000D01*
X229360000Y-55630000D02*
X229360000Y-54710000D01*
X229360000Y-54710000D02*
X228360000Y-54710000D01*
D11*
X223500000Y-50120000D02*
X223250000Y-50120000D01*
X226500000Y-50120000D02*
X226750000Y-50120000D01*
X223250000Y-49870000D02*
X223250000Y-50120000D01*
X226750000Y-49870000D02*
X226750000Y-50120000D01*
X223250000Y-45670000D02*
X223250000Y-45420000D01*
X226750000Y-45670000D02*
X226750000Y-45420000D01*
X223500000Y-45420000D02*
X223250000Y-45420000D01*
X226500000Y-45420000D02*
X226750000Y-45420000D01*
D12*
X225550000Y-39355000D02*
X225550000Y-40145000D01*
X232450000Y-40145000D02*
X232450000Y-39355000D01*
X230600000Y-41195000D02*
X228900000Y-41195000D01*
X231850000Y-38345000D02*
X226150000Y-38345000D01*
X227600000Y-41195000D02*
X227400000Y-41195000D01*
%LPC*%
D13*
X305000000Y-133000000D03*
D14*
X299500000Y-133000000D03*
X310500000Y-133000000D03*
X310000000Y-127850000D03*
D15*
X305000000Y-138950000D03*
X300000000Y-136750000D03*
D13*
X305000000Y-116000000D03*
D14*
X299500000Y-116000000D03*
X310500000Y-116000000D03*
X310000000Y-110850000D03*
D15*
X305000000Y-121950000D03*
X300000000Y-119750000D03*
D13*
X305000000Y-99000000D03*
D14*
X299500000Y-99000000D03*
X310500000Y-99000000D03*
X310000000Y-93850000D03*
D15*
X305000000Y-104950000D03*
X300000000Y-102750000D03*
D13*
X305000000Y-82000000D03*
D14*
X299500000Y-82000000D03*
X310500000Y-82000000D03*
X310000000Y-76850000D03*
D15*
X305000000Y-87950000D03*
X300000000Y-85750000D03*
D13*
X288000000Y-145750000D03*
D14*
X282500000Y-145750000D03*
X293500000Y-145750000D03*
X293000000Y-140600000D03*
D15*
X288000000Y-151700000D03*
X283000000Y-149500000D03*
D13*
X288000000Y-128750000D03*
D14*
X282500000Y-128750000D03*
X293500000Y-128750000D03*
X293000000Y-123600000D03*
D15*
X288000000Y-134700000D03*
X283000000Y-132500000D03*
D13*
X288000000Y-111750000D03*
D14*
X282500000Y-111750000D03*
X293500000Y-111750000D03*
X293000000Y-106600000D03*
D15*
X288000000Y-117700000D03*
X283000000Y-115500000D03*
D13*
X288000000Y-94750000D03*
D14*
X282500000Y-94750000D03*
X293500000Y-94750000D03*
X293000000Y-89600000D03*
D15*
X288000000Y-100700000D03*
X283000000Y-98500000D03*
D13*
X288000000Y-77750000D03*
D14*
X282500000Y-77750000D03*
X293500000Y-77750000D03*
X293000000Y-72600000D03*
D15*
X288000000Y-83700000D03*
X283000000Y-81500000D03*
D13*
X271000000Y-134530000D03*
D14*
X265500000Y-134530000D03*
X276500000Y-134530000D03*
X276000000Y-129380000D03*
D15*
X271000000Y-140480000D03*
X266000000Y-138280000D03*
D13*
X271000000Y-117530000D03*
D14*
X265500000Y-117530000D03*
X276500000Y-117530000D03*
X276000000Y-112380000D03*
D15*
X271000000Y-123480000D03*
X266000000Y-121280000D03*
D13*
X271000000Y-100530000D03*
D14*
X265500000Y-100530000D03*
X276500000Y-100530000D03*
X276000000Y-95380000D03*
D15*
X271000000Y-106480000D03*
X266000000Y-104280000D03*
D13*
X271000000Y-83530000D03*
D14*
X265500000Y-83530000D03*
X276500000Y-83530000D03*
X276000000Y-78380000D03*
D15*
X271000000Y-89480000D03*
X266000000Y-87280000D03*
D13*
X271000000Y-66530000D03*
D14*
X265500000Y-66530000D03*
X276500000Y-66530000D03*
X276000000Y-61380000D03*
D15*
X271000000Y-72480000D03*
X266000000Y-70280000D03*
D13*
X254000000Y-121780000D03*
D14*
X248500000Y-121780000D03*
X259500000Y-121780000D03*
X259000000Y-116630000D03*
D15*
X254000000Y-127730000D03*
X249000000Y-125530000D03*
D13*
X254000000Y-104780000D03*
D14*
X248500000Y-104780000D03*
X259500000Y-104780000D03*
X259000000Y-99630000D03*
D15*
X254000000Y-110730000D03*
X249000000Y-108530000D03*
D13*
X254000000Y-87780000D03*
D14*
X248500000Y-87780000D03*
X259500000Y-87780000D03*
X259000000Y-82630000D03*
D15*
X254000000Y-93730000D03*
X249000000Y-91530000D03*
D13*
X254000000Y-70780000D03*
D14*
X248500000Y-70780000D03*
X259500000Y-70780000D03*
X259000000Y-65630000D03*
D15*
X254000000Y-76730000D03*
X249000000Y-74530000D03*
D13*
X237000000Y-124330000D03*
D14*
X231500000Y-124330000D03*
X242500000Y-124330000D03*
X242000000Y-119180000D03*
D15*
X237000000Y-130280000D03*
X232000000Y-128080000D03*
D13*
X237000000Y-107330000D03*
D14*
X231500000Y-107330000D03*
X242500000Y-107330000D03*
X242000000Y-102180000D03*
D15*
X237000000Y-113280000D03*
X232000000Y-111080000D03*
D13*
X237000000Y-90330000D03*
D14*
X231500000Y-90330000D03*
X242500000Y-90330000D03*
X242000000Y-85180000D03*
D15*
X237000000Y-96280000D03*
X232000000Y-94080000D03*
D13*
X237000000Y-73330000D03*
D14*
X231500000Y-73330000D03*
X242500000Y-73330000D03*
X242000000Y-68180000D03*
D15*
X237000000Y-79280000D03*
X232000000Y-77080000D03*
D13*
X220000000Y-127730000D03*
D14*
X214500000Y-127730000D03*
X225500000Y-127730000D03*
X225000000Y-122580000D03*
D15*
X220000000Y-133680000D03*
X215000000Y-131480000D03*
D13*
X220000000Y-110730000D03*
D14*
X214500000Y-110730000D03*
X225500000Y-110730000D03*
X225000000Y-105580000D03*
D15*
X220000000Y-116680000D03*
X215000000Y-114480000D03*
D13*
X220000000Y-93730000D03*
D14*
X214500000Y-93730000D03*
X225500000Y-93730000D03*
X225000000Y-88580000D03*
D15*
X220000000Y-99680000D03*
X215000000Y-97480000D03*
D13*
X220000000Y-76730000D03*
D14*
X214500000Y-76730000D03*
X225500000Y-76730000D03*
X225000000Y-71580000D03*
D15*
X220000000Y-82680000D03*
X215000000Y-80480000D03*
D13*
X203000000Y-124330000D03*
D14*
X197500000Y-124330000D03*
X208500000Y-124330000D03*
X208000000Y-119180000D03*
D15*
X203000000Y-130280000D03*
X198000000Y-128080000D03*
D13*
X203000000Y-107330000D03*
D14*
X197500000Y-107330000D03*
X208500000Y-107330000D03*
X208000000Y-102180000D03*
D15*
X203000000Y-113280000D03*
X198000000Y-111080000D03*
D13*
X203000000Y-90330000D03*
D14*
X197500000Y-90330000D03*
X208500000Y-90330000D03*
X208000000Y-85180000D03*
D15*
X203000000Y-96280000D03*
X198000000Y-94080000D03*
D13*
X231220000Y-144730000D03*
D14*
X225803557Y-145685065D03*
X236636443Y-143774935D03*
X235249751Y-138789999D03*
D15*
X232253207Y-150589606D03*
X226947142Y-149291270D03*
D13*
X213029272Y-150465514D03*
D14*
X208044579Y-152789914D03*
X218013965Y-148141114D03*
X215384327Y-143684938D03*
D15*
X215543851Y-155858045D03*
X210082552Y-155977260D03*
D13*
X197306695Y-158650170D03*
D14*
X192543555Y-161400170D03*
X202069835Y-155900170D03*
X199061822Y-151690139D03*
D15*
X200281695Y-163803021D03*
X194851568Y-164397765D03*
G36*
G01*
X312150000Y-129350000D02*
X313350000Y-129350000D01*
G75*
G02*
X313400000Y-129400000I0J-50000D01*
G01*
X313400000Y-130300000D01*
G75*
G02*
X313350000Y-130350000I-50000J0D01*
G01*
X312150000Y-130350000D01*
G75*
G02*
X312100000Y-130300000I0J50000D01*
G01*
X312100000Y-129400000D01*
G75*
G02*
X312150000Y-129350000I50000J0D01*
G01*
G37*
G36*
G01*
X312150000Y-132650000D02*
X313350000Y-132650000D01*
G75*
G02*
X313400000Y-132700000I0J-50000D01*
G01*
X313400000Y-133600000D01*
G75*
G02*
X313350000Y-133650000I-50000J0D01*
G01*
X312150000Y-133650000D01*
G75*
G02*
X312100000Y-133600000I0J50000D01*
G01*
X312100000Y-132700000D01*
G75*
G02*
X312150000Y-132650000I50000J0D01*
G01*
G37*
G36*
G01*
X312150000Y-112350000D02*
X313350000Y-112350000D01*
G75*
G02*
X313400000Y-112400000I0J-50000D01*
G01*
X313400000Y-113300000D01*
G75*
G02*
X313350000Y-113350000I-50000J0D01*
G01*
X312150000Y-113350000D01*
G75*
G02*
X312100000Y-113300000I0J50000D01*
G01*
X312100000Y-112400000D01*
G75*
G02*
X312150000Y-112350000I50000J0D01*
G01*
G37*
G36*
G01*
X312150000Y-115650000D02*
X313350000Y-115650000D01*
G75*
G02*
X313400000Y-115700000I0J-50000D01*
G01*
X313400000Y-116600000D01*
G75*
G02*
X313350000Y-116650000I-50000J0D01*
G01*
X312150000Y-116650000D01*
G75*
G02*
X312100000Y-116600000I0J50000D01*
G01*
X312100000Y-115700000D01*
G75*
G02*
X312150000Y-115650000I50000J0D01*
G01*
G37*
G36*
G01*
X312150000Y-95350000D02*
X313350000Y-95350000D01*
G75*
G02*
X313400000Y-95400000I0J-50000D01*
G01*
X313400000Y-96300000D01*
G75*
G02*
X313350000Y-96350000I-50000J0D01*
G01*
X312150000Y-96350000D01*
G75*
G02*
X312100000Y-96300000I0J50000D01*
G01*
X312100000Y-95400000D01*
G75*
G02*
X312150000Y-95350000I50000J0D01*
G01*
G37*
G36*
G01*
X312150000Y-98650000D02*
X313350000Y-98650000D01*
G75*
G02*
X313400000Y-98700000I0J-50000D01*
G01*
X313400000Y-99600000D01*
G75*
G02*
X313350000Y-99650000I-50000J0D01*
G01*
X312150000Y-99650000D01*
G75*
G02*
X312100000Y-99600000I0J50000D01*
G01*
X312100000Y-98700000D01*
G75*
G02*
X312150000Y-98650000I50000J0D01*
G01*
G37*
G36*
G01*
X312150000Y-78350000D02*
X313350000Y-78350000D01*
G75*
G02*
X313400000Y-78400000I0J-50000D01*
G01*
X313400000Y-79300000D01*
G75*
G02*
X313350000Y-79350000I-50000J0D01*
G01*
X312150000Y-79350000D01*
G75*
G02*
X312100000Y-79300000I0J50000D01*
G01*
X312100000Y-78400000D01*
G75*
G02*
X312150000Y-78350000I50000J0D01*
G01*
G37*
G36*
G01*
X312150000Y-81650000D02*
X313350000Y-81650000D01*
G75*
G02*
X313400000Y-81700000I0J-50000D01*
G01*
X313400000Y-82600000D01*
G75*
G02*
X313350000Y-82650000I-50000J0D01*
G01*
X312150000Y-82650000D01*
G75*
G02*
X312100000Y-82600000I0J50000D01*
G01*
X312100000Y-81700000D01*
G75*
G02*
X312150000Y-81650000I50000J0D01*
G01*
G37*
G36*
G01*
X295150000Y-142100000D02*
X296350000Y-142100000D01*
G75*
G02*
X296400000Y-142150000I0J-50000D01*
G01*
X296400000Y-143050000D01*
G75*
G02*
X296350000Y-143100000I-50000J0D01*
G01*
X295150000Y-143100000D01*
G75*
G02*
X295100000Y-143050000I0J50000D01*
G01*
X295100000Y-142150000D01*
G75*
G02*
X295150000Y-142100000I50000J0D01*
G01*
G37*
G36*
G01*
X295150000Y-145400000D02*
X296350000Y-145400000D01*
G75*
G02*
X296400000Y-145450000I0J-50000D01*
G01*
X296400000Y-146350000D01*
G75*
G02*
X296350000Y-146400000I-50000J0D01*
G01*
X295150000Y-146400000D01*
G75*
G02*
X295100000Y-146350000I0J50000D01*
G01*
X295100000Y-145450000D01*
G75*
G02*
X295150000Y-145400000I50000J0D01*
G01*
G37*
G36*
G01*
X295150000Y-125100000D02*
X296350000Y-125100000D01*
G75*
G02*
X296400000Y-125150000I0J-50000D01*
G01*
X296400000Y-126050000D01*
G75*
G02*
X296350000Y-126100000I-50000J0D01*
G01*
X295150000Y-126100000D01*
G75*
G02*
X295100000Y-126050000I0J50000D01*
G01*
X295100000Y-125150000D01*
G75*
G02*
X295150000Y-125100000I50000J0D01*
G01*
G37*
G36*
G01*
X295150000Y-128400000D02*
X296350000Y-128400000D01*
G75*
G02*
X296400000Y-128450000I0J-50000D01*
G01*
X296400000Y-129350000D01*
G75*
G02*
X296350000Y-129400000I-50000J0D01*
G01*
X295150000Y-129400000D01*
G75*
G02*
X295100000Y-129350000I0J50000D01*
G01*
X295100000Y-128450000D01*
G75*
G02*
X295150000Y-128400000I50000J0D01*
G01*
G37*
G36*
G01*
X295150000Y-108100000D02*
X296350000Y-108100000D01*
G75*
G02*
X296400000Y-108150000I0J-50000D01*
G01*
X296400000Y-109050000D01*
G75*
G02*
X296350000Y-109100000I-50000J0D01*
G01*
X295150000Y-109100000D01*
G75*
G02*
X295100000Y-109050000I0J50000D01*
G01*
X295100000Y-108150000D01*
G75*
G02*
X295150000Y-108100000I50000J0D01*
G01*
G37*
G36*
G01*
X295150000Y-111400000D02*
X296350000Y-111400000D01*
G75*
G02*
X296400000Y-111450000I0J-50000D01*
G01*
X296400000Y-112350000D01*
G75*
G02*
X296350000Y-112400000I-50000J0D01*
G01*
X295150000Y-112400000D01*
G75*
G02*
X295100000Y-112350000I0J50000D01*
G01*
X295100000Y-111450000D01*
G75*
G02*
X295150000Y-111400000I50000J0D01*
G01*
G37*
G36*
G01*
X295150000Y-91100000D02*
X296350000Y-91100000D01*
G75*
G02*
X296400000Y-91150000I0J-50000D01*
G01*
X296400000Y-92050000D01*
G75*
G02*
X296350000Y-92100000I-50000J0D01*
G01*
X295150000Y-92100000D01*
G75*
G02*
X295100000Y-92050000I0J50000D01*
G01*
X295100000Y-91150000D01*
G75*
G02*
X295150000Y-91100000I50000J0D01*
G01*
G37*
G36*
G01*
X295150000Y-94400000D02*
X296350000Y-94400000D01*
G75*
G02*
X296400000Y-94450000I0J-50000D01*
G01*
X296400000Y-95350000D01*
G75*
G02*
X296350000Y-95400000I-50000J0D01*
G01*
X295150000Y-95400000D01*
G75*
G02*
X295100000Y-95350000I0J50000D01*
G01*
X295100000Y-94450000D01*
G75*
G02*
X295150000Y-94400000I50000J0D01*
G01*
G37*
G36*
G01*
X295150000Y-74100000D02*
X296350000Y-74100000D01*
G75*
G02*
X296400000Y-74150000I0J-50000D01*
G01*
X296400000Y-75050000D01*
G75*
G02*
X296350000Y-75100000I-50000J0D01*
G01*
X295150000Y-75100000D01*
G75*
G02*
X295100000Y-75050000I0J50000D01*
G01*
X295100000Y-74150000D01*
G75*
G02*
X295150000Y-74100000I50000J0D01*
G01*
G37*
G36*
G01*
X295150000Y-77400000D02*
X296350000Y-77400000D01*
G75*
G02*
X296400000Y-77450000I0J-50000D01*
G01*
X296400000Y-78350000D01*
G75*
G02*
X296350000Y-78400000I-50000J0D01*
G01*
X295150000Y-78400000D01*
G75*
G02*
X295100000Y-78350000I0J50000D01*
G01*
X295100000Y-77450000D01*
G75*
G02*
X295150000Y-77400000I50000J0D01*
G01*
G37*
G36*
G01*
X278150000Y-130880000D02*
X279350000Y-130880000D01*
G75*
G02*
X279400000Y-130930000I0J-50000D01*
G01*
X279400000Y-131830000D01*
G75*
G02*
X279350000Y-131880000I-50000J0D01*
G01*
X278150000Y-131880000D01*
G75*
G02*
X278100000Y-131830000I0J50000D01*
G01*
X278100000Y-130930000D01*
G75*
G02*
X278150000Y-130880000I50000J0D01*
G01*
G37*
G36*
G01*
X278150000Y-134180000D02*
X279350000Y-134180000D01*
G75*
G02*
X279400000Y-134230000I0J-50000D01*
G01*
X279400000Y-135130000D01*
G75*
G02*
X279350000Y-135180000I-50000J0D01*
G01*
X278150000Y-135180000D01*
G75*
G02*
X278100000Y-135130000I0J50000D01*
G01*
X278100000Y-134230000D01*
G75*
G02*
X278150000Y-134180000I50000J0D01*
G01*
G37*
G36*
G01*
X278150000Y-113880000D02*
X279350000Y-113880000D01*
G75*
G02*
X279400000Y-113930000I0J-50000D01*
G01*
X279400000Y-114830000D01*
G75*
G02*
X279350000Y-114880000I-50000J0D01*
G01*
X278150000Y-114880000D01*
G75*
G02*
X278100000Y-114830000I0J50000D01*
G01*
X278100000Y-113930000D01*
G75*
G02*
X278150000Y-113880000I50000J0D01*
G01*
G37*
G36*
G01*
X278150000Y-117180000D02*
X279350000Y-117180000D01*
G75*
G02*
X279400000Y-117230000I0J-50000D01*
G01*
X279400000Y-118130000D01*
G75*
G02*
X279350000Y-118180000I-50000J0D01*
G01*
X278150000Y-118180000D01*
G75*
G02*
X278100000Y-118130000I0J50000D01*
G01*
X278100000Y-117230000D01*
G75*
G02*
X278150000Y-117180000I50000J0D01*
G01*
G37*
G36*
G01*
X278150000Y-96880000D02*
X279350000Y-96880000D01*
G75*
G02*
X279400000Y-96930000I0J-50000D01*
G01*
X279400000Y-97830000D01*
G75*
G02*
X279350000Y-97880000I-50000J0D01*
G01*
X278150000Y-97880000D01*
G75*
G02*
X278100000Y-97830000I0J50000D01*
G01*
X278100000Y-96930000D01*
G75*
G02*
X278150000Y-96880000I50000J0D01*
G01*
G37*
G36*
G01*
X278150000Y-100180000D02*
X279350000Y-100180000D01*
G75*
G02*
X279400000Y-100230000I0J-50000D01*
G01*
X279400000Y-101130000D01*
G75*
G02*
X279350000Y-101180000I-50000J0D01*
G01*
X278150000Y-101180000D01*
G75*
G02*
X278100000Y-101130000I0J50000D01*
G01*
X278100000Y-100230000D01*
G75*
G02*
X278150000Y-100180000I50000J0D01*
G01*
G37*
G36*
G01*
X278150000Y-79880000D02*
X279350000Y-79880000D01*
G75*
G02*
X279400000Y-79930000I0J-50000D01*
G01*
X279400000Y-80830000D01*
G75*
G02*
X279350000Y-80880000I-50000J0D01*
G01*
X278150000Y-80880000D01*
G75*
G02*
X278100000Y-80830000I0J50000D01*
G01*
X278100000Y-79930000D01*
G75*
G02*
X278150000Y-79880000I50000J0D01*
G01*
G37*
G36*
G01*
X278150000Y-83180000D02*
X279350000Y-83180000D01*
G75*
G02*
X279400000Y-83230000I0J-50000D01*
G01*
X279400000Y-84130000D01*
G75*
G02*
X279350000Y-84180000I-50000J0D01*
G01*
X278150000Y-84180000D01*
G75*
G02*
X278100000Y-84130000I0J50000D01*
G01*
X278100000Y-83230000D01*
G75*
G02*
X278150000Y-83180000I50000J0D01*
G01*
G37*
G36*
G01*
X278150000Y-62880000D02*
X279350000Y-62880000D01*
G75*
G02*
X279400000Y-62930000I0J-50000D01*
G01*
X279400000Y-63830000D01*
G75*
G02*
X279350000Y-63880000I-50000J0D01*
G01*
X278150000Y-63880000D01*
G75*
G02*
X278100000Y-63830000I0J50000D01*
G01*
X278100000Y-62930000D01*
G75*
G02*
X278150000Y-62880000I50000J0D01*
G01*
G37*
G36*
G01*
X278150000Y-66180000D02*
X279350000Y-66180000D01*
G75*
G02*
X279400000Y-66230000I0J-50000D01*
G01*
X279400000Y-67130000D01*
G75*
G02*
X279350000Y-67180000I-50000J0D01*
G01*
X278150000Y-67180000D01*
G75*
G02*
X278100000Y-67130000I0J50000D01*
G01*
X278100000Y-66230000D01*
G75*
G02*
X278150000Y-66180000I50000J0D01*
G01*
G37*
G36*
G01*
X261150000Y-118130000D02*
X262350000Y-118130000D01*
G75*
G02*
X262400000Y-118180000I0J-50000D01*
G01*
X262400000Y-119080000D01*
G75*
G02*
X262350000Y-119130000I-50000J0D01*
G01*
X261150000Y-119130000D01*
G75*
G02*
X261100000Y-119080000I0J50000D01*
G01*
X261100000Y-118180000D01*
G75*
G02*
X261150000Y-118130000I50000J0D01*
G01*
G37*
G36*
G01*
X261150000Y-121430000D02*
X262350000Y-121430000D01*
G75*
G02*
X262400000Y-121480000I0J-50000D01*
G01*
X262400000Y-122380000D01*
G75*
G02*
X262350000Y-122430000I-50000J0D01*
G01*
X261150000Y-122430000D01*
G75*
G02*
X261100000Y-122380000I0J50000D01*
G01*
X261100000Y-121480000D01*
G75*
G02*
X261150000Y-121430000I50000J0D01*
G01*
G37*
G36*
G01*
X261150000Y-101130000D02*
X262350000Y-101130000D01*
G75*
G02*
X262400000Y-101180000I0J-50000D01*
G01*
X262400000Y-102080000D01*
G75*
G02*
X262350000Y-102130000I-50000J0D01*
G01*
X261150000Y-102130000D01*
G75*
G02*
X261100000Y-102080000I0J50000D01*
G01*
X261100000Y-101180000D01*
G75*
G02*
X261150000Y-101130000I50000J0D01*
G01*
G37*
G36*
G01*
X261150000Y-104430000D02*
X262350000Y-104430000D01*
G75*
G02*
X262400000Y-104480000I0J-50000D01*
G01*
X262400000Y-105380000D01*
G75*
G02*
X262350000Y-105430000I-50000J0D01*
G01*
X261150000Y-105430000D01*
G75*
G02*
X261100000Y-105380000I0J50000D01*
G01*
X261100000Y-104480000D01*
G75*
G02*
X261150000Y-104430000I50000J0D01*
G01*
G37*
G36*
G01*
X261150000Y-84130000D02*
X262350000Y-84130000D01*
G75*
G02*
X262400000Y-84180000I0J-50000D01*
G01*
X262400000Y-85080000D01*
G75*
G02*
X262350000Y-85130000I-50000J0D01*
G01*
X261150000Y-85130000D01*
G75*
G02*
X261100000Y-85080000I0J50000D01*
G01*
X261100000Y-84180000D01*
G75*
G02*
X261150000Y-84130000I50000J0D01*
G01*
G37*
G36*
G01*
X261150000Y-87430000D02*
X262350000Y-87430000D01*
G75*
G02*
X262400000Y-87480000I0J-50000D01*
G01*
X262400000Y-88380000D01*
G75*
G02*
X262350000Y-88430000I-50000J0D01*
G01*
X261150000Y-88430000D01*
G75*
G02*
X261100000Y-88380000I0J50000D01*
G01*
X261100000Y-87480000D01*
G75*
G02*
X261150000Y-87430000I50000J0D01*
G01*
G37*
G36*
G01*
X261150000Y-67130000D02*
X262350000Y-67130000D01*
G75*
G02*
X262400000Y-67180000I0J-50000D01*
G01*
X262400000Y-68080000D01*
G75*
G02*
X262350000Y-68130000I-50000J0D01*
G01*
X261150000Y-68130000D01*
G75*
G02*
X261100000Y-68080000I0J50000D01*
G01*
X261100000Y-67180000D01*
G75*
G02*
X261150000Y-67130000I50000J0D01*
G01*
G37*
G36*
G01*
X261150000Y-70430000D02*
X262350000Y-70430000D01*
G75*
G02*
X262400000Y-70480000I0J-50000D01*
G01*
X262400000Y-71380000D01*
G75*
G02*
X262350000Y-71430000I-50000J0D01*
G01*
X261150000Y-71430000D01*
G75*
G02*
X261100000Y-71380000I0J50000D01*
G01*
X261100000Y-70480000D01*
G75*
G02*
X261150000Y-70430000I50000J0D01*
G01*
G37*
G36*
G01*
X244150000Y-120680000D02*
X245350000Y-120680000D01*
G75*
G02*
X245400000Y-120730000I0J-50000D01*
G01*
X245400000Y-121630000D01*
G75*
G02*
X245350000Y-121680000I-50000J0D01*
G01*
X244150000Y-121680000D01*
G75*
G02*
X244100000Y-121630000I0J50000D01*
G01*
X244100000Y-120730000D01*
G75*
G02*
X244150000Y-120680000I50000J0D01*
G01*
G37*
G36*
G01*
X244150000Y-123980000D02*
X245350000Y-123980000D01*
G75*
G02*
X245400000Y-124030000I0J-50000D01*
G01*
X245400000Y-124930000D01*
G75*
G02*
X245350000Y-124980000I-50000J0D01*
G01*
X244150000Y-124980000D01*
G75*
G02*
X244100000Y-124930000I0J50000D01*
G01*
X244100000Y-124030000D01*
G75*
G02*
X244150000Y-123980000I50000J0D01*
G01*
G37*
G36*
G01*
X244150000Y-103680000D02*
X245350000Y-103680000D01*
G75*
G02*
X245400000Y-103730000I0J-50000D01*
G01*
X245400000Y-104630000D01*
G75*
G02*
X245350000Y-104680000I-50000J0D01*
G01*
X244150000Y-104680000D01*
G75*
G02*
X244100000Y-104630000I0J50000D01*
G01*
X244100000Y-103730000D01*
G75*
G02*
X244150000Y-103680000I50000J0D01*
G01*
G37*
G36*
G01*
X244150000Y-106980000D02*
X245350000Y-106980000D01*
G75*
G02*
X245400000Y-107030000I0J-50000D01*
G01*
X245400000Y-107930000D01*
G75*
G02*
X245350000Y-107980000I-50000J0D01*
G01*
X244150000Y-107980000D01*
G75*
G02*
X244100000Y-107930000I0J50000D01*
G01*
X244100000Y-107030000D01*
G75*
G02*
X244150000Y-106980000I50000J0D01*
G01*
G37*
G36*
G01*
X244150000Y-86680000D02*
X245350000Y-86680000D01*
G75*
G02*
X245400000Y-86730000I0J-50000D01*
G01*
X245400000Y-87630000D01*
G75*
G02*
X245350000Y-87680000I-50000J0D01*
G01*
X244150000Y-87680000D01*
G75*
G02*
X244100000Y-87630000I0J50000D01*
G01*
X244100000Y-86730000D01*
G75*
G02*
X244150000Y-86680000I50000J0D01*
G01*
G37*
G36*
G01*
X244150000Y-89980000D02*
X245350000Y-89980000D01*
G75*
G02*
X245400000Y-90030000I0J-50000D01*
G01*
X245400000Y-90930000D01*
G75*
G02*
X245350000Y-90980000I-50000J0D01*
G01*
X244150000Y-90980000D01*
G75*
G02*
X244100000Y-90930000I0J50000D01*
G01*
X244100000Y-90030000D01*
G75*
G02*
X244150000Y-89980000I50000J0D01*
G01*
G37*
G36*
G01*
X244150000Y-69680000D02*
X245350000Y-69680000D01*
G75*
G02*
X245400000Y-69730000I0J-50000D01*
G01*
X245400000Y-70630000D01*
G75*
G02*
X245350000Y-70680000I-50000J0D01*
G01*
X244150000Y-70680000D01*
G75*
G02*
X244100000Y-70630000I0J50000D01*
G01*
X244100000Y-69730000D01*
G75*
G02*
X244150000Y-69680000I50000J0D01*
G01*
G37*
G36*
G01*
X244150000Y-72980000D02*
X245350000Y-72980000D01*
G75*
G02*
X245400000Y-73030000I0J-50000D01*
G01*
X245400000Y-73930000D01*
G75*
G02*
X245350000Y-73980000I-50000J0D01*
G01*
X244150000Y-73980000D01*
G75*
G02*
X244100000Y-73930000I0J50000D01*
G01*
X244100000Y-73030000D01*
G75*
G02*
X244150000Y-72980000I50000J0D01*
G01*
G37*
G36*
G01*
X227150000Y-124080000D02*
X228350000Y-124080000D01*
G75*
G02*
X228400000Y-124130000I0J-50000D01*
G01*
X228400000Y-125030000D01*
G75*
G02*
X228350000Y-125080000I-50000J0D01*
G01*
X227150000Y-125080000D01*
G75*
G02*
X227100000Y-125030000I0J50000D01*
G01*
X227100000Y-124130000D01*
G75*
G02*
X227150000Y-124080000I50000J0D01*
G01*
G37*
G36*
G01*
X227150000Y-127380000D02*
X228350000Y-127380000D01*
G75*
G02*
X228400000Y-127430000I0J-50000D01*
G01*
X228400000Y-128330000D01*
G75*
G02*
X228350000Y-128380000I-50000J0D01*
G01*
X227150000Y-128380000D01*
G75*
G02*
X227100000Y-128330000I0J50000D01*
G01*
X227100000Y-127430000D01*
G75*
G02*
X227150000Y-127380000I50000J0D01*
G01*
G37*
G36*
G01*
X227150000Y-107080000D02*
X228350000Y-107080000D01*
G75*
G02*
X228400000Y-107130000I0J-50000D01*
G01*
X228400000Y-108030000D01*
G75*
G02*
X228350000Y-108080000I-50000J0D01*
G01*
X227150000Y-108080000D01*
G75*
G02*
X227100000Y-108030000I0J50000D01*
G01*
X227100000Y-107130000D01*
G75*
G02*
X227150000Y-107080000I50000J0D01*
G01*
G37*
G36*
G01*
X227150000Y-110380000D02*
X228350000Y-110380000D01*
G75*
G02*
X228400000Y-110430000I0J-50000D01*
G01*
X228400000Y-111330000D01*
G75*
G02*
X228350000Y-111380000I-50000J0D01*
G01*
X227150000Y-111380000D01*
G75*
G02*
X227100000Y-111330000I0J50000D01*
G01*
X227100000Y-110430000D01*
G75*
G02*
X227150000Y-110380000I50000J0D01*
G01*
G37*
G36*
G01*
X227150000Y-90080000D02*
X228350000Y-90080000D01*
G75*
G02*
X228400000Y-90130000I0J-50000D01*
G01*
X228400000Y-91030000D01*
G75*
G02*
X228350000Y-91080000I-50000J0D01*
G01*
X227150000Y-91080000D01*
G75*
G02*
X227100000Y-91030000I0J50000D01*
G01*
X227100000Y-90130000D01*
G75*
G02*
X227150000Y-90080000I50000J0D01*
G01*
G37*
G36*
G01*
X227150000Y-93380000D02*
X228350000Y-93380000D01*
G75*
G02*
X228400000Y-93430000I0J-50000D01*
G01*
X228400000Y-94330000D01*
G75*
G02*
X228350000Y-94380000I-50000J0D01*
G01*
X227150000Y-94380000D01*
G75*
G02*
X227100000Y-94330000I0J50000D01*
G01*
X227100000Y-93430000D01*
G75*
G02*
X227150000Y-93380000I50000J0D01*
G01*
G37*
G36*
G01*
X227150000Y-73080000D02*
X228350000Y-73080000D01*
G75*
G02*
X228400000Y-73130000I0J-50000D01*
G01*
X228400000Y-74030000D01*
G75*
G02*
X228350000Y-74080000I-50000J0D01*
G01*
X227150000Y-74080000D01*
G75*
G02*
X227100000Y-74030000I0J50000D01*
G01*
X227100000Y-73130000D01*
G75*
G02*
X227150000Y-73080000I50000J0D01*
G01*
G37*
G36*
G01*
X227150000Y-76380000D02*
X228350000Y-76380000D01*
G75*
G02*
X228400000Y-76430000I0J-50000D01*
G01*
X228400000Y-77330000D01*
G75*
G02*
X228350000Y-77380000I-50000J0D01*
G01*
X227150000Y-77380000D01*
G75*
G02*
X227100000Y-77330000I0J50000D01*
G01*
X227100000Y-76430000D01*
G75*
G02*
X227150000Y-76380000I50000J0D01*
G01*
G37*
G36*
G01*
X210150000Y-120680000D02*
X211350000Y-120680000D01*
G75*
G02*
X211400000Y-120730000I0J-50000D01*
G01*
X211400000Y-121630000D01*
G75*
G02*
X211350000Y-121680000I-50000J0D01*
G01*
X210150000Y-121680000D01*
G75*
G02*
X210100000Y-121630000I0J50000D01*
G01*
X210100000Y-120730000D01*
G75*
G02*
X210150000Y-120680000I50000J0D01*
G01*
G37*
G36*
G01*
X210150000Y-123980000D02*
X211350000Y-123980000D01*
G75*
G02*
X211400000Y-124030000I0J-50000D01*
G01*
X211400000Y-124930000D01*
G75*
G02*
X211350000Y-124980000I-50000J0D01*
G01*
X210150000Y-124980000D01*
G75*
G02*
X210100000Y-124930000I0J50000D01*
G01*
X210100000Y-124030000D01*
G75*
G02*
X210150000Y-123980000I50000J0D01*
G01*
G37*
G36*
G01*
X210150000Y-103680000D02*
X211350000Y-103680000D01*
G75*
G02*
X211400000Y-103730000I0J-50000D01*
G01*
X211400000Y-104630000D01*
G75*
G02*
X211350000Y-104680000I-50000J0D01*
G01*
X210150000Y-104680000D01*
G75*
G02*
X210100000Y-104630000I0J50000D01*
G01*
X210100000Y-103730000D01*
G75*
G02*
X210150000Y-103680000I50000J0D01*
G01*
G37*
G36*
G01*
X210150000Y-106980000D02*
X211350000Y-106980000D01*
G75*
G02*
X211400000Y-107030000I0J-50000D01*
G01*
X211400000Y-107930000D01*
G75*
G02*
X211350000Y-107980000I-50000J0D01*
G01*
X210150000Y-107980000D01*
G75*
G02*
X210100000Y-107930000I0J50000D01*
G01*
X210100000Y-107030000D01*
G75*
G02*
X210150000Y-106980000I50000J0D01*
G01*
G37*
G36*
G01*
X210150000Y-86680000D02*
X211350000Y-86680000D01*
G75*
G02*
X211400000Y-86730000I0J-50000D01*
G01*
X211400000Y-87630000D01*
G75*
G02*
X211350000Y-87680000I-50000J0D01*
G01*
X210150000Y-87680000D01*
G75*
G02*
X210100000Y-87630000I0J50000D01*
G01*
X210100000Y-86730000D01*
G75*
G02*
X210150000Y-86680000I50000J0D01*
G01*
G37*
G36*
G01*
X210150000Y-89980000D02*
X211350000Y-89980000D01*
G75*
G02*
X211400000Y-90030000I0J-50000D01*
G01*
X211400000Y-90930000D01*
G75*
G02*
X211350000Y-90980000I-50000J0D01*
G01*
X210150000Y-90980000D01*
G75*
G02*
X210100000Y-90930000I0J50000D01*
G01*
X210100000Y-90030000D01*
G75*
G02*
X210150000Y-89980000I50000J0D01*
G01*
G37*
G36*
G01*
X237627561Y-139893867D02*
X238809330Y-139685490D01*
G75*
G02*
X238867252Y-139726048I8682J-49240D01*
G01*
X239023535Y-140612375D01*
G75*
G02*
X238982977Y-140670297I-49240J-8682D01*
G01*
X237801208Y-140878674D01*
G75*
G02*
X237743286Y-140838116I-8682J49240D01*
G01*
X237587003Y-139951789D01*
G75*
G02*
X237627561Y-139893867I49240J8682D01*
G01*
G37*
G36*
G01*
X238200599Y-143143733D02*
X239382368Y-142935356D01*
G75*
G02*
X239440290Y-142975914I8682J-49240D01*
G01*
X239596573Y-143862241D01*
G75*
G02*
X239556015Y-143920163I-49240J-8682D01*
G01*
X238374246Y-144128540D01*
G75*
G02*
X238316324Y-144087982I-8682J49240D01*
G01*
X238160041Y-143201655D01*
G75*
G02*
X238200599Y-143143733I49240J8682D01*
G01*
G37*
G36*
G01*
X217966816Y-144135770D02*
X219054385Y-143628629D01*
G75*
G02*
X219120831Y-143652813I21131J-45315D01*
G01*
X219501188Y-144468490D01*
G75*
G02*
X219477004Y-144534936I-45315J-21131D01*
G01*
X218389435Y-145042077D01*
G75*
G02*
X218322989Y-145017893I-21131J45315D01*
G01*
X217942632Y-144202216D01*
G75*
G02*
X217966816Y-144135770I45315J21131D01*
G01*
G37*
G36*
G01*
X219361456Y-147126586D02*
X220449025Y-146619445D01*
G75*
G02*
X220515471Y-146643629I21131J-45315D01*
G01*
X220895828Y-147459306D01*
G75*
G02*
X220871644Y-147525752I-45315J-21131D01*
G01*
X219784075Y-148032893D01*
G75*
G02*
X219717629Y-148008709I-21131J45315D01*
G01*
X219337272Y-147193032D01*
G75*
G02*
X219361456Y-147126586I45315J21131D01*
G01*
G37*
G36*
G01*
X201673777Y-151914178D02*
X202713007Y-151314178D01*
G75*
G02*
X202781308Y-151332479I25000J-43301D01*
G01*
X203231308Y-152111901D01*
G75*
G02*
X203213007Y-152180202I-43301J-25000D01*
G01*
X202173777Y-152780202D01*
G75*
G02*
X202105476Y-152761901I-25000J43301D01*
G01*
X201655476Y-151982479D01*
G75*
G02*
X201673777Y-151914178I43301J25000D01*
G01*
G37*
G36*
G01*
X203323777Y-154772062D02*
X204363007Y-154172062D01*
G75*
G02*
X204431308Y-154190363I25000J-43301D01*
G01*
X204881308Y-154969785D01*
G75*
G02*
X204863007Y-155038086I-43301J-25000D01*
G01*
X203823777Y-155638086D01*
G75*
G02*
X203755476Y-155619785I-25000J43301D01*
G01*
X203305476Y-154840363D01*
G75*
G02*
X203323777Y-154772062I43301J25000D01*
G01*
G37*
D16*
X267950000Y-40150000D03*
X267950000Y-55390000D03*
X265410000Y-40150000D03*
X265410000Y-55390000D03*
X262870000Y-40150000D03*
X262870000Y-55390000D03*
X260330000Y-40150000D03*
X260330000Y-55390000D03*
X257790000Y-40150000D03*
X257790000Y-55390000D03*
X255250000Y-40150000D03*
X255250000Y-55390000D03*
X252710000Y-40150000D03*
X252710000Y-55390000D03*
X250170000Y-40150000D03*
X250170000Y-55390000D03*
X247630000Y-40150000D03*
X247630000Y-55390000D03*
X245090000Y-40150000D03*
X245090000Y-55390000D03*
X242550000Y-40150000D03*
X242550000Y-55390000D03*
X240010000Y-40150000D03*
X240010000Y-55390000D03*
X242550000Y-52850000D03*
X242550000Y-50310000D03*
X242550000Y-47770000D03*
G36*
G01*
X223665000Y-59420000D02*
X222335000Y-59420000D01*
G75*
G02*
X222075000Y-59160000I0J260000D01*
G01*
X222075000Y-58380000D01*
G75*
G02*
X222335000Y-58120000I260000J0D01*
G01*
X223665000Y-58120000D01*
G75*
G02*
X223925000Y-58380000I0J-260000D01*
G01*
X223925000Y-59160000D01*
G75*
G02*
X223665000Y-59420000I-260000J0D01*
G01*
G37*
D17*
X223000000Y-56770000D03*
G36*
G01*
X223650000Y-44320000D02*
X224650000Y-44320000D01*
G75*
G02*
X224700000Y-44370000I0J-50000D01*
G01*
X224700000Y-45920000D01*
G75*
G02*
X224650000Y-45970000I-50000J0D01*
G01*
X223650000Y-45970000D01*
G75*
G02*
X223600000Y-45920000I0J50000D01*
G01*
X223600000Y-44370000D01*
G75*
G02*
X223650000Y-44320000I50000J0D01*
G01*
G37*
G36*
G01*
X225350000Y-44320000D02*
X226350000Y-44320000D01*
G75*
G02*
X226400000Y-44370000I0J-50000D01*
G01*
X226400000Y-45920000D01*
G75*
G02*
X226350000Y-45970000I-50000J0D01*
G01*
X225350000Y-45970000D01*
G75*
G02*
X225300000Y-45920000I0J50000D01*
G01*
X225300000Y-44370000D01*
G75*
G02*
X225350000Y-44320000I50000J0D01*
G01*
G37*
G36*
G01*
X223650000Y-49570000D02*
X224650000Y-49570000D01*
G75*
G02*
X224700000Y-49620000I0J-50000D01*
G01*
X224700000Y-51170000D01*
G75*
G02*
X224650000Y-51220000I-50000J0D01*
G01*
X223650000Y-51220000D01*
G75*
G02*
X223600000Y-51170000I0J50000D01*
G01*
X223600000Y-49620000D01*
G75*
G02*
X223650000Y-49570000I50000J0D01*
G01*
G37*
G36*
G01*
X225350000Y-49570000D02*
X226350000Y-49570000D01*
G75*
G02*
X226400000Y-49620000I0J-50000D01*
G01*
X226400000Y-51170000D01*
G75*
G02*
X226350000Y-51220000I-50000J0D01*
G01*
X225350000Y-51220000D01*
G75*
G02*
X225300000Y-51170000I0J50000D01*
G01*
X225300000Y-49620000D01*
G75*
G02*
X225350000Y-49570000I50000J0D01*
G01*
G37*
G36*
G01*
X225900000Y-38245000D02*
X225900000Y-39045000D01*
G75*
G02*
X225850000Y-39095000I-50000J0D01*
G01*
X224850000Y-39095000D01*
G75*
G02*
X224800000Y-39045000I0J50000D01*
G01*
X224800000Y-38245000D01*
G75*
G02*
X224850000Y-38195000I50000J0D01*
G01*
X225850000Y-38195000D01*
G75*
G02*
X225900000Y-38245000I0J-50000D01*
G01*
G37*
G36*
G01*
X225900000Y-40455000D02*
X225900000Y-41255000D01*
G75*
G02*
X225850000Y-41305000I-50000J0D01*
G01*
X224850000Y-41305000D01*
G75*
G02*
X224800000Y-41255000I0J50000D01*
G01*
X224800000Y-40455000D01*
G75*
G02*
X224850000Y-40405000I50000J0D01*
G01*
X225850000Y-40405000D01*
G75*
G02*
X225900000Y-40455000I0J-50000D01*
G01*
G37*
G36*
G01*
X233200000Y-40455000D02*
X233200000Y-41255000D01*
G75*
G02*
X233150000Y-41305000I-50000J0D01*
G01*
X232150000Y-41305000D01*
G75*
G02*
X232100000Y-41255000I0J50000D01*
G01*
X232100000Y-40455000D01*
G75*
G02*
X232150000Y-40405000I50000J0D01*
G01*
X233150000Y-40405000D01*
G75*
G02*
X233200000Y-40455000I0J-50000D01*
G01*
G37*
G36*
G01*
X233200000Y-38245000D02*
X233200000Y-39045000D01*
G75*
G02*
X233150000Y-39095000I-50000J0D01*
G01*
X232150000Y-39095000D01*
G75*
G02*
X232100000Y-39045000I0J50000D01*
G01*
X232100000Y-38245000D01*
G75*
G02*
X232150000Y-38195000I50000J0D01*
G01*
X233150000Y-38195000D01*
G75*
G02*
X233200000Y-38245000I0J-50000D01*
G01*
G37*
G36*
G01*
X231650000Y-40755000D02*
X231650000Y-42255000D01*
G75*
G02*
X231600000Y-42305000I-50000J0D01*
G01*
X230900000Y-42305000D01*
G75*
G02*
X230850000Y-42255000I0J50000D01*
G01*
X230850000Y-40755000D01*
G75*
G02*
X230900000Y-40705000I50000J0D01*
G01*
X231600000Y-40705000D01*
G75*
G02*
X231650000Y-40755000I0J-50000D01*
G01*
G37*
G36*
G01*
X228650000Y-40755000D02*
X228650000Y-42255000D01*
G75*
G02*
X228600000Y-42305000I-50000J0D01*
G01*
X227900000Y-42305000D01*
G75*
G02*
X227850000Y-42255000I0J50000D01*
G01*
X227850000Y-40755000D01*
G75*
G02*
X227900000Y-40705000I50000J0D01*
G01*
X228600000Y-40705000D01*
G75*
G02*
X228650000Y-40755000I0J-50000D01*
G01*
G37*
G36*
G01*
X227150000Y-40755000D02*
X227150000Y-42255000D01*
G75*
G02*
X227100000Y-42305000I-50000J0D01*
G01*
X226400000Y-42305000D01*
G75*
G02*
X226350000Y-42255000I0J50000D01*
G01*
X226350000Y-40755000D01*
G75*
G02*
X226400000Y-40705000I50000J0D01*
G01*
X227100000Y-40705000D01*
G75*
G02*
X227150000Y-40755000I0J-50000D01*
G01*
G37*
D18*
X227500000Y-39745000D03*
X230500000Y-39745000D03*
%LPD*%
M02*
