%TF.GenerationSoftware,KiCad,Pcbnew,9.0.7+1*%
%TF.CreationDate,2026-03-08T17:54:10+00:00*%
%TF.ProjectId,right_pcb,72696768-745f-4706-9362-2e6b69636164,v0.2*%
%TF.SameCoordinates,Original*%
%TF.FileFunction,Drillmap*%
%TF.FilePolarity,Positive*%
%FSLAX45Y45*%
G04 Gerber Fmt 4.5, Leading zero omitted, Abs format (unit mm)*
G04 Created by KiCad (PCBNEW 9.0.7+1) date 2026-03-08 17:54:10*
%MOMM*%
%LPD*%
G01*
G04 APERTURE LIST*
%ADD10C,0.150000*%
%ADD11C,0.200000*%
%ADD12C,0.100000*%
%ADD13C,0.190000*%
%ADD14C,0.300000*%
%ADD15C,0.500000*%
G04 APERTURE END LIST*
D10*
X27900000Y-5553000D02*
X27225000Y-5553000D01*
X19200000Y-9933000D02*
X19200000Y-11533000D01*
X31600000Y-10700000D02*
G75*
G02*
X31595804Y-10750000I-300020J0D01*
G01*
X26300000Y-14553000D02*
X27700000Y-14553000D01*
X19200000Y-8233000D02*
G75*
G02*
X19500000Y-7933000I300000J0D01*
G01*
X21042761Y-16381585D02*
X22492853Y-15705395D01*
X29900000Y-7100000D02*
X29900000Y-6975000D01*
X21042761Y-16381585D02*
G75*
G02*
X21006149Y-16395819I-126731J271765D01*
G01*
X27700000Y-14553000D02*
X27700000Y-15375000D01*
X31600000Y-9000000D02*
G75*
G02*
X31595804Y-9050000I-300020J0D01*
G01*
X21900000Y-5577000D02*
G75*
G02*
X22200000Y-5277000I300000J0D01*
G01*
X21900000Y-5577000D02*
X21900000Y-6573000D01*
X19500000Y-13533000D02*
G75*
G02*
X19200000Y-13233000I0J300000D01*
G01*
X22225000Y-5277000D02*
X22200000Y-5277000D01*
X28000000Y-15675000D02*
X29600000Y-15675000D01*
X31595804Y-10750000D02*
G75*
G02*
X31600001Y-10800000I-295764J-50000D01*
G01*
X18378042Y-15722197D02*
G75*
G02*
X18487850Y-15312390I259818J149997D01*
G01*
X21200000Y-13873000D02*
G75*
G02*
X20900000Y-13573000I0J300000D01*
G01*
X20900000Y-6873000D02*
X20900000Y-7933000D01*
X24796606Y-13278000D02*
X26000000Y-13278000D01*
X26000000Y-13278000D02*
X26000000Y-14253000D01*
X24344207Y-15069833D02*
G75*
G02*
X24100859Y-15417368I-295437J-52097D01*
G01*
X31600000Y-10700000D02*
X31600000Y-9100000D01*
X19204196Y-11583000D02*
G75*
G02*
X19199999Y-11533000I295764J50000D01*
G01*
X28000000Y-15675000D02*
G75*
G02*
X27700000Y-15375000I0J300000D01*
G01*
X22525167Y-15695207D02*
X24100859Y-15417370D01*
X22508191Y-15697702D02*
G75*
G02*
X22492854Y-15705395I-142201J264352D01*
G01*
X29900000Y-15375000D02*
X29900000Y-14400000D01*
X31595804Y-12450000D02*
G75*
G02*
X31600001Y-12500000I-295764J-50000D01*
G01*
X21216795Y-13873000D02*
X20113001Y-14387707D01*
X29900000Y-14400000D02*
X31300000Y-14400000D01*
X19873490Y-14512389D02*
G75*
G02*
X20005070Y-14472764I150000J-259821D01*
G01*
X31600000Y-14100000D02*
X31600000Y-12500000D01*
X22225000Y-4077000D02*
G75*
G02*
X22525000Y-3777000I300000J0D01*
G01*
X27225000Y-5553000D02*
X27225000Y-4077000D01*
X31600000Y-12400000D02*
X31600000Y-10800000D01*
X22525167Y-15695207D02*
G75*
G02*
X22508191Y-15697702I-52127J295667D01*
G01*
X19873490Y-14512389D02*
X18487849Y-15312389D01*
X26300000Y-14553000D02*
G75*
G02*
X26000000Y-14253000I0J300000D01*
G01*
X20900000Y-13533000D02*
X20900000Y-13573000D01*
X28200000Y-6675000D02*
X28200000Y-5853000D01*
X26925000Y-3777000D02*
G75*
G02*
X27225000Y-4077000I0J-300000D01*
G01*
X24344207Y-15069833D02*
X24073222Y-13533000D01*
X19587849Y-17217645D02*
G75*
G02*
X19178043Y-17107836I-149999J259805D01*
G01*
X22225000Y-4077000D02*
X22225000Y-5277000D01*
X19204196Y-9883000D02*
G75*
G02*
X19199999Y-9833000I295764J50000D01*
G01*
X24073222Y-13533000D02*
X24500000Y-13533000D01*
X31595804Y-9050000D02*
G75*
G02*
X31600001Y-9100000I-295764J-50000D01*
G01*
X29600000Y-6675000D02*
G75*
G02*
X29900000Y-6975000I0J-300000D01*
G01*
X31300000Y-7100000D02*
X29900000Y-7100000D01*
X21900000Y-6573000D02*
X21200000Y-6573000D01*
X19200000Y-11633000D02*
X19200000Y-13233000D01*
X26925000Y-3777000D02*
X22525000Y-3777000D01*
X21006150Y-16395819D02*
G75*
G02*
X20973490Y-16417645I-182640J237949D01*
G01*
X18378042Y-15722197D02*
X19178042Y-17107837D01*
X19200000Y-11633000D02*
G75*
G02*
X19204196Y-11583000I300020J0D01*
G01*
X20900000Y-7933000D02*
X19500000Y-7933000D01*
X31300000Y-7100000D02*
G75*
G02*
X31600000Y-7400000I0J-300000D01*
G01*
X27900000Y-5553000D02*
G75*
G02*
X28200000Y-5853000I0J-300000D01*
G01*
X19500000Y-13533000D02*
X20900000Y-13533000D01*
X29900000Y-15375000D02*
G75*
G02*
X29600000Y-15675000I-300000J0D01*
G01*
X19200000Y-8233000D02*
X19200000Y-9833000D01*
X19587849Y-17217645D02*
X20973490Y-16417645D01*
X31600000Y-9000000D02*
X31600000Y-7400000D01*
X29600000Y-6675000D02*
X28200000Y-6675000D01*
X20900000Y-6873000D02*
G75*
G02*
X21200000Y-6573000I300000J0D01*
G01*
X20005070Y-14472763D02*
G75*
G02*
X20113001Y-14387708I234700J-186817D01*
G01*
X21200000Y-13873000D02*
X21216795Y-13873000D01*
X24796606Y-13278000D02*
G75*
G02*
X24500000Y-13533000I-296606J45000D01*
G01*
X19200000Y-9933000D02*
G75*
G02*
X19204196Y-9883000I300020J0D01*
G01*
X31600000Y-12400000D02*
G75*
G02*
X31595804Y-12450000I-300020J0D01*
G01*
X31600000Y-14100000D02*
G75*
G02*
X31300000Y-14400000I-300000J0D01*
G01*
D11*
D12*
X22705000Y-3929500D02*
X22795000Y-4019500D01*
X22795000Y-3929500D02*
X22705000Y-4019500D01*
X23005000Y-3929500D02*
X23095000Y-4019500D01*
X23095000Y-3929500D02*
X23005000Y-4019500D01*
D13*
X19349356Y-16140017D02*
G75*
G02*
X19159356Y-16140017I-95000J0D01*
G01*
X19159356Y-16140017D02*
G75*
G02*
X19349356Y-16140017I95000J0D01*
G01*
X19845000Y-9033000D02*
G75*
G02*
X19655000Y-9033000I-95000J0D01*
G01*
X19655000Y-9033000D02*
G75*
G02*
X19845000Y-9033000I95000J0D01*
G01*
X19845000Y-10733000D02*
G75*
G02*
X19655000Y-10733000I-95000J0D01*
G01*
X19655000Y-10733000D02*
G75*
G02*
X19845000Y-10733000I95000J0D01*
G01*
X19845000Y-12433000D02*
G75*
G02*
X19655000Y-12433000I-95000J0D01*
G01*
X19655000Y-12433000D02*
G75*
G02*
X19845000Y-12433000I95000J0D01*
G01*
X20301984Y-15590017D02*
G75*
G02*
X20111984Y-15590017I-95000J0D01*
G01*
X20111984Y-15590017D02*
G75*
G02*
X20301984Y-15590017I95000J0D01*
G01*
X20899458Y-15278991D02*
G75*
G02*
X20709458Y-15278991I-95000J0D01*
G01*
X20709458Y-15278991D02*
G75*
G02*
X20899458Y-15278991I95000J0D01*
G01*
X20945000Y-9033000D02*
G75*
G02*
X20755000Y-9033000I-95000J0D01*
G01*
X20755000Y-9033000D02*
G75*
G02*
X20945000Y-9033000I95000J0D01*
G01*
X20945000Y-10733000D02*
G75*
G02*
X20755000Y-10733000I-95000J0D01*
G01*
X20755000Y-10733000D02*
G75*
G02*
X20945000Y-10733000I95000J0D01*
G01*
X20945000Y-12433000D02*
G75*
G02*
X20755000Y-12433000I-95000J0D01*
G01*
X20755000Y-12433000D02*
G75*
G02*
X20945000Y-12433000I95000J0D01*
G01*
X21545000Y-7673000D02*
G75*
G02*
X21355000Y-7673000I-95000J0D01*
G01*
X21355000Y-7673000D02*
G75*
G02*
X21545000Y-7673000I95000J0D01*
G01*
X21545000Y-9373000D02*
G75*
G02*
X21355000Y-9373000I-95000J0D01*
G01*
X21355000Y-9373000D02*
G75*
G02*
X21545000Y-9373000I95000J0D01*
G01*
X21545000Y-11073000D02*
G75*
G02*
X21355000Y-11073000I-95000J0D01*
G01*
X21355000Y-11073000D02*
G75*
G02*
X21545000Y-11073000I95000J0D01*
G01*
X21545000Y-12773000D02*
G75*
G02*
X21355000Y-12773000I-95000J0D01*
G01*
X21355000Y-12773000D02*
G75*
G02*
X21545000Y-12773000I95000J0D01*
G01*
X21896397Y-14814111D02*
G75*
G02*
X21706397Y-14814111I-95000J0D01*
G01*
X21706397Y-14814111D02*
G75*
G02*
X21896397Y-14814111I95000J0D01*
G01*
X22645000Y-7673000D02*
G75*
G02*
X22455000Y-7673000I-95000J0D01*
G01*
X22455000Y-7673000D02*
G75*
G02*
X22645000Y-7673000I95000J0D01*
G01*
X22645000Y-9373000D02*
G75*
G02*
X22455000Y-9373000I-95000J0D01*
G01*
X22455000Y-9373000D02*
G75*
G02*
X22645000Y-9373000I95000J0D01*
G01*
X22645000Y-11073000D02*
G75*
G02*
X22455000Y-11073000I-95000J0D01*
G01*
X22455000Y-11073000D02*
G75*
G02*
X22645000Y-11073000I95000J0D01*
G01*
X22645000Y-12773000D02*
G75*
G02*
X22455000Y-12773000I-95000J0D01*
G01*
X22455000Y-12773000D02*
G75*
G02*
X22645000Y-12773000I95000J0D01*
G01*
X22675356Y-14568506D02*
G75*
G02*
X22485356Y-14568506I-95000J0D01*
G01*
X22485356Y-14568506D02*
G75*
G02*
X22675356Y-14568506I95000J0D01*
G01*
X23245000Y-7333000D02*
G75*
G02*
X23055000Y-7333000I-95000J0D01*
G01*
X23055000Y-7333000D02*
G75*
G02*
X23245000Y-7333000I95000J0D01*
G01*
X23245000Y-9033000D02*
G75*
G02*
X23055000Y-9033000I-95000J0D01*
G01*
X23055000Y-9033000D02*
G75*
G02*
X23245000Y-9033000I95000J0D01*
G01*
X23245000Y-10733000D02*
G75*
G02*
X23055000Y-10733000I-95000J0D01*
G01*
X23055000Y-10733000D02*
G75*
G02*
X23245000Y-10733000I95000J0D01*
G01*
X23245000Y-12433000D02*
G75*
G02*
X23055000Y-12433000I-95000J0D01*
G01*
X23055000Y-12433000D02*
G75*
G02*
X23245000Y-12433000I95000J0D01*
G01*
X23758644Y-14377493D02*
G75*
G02*
X23568644Y-14377493I-95000J0D01*
G01*
X23568644Y-14377493D02*
G75*
G02*
X23758644Y-14377493I95000J0D01*
G01*
X24345000Y-7333000D02*
G75*
G02*
X24155000Y-7333000I-95000J0D01*
G01*
X24155000Y-7333000D02*
G75*
G02*
X24345000Y-7333000I95000J0D01*
G01*
X24345000Y-9033000D02*
G75*
G02*
X24155000Y-9033000I-95000J0D01*
G01*
X24155000Y-9033000D02*
G75*
G02*
X24345000Y-9033000I95000J0D01*
G01*
X24345000Y-10733000D02*
G75*
G02*
X24155000Y-10733000I-95000J0D01*
G01*
X24155000Y-10733000D02*
G75*
G02*
X24345000Y-10733000I95000J0D01*
G01*
X24345000Y-12433000D02*
G75*
G02*
X24155000Y-12433000I-95000J0D01*
G01*
X24155000Y-12433000D02*
G75*
G02*
X24345000Y-12433000I95000J0D01*
G01*
X24945000Y-7078000D02*
G75*
G02*
X24755000Y-7078000I-95000J0D01*
G01*
X24755000Y-7078000D02*
G75*
G02*
X24945000Y-7078000I95000J0D01*
G01*
X24945000Y-8778000D02*
G75*
G02*
X24755000Y-8778000I-95000J0D01*
G01*
X24755000Y-8778000D02*
G75*
G02*
X24945000Y-8778000I95000J0D01*
G01*
X24945000Y-10478000D02*
G75*
G02*
X24755000Y-10478000I-95000J0D01*
G01*
X24755000Y-10478000D02*
G75*
G02*
X24945000Y-10478000I95000J0D01*
G01*
X24945000Y-12178000D02*
G75*
G02*
X24755000Y-12178000I-95000J0D01*
G01*
X24755000Y-12178000D02*
G75*
G02*
X24945000Y-12178000I95000J0D01*
G01*
X26045000Y-7078000D02*
G75*
G02*
X25855000Y-7078000I-95000J0D01*
G01*
X25855000Y-7078000D02*
G75*
G02*
X26045000Y-7078000I95000J0D01*
G01*
X26045000Y-8778000D02*
G75*
G02*
X25855000Y-8778000I-95000J0D01*
G01*
X25855000Y-8778000D02*
G75*
G02*
X26045000Y-8778000I95000J0D01*
G01*
X26045000Y-10478000D02*
G75*
G02*
X25855000Y-10478000I-95000J0D01*
G01*
X25855000Y-10478000D02*
G75*
G02*
X26045000Y-10478000I95000J0D01*
G01*
X26045000Y-12178000D02*
G75*
G02*
X25855000Y-12178000I-95000J0D01*
G01*
X25855000Y-12178000D02*
G75*
G02*
X26045000Y-12178000I95000J0D01*
G01*
X26645000Y-6653000D02*
G75*
G02*
X26455000Y-6653000I-95000J0D01*
G01*
X26455000Y-6653000D02*
G75*
G02*
X26645000Y-6653000I95000J0D01*
G01*
X26645000Y-8353000D02*
G75*
G02*
X26455000Y-8353000I-95000J0D01*
G01*
X26455000Y-8353000D02*
G75*
G02*
X26645000Y-8353000I95000J0D01*
G01*
X26645000Y-10053000D02*
G75*
G02*
X26455000Y-10053000I-95000J0D01*
G01*
X26455000Y-10053000D02*
G75*
G02*
X26645000Y-10053000I95000J0D01*
G01*
X26645000Y-11753000D02*
G75*
G02*
X26455000Y-11753000I-95000J0D01*
G01*
X26455000Y-11753000D02*
G75*
G02*
X26645000Y-11753000I95000J0D01*
G01*
X26645000Y-13453000D02*
G75*
G02*
X26455000Y-13453000I-95000J0D01*
G01*
X26455000Y-13453000D02*
G75*
G02*
X26645000Y-13453000I95000J0D01*
G01*
X27745000Y-6653000D02*
G75*
G02*
X27555000Y-6653000I-95000J0D01*
G01*
X27555000Y-6653000D02*
G75*
G02*
X27745000Y-6653000I95000J0D01*
G01*
X27745000Y-8353000D02*
G75*
G02*
X27555000Y-8353000I-95000J0D01*
G01*
X27555000Y-8353000D02*
G75*
G02*
X27745000Y-8353000I95000J0D01*
G01*
X27745000Y-10053000D02*
G75*
G02*
X27555000Y-10053000I-95000J0D01*
G01*
X27555000Y-10053000D02*
G75*
G02*
X27745000Y-10053000I95000J0D01*
G01*
X27745000Y-11753000D02*
G75*
G02*
X27555000Y-11753000I-95000J0D01*
G01*
X27555000Y-11753000D02*
G75*
G02*
X27745000Y-11753000I95000J0D01*
G01*
X27745000Y-13453000D02*
G75*
G02*
X27555000Y-13453000I-95000J0D01*
G01*
X27555000Y-13453000D02*
G75*
G02*
X27745000Y-13453000I95000J0D01*
G01*
X28345000Y-7775000D02*
G75*
G02*
X28155000Y-7775000I-95000J0D01*
G01*
X28155000Y-7775000D02*
G75*
G02*
X28345000Y-7775000I95000J0D01*
G01*
X28345000Y-9475000D02*
G75*
G02*
X28155000Y-9475000I-95000J0D01*
G01*
X28155000Y-9475000D02*
G75*
G02*
X28345000Y-9475000I95000J0D01*
G01*
X28345000Y-11175000D02*
G75*
G02*
X28155000Y-11175000I-95000J0D01*
G01*
X28155000Y-11175000D02*
G75*
G02*
X28345000Y-11175000I95000J0D01*
G01*
X28345000Y-12875000D02*
G75*
G02*
X28155000Y-12875000I-95000J0D01*
G01*
X28155000Y-12875000D02*
G75*
G02*
X28345000Y-12875000I95000J0D01*
G01*
X28345000Y-14575000D02*
G75*
G02*
X28155000Y-14575000I-95000J0D01*
G01*
X28155000Y-14575000D02*
G75*
G02*
X28345000Y-14575000I95000J0D01*
G01*
X29445000Y-7775000D02*
G75*
G02*
X29255000Y-7775000I-95000J0D01*
G01*
X29255000Y-7775000D02*
G75*
G02*
X29445000Y-7775000I95000J0D01*
G01*
X29445000Y-9475000D02*
G75*
G02*
X29255000Y-9475000I-95000J0D01*
G01*
X29255000Y-9475000D02*
G75*
G02*
X29445000Y-9475000I95000J0D01*
G01*
X29445000Y-11175000D02*
G75*
G02*
X29255000Y-11175000I-95000J0D01*
G01*
X29255000Y-11175000D02*
G75*
G02*
X29445000Y-11175000I95000J0D01*
G01*
X29445000Y-12875000D02*
G75*
G02*
X29255000Y-12875000I-95000J0D01*
G01*
X29255000Y-12875000D02*
G75*
G02*
X29445000Y-12875000I95000J0D01*
G01*
X29445000Y-14575000D02*
G75*
G02*
X29255000Y-14575000I-95000J0D01*
G01*
X29255000Y-14575000D02*
G75*
G02*
X29445000Y-14575000I95000J0D01*
G01*
X30045000Y-8200000D02*
G75*
G02*
X29855000Y-8200000I-95000J0D01*
G01*
X29855000Y-8200000D02*
G75*
G02*
X30045000Y-8200000I95000J0D01*
G01*
X30045000Y-9900000D02*
G75*
G02*
X29855000Y-9900000I-95000J0D01*
G01*
X29855000Y-9900000D02*
G75*
G02*
X30045000Y-9900000I95000J0D01*
G01*
X30045000Y-11600000D02*
G75*
G02*
X29855000Y-11600000I-95000J0D01*
G01*
X29855000Y-11600000D02*
G75*
G02*
X30045000Y-11600000I95000J0D01*
G01*
X30045000Y-13300000D02*
G75*
G02*
X29855000Y-13300000I-95000J0D01*
G01*
X29855000Y-13300000D02*
G75*
G02*
X30045000Y-13300000I95000J0D01*
G01*
X31145000Y-8200000D02*
G75*
G02*
X30955000Y-8200000I-95000J0D01*
G01*
X30955000Y-8200000D02*
G75*
G02*
X31145000Y-8200000I95000J0D01*
G01*
X31145000Y-9900000D02*
G75*
G02*
X30955000Y-9900000I-95000J0D01*
G01*
X30955000Y-9900000D02*
G75*
G02*
X31145000Y-9900000I95000J0D01*
G01*
X31145000Y-11600000D02*
G75*
G02*
X30955000Y-11600000I-95000J0D01*
G01*
X30955000Y-11600000D02*
G75*
G02*
X31145000Y-11600000I95000J0D01*
G01*
X31145000Y-13300000D02*
G75*
G02*
X30955000Y-13300000I-95000J0D01*
G01*
X30955000Y-13300000D02*
G75*
G02*
X31145000Y-13300000I95000J0D01*
G01*
D14*
X19485157Y-16289776D02*
X19485157Y-16589776D01*
X19335157Y-16439776D02*
X19635157Y-16439776D01*
X19800000Y-9258000D02*
X19800000Y-9558000D01*
X19650000Y-9408000D02*
X19950000Y-9408000D01*
X19800000Y-10958000D02*
X19800000Y-11258000D01*
X19650000Y-11108000D02*
X19950000Y-11108000D01*
X19800000Y-12658000D02*
X19800000Y-12958000D01*
X19650000Y-12808000D02*
X19950000Y-12808000D01*
X20028170Y-16230302D02*
X20028170Y-16530302D01*
X19878170Y-16380302D02*
X20178170Y-16380302D01*
X20300000Y-9478000D02*
X20300000Y-9778000D01*
X20150000Y-9628000D02*
X20450000Y-9628000D01*
X20300000Y-11178000D02*
X20300000Y-11478000D01*
X20150000Y-11328000D02*
X20450000Y-11328000D01*
X20300000Y-12878000D02*
X20300000Y-13178000D01*
X20150000Y-13028000D02*
X20450000Y-13028000D01*
X21008255Y-15447726D02*
X21008255Y-15747726D01*
X20858255Y-15597726D02*
X21158255Y-15597726D01*
X21500000Y-7898000D02*
X21500000Y-8198000D01*
X21350000Y-8048000D02*
X21650000Y-8048000D01*
X21500000Y-9598000D02*
X21500000Y-9898000D01*
X21350000Y-9748000D02*
X21650000Y-9748000D01*
X21500000Y-11298000D02*
X21500000Y-11598000D01*
X21350000Y-11448000D02*
X21650000Y-11448000D01*
X21500000Y-12998000D02*
X21500000Y-13298000D01*
X21350000Y-13148000D02*
X21650000Y-13148000D01*
X21554385Y-15435804D02*
X21554385Y-15735804D01*
X21404385Y-15585804D02*
X21704385Y-15585804D01*
X22000000Y-8118000D02*
X22000000Y-8418000D01*
X21850000Y-8268000D02*
X22150000Y-8268000D01*
X22000000Y-9818000D02*
X22000000Y-10118000D01*
X21850000Y-9968000D02*
X22150000Y-9968000D01*
X22000000Y-11518000D02*
X22000000Y-11818000D01*
X21850000Y-11668000D02*
X22150000Y-11668000D01*
X22000000Y-13218000D02*
X22000000Y-13518000D01*
X21850000Y-13368000D02*
X22150000Y-13368000D01*
X22694714Y-14779127D02*
X22694714Y-15079127D01*
X22544714Y-14929127D02*
X22844714Y-14929127D01*
X23200000Y-7558000D02*
X23200000Y-7858000D01*
X23050000Y-7708000D02*
X23350000Y-7708000D01*
X23200000Y-9258000D02*
X23200000Y-9558000D01*
X23050000Y-9408000D02*
X23350000Y-9408000D01*
X23200000Y-10958000D02*
X23200000Y-11258000D01*
X23050000Y-11108000D02*
X23350000Y-11108000D01*
X23200000Y-12658000D02*
X23200000Y-12958000D01*
X23050000Y-12808000D02*
X23350000Y-12808000D01*
X23225321Y-14908961D02*
X23225321Y-15208961D01*
X23075321Y-15058961D02*
X23375321Y-15058961D01*
X23700000Y-7778000D02*
X23700000Y-8078000D01*
X23550000Y-7928000D02*
X23850000Y-7928000D01*
X23700000Y-9478000D02*
X23700000Y-9778000D01*
X23550000Y-9628000D02*
X23850000Y-9628000D01*
X23700000Y-11178000D02*
X23700000Y-11478000D01*
X23550000Y-11328000D02*
X23850000Y-11328000D01*
X23700000Y-12878000D02*
X23700000Y-13178000D01*
X23550000Y-13028000D02*
X23850000Y-13028000D01*
X24900000Y-7303000D02*
X24900000Y-7603000D01*
X24750000Y-7453000D02*
X25050000Y-7453000D01*
X24900000Y-9003000D02*
X24900000Y-9303000D01*
X24750000Y-9153000D02*
X25050000Y-9153000D01*
X24900000Y-10703000D02*
X24900000Y-11003000D01*
X24750000Y-10853000D02*
X25050000Y-10853000D01*
X24900000Y-12403000D02*
X24900000Y-12703000D01*
X24750000Y-12553000D02*
X25050000Y-12553000D01*
X25400000Y-7523000D02*
X25400000Y-7823000D01*
X25250000Y-7673000D02*
X25550000Y-7673000D01*
X25400000Y-9223000D02*
X25400000Y-9523000D01*
X25250000Y-9373000D02*
X25550000Y-9373000D01*
X25400000Y-10923000D02*
X25400000Y-11223000D01*
X25250000Y-11073000D02*
X25550000Y-11073000D01*
X25400000Y-12623000D02*
X25400000Y-12923000D01*
X25250000Y-12773000D02*
X25550000Y-12773000D01*
X26600000Y-6878000D02*
X26600000Y-7178000D01*
X26450000Y-7028000D02*
X26750000Y-7028000D01*
X26600000Y-8578000D02*
X26600000Y-8878000D01*
X26450000Y-8728000D02*
X26750000Y-8728000D01*
X26600000Y-10278000D02*
X26600000Y-10578000D01*
X26450000Y-10428000D02*
X26750000Y-10428000D01*
X26600000Y-11978000D02*
X26600000Y-12278000D01*
X26450000Y-12128000D02*
X26750000Y-12128000D01*
X26600000Y-13678000D02*
X26600000Y-13978000D01*
X26450000Y-13828000D02*
X26750000Y-13828000D01*
X27100000Y-7098000D02*
X27100000Y-7398000D01*
X26950000Y-7248000D02*
X27250000Y-7248000D01*
X27100000Y-8798000D02*
X27100000Y-9098000D01*
X26950000Y-8948000D02*
X27250000Y-8948000D01*
X27100000Y-10498000D02*
X27100000Y-10798000D01*
X26950000Y-10648000D02*
X27250000Y-10648000D01*
X27100000Y-12198000D02*
X27100000Y-12498000D01*
X26950000Y-12348000D02*
X27250000Y-12348000D01*
X27100000Y-13898000D02*
X27100000Y-14198000D01*
X26950000Y-14048000D02*
X27250000Y-14048000D01*
X28300000Y-8000000D02*
X28300000Y-8300000D01*
X28150000Y-8150000D02*
X28450000Y-8150000D01*
X28300000Y-9700000D02*
X28300000Y-10000000D01*
X28150000Y-9850000D02*
X28450000Y-9850000D01*
X28300000Y-11400000D02*
X28300000Y-11700000D01*
X28150000Y-11550000D02*
X28450000Y-11550000D01*
X28300000Y-13100000D02*
X28300000Y-13400000D01*
X28150000Y-13250000D02*
X28450000Y-13250000D01*
X28300000Y-14800000D02*
X28300000Y-15100000D01*
X28150000Y-14950000D02*
X28450000Y-14950000D01*
X28800000Y-8220000D02*
X28800000Y-8520000D01*
X28650000Y-8370000D02*
X28950000Y-8370000D01*
X28800000Y-9920000D02*
X28800000Y-10220000D01*
X28650000Y-10070000D02*
X28950000Y-10070000D01*
X28800000Y-11620000D02*
X28800000Y-11920000D01*
X28650000Y-11770000D02*
X28950000Y-11770000D01*
X28800000Y-13320000D02*
X28800000Y-13620000D01*
X28650000Y-13470000D02*
X28950000Y-13470000D01*
X28800000Y-15020000D02*
X28800000Y-15320000D01*
X28650000Y-15170000D02*
X28950000Y-15170000D01*
X30000000Y-8425000D02*
X30000000Y-8725000D01*
X29850000Y-8575000D02*
X30150000Y-8575000D01*
X30000000Y-10125000D02*
X30000000Y-10425000D01*
X29850000Y-10275000D02*
X30150000Y-10275000D01*
X30000000Y-11825000D02*
X30000000Y-12125000D01*
X29850000Y-11975000D02*
X30150000Y-11975000D01*
X30000000Y-13525000D02*
X30000000Y-13825000D01*
X29850000Y-13675000D02*
X30150000Y-13675000D01*
X30500000Y-8645000D02*
X30500000Y-8945000D01*
X30350000Y-8795000D02*
X30650000Y-8795000D01*
X30500000Y-10345000D02*
X30500000Y-10645000D01*
X30350000Y-10495000D02*
X30650000Y-10495000D01*
X30500000Y-12045000D02*
X30500000Y-12345000D01*
X30350000Y-12195000D02*
X30650000Y-12195000D01*
X30500000Y-13745000D02*
X30500000Y-14045000D01*
X30350000Y-13895000D02*
X30650000Y-13895000D01*
D15*
X19907448Y-16041795D02*
X19907448Y-15688239D01*
X19553891Y-15688239D01*
X19553891Y-16041795D01*
X19907448Y-16041795D01*
X20476778Y-9209778D02*
X20476778Y-8856222D01*
X20123222Y-8856222D01*
X20123222Y-9209778D01*
X20476778Y-9209778D01*
X20476778Y-10909778D02*
X20476778Y-10556222D01*
X20123222Y-10556222D01*
X20123222Y-10909778D01*
X20476778Y-10909778D01*
X20476778Y-12609778D02*
X20476778Y-12256222D01*
X20123222Y-12256222D01*
X20123222Y-12609778D01*
X20476778Y-12609778D01*
X21479706Y-15223330D02*
X21479706Y-14869773D01*
X21126149Y-14869773D01*
X21126149Y-15223330D01*
X21479706Y-15223330D01*
X22176778Y-7849778D02*
X22176778Y-7496222D01*
X21823222Y-7496222D01*
X21823222Y-7849778D01*
X22176778Y-7849778D01*
X22176778Y-9549778D02*
X22176778Y-9196222D01*
X21823222Y-9196222D01*
X21823222Y-9549778D01*
X22176778Y-9549778D01*
X22176778Y-11249778D02*
X22176778Y-10896222D01*
X21823222Y-10896222D01*
X21823222Y-11249778D01*
X22176778Y-11249778D01*
X22176778Y-12949778D02*
X22176778Y-12596222D01*
X21823222Y-12596222D01*
X21823222Y-12949778D01*
X22176778Y-12949778D01*
X23298778Y-14649778D02*
X23298778Y-14296222D01*
X22945222Y-14296222D01*
X22945222Y-14649778D01*
X23298778Y-14649778D01*
X23876778Y-7509778D02*
X23876778Y-7156222D01*
X23523222Y-7156222D01*
X23523222Y-7509778D01*
X23876778Y-7509778D01*
X23876778Y-9209778D02*
X23876778Y-8856222D01*
X23523222Y-8856222D01*
X23523222Y-9209778D01*
X23876778Y-9209778D01*
X23876778Y-10909778D02*
X23876778Y-10556222D01*
X23523222Y-10556222D01*
X23523222Y-10909778D01*
X23876778Y-10909778D01*
X23876778Y-12609778D02*
X23876778Y-12256222D01*
X23523222Y-12256222D01*
X23523222Y-12609778D01*
X23876778Y-12609778D01*
X25576778Y-7254778D02*
X25576778Y-6901222D01*
X25223222Y-6901222D01*
X25223222Y-7254778D01*
X25576778Y-7254778D01*
X25576778Y-8954778D02*
X25576778Y-8601222D01*
X25223222Y-8601222D01*
X25223222Y-8954778D01*
X25576778Y-8954778D01*
X25576778Y-10654778D02*
X25576778Y-10301222D01*
X25223222Y-10301222D01*
X25223222Y-10654778D01*
X25576778Y-10654778D01*
X25576778Y-12354778D02*
X25576778Y-12001222D01*
X25223222Y-12001222D01*
X25223222Y-12354778D01*
X25576778Y-12354778D01*
X27276778Y-6829778D02*
X27276778Y-6476222D01*
X26923222Y-6476222D01*
X26923222Y-6829778D01*
X27276778Y-6829778D01*
X27276778Y-8529778D02*
X27276778Y-8176222D01*
X26923222Y-8176222D01*
X26923222Y-8529778D01*
X27276778Y-8529778D01*
X27276778Y-10229778D02*
X27276778Y-9876222D01*
X26923222Y-9876222D01*
X26923222Y-10229778D01*
X27276778Y-10229778D01*
X27276778Y-11929778D02*
X27276778Y-11576222D01*
X26923222Y-11576222D01*
X26923222Y-11929778D01*
X27276778Y-11929778D01*
X27276778Y-13629778D02*
X27276778Y-13276222D01*
X26923222Y-13276222D01*
X26923222Y-13629778D01*
X27276778Y-13629778D01*
X28976778Y-7951778D02*
X28976778Y-7598222D01*
X28623222Y-7598222D01*
X28623222Y-7951778D01*
X28976778Y-7951778D01*
X28976778Y-9651778D02*
X28976778Y-9298222D01*
X28623222Y-9298222D01*
X28623222Y-9651778D01*
X28976778Y-9651778D01*
X28976778Y-11351778D02*
X28976778Y-10998222D01*
X28623222Y-10998222D01*
X28623222Y-11351778D01*
X28976778Y-11351778D01*
X28976778Y-13051778D02*
X28976778Y-12698222D01*
X28623222Y-12698222D01*
X28623222Y-13051778D01*
X28976778Y-13051778D01*
X28976778Y-14751778D02*
X28976778Y-14398222D01*
X28623222Y-14398222D01*
X28623222Y-14751778D01*
X28976778Y-14751778D01*
X30676778Y-8376778D02*
X30676778Y-8023222D01*
X30323222Y-8023222D01*
X30323222Y-8376778D01*
X30676778Y-8376778D01*
X30676778Y-10076778D02*
X30676778Y-9723222D01*
X30323222Y-9723222D01*
X30323222Y-10076778D01*
X30676778Y-10076778D01*
X30676778Y-11776778D02*
X30676778Y-11423222D01*
X30323222Y-11423222D01*
X30323222Y-11776778D01*
X30676778Y-11776778D01*
X30676778Y-13476778D02*
X30676778Y-13123222D01*
X30323222Y-13123222D01*
X30323222Y-13476778D01*
X30676778Y-13476778D01*
D11*
X18591129Y-17576821D02*
X18591129Y-17376821D01*
X18591129Y-17376821D02*
X18638748Y-17376821D01*
X18638748Y-17376821D02*
X18667320Y-17386345D01*
X18667320Y-17386345D02*
X18686367Y-17405392D01*
X18686367Y-17405392D02*
X18695891Y-17424440D01*
X18695891Y-17424440D02*
X18705415Y-17462535D01*
X18705415Y-17462535D02*
X18705415Y-17491107D01*
X18705415Y-17491107D02*
X18695891Y-17529202D01*
X18695891Y-17529202D02*
X18686367Y-17548250D01*
X18686367Y-17548250D02*
X18667320Y-17567297D01*
X18667320Y-17567297D02*
X18638748Y-17576821D01*
X18638748Y-17576821D02*
X18591129Y-17576821D01*
X18791129Y-17576821D02*
X18791129Y-17443488D01*
X18791129Y-17481583D02*
X18800653Y-17462535D01*
X18800653Y-17462535D02*
X18810177Y-17453011D01*
X18810177Y-17453011D02*
X18829224Y-17443488D01*
X18829224Y-17443488D02*
X18848272Y-17443488D01*
X18914939Y-17576821D02*
X18914939Y-17443488D01*
X18914939Y-17376821D02*
X18905415Y-17386345D01*
X18905415Y-17386345D02*
X18914939Y-17395869D01*
X18914939Y-17395869D02*
X18924462Y-17386345D01*
X18924462Y-17386345D02*
X18914939Y-17376821D01*
X18914939Y-17376821D02*
X18914939Y-17395869D01*
X19038748Y-17576821D02*
X19019701Y-17567297D01*
X19019701Y-17567297D02*
X19010177Y-17548250D01*
X19010177Y-17548250D02*
X19010177Y-17376821D01*
X19143510Y-17576821D02*
X19124462Y-17567297D01*
X19124462Y-17567297D02*
X19114939Y-17548250D01*
X19114939Y-17548250D02*
X19114939Y-17376821D01*
X19372082Y-17576821D02*
X19372082Y-17376821D01*
X19372082Y-17376821D02*
X19438748Y-17519678D01*
X19438748Y-17519678D02*
X19505415Y-17376821D01*
X19505415Y-17376821D02*
X19505415Y-17576821D01*
X19686367Y-17576821D02*
X19686367Y-17472059D01*
X19686367Y-17472059D02*
X19676843Y-17453011D01*
X19676843Y-17453011D02*
X19657796Y-17443488D01*
X19657796Y-17443488D02*
X19619701Y-17443488D01*
X19619701Y-17443488D02*
X19600653Y-17453011D01*
X19686367Y-17567297D02*
X19667320Y-17576821D01*
X19667320Y-17576821D02*
X19619701Y-17576821D01*
X19619701Y-17576821D02*
X19600653Y-17567297D01*
X19600653Y-17567297D02*
X19591129Y-17548250D01*
X19591129Y-17548250D02*
X19591129Y-17529202D01*
X19591129Y-17529202D02*
X19600653Y-17510154D01*
X19600653Y-17510154D02*
X19619701Y-17500631D01*
X19619701Y-17500631D02*
X19667320Y-17500631D01*
X19667320Y-17500631D02*
X19686367Y-17491107D01*
X19781605Y-17443488D02*
X19781605Y-17643488D01*
X19781605Y-17453011D02*
X19800653Y-17443488D01*
X19800653Y-17443488D02*
X19838748Y-17443488D01*
X19838748Y-17443488D02*
X19857796Y-17453011D01*
X19857796Y-17453011D02*
X19867320Y-17462535D01*
X19867320Y-17462535D02*
X19876843Y-17481583D01*
X19876843Y-17481583D02*
X19876843Y-17538726D01*
X19876843Y-17538726D02*
X19867320Y-17557773D01*
X19867320Y-17557773D02*
X19857796Y-17567297D01*
X19857796Y-17567297D02*
X19838748Y-17576821D01*
X19838748Y-17576821D02*
X19800653Y-17576821D01*
X19800653Y-17576821D02*
X19781605Y-17567297D01*
X19962558Y-17557773D02*
X19972082Y-17567297D01*
X19972082Y-17567297D02*
X19962558Y-17576821D01*
X19962558Y-17576821D02*
X19953034Y-17567297D01*
X19953034Y-17567297D02*
X19962558Y-17557773D01*
X19962558Y-17557773D02*
X19962558Y-17576821D01*
X19962558Y-17453011D02*
X19972082Y-17462535D01*
X19972082Y-17462535D02*
X19962558Y-17472059D01*
X19962558Y-17472059D02*
X19953034Y-17462535D01*
X19953034Y-17462535D02*
X19962558Y-17453011D01*
X19962558Y-17453011D02*
X19962558Y-17472059D01*
D12*
X18240352Y-17860337D02*
X18330352Y-17950337D01*
X18330352Y-17860337D02*
X18240352Y-17950337D01*
D11*
X18629224Y-17796821D02*
X18648272Y-17796821D01*
X18648272Y-17796821D02*
X18667320Y-17806345D01*
X18667320Y-17806345D02*
X18676843Y-17815869D01*
X18676843Y-17815869D02*
X18686367Y-17834916D01*
X18686367Y-17834916D02*
X18695891Y-17873011D01*
X18695891Y-17873011D02*
X18695891Y-17920631D01*
X18695891Y-17920631D02*
X18686367Y-17958726D01*
X18686367Y-17958726D02*
X18676843Y-17977773D01*
X18676843Y-17977773D02*
X18667320Y-17987297D01*
X18667320Y-17987297D02*
X18648272Y-17996821D01*
X18648272Y-17996821D02*
X18629224Y-17996821D01*
X18629224Y-17996821D02*
X18610177Y-17987297D01*
X18610177Y-17987297D02*
X18600653Y-17977773D01*
X18600653Y-17977773D02*
X18591129Y-17958726D01*
X18591129Y-17958726D02*
X18581605Y-17920631D01*
X18581605Y-17920631D02*
X18581605Y-17873011D01*
X18581605Y-17873011D02*
X18591129Y-17834916D01*
X18591129Y-17834916D02*
X18600653Y-17815869D01*
X18600653Y-17815869D02*
X18610177Y-17806345D01*
X18610177Y-17806345D02*
X18629224Y-17796821D01*
X18781605Y-17977773D02*
X18791129Y-17987297D01*
X18791129Y-17987297D02*
X18781605Y-17996821D01*
X18781605Y-17996821D02*
X18772082Y-17987297D01*
X18772082Y-17987297D02*
X18781605Y-17977773D01*
X18781605Y-17977773D02*
X18781605Y-17996821D01*
X18886367Y-17996821D02*
X18924462Y-17996821D01*
X18924462Y-17996821D02*
X18943510Y-17987297D01*
X18943510Y-17987297D02*
X18953034Y-17977773D01*
X18953034Y-17977773D02*
X18972082Y-17949202D01*
X18972082Y-17949202D02*
X18981605Y-17911107D01*
X18981605Y-17911107D02*
X18981605Y-17834916D01*
X18981605Y-17834916D02*
X18972082Y-17815869D01*
X18972082Y-17815869D02*
X18962558Y-17806345D01*
X18962558Y-17806345D02*
X18943510Y-17796821D01*
X18943510Y-17796821D02*
X18905415Y-17796821D01*
X18905415Y-17796821D02*
X18886367Y-17806345D01*
X18886367Y-17806345D02*
X18876843Y-17815869D01*
X18876843Y-17815869D02*
X18867320Y-17834916D01*
X18867320Y-17834916D02*
X18867320Y-17882535D01*
X18867320Y-17882535D02*
X18876843Y-17901583D01*
X18876843Y-17901583D02*
X18886367Y-17911107D01*
X18886367Y-17911107D02*
X18905415Y-17920631D01*
X18905415Y-17920631D02*
X18943510Y-17920631D01*
X18943510Y-17920631D02*
X18962558Y-17911107D01*
X18962558Y-17911107D02*
X18972082Y-17901583D01*
X18972082Y-17901583D02*
X18981605Y-17882535D01*
X19105415Y-17796821D02*
X19124463Y-17796821D01*
X19124463Y-17796821D02*
X19143510Y-17806345D01*
X19143510Y-17806345D02*
X19153034Y-17815869D01*
X19153034Y-17815869D02*
X19162558Y-17834916D01*
X19162558Y-17834916D02*
X19172082Y-17873011D01*
X19172082Y-17873011D02*
X19172082Y-17920631D01*
X19172082Y-17920631D02*
X19162558Y-17958726D01*
X19162558Y-17958726D02*
X19153034Y-17977773D01*
X19153034Y-17977773D02*
X19143510Y-17987297D01*
X19143510Y-17987297D02*
X19124463Y-17996821D01*
X19124463Y-17996821D02*
X19105415Y-17996821D01*
X19105415Y-17996821D02*
X19086367Y-17987297D01*
X19086367Y-17987297D02*
X19076843Y-17977773D01*
X19076843Y-17977773D02*
X19067320Y-17958726D01*
X19067320Y-17958726D02*
X19057796Y-17920631D01*
X19057796Y-17920631D02*
X19057796Y-17873011D01*
X19057796Y-17873011D02*
X19067320Y-17834916D01*
X19067320Y-17834916D02*
X19076843Y-17815869D01*
X19076843Y-17815869D02*
X19086367Y-17806345D01*
X19086367Y-17806345D02*
X19105415Y-17796821D01*
X19295891Y-17796821D02*
X19314939Y-17796821D01*
X19314939Y-17796821D02*
X19333986Y-17806345D01*
X19333986Y-17806345D02*
X19343510Y-17815869D01*
X19343510Y-17815869D02*
X19353034Y-17834916D01*
X19353034Y-17834916D02*
X19362558Y-17873011D01*
X19362558Y-17873011D02*
X19362558Y-17920631D01*
X19362558Y-17920631D02*
X19353034Y-17958726D01*
X19353034Y-17958726D02*
X19343510Y-17977773D01*
X19343510Y-17977773D02*
X19333986Y-17987297D01*
X19333986Y-17987297D02*
X19314939Y-17996821D01*
X19314939Y-17996821D02*
X19295891Y-17996821D01*
X19295891Y-17996821D02*
X19276843Y-17987297D01*
X19276843Y-17987297D02*
X19267320Y-17977773D01*
X19267320Y-17977773D02*
X19257796Y-17958726D01*
X19257796Y-17958726D02*
X19248272Y-17920631D01*
X19248272Y-17920631D02*
X19248272Y-17873011D01*
X19248272Y-17873011D02*
X19257796Y-17834916D01*
X19257796Y-17834916D02*
X19267320Y-17815869D01*
X19267320Y-17815869D02*
X19276843Y-17806345D01*
X19276843Y-17806345D02*
X19295891Y-17796821D01*
X19448272Y-17996821D02*
X19448272Y-17863488D01*
X19448272Y-17882535D02*
X19457796Y-17873011D01*
X19457796Y-17873011D02*
X19476843Y-17863488D01*
X19476843Y-17863488D02*
X19505415Y-17863488D01*
X19505415Y-17863488D02*
X19524463Y-17873011D01*
X19524463Y-17873011D02*
X19533986Y-17892059D01*
X19533986Y-17892059D02*
X19533986Y-17996821D01*
X19533986Y-17892059D02*
X19543510Y-17873011D01*
X19543510Y-17873011D02*
X19562558Y-17863488D01*
X19562558Y-17863488D02*
X19591129Y-17863488D01*
X19591129Y-17863488D02*
X19610177Y-17873011D01*
X19610177Y-17873011D02*
X19619701Y-17892059D01*
X19619701Y-17892059D02*
X19619701Y-17996821D01*
X19714939Y-17996821D02*
X19714939Y-17863488D01*
X19714939Y-17882535D02*
X19724463Y-17873011D01*
X19724463Y-17873011D02*
X19743510Y-17863488D01*
X19743510Y-17863488D02*
X19772082Y-17863488D01*
X19772082Y-17863488D02*
X19791129Y-17873011D01*
X19791129Y-17873011D02*
X19800653Y-17892059D01*
X19800653Y-17892059D02*
X19800653Y-17996821D01*
X19800653Y-17892059D02*
X19810177Y-17873011D01*
X19810177Y-17873011D02*
X19829224Y-17863488D01*
X19829224Y-17863488D02*
X19857796Y-17863488D01*
X19857796Y-17863488D02*
X19876844Y-17873011D01*
X19876844Y-17873011D02*
X19886367Y-17892059D01*
X19886367Y-17892059D02*
X19886367Y-17996821D01*
X20276844Y-17787297D02*
X20105415Y-18044440D01*
X20533986Y-17796821D02*
X20553034Y-17796821D01*
X20553034Y-17796821D02*
X20572082Y-17806345D01*
X20572082Y-17806345D02*
X20581606Y-17815869D01*
X20581606Y-17815869D02*
X20591129Y-17834916D01*
X20591129Y-17834916D02*
X20600653Y-17873011D01*
X20600653Y-17873011D02*
X20600653Y-17920631D01*
X20600653Y-17920631D02*
X20591129Y-17958726D01*
X20591129Y-17958726D02*
X20581606Y-17977773D01*
X20581606Y-17977773D02*
X20572082Y-17987297D01*
X20572082Y-17987297D02*
X20553034Y-17996821D01*
X20553034Y-17996821D02*
X20533986Y-17996821D01*
X20533986Y-17996821D02*
X20514939Y-17987297D01*
X20514939Y-17987297D02*
X20505415Y-17977773D01*
X20505415Y-17977773D02*
X20495891Y-17958726D01*
X20495891Y-17958726D02*
X20486367Y-17920631D01*
X20486367Y-17920631D02*
X20486367Y-17873011D01*
X20486367Y-17873011D02*
X20495891Y-17834916D01*
X20495891Y-17834916D02*
X20505415Y-17815869D01*
X20505415Y-17815869D02*
X20514939Y-17806345D01*
X20514939Y-17806345D02*
X20533986Y-17796821D01*
X20686367Y-17977773D02*
X20695891Y-17987297D01*
X20695891Y-17987297D02*
X20686367Y-17996821D01*
X20686367Y-17996821D02*
X20676844Y-17987297D01*
X20676844Y-17987297D02*
X20686367Y-17977773D01*
X20686367Y-17977773D02*
X20686367Y-17996821D01*
X20819701Y-17796821D02*
X20838748Y-17796821D01*
X20838748Y-17796821D02*
X20857796Y-17806345D01*
X20857796Y-17806345D02*
X20867320Y-17815869D01*
X20867320Y-17815869D02*
X20876844Y-17834916D01*
X20876844Y-17834916D02*
X20886367Y-17873011D01*
X20886367Y-17873011D02*
X20886367Y-17920631D01*
X20886367Y-17920631D02*
X20876844Y-17958726D01*
X20876844Y-17958726D02*
X20867320Y-17977773D01*
X20867320Y-17977773D02*
X20857796Y-17987297D01*
X20857796Y-17987297D02*
X20838748Y-17996821D01*
X20838748Y-17996821D02*
X20819701Y-17996821D01*
X20819701Y-17996821D02*
X20800653Y-17987297D01*
X20800653Y-17987297D02*
X20791129Y-17977773D01*
X20791129Y-17977773D02*
X20781606Y-17958726D01*
X20781606Y-17958726D02*
X20772082Y-17920631D01*
X20772082Y-17920631D02*
X20772082Y-17873011D01*
X20772082Y-17873011D02*
X20781606Y-17834916D01*
X20781606Y-17834916D02*
X20791129Y-17815869D01*
X20791129Y-17815869D02*
X20800653Y-17806345D01*
X20800653Y-17806345D02*
X20819701Y-17796821D01*
X20953034Y-17796821D02*
X21076844Y-17796821D01*
X21076844Y-17796821D02*
X21010177Y-17873011D01*
X21010177Y-17873011D02*
X21038748Y-17873011D01*
X21038748Y-17873011D02*
X21057796Y-17882535D01*
X21057796Y-17882535D02*
X21067320Y-17892059D01*
X21067320Y-17892059D02*
X21076844Y-17911107D01*
X21076844Y-17911107D02*
X21076844Y-17958726D01*
X21076844Y-17958726D02*
X21067320Y-17977773D01*
X21067320Y-17977773D02*
X21057796Y-17987297D01*
X21057796Y-17987297D02*
X21038748Y-17996821D01*
X21038748Y-17996821D02*
X20981606Y-17996821D01*
X20981606Y-17996821D02*
X20962558Y-17987297D01*
X20962558Y-17987297D02*
X20953034Y-17977773D01*
X21257796Y-17796821D02*
X21162558Y-17796821D01*
X21162558Y-17796821D02*
X21153034Y-17892059D01*
X21153034Y-17892059D02*
X21162558Y-17882535D01*
X21162558Y-17882535D02*
X21181606Y-17873011D01*
X21181606Y-17873011D02*
X21229225Y-17873011D01*
X21229225Y-17873011D02*
X21248272Y-17882535D01*
X21248272Y-17882535D02*
X21257796Y-17892059D01*
X21257796Y-17892059D02*
X21267320Y-17911107D01*
X21267320Y-17911107D02*
X21267320Y-17958726D01*
X21267320Y-17958726D02*
X21257796Y-17977773D01*
X21257796Y-17977773D02*
X21248272Y-17987297D01*
X21248272Y-17987297D02*
X21229225Y-17996821D01*
X21229225Y-17996821D02*
X21181606Y-17996821D01*
X21181606Y-17996821D02*
X21162558Y-17987297D01*
X21162558Y-17987297D02*
X21153034Y-17977773D01*
X21438748Y-17863488D02*
X21438748Y-17996821D01*
X21391129Y-17787297D02*
X21343510Y-17930154D01*
X21343510Y-17930154D02*
X21467320Y-17930154D01*
X21533987Y-17796821D02*
X21533987Y-17834916D01*
X21610177Y-17796821D02*
X21610177Y-17834916D01*
X21905415Y-18073011D02*
X21895891Y-18063488D01*
X21895891Y-18063488D02*
X21876844Y-18034916D01*
X21876844Y-18034916D02*
X21867320Y-18015869D01*
X21867320Y-18015869D02*
X21857796Y-17987297D01*
X21857796Y-17987297D02*
X21848272Y-17939678D01*
X21848272Y-17939678D02*
X21848272Y-17901583D01*
X21848272Y-17901583D02*
X21857796Y-17853964D01*
X21857796Y-17853964D02*
X21867320Y-17825392D01*
X21867320Y-17825392D02*
X21876844Y-17806345D01*
X21876844Y-17806345D02*
X21895891Y-17777773D01*
X21895891Y-17777773D02*
X21905415Y-17768250D01*
X21972082Y-17815869D02*
X21981606Y-17806345D01*
X21981606Y-17806345D02*
X22000653Y-17796821D01*
X22000653Y-17796821D02*
X22048272Y-17796821D01*
X22048272Y-17796821D02*
X22067320Y-17806345D01*
X22067320Y-17806345D02*
X22076844Y-17815869D01*
X22076844Y-17815869D02*
X22086368Y-17834916D01*
X22086368Y-17834916D02*
X22086368Y-17853964D01*
X22086368Y-17853964D02*
X22076844Y-17882535D01*
X22076844Y-17882535D02*
X21962558Y-17996821D01*
X21962558Y-17996821D02*
X22086368Y-17996821D01*
X22324463Y-17996821D02*
X22324463Y-17796821D01*
X22410177Y-17996821D02*
X22410177Y-17892059D01*
X22410177Y-17892059D02*
X22400653Y-17873011D01*
X22400653Y-17873011D02*
X22381606Y-17863488D01*
X22381606Y-17863488D02*
X22353034Y-17863488D01*
X22353034Y-17863488D02*
X22333987Y-17873011D01*
X22333987Y-17873011D02*
X22324463Y-17882535D01*
X22533987Y-17996821D02*
X22514939Y-17987297D01*
X22514939Y-17987297D02*
X22505415Y-17977773D01*
X22505415Y-17977773D02*
X22495891Y-17958726D01*
X22495891Y-17958726D02*
X22495891Y-17901583D01*
X22495891Y-17901583D02*
X22505415Y-17882535D01*
X22505415Y-17882535D02*
X22514939Y-17873011D01*
X22514939Y-17873011D02*
X22533987Y-17863488D01*
X22533987Y-17863488D02*
X22562558Y-17863488D01*
X22562558Y-17863488D02*
X22581606Y-17873011D01*
X22581606Y-17873011D02*
X22591129Y-17882535D01*
X22591129Y-17882535D02*
X22600653Y-17901583D01*
X22600653Y-17901583D02*
X22600653Y-17958726D01*
X22600653Y-17958726D02*
X22591129Y-17977773D01*
X22591129Y-17977773D02*
X22581606Y-17987297D01*
X22581606Y-17987297D02*
X22562558Y-17996821D01*
X22562558Y-17996821D02*
X22533987Y-17996821D01*
X22714939Y-17996821D02*
X22695891Y-17987297D01*
X22695891Y-17987297D02*
X22686368Y-17968250D01*
X22686368Y-17968250D02*
X22686368Y-17796821D01*
X22867320Y-17987297D02*
X22848272Y-17996821D01*
X22848272Y-17996821D02*
X22810177Y-17996821D01*
X22810177Y-17996821D02*
X22791129Y-17987297D01*
X22791129Y-17987297D02*
X22781606Y-17968250D01*
X22781606Y-17968250D02*
X22781606Y-17892059D01*
X22781606Y-17892059D02*
X22791129Y-17873011D01*
X22791129Y-17873011D02*
X22810177Y-17863488D01*
X22810177Y-17863488D02*
X22848272Y-17863488D01*
X22848272Y-17863488D02*
X22867320Y-17873011D01*
X22867320Y-17873011D02*
X22876844Y-17892059D01*
X22876844Y-17892059D02*
X22876844Y-17911107D01*
X22876844Y-17911107D02*
X22781606Y-17930154D01*
X22953034Y-17987297D02*
X22972082Y-17996821D01*
X22972082Y-17996821D02*
X23010177Y-17996821D01*
X23010177Y-17996821D02*
X23029225Y-17987297D01*
X23029225Y-17987297D02*
X23038749Y-17968250D01*
X23038749Y-17968250D02*
X23038749Y-17958726D01*
X23038749Y-17958726D02*
X23029225Y-17939678D01*
X23029225Y-17939678D02*
X23010177Y-17930154D01*
X23010177Y-17930154D02*
X22981606Y-17930154D01*
X22981606Y-17930154D02*
X22962558Y-17920631D01*
X22962558Y-17920631D02*
X22953034Y-17901583D01*
X22953034Y-17901583D02*
X22953034Y-17892059D01*
X22953034Y-17892059D02*
X22962558Y-17873011D01*
X22962558Y-17873011D02*
X22981606Y-17863488D01*
X22981606Y-17863488D02*
X23010177Y-17863488D01*
X23010177Y-17863488D02*
X23029225Y-17873011D01*
X23105415Y-18073011D02*
X23114939Y-18063488D01*
X23114939Y-18063488D02*
X23133987Y-18034916D01*
X23133987Y-18034916D02*
X23143510Y-18015869D01*
X23143510Y-18015869D02*
X23153034Y-17987297D01*
X23153034Y-17987297D02*
X23162558Y-17939678D01*
X23162558Y-17939678D02*
X23162558Y-17901583D01*
X23162558Y-17901583D02*
X23153034Y-17853964D01*
X23153034Y-17853964D02*
X23143510Y-17825392D01*
X23143510Y-17825392D02*
X23133987Y-17806345D01*
X23133987Y-17806345D02*
X23114939Y-17777773D01*
X23114939Y-17777773D02*
X23105415Y-17768250D01*
X23467320Y-18073011D02*
X23457796Y-18063488D01*
X23457796Y-18063488D02*
X23438749Y-18034916D01*
X23438749Y-18034916D02*
X23429225Y-18015869D01*
X23429225Y-18015869D02*
X23419701Y-17987297D01*
X23419701Y-17987297D02*
X23410177Y-17939678D01*
X23410177Y-17939678D02*
X23410177Y-17901583D01*
X23410177Y-17901583D02*
X23419701Y-17853964D01*
X23419701Y-17853964D02*
X23429225Y-17825392D01*
X23429225Y-17825392D02*
X23438749Y-17806345D01*
X23438749Y-17806345D02*
X23457796Y-17777773D01*
X23457796Y-17777773D02*
X23467320Y-17768250D01*
X23543510Y-17863488D02*
X23543510Y-17996821D01*
X23543510Y-17882535D02*
X23553034Y-17873011D01*
X23553034Y-17873011D02*
X23572082Y-17863488D01*
X23572082Y-17863488D02*
X23600653Y-17863488D01*
X23600653Y-17863488D02*
X23619701Y-17873011D01*
X23619701Y-17873011D02*
X23629225Y-17892059D01*
X23629225Y-17892059D02*
X23629225Y-17996821D01*
X23753034Y-17996821D02*
X23733987Y-17987297D01*
X23733987Y-17987297D02*
X23724463Y-17977773D01*
X23724463Y-17977773D02*
X23714939Y-17958726D01*
X23714939Y-17958726D02*
X23714939Y-17901583D01*
X23714939Y-17901583D02*
X23724463Y-17882535D01*
X23724463Y-17882535D02*
X23733987Y-17873011D01*
X23733987Y-17873011D02*
X23753034Y-17863488D01*
X23753034Y-17863488D02*
X23781606Y-17863488D01*
X23781606Y-17863488D02*
X23800653Y-17873011D01*
X23800653Y-17873011D02*
X23810177Y-17882535D01*
X23810177Y-17882535D02*
X23819701Y-17901583D01*
X23819701Y-17901583D02*
X23819701Y-17958726D01*
X23819701Y-17958726D02*
X23810177Y-17977773D01*
X23810177Y-17977773D02*
X23800653Y-17987297D01*
X23800653Y-17987297D02*
X23781606Y-17996821D01*
X23781606Y-17996821D02*
X23753034Y-17996821D01*
X23876844Y-17863488D02*
X23953034Y-17863488D01*
X23905415Y-17796821D02*
X23905415Y-17968250D01*
X23905415Y-17968250D02*
X23914939Y-17987297D01*
X23914939Y-17987297D02*
X23933987Y-17996821D01*
X23933987Y-17996821D02*
X23953034Y-17996821D01*
X24172082Y-17863488D02*
X24172082Y-18063488D01*
X24172082Y-17873011D02*
X24191130Y-17863488D01*
X24191130Y-17863488D02*
X24229225Y-17863488D01*
X24229225Y-17863488D02*
X24248272Y-17873011D01*
X24248272Y-17873011D02*
X24257796Y-17882535D01*
X24257796Y-17882535D02*
X24267320Y-17901583D01*
X24267320Y-17901583D02*
X24267320Y-17958726D01*
X24267320Y-17958726D02*
X24257796Y-17977773D01*
X24257796Y-17977773D02*
X24248272Y-17987297D01*
X24248272Y-17987297D02*
X24229225Y-17996821D01*
X24229225Y-17996821D02*
X24191130Y-17996821D01*
X24191130Y-17996821D02*
X24172082Y-17987297D01*
X24381606Y-17996821D02*
X24362558Y-17987297D01*
X24362558Y-17987297D02*
X24353034Y-17968250D01*
X24353034Y-17968250D02*
X24353034Y-17796821D01*
X24543511Y-17996821D02*
X24543511Y-17892059D01*
X24543511Y-17892059D02*
X24533987Y-17873011D01*
X24533987Y-17873011D02*
X24514939Y-17863488D01*
X24514939Y-17863488D02*
X24476844Y-17863488D01*
X24476844Y-17863488D02*
X24457796Y-17873011D01*
X24543511Y-17987297D02*
X24524463Y-17996821D01*
X24524463Y-17996821D02*
X24476844Y-17996821D01*
X24476844Y-17996821D02*
X24457796Y-17987297D01*
X24457796Y-17987297D02*
X24448272Y-17968250D01*
X24448272Y-17968250D02*
X24448272Y-17949202D01*
X24448272Y-17949202D02*
X24457796Y-17930154D01*
X24457796Y-17930154D02*
X24476844Y-17920631D01*
X24476844Y-17920631D02*
X24524463Y-17920631D01*
X24524463Y-17920631D02*
X24543511Y-17911107D01*
X24610177Y-17863488D02*
X24686368Y-17863488D01*
X24638749Y-17796821D02*
X24638749Y-17968250D01*
X24638749Y-17968250D02*
X24648272Y-17987297D01*
X24648272Y-17987297D02*
X24667320Y-17996821D01*
X24667320Y-17996821D02*
X24686368Y-17996821D01*
X24829225Y-17987297D02*
X24810177Y-17996821D01*
X24810177Y-17996821D02*
X24772082Y-17996821D01*
X24772082Y-17996821D02*
X24753034Y-17987297D01*
X24753034Y-17987297D02*
X24743511Y-17968250D01*
X24743511Y-17968250D02*
X24743511Y-17892059D01*
X24743511Y-17892059D02*
X24753034Y-17873011D01*
X24753034Y-17873011D02*
X24772082Y-17863488D01*
X24772082Y-17863488D02*
X24810177Y-17863488D01*
X24810177Y-17863488D02*
X24829225Y-17873011D01*
X24829225Y-17873011D02*
X24838749Y-17892059D01*
X24838749Y-17892059D02*
X24838749Y-17911107D01*
X24838749Y-17911107D02*
X24743511Y-17930154D01*
X25010177Y-17996821D02*
X25010177Y-17796821D01*
X25010177Y-17987297D02*
X24991130Y-17996821D01*
X24991130Y-17996821D02*
X24953034Y-17996821D01*
X24953034Y-17996821D02*
X24933987Y-17987297D01*
X24933987Y-17987297D02*
X24924463Y-17977773D01*
X24924463Y-17977773D02*
X24914939Y-17958726D01*
X24914939Y-17958726D02*
X24914939Y-17901583D01*
X24914939Y-17901583D02*
X24924463Y-17882535D01*
X24924463Y-17882535D02*
X24933987Y-17873011D01*
X24933987Y-17873011D02*
X24953034Y-17863488D01*
X24953034Y-17863488D02*
X24991130Y-17863488D01*
X24991130Y-17863488D02*
X25010177Y-17873011D01*
X25086368Y-18073011D02*
X25095892Y-18063488D01*
X25095892Y-18063488D02*
X25114939Y-18034916D01*
X25114939Y-18034916D02*
X25124463Y-18015869D01*
X25124463Y-18015869D02*
X25133987Y-17987297D01*
X25133987Y-17987297D02*
X25143511Y-17939678D01*
X25143511Y-17939678D02*
X25143511Y-17901583D01*
X25143511Y-17901583D02*
X25133987Y-17853964D01*
X25133987Y-17853964D02*
X25124463Y-17825392D01*
X25124463Y-17825392D02*
X25114939Y-17806345D01*
X25114939Y-17806345D02*
X25095892Y-17777773D01*
X25095892Y-17777773D02*
X25086368Y-17768250D01*
D13*
X18330352Y-18169337D02*
G75*
G02*
X18140352Y-18169337I-95000J0D01*
G01*
X18140352Y-18169337D02*
G75*
G02*
X18330352Y-18169337I95000J0D01*
G01*
D11*
X18695891Y-18260821D02*
X18581605Y-18260821D01*
X18638748Y-18260821D02*
X18638748Y-18060821D01*
X18638748Y-18060821D02*
X18619701Y-18089392D01*
X18619701Y-18089392D02*
X18600653Y-18108440D01*
X18600653Y-18108440D02*
X18581605Y-18117964D01*
X18781605Y-18241773D02*
X18791129Y-18251297D01*
X18791129Y-18251297D02*
X18781605Y-18260821D01*
X18781605Y-18260821D02*
X18772082Y-18251297D01*
X18772082Y-18251297D02*
X18781605Y-18241773D01*
X18781605Y-18241773D02*
X18781605Y-18260821D01*
X18886367Y-18260821D02*
X18924462Y-18260821D01*
X18924462Y-18260821D02*
X18943510Y-18251297D01*
X18943510Y-18251297D02*
X18953034Y-18241773D01*
X18953034Y-18241773D02*
X18972082Y-18213202D01*
X18972082Y-18213202D02*
X18981605Y-18175107D01*
X18981605Y-18175107D02*
X18981605Y-18098916D01*
X18981605Y-18098916D02*
X18972082Y-18079869D01*
X18972082Y-18079869D02*
X18962558Y-18070345D01*
X18962558Y-18070345D02*
X18943510Y-18060821D01*
X18943510Y-18060821D02*
X18905415Y-18060821D01*
X18905415Y-18060821D02*
X18886367Y-18070345D01*
X18886367Y-18070345D02*
X18876843Y-18079869D01*
X18876843Y-18079869D02*
X18867320Y-18098916D01*
X18867320Y-18098916D02*
X18867320Y-18146535D01*
X18867320Y-18146535D02*
X18876843Y-18165583D01*
X18876843Y-18165583D02*
X18886367Y-18175107D01*
X18886367Y-18175107D02*
X18905415Y-18184631D01*
X18905415Y-18184631D02*
X18943510Y-18184631D01*
X18943510Y-18184631D02*
X18962558Y-18175107D01*
X18962558Y-18175107D02*
X18972082Y-18165583D01*
X18972082Y-18165583D02*
X18981605Y-18146535D01*
X19105415Y-18060821D02*
X19124463Y-18060821D01*
X19124463Y-18060821D02*
X19143510Y-18070345D01*
X19143510Y-18070345D02*
X19153034Y-18079869D01*
X19153034Y-18079869D02*
X19162558Y-18098916D01*
X19162558Y-18098916D02*
X19172082Y-18137011D01*
X19172082Y-18137011D02*
X19172082Y-18184631D01*
X19172082Y-18184631D02*
X19162558Y-18222726D01*
X19162558Y-18222726D02*
X19153034Y-18241773D01*
X19153034Y-18241773D02*
X19143510Y-18251297D01*
X19143510Y-18251297D02*
X19124463Y-18260821D01*
X19124463Y-18260821D02*
X19105415Y-18260821D01*
X19105415Y-18260821D02*
X19086367Y-18251297D01*
X19086367Y-18251297D02*
X19076843Y-18241773D01*
X19076843Y-18241773D02*
X19067320Y-18222726D01*
X19067320Y-18222726D02*
X19057796Y-18184631D01*
X19057796Y-18184631D02*
X19057796Y-18137011D01*
X19057796Y-18137011D02*
X19067320Y-18098916D01*
X19067320Y-18098916D02*
X19076843Y-18079869D01*
X19076843Y-18079869D02*
X19086367Y-18070345D01*
X19086367Y-18070345D02*
X19105415Y-18060821D01*
X19295891Y-18060821D02*
X19314939Y-18060821D01*
X19314939Y-18060821D02*
X19333986Y-18070345D01*
X19333986Y-18070345D02*
X19343510Y-18079869D01*
X19343510Y-18079869D02*
X19353034Y-18098916D01*
X19353034Y-18098916D02*
X19362558Y-18137011D01*
X19362558Y-18137011D02*
X19362558Y-18184631D01*
X19362558Y-18184631D02*
X19353034Y-18222726D01*
X19353034Y-18222726D02*
X19343510Y-18241773D01*
X19343510Y-18241773D02*
X19333986Y-18251297D01*
X19333986Y-18251297D02*
X19314939Y-18260821D01*
X19314939Y-18260821D02*
X19295891Y-18260821D01*
X19295891Y-18260821D02*
X19276843Y-18251297D01*
X19276843Y-18251297D02*
X19267320Y-18241773D01*
X19267320Y-18241773D02*
X19257796Y-18222726D01*
X19257796Y-18222726D02*
X19248272Y-18184631D01*
X19248272Y-18184631D02*
X19248272Y-18137011D01*
X19248272Y-18137011D02*
X19257796Y-18098916D01*
X19257796Y-18098916D02*
X19267320Y-18079869D01*
X19267320Y-18079869D02*
X19276843Y-18070345D01*
X19276843Y-18070345D02*
X19295891Y-18060821D01*
X19448272Y-18260821D02*
X19448272Y-18127488D01*
X19448272Y-18146535D02*
X19457796Y-18137011D01*
X19457796Y-18137011D02*
X19476843Y-18127488D01*
X19476843Y-18127488D02*
X19505415Y-18127488D01*
X19505415Y-18127488D02*
X19524463Y-18137011D01*
X19524463Y-18137011D02*
X19533986Y-18156059D01*
X19533986Y-18156059D02*
X19533986Y-18260821D01*
X19533986Y-18156059D02*
X19543510Y-18137011D01*
X19543510Y-18137011D02*
X19562558Y-18127488D01*
X19562558Y-18127488D02*
X19591129Y-18127488D01*
X19591129Y-18127488D02*
X19610177Y-18137011D01*
X19610177Y-18137011D02*
X19619701Y-18156059D01*
X19619701Y-18156059D02*
X19619701Y-18260821D01*
X19714939Y-18260821D02*
X19714939Y-18127488D01*
X19714939Y-18146535D02*
X19724463Y-18137011D01*
X19724463Y-18137011D02*
X19743510Y-18127488D01*
X19743510Y-18127488D02*
X19772082Y-18127488D01*
X19772082Y-18127488D02*
X19791129Y-18137011D01*
X19791129Y-18137011D02*
X19800653Y-18156059D01*
X19800653Y-18156059D02*
X19800653Y-18260821D01*
X19800653Y-18156059D02*
X19810177Y-18137011D01*
X19810177Y-18137011D02*
X19829224Y-18127488D01*
X19829224Y-18127488D02*
X19857796Y-18127488D01*
X19857796Y-18127488D02*
X19876844Y-18137011D01*
X19876844Y-18137011D02*
X19886367Y-18156059D01*
X19886367Y-18156059D02*
X19886367Y-18260821D01*
X20276844Y-18051297D02*
X20105415Y-18308440D01*
X20533986Y-18060821D02*
X20553034Y-18060821D01*
X20553034Y-18060821D02*
X20572082Y-18070345D01*
X20572082Y-18070345D02*
X20581606Y-18079869D01*
X20581606Y-18079869D02*
X20591129Y-18098916D01*
X20591129Y-18098916D02*
X20600653Y-18137011D01*
X20600653Y-18137011D02*
X20600653Y-18184631D01*
X20600653Y-18184631D02*
X20591129Y-18222726D01*
X20591129Y-18222726D02*
X20581606Y-18241773D01*
X20581606Y-18241773D02*
X20572082Y-18251297D01*
X20572082Y-18251297D02*
X20553034Y-18260821D01*
X20553034Y-18260821D02*
X20533986Y-18260821D01*
X20533986Y-18260821D02*
X20514939Y-18251297D01*
X20514939Y-18251297D02*
X20505415Y-18241773D01*
X20505415Y-18241773D02*
X20495891Y-18222726D01*
X20495891Y-18222726D02*
X20486367Y-18184631D01*
X20486367Y-18184631D02*
X20486367Y-18137011D01*
X20486367Y-18137011D02*
X20495891Y-18098916D01*
X20495891Y-18098916D02*
X20505415Y-18079869D01*
X20505415Y-18079869D02*
X20514939Y-18070345D01*
X20514939Y-18070345D02*
X20533986Y-18060821D01*
X20686367Y-18241773D02*
X20695891Y-18251297D01*
X20695891Y-18251297D02*
X20686367Y-18260821D01*
X20686367Y-18260821D02*
X20676844Y-18251297D01*
X20676844Y-18251297D02*
X20686367Y-18241773D01*
X20686367Y-18241773D02*
X20686367Y-18260821D01*
X20819701Y-18060821D02*
X20838748Y-18060821D01*
X20838748Y-18060821D02*
X20857796Y-18070345D01*
X20857796Y-18070345D02*
X20867320Y-18079869D01*
X20867320Y-18079869D02*
X20876844Y-18098916D01*
X20876844Y-18098916D02*
X20886367Y-18137011D01*
X20886367Y-18137011D02*
X20886367Y-18184631D01*
X20886367Y-18184631D02*
X20876844Y-18222726D01*
X20876844Y-18222726D02*
X20867320Y-18241773D01*
X20867320Y-18241773D02*
X20857796Y-18251297D01*
X20857796Y-18251297D02*
X20838748Y-18260821D01*
X20838748Y-18260821D02*
X20819701Y-18260821D01*
X20819701Y-18260821D02*
X20800653Y-18251297D01*
X20800653Y-18251297D02*
X20791129Y-18241773D01*
X20791129Y-18241773D02*
X20781606Y-18222726D01*
X20781606Y-18222726D02*
X20772082Y-18184631D01*
X20772082Y-18184631D02*
X20772082Y-18137011D01*
X20772082Y-18137011D02*
X20781606Y-18098916D01*
X20781606Y-18098916D02*
X20791129Y-18079869D01*
X20791129Y-18079869D02*
X20800653Y-18070345D01*
X20800653Y-18070345D02*
X20819701Y-18060821D01*
X20953034Y-18060821D02*
X21086367Y-18060821D01*
X21086367Y-18060821D02*
X21000653Y-18260821D01*
X21248272Y-18127488D02*
X21248272Y-18260821D01*
X21200653Y-18051297D02*
X21153034Y-18194154D01*
X21153034Y-18194154D02*
X21276844Y-18194154D01*
X21381606Y-18146535D02*
X21362558Y-18137011D01*
X21362558Y-18137011D02*
X21353034Y-18127488D01*
X21353034Y-18127488D02*
X21343510Y-18108440D01*
X21343510Y-18108440D02*
X21343510Y-18098916D01*
X21343510Y-18098916D02*
X21353034Y-18079869D01*
X21353034Y-18079869D02*
X21362558Y-18070345D01*
X21362558Y-18070345D02*
X21381606Y-18060821D01*
X21381606Y-18060821D02*
X21419701Y-18060821D01*
X21419701Y-18060821D02*
X21438748Y-18070345D01*
X21438748Y-18070345D02*
X21448272Y-18079869D01*
X21448272Y-18079869D02*
X21457796Y-18098916D01*
X21457796Y-18098916D02*
X21457796Y-18108440D01*
X21457796Y-18108440D02*
X21448272Y-18127488D01*
X21448272Y-18127488D02*
X21438748Y-18137011D01*
X21438748Y-18137011D02*
X21419701Y-18146535D01*
X21419701Y-18146535D02*
X21381606Y-18146535D01*
X21381606Y-18146535D02*
X21362558Y-18156059D01*
X21362558Y-18156059D02*
X21353034Y-18165583D01*
X21353034Y-18165583D02*
X21343510Y-18184631D01*
X21343510Y-18184631D02*
X21343510Y-18222726D01*
X21343510Y-18222726D02*
X21353034Y-18241773D01*
X21353034Y-18241773D02*
X21362558Y-18251297D01*
X21362558Y-18251297D02*
X21381606Y-18260821D01*
X21381606Y-18260821D02*
X21419701Y-18260821D01*
X21419701Y-18260821D02*
X21438748Y-18251297D01*
X21438748Y-18251297D02*
X21448272Y-18241773D01*
X21448272Y-18241773D02*
X21457796Y-18222726D01*
X21457796Y-18222726D02*
X21457796Y-18184631D01*
X21457796Y-18184631D02*
X21448272Y-18165583D01*
X21448272Y-18165583D02*
X21438748Y-18156059D01*
X21438748Y-18156059D02*
X21419701Y-18146535D01*
X21533987Y-18060821D02*
X21533987Y-18098916D01*
X21610177Y-18060821D02*
X21610177Y-18098916D01*
X21905415Y-18337011D02*
X21895891Y-18327488D01*
X21895891Y-18327488D02*
X21876844Y-18298916D01*
X21876844Y-18298916D02*
X21867320Y-18279869D01*
X21867320Y-18279869D02*
X21857796Y-18251297D01*
X21857796Y-18251297D02*
X21848272Y-18203678D01*
X21848272Y-18203678D02*
X21848272Y-18165583D01*
X21848272Y-18165583D02*
X21857796Y-18117964D01*
X21857796Y-18117964D02*
X21867320Y-18089392D01*
X21867320Y-18089392D02*
X21876844Y-18070345D01*
X21876844Y-18070345D02*
X21895891Y-18041773D01*
X21895891Y-18041773D02*
X21905415Y-18032250D01*
X22067320Y-18060821D02*
X22029225Y-18060821D01*
X22029225Y-18060821D02*
X22010177Y-18070345D01*
X22010177Y-18070345D02*
X22000653Y-18079869D01*
X22000653Y-18079869D02*
X21981606Y-18108440D01*
X21981606Y-18108440D02*
X21972082Y-18146535D01*
X21972082Y-18146535D02*
X21972082Y-18222726D01*
X21972082Y-18222726D02*
X21981606Y-18241773D01*
X21981606Y-18241773D02*
X21991129Y-18251297D01*
X21991129Y-18251297D02*
X22010177Y-18260821D01*
X22010177Y-18260821D02*
X22048272Y-18260821D01*
X22048272Y-18260821D02*
X22067320Y-18251297D01*
X22067320Y-18251297D02*
X22076844Y-18241773D01*
X22076844Y-18241773D02*
X22086368Y-18222726D01*
X22086368Y-18222726D02*
X22086368Y-18175107D01*
X22086368Y-18175107D02*
X22076844Y-18156059D01*
X22076844Y-18156059D02*
X22067320Y-18146535D01*
X22067320Y-18146535D02*
X22048272Y-18137011D01*
X22048272Y-18137011D02*
X22010177Y-18137011D01*
X22010177Y-18137011D02*
X21991129Y-18146535D01*
X21991129Y-18146535D02*
X21981606Y-18156059D01*
X21981606Y-18156059D02*
X21972082Y-18175107D01*
X22257796Y-18127488D02*
X22257796Y-18260821D01*
X22210177Y-18051297D02*
X22162558Y-18194154D01*
X22162558Y-18194154D02*
X22286368Y-18194154D01*
X22514939Y-18260821D02*
X22514939Y-18060821D01*
X22600653Y-18260821D02*
X22600653Y-18156059D01*
X22600653Y-18156059D02*
X22591129Y-18137011D01*
X22591129Y-18137011D02*
X22572082Y-18127488D01*
X22572082Y-18127488D02*
X22543510Y-18127488D01*
X22543510Y-18127488D02*
X22524463Y-18137011D01*
X22524463Y-18137011D02*
X22514939Y-18146535D01*
X22724463Y-18260821D02*
X22705415Y-18251297D01*
X22705415Y-18251297D02*
X22695891Y-18241773D01*
X22695891Y-18241773D02*
X22686368Y-18222726D01*
X22686368Y-18222726D02*
X22686368Y-18165583D01*
X22686368Y-18165583D02*
X22695891Y-18146535D01*
X22695891Y-18146535D02*
X22705415Y-18137011D01*
X22705415Y-18137011D02*
X22724463Y-18127488D01*
X22724463Y-18127488D02*
X22753034Y-18127488D01*
X22753034Y-18127488D02*
X22772082Y-18137011D01*
X22772082Y-18137011D02*
X22781606Y-18146535D01*
X22781606Y-18146535D02*
X22791129Y-18165583D01*
X22791129Y-18165583D02*
X22791129Y-18222726D01*
X22791129Y-18222726D02*
X22781606Y-18241773D01*
X22781606Y-18241773D02*
X22772082Y-18251297D01*
X22772082Y-18251297D02*
X22753034Y-18260821D01*
X22753034Y-18260821D02*
X22724463Y-18260821D01*
X22905415Y-18260821D02*
X22886368Y-18251297D01*
X22886368Y-18251297D02*
X22876844Y-18232250D01*
X22876844Y-18232250D02*
X22876844Y-18060821D01*
X23057796Y-18251297D02*
X23038749Y-18260821D01*
X23038749Y-18260821D02*
X23000653Y-18260821D01*
X23000653Y-18260821D02*
X22981606Y-18251297D01*
X22981606Y-18251297D02*
X22972082Y-18232250D01*
X22972082Y-18232250D02*
X22972082Y-18156059D01*
X22972082Y-18156059D02*
X22981606Y-18137011D01*
X22981606Y-18137011D02*
X23000653Y-18127488D01*
X23000653Y-18127488D02*
X23038749Y-18127488D01*
X23038749Y-18127488D02*
X23057796Y-18137011D01*
X23057796Y-18137011D02*
X23067320Y-18156059D01*
X23067320Y-18156059D02*
X23067320Y-18175107D01*
X23067320Y-18175107D02*
X22972082Y-18194154D01*
X23143510Y-18251297D02*
X23162558Y-18260821D01*
X23162558Y-18260821D02*
X23200653Y-18260821D01*
X23200653Y-18260821D02*
X23219701Y-18251297D01*
X23219701Y-18251297D02*
X23229225Y-18232250D01*
X23229225Y-18232250D02*
X23229225Y-18222726D01*
X23229225Y-18222726D02*
X23219701Y-18203678D01*
X23219701Y-18203678D02*
X23200653Y-18194154D01*
X23200653Y-18194154D02*
X23172082Y-18194154D01*
X23172082Y-18194154D02*
X23153034Y-18184631D01*
X23153034Y-18184631D02*
X23143510Y-18165583D01*
X23143510Y-18165583D02*
X23143510Y-18156059D01*
X23143510Y-18156059D02*
X23153034Y-18137011D01*
X23153034Y-18137011D02*
X23172082Y-18127488D01*
X23172082Y-18127488D02*
X23200653Y-18127488D01*
X23200653Y-18127488D02*
X23219701Y-18137011D01*
X23295891Y-18337011D02*
X23305415Y-18327488D01*
X23305415Y-18327488D02*
X23324463Y-18298916D01*
X23324463Y-18298916D02*
X23333987Y-18279869D01*
X23333987Y-18279869D02*
X23343510Y-18251297D01*
X23343510Y-18251297D02*
X23353034Y-18203678D01*
X23353034Y-18203678D02*
X23353034Y-18165583D01*
X23353034Y-18165583D02*
X23343510Y-18117964D01*
X23343510Y-18117964D02*
X23333987Y-18089392D01*
X23333987Y-18089392D02*
X23324463Y-18070345D01*
X23324463Y-18070345D02*
X23305415Y-18041773D01*
X23305415Y-18041773D02*
X23295891Y-18032250D01*
X23657796Y-18337011D02*
X23648272Y-18327488D01*
X23648272Y-18327488D02*
X23629225Y-18298916D01*
X23629225Y-18298916D02*
X23619701Y-18279869D01*
X23619701Y-18279869D02*
X23610177Y-18251297D01*
X23610177Y-18251297D02*
X23600653Y-18203678D01*
X23600653Y-18203678D02*
X23600653Y-18165583D01*
X23600653Y-18165583D02*
X23610177Y-18117964D01*
X23610177Y-18117964D02*
X23619701Y-18089392D01*
X23619701Y-18089392D02*
X23629225Y-18070345D01*
X23629225Y-18070345D02*
X23648272Y-18041773D01*
X23648272Y-18041773D02*
X23657796Y-18032250D01*
X23733987Y-18127488D02*
X23733987Y-18260821D01*
X23733987Y-18146535D02*
X23743510Y-18137011D01*
X23743510Y-18137011D02*
X23762558Y-18127488D01*
X23762558Y-18127488D02*
X23791130Y-18127488D01*
X23791130Y-18127488D02*
X23810177Y-18137011D01*
X23810177Y-18137011D02*
X23819701Y-18156059D01*
X23819701Y-18156059D02*
X23819701Y-18260821D01*
X23943510Y-18260821D02*
X23924463Y-18251297D01*
X23924463Y-18251297D02*
X23914939Y-18241773D01*
X23914939Y-18241773D02*
X23905415Y-18222726D01*
X23905415Y-18222726D02*
X23905415Y-18165583D01*
X23905415Y-18165583D02*
X23914939Y-18146535D01*
X23914939Y-18146535D02*
X23924463Y-18137011D01*
X23924463Y-18137011D02*
X23943510Y-18127488D01*
X23943510Y-18127488D02*
X23972082Y-18127488D01*
X23972082Y-18127488D02*
X23991130Y-18137011D01*
X23991130Y-18137011D02*
X24000653Y-18146535D01*
X24000653Y-18146535D02*
X24010177Y-18165583D01*
X24010177Y-18165583D02*
X24010177Y-18222726D01*
X24010177Y-18222726D02*
X24000653Y-18241773D01*
X24000653Y-18241773D02*
X23991130Y-18251297D01*
X23991130Y-18251297D02*
X23972082Y-18260821D01*
X23972082Y-18260821D02*
X23943510Y-18260821D01*
X24067320Y-18127488D02*
X24143510Y-18127488D01*
X24095891Y-18060821D02*
X24095891Y-18232250D01*
X24095891Y-18232250D02*
X24105415Y-18251297D01*
X24105415Y-18251297D02*
X24124463Y-18260821D01*
X24124463Y-18260821D02*
X24143510Y-18260821D01*
X24362558Y-18127488D02*
X24362558Y-18327488D01*
X24362558Y-18137011D02*
X24381606Y-18127488D01*
X24381606Y-18127488D02*
X24419701Y-18127488D01*
X24419701Y-18127488D02*
X24438749Y-18137011D01*
X24438749Y-18137011D02*
X24448272Y-18146535D01*
X24448272Y-18146535D02*
X24457796Y-18165583D01*
X24457796Y-18165583D02*
X24457796Y-18222726D01*
X24457796Y-18222726D02*
X24448272Y-18241773D01*
X24448272Y-18241773D02*
X24438749Y-18251297D01*
X24438749Y-18251297D02*
X24419701Y-18260821D01*
X24419701Y-18260821D02*
X24381606Y-18260821D01*
X24381606Y-18260821D02*
X24362558Y-18251297D01*
X24572082Y-18260821D02*
X24553034Y-18251297D01*
X24553034Y-18251297D02*
X24543511Y-18232250D01*
X24543511Y-18232250D02*
X24543511Y-18060821D01*
X24733987Y-18260821D02*
X24733987Y-18156059D01*
X24733987Y-18156059D02*
X24724463Y-18137011D01*
X24724463Y-18137011D02*
X24705415Y-18127488D01*
X24705415Y-18127488D02*
X24667320Y-18127488D01*
X24667320Y-18127488D02*
X24648272Y-18137011D01*
X24733987Y-18251297D02*
X24714939Y-18260821D01*
X24714939Y-18260821D02*
X24667320Y-18260821D01*
X24667320Y-18260821D02*
X24648272Y-18251297D01*
X24648272Y-18251297D02*
X24638749Y-18232250D01*
X24638749Y-18232250D02*
X24638749Y-18213202D01*
X24638749Y-18213202D02*
X24648272Y-18194154D01*
X24648272Y-18194154D02*
X24667320Y-18184631D01*
X24667320Y-18184631D02*
X24714939Y-18184631D01*
X24714939Y-18184631D02*
X24733987Y-18175107D01*
X24800653Y-18127488D02*
X24876844Y-18127488D01*
X24829225Y-18060821D02*
X24829225Y-18232250D01*
X24829225Y-18232250D02*
X24838749Y-18251297D01*
X24838749Y-18251297D02*
X24857796Y-18260821D01*
X24857796Y-18260821D02*
X24876844Y-18260821D01*
X25019701Y-18251297D02*
X25000653Y-18260821D01*
X25000653Y-18260821D02*
X24962558Y-18260821D01*
X24962558Y-18260821D02*
X24943511Y-18251297D01*
X24943511Y-18251297D02*
X24933987Y-18232250D01*
X24933987Y-18232250D02*
X24933987Y-18156059D01*
X24933987Y-18156059D02*
X24943511Y-18137011D01*
X24943511Y-18137011D02*
X24962558Y-18127488D01*
X24962558Y-18127488D02*
X25000653Y-18127488D01*
X25000653Y-18127488D02*
X25019701Y-18137011D01*
X25019701Y-18137011D02*
X25029225Y-18156059D01*
X25029225Y-18156059D02*
X25029225Y-18175107D01*
X25029225Y-18175107D02*
X24933987Y-18194154D01*
X25200653Y-18260821D02*
X25200653Y-18060821D01*
X25200653Y-18251297D02*
X25181606Y-18260821D01*
X25181606Y-18260821D02*
X25143511Y-18260821D01*
X25143511Y-18260821D02*
X25124463Y-18251297D01*
X25124463Y-18251297D02*
X25114939Y-18241773D01*
X25114939Y-18241773D02*
X25105415Y-18222726D01*
X25105415Y-18222726D02*
X25105415Y-18165583D01*
X25105415Y-18165583D02*
X25114939Y-18146535D01*
X25114939Y-18146535D02*
X25124463Y-18137011D01*
X25124463Y-18137011D02*
X25143511Y-18127488D01*
X25143511Y-18127488D02*
X25181606Y-18127488D01*
X25181606Y-18127488D02*
X25200653Y-18137011D01*
X25276844Y-18337011D02*
X25286368Y-18327488D01*
X25286368Y-18327488D02*
X25305415Y-18298916D01*
X25305415Y-18298916D02*
X25314939Y-18279869D01*
X25314939Y-18279869D02*
X25324463Y-18251297D01*
X25324463Y-18251297D02*
X25333987Y-18203678D01*
X25333987Y-18203678D02*
X25333987Y-18165583D01*
X25333987Y-18165583D02*
X25324463Y-18117964D01*
X25324463Y-18117964D02*
X25314939Y-18089392D01*
X25314939Y-18089392D02*
X25305415Y-18070345D01*
X25305415Y-18070345D02*
X25286368Y-18041773D01*
X25286368Y-18041773D02*
X25276844Y-18032250D01*
X18230352Y-18379337D02*
X18230352Y-18579337D01*
X18130352Y-18479337D02*
X18330352Y-18479337D01*
X18572082Y-18370821D02*
X18695891Y-18370821D01*
X18695891Y-18370821D02*
X18629224Y-18447011D01*
X18629224Y-18447011D02*
X18657796Y-18447011D01*
X18657796Y-18447011D02*
X18676843Y-18456535D01*
X18676843Y-18456535D02*
X18686367Y-18466059D01*
X18686367Y-18466059D02*
X18695891Y-18485107D01*
X18695891Y-18485107D02*
X18695891Y-18532726D01*
X18695891Y-18532726D02*
X18686367Y-18551773D01*
X18686367Y-18551773D02*
X18676843Y-18561297D01*
X18676843Y-18561297D02*
X18657796Y-18570821D01*
X18657796Y-18570821D02*
X18600653Y-18570821D01*
X18600653Y-18570821D02*
X18581605Y-18561297D01*
X18581605Y-18561297D02*
X18572082Y-18551773D01*
X18781605Y-18551773D02*
X18791129Y-18561297D01*
X18791129Y-18561297D02*
X18781605Y-18570821D01*
X18781605Y-18570821D02*
X18772082Y-18561297D01*
X18772082Y-18561297D02*
X18781605Y-18551773D01*
X18781605Y-18551773D02*
X18781605Y-18570821D01*
X18914939Y-18370821D02*
X18933986Y-18370821D01*
X18933986Y-18370821D02*
X18953034Y-18380345D01*
X18953034Y-18380345D02*
X18962558Y-18389869D01*
X18962558Y-18389869D02*
X18972082Y-18408916D01*
X18972082Y-18408916D02*
X18981605Y-18447011D01*
X18981605Y-18447011D02*
X18981605Y-18494631D01*
X18981605Y-18494631D02*
X18972082Y-18532726D01*
X18972082Y-18532726D02*
X18962558Y-18551773D01*
X18962558Y-18551773D02*
X18953034Y-18561297D01*
X18953034Y-18561297D02*
X18933986Y-18570821D01*
X18933986Y-18570821D02*
X18914939Y-18570821D01*
X18914939Y-18570821D02*
X18895891Y-18561297D01*
X18895891Y-18561297D02*
X18886367Y-18551773D01*
X18886367Y-18551773D02*
X18876843Y-18532726D01*
X18876843Y-18532726D02*
X18867320Y-18494631D01*
X18867320Y-18494631D02*
X18867320Y-18447011D01*
X18867320Y-18447011D02*
X18876843Y-18408916D01*
X18876843Y-18408916D02*
X18886367Y-18389869D01*
X18886367Y-18389869D02*
X18895891Y-18380345D01*
X18895891Y-18380345D02*
X18914939Y-18370821D01*
X19105415Y-18370821D02*
X19124463Y-18370821D01*
X19124463Y-18370821D02*
X19143510Y-18380345D01*
X19143510Y-18380345D02*
X19153034Y-18389869D01*
X19153034Y-18389869D02*
X19162558Y-18408916D01*
X19162558Y-18408916D02*
X19172082Y-18447011D01*
X19172082Y-18447011D02*
X19172082Y-18494631D01*
X19172082Y-18494631D02*
X19162558Y-18532726D01*
X19162558Y-18532726D02*
X19153034Y-18551773D01*
X19153034Y-18551773D02*
X19143510Y-18561297D01*
X19143510Y-18561297D02*
X19124463Y-18570821D01*
X19124463Y-18570821D02*
X19105415Y-18570821D01*
X19105415Y-18570821D02*
X19086367Y-18561297D01*
X19086367Y-18561297D02*
X19076843Y-18551773D01*
X19076843Y-18551773D02*
X19067320Y-18532726D01*
X19067320Y-18532726D02*
X19057796Y-18494631D01*
X19057796Y-18494631D02*
X19057796Y-18447011D01*
X19057796Y-18447011D02*
X19067320Y-18408916D01*
X19067320Y-18408916D02*
X19076843Y-18389869D01*
X19076843Y-18389869D02*
X19086367Y-18380345D01*
X19086367Y-18380345D02*
X19105415Y-18370821D01*
X19295891Y-18370821D02*
X19314939Y-18370821D01*
X19314939Y-18370821D02*
X19333986Y-18380345D01*
X19333986Y-18380345D02*
X19343510Y-18389869D01*
X19343510Y-18389869D02*
X19353034Y-18408916D01*
X19353034Y-18408916D02*
X19362558Y-18447011D01*
X19362558Y-18447011D02*
X19362558Y-18494631D01*
X19362558Y-18494631D02*
X19353034Y-18532726D01*
X19353034Y-18532726D02*
X19343510Y-18551773D01*
X19343510Y-18551773D02*
X19333986Y-18561297D01*
X19333986Y-18561297D02*
X19314939Y-18570821D01*
X19314939Y-18570821D02*
X19295891Y-18570821D01*
X19295891Y-18570821D02*
X19276843Y-18561297D01*
X19276843Y-18561297D02*
X19267320Y-18551773D01*
X19267320Y-18551773D02*
X19257796Y-18532726D01*
X19257796Y-18532726D02*
X19248272Y-18494631D01*
X19248272Y-18494631D02*
X19248272Y-18447011D01*
X19248272Y-18447011D02*
X19257796Y-18408916D01*
X19257796Y-18408916D02*
X19267320Y-18389869D01*
X19267320Y-18389869D02*
X19276843Y-18380345D01*
X19276843Y-18380345D02*
X19295891Y-18370821D01*
X19448272Y-18570821D02*
X19448272Y-18437488D01*
X19448272Y-18456535D02*
X19457796Y-18447011D01*
X19457796Y-18447011D02*
X19476843Y-18437488D01*
X19476843Y-18437488D02*
X19505415Y-18437488D01*
X19505415Y-18437488D02*
X19524463Y-18447011D01*
X19524463Y-18447011D02*
X19533986Y-18466059D01*
X19533986Y-18466059D02*
X19533986Y-18570821D01*
X19533986Y-18466059D02*
X19543510Y-18447011D01*
X19543510Y-18447011D02*
X19562558Y-18437488D01*
X19562558Y-18437488D02*
X19591129Y-18437488D01*
X19591129Y-18437488D02*
X19610177Y-18447011D01*
X19610177Y-18447011D02*
X19619701Y-18466059D01*
X19619701Y-18466059D02*
X19619701Y-18570821D01*
X19714939Y-18570821D02*
X19714939Y-18437488D01*
X19714939Y-18456535D02*
X19724463Y-18447011D01*
X19724463Y-18447011D02*
X19743510Y-18437488D01*
X19743510Y-18437488D02*
X19772082Y-18437488D01*
X19772082Y-18437488D02*
X19791129Y-18447011D01*
X19791129Y-18447011D02*
X19800653Y-18466059D01*
X19800653Y-18466059D02*
X19800653Y-18570821D01*
X19800653Y-18466059D02*
X19810177Y-18447011D01*
X19810177Y-18447011D02*
X19829224Y-18437488D01*
X19829224Y-18437488D02*
X19857796Y-18437488D01*
X19857796Y-18437488D02*
X19876844Y-18447011D01*
X19876844Y-18447011D02*
X19886367Y-18466059D01*
X19886367Y-18466059D02*
X19886367Y-18570821D01*
X20276844Y-18361297D02*
X20105415Y-18618440D01*
X20533986Y-18370821D02*
X20553034Y-18370821D01*
X20553034Y-18370821D02*
X20572082Y-18380345D01*
X20572082Y-18380345D02*
X20581606Y-18389869D01*
X20581606Y-18389869D02*
X20591129Y-18408916D01*
X20591129Y-18408916D02*
X20600653Y-18447011D01*
X20600653Y-18447011D02*
X20600653Y-18494631D01*
X20600653Y-18494631D02*
X20591129Y-18532726D01*
X20591129Y-18532726D02*
X20581606Y-18551773D01*
X20581606Y-18551773D02*
X20572082Y-18561297D01*
X20572082Y-18561297D02*
X20553034Y-18570821D01*
X20553034Y-18570821D02*
X20533986Y-18570821D01*
X20533986Y-18570821D02*
X20514939Y-18561297D01*
X20514939Y-18561297D02*
X20505415Y-18551773D01*
X20505415Y-18551773D02*
X20495891Y-18532726D01*
X20495891Y-18532726D02*
X20486367Y-18494631D01*
X20486367Y-18494631D02*
X20486367Y-18447011D01*
X20486367Y-18447011D02*
X20495891Y-18408916D01*
X20495891Y-18408916D02*
X20505415Y-18389869D01*
X20505415Y-18389869D02*
X20514939Y-18380345D01*
X20514939Y-18380345D02*
X20533986Y-18370821D01*
X20686367Y-18551773D02*
X20695891Y-18561297D01*
X20695891Y-18561297D02*
X20686367Y-18570821D01*
X20686367Y-18570821D02*
X20676844Y-18561297D01*
X20676844Y-18561297D02*
X20686367Y-18551773D01*
X20686367Y-18551773D02*
X20686367Y-18570821D01*
X20886367Y-18570821D02*
X20772082Y-18570821D01*
X20829225Y-18570821D02*
X20829225Y-18370821D01*
X20829225Y-18370821D02*
X20810177Y-18399392D01*
X20810177Y-18399392D02*
X20791129Y-18418440D01*
X20791129Y-18418440D02*
X20772082Y-18427964D01*
X21076844Y-18570821D02*
X20962558Y-18570821D01*
X21019701Y-18570821D02*
X21019701Y-18370821D01*
X21019701Y-18370821D02*
X21000653Y-18399392D01*
X21000653Y-18399392D02*
X20981606Y-18418440D01*
X20981606Y-18418440D02*
X20962558Y-18427964D01*
X21191129Y-18456535D02*
X21172082Y-18447011D01*
X21172082Y-18447011D02*
X21162558Y-18437488D01*
X21162558Y-18437488D02*
X21153034Y-18418440D01*
X21153034Y-18418440D02*
X21153034Y-18408916D01*
X21153034Y-18408916D02*
X21162558Y-18389869D01*
X21162558Y-18389869D02*
X21172082Y-18380345D01*
X21172082Y-18380345D02*
X21191129Y-18370821D01*
X21191129Y-18370821D02*
X21229225Y-18370821D01*
X21229225Y-18370821D02*
X21248272Y-18380345D01*
X21248272Y-18380345D02*
X21257796Y-18389869D01*
X21257796Y-18389869D02*
X21267320Y-18408916D01*
X21267320Y-18408916D02*
X21267320Y-18418440D01*
X21267320Y-18418440D02*
X21257796Y-18437488D01*
X21257796Y-18437488D02*
X21248272Y-18447011D01*
X21248272Y-18447011D02*
X21229225Y-18456535D01*
X21229225Y-18456535D02*
X21191129Y-18456535D01*
X21191129Y-18456535D02*
X21172082Y-18466059D01*
X21172082Y-18466059D02*
X21162558Y-18475583D01*
X21162558Y-18475583D02*
X21153034Y-18494631D01*
X21153034Y-18494631D02*
X21153034Y-18532726D01*
X21153034Y-18532726D02*
X21162558Y-18551773D01*
X21162558Y-18551773D02*
X21172082Y-18561297D01*
X21172082Y-18561297D02*
X21191129Y-18570821D01*
X21191129Y-18570821D02*
X21229225Y-18570821D01*
X21229225Y-18570821D02*
X21248272Y-18561297D01*
X21248272Y-18561297D02*
X21257796Y-18551773D01*
X21257796Y-18551773D02*
X21267320Y-18532726D01*
X21267320Y-18532726D02*
X21267320Y-18494631D01*
X21267320Y-18494631D02*
X21257796Y-18475583D01*
X21257796Y-18475583D02*
X21248272Y-18466059D01*
X21248272Y-18466059D02*
X21229225Y-18456535D01*
X21457796Y-18570821D02*
X21343510Y-18570821D01*
X21400653Y-18570821D02*
X21400653Y-18370821D01*
X21400653Y-18370821D02*
X21381606Y-18399392D01*
X21381606Y-18399392D02*
X21362558Y-18418440D01*
X21362558Y-18418440D02*
X21343510Y-18427964D01*
X21533987Y-18370821D02*
X21533987Y-18408916D01*
X21610177Y-18370821D02*
X21610177Y-18408916D01*
X21905415Y-18647011D02*
X21895891Y-18637488D01*
X21895891Y-18637488D02*
X21876844Y-18608916D01*
X21876844Y-18608916D02*
X21867320Y-18589869D01*
X21867320Y-18589869D02*
X21857796Y-18561297D01*
X21857796Y-18561297D02*
X21848272Y-18513678D01*
X21848272Y-18513678D02*
X21848272Y-18475583D01*
X21848272Y-18475583D02*
X21857796Y-18427964D01*
X21857796Y-18427964D02*
X21867320Y-18399392D01*
X21867320Y-18399392D02*
X21876844Y-18380345D01*
X21876844Y-18380345D02*
X21895891Y-18351773D01*
X21895891Y-18351773D02*
X21905415Y-18342250D01*
X22067320Y-18370821D02*
X22029225Y-18370821D01*
X22029225Y-18370821D02*
X22010177Y-18380345D01*
X22010177Y-18380345D02*
X22000653Y-18389869D01*
X22000653Y-18389869D02*
X21981606Y-18418440D01*
X21981606Y-18418440D02*
X21972082Y-18456535D01*
X21972082Y-18456535D02*
X21972082Y-18532726D01*
X21972082Y-18532726D02*
X21981606Y-18551773D01*
X21981606Y-18551773D02*
X21991129Y-18561297D01*
X21991129Y-18561297D02*
X22010177Y-18570821D01*
X22010177Y-18570821D02*
X22048272Y-18570821D01*
X22048272Y-18570821D02*
X22067320Y-18561297D01*
X22067320Y-18561297D02*
X22076844Y-18551773D01*
X22076844Y-18551773D02*
X22086368Y-18532726D01*
X22086368Y-18532726D02*
X22086368Y-18485107D01*
X22086368Y-18485107D02*
X22076844Y-18466059D01*
X22076844Y-18466059D02*
X22067320Y-18456535D01*
X22067320Y-18456535D02*
X22048272Y-18447011D01*
X22048272Y-18447011D02*
X22010177Y-18447011D01*
X22010177Y-18447011D02*
X21991129Y-18456535D01*
X21991129Y-18456535D02*
X21981606Y-18466059D01*
X21981606Y-18466059D02*
X21972082Y-18485107D01*
X22257796Y-18437488D02*
X22257796Y-18570821D01*
X22210177Y-18361297D02*
X22162558Y-18504154D01*
X22162558Y-18504154D02*
X22286368Y-18504154D01*
X22514939Y-18570821D02*
X22514939Y-18370821D01*
X22600653Y-18570821D02*
X22600653Y-18466059D01*
X22600653Y-18466059D02*
X22591129Y-18447011D01*
X22591129Y-18447011D02*
X22572082Y-18437488D01*
X22572082Y-18437488D02*
X22543510Y-18437488D01*
X22543510Y-18437488D02*
X22524463Y-18447011D01*
X22524463Y-18447011D02*
X22514939Y-18456535D01*
X22724463Y-18570821D02*
X22705415Y-18561297D01*
X22705415Y-18561297D02*
X22695891Y-18551773D01*
X22695891Y-18551773D02*
X22686368Y-18532726D01*
X22686368Y-18532726D02*
X22686368Y-18475583D01*
X22686368Y-18475583D02*
X22695891Y-18456535D01*
X22695891Y-18456535D02*
X22705415Y-18447011D01*
X22705415Y-18447011D02*
X22724463Y-18437488D01*
X22724463Y-18437488D02*
X22753034Y-18437488D01*
X22753034Y-18437488D02*
X22772082Y-18447011D01*
X22772082Y-18447011D02*
X22781606Y-18456535D01*
X22781606Y-18456535D02*
X22791129Y-18475583D01*
X22791129Y-18475583D02*
X22791129Y-18532726D01*
X22791129Y-18532726D02*
X22781606Y-18551773D01*
X22781606Y-18551773D02*
X22772082Y-18561297D01*
X22772082Y-18561297D02*
X22753034Y-18570821D01*
X22753034Y-18570821D02*
X22724463Y-18570821D01*
X22905415Y-18570821D02*
X22886368Y-18561297D01*
X22886368Y-18561297D02*
X22876844Y-18542250D01*
X22876844Y-18542250D02*
X22876844Y-18370821D01*
X23057796Y-18561297D02*
X23038749Y-18570821D01*
X23038749Y-18570821D02*
X23000653Y-18570821D01*
X23000653Y-18570821D02*
X22981606Y-18561297D01*
X22981606Y-18561297D02*
X22972082Y-18542250D01*
X22972082Y-18542250D02*
X22972082Y-18466059D01*
X22972082Y-18466059D02*
X22981606Y-18447011D01*
X22981606Y-18447011D02*
X23000653Y-18437488D01*
X23000653Y-18437488D02*
X23038749Y-18437488D01*
X23038749Y-18437488D02*
X23057796Y-18447011D01*
X23057796Y-18447011D02*
X23067320Y-18466059D01*
X23067320Y-18466059D02*
X23067320Y-18485107D01*
X23067320Y-18485107D02*
X22972082Y-18504154D01*
X23143510Y-18561297D02*
X23162558Y-18570821D01*
X23162558Y-18570821D02*
X23200653Y-18570821D01*
X23200653Y-18570821D02*
X23219701Y-18561297D01*
X23219701Y-18561297D02*
X23229225Y-18542250D01*
X23229225Y-18542250D02*
X23229225Y-18532726D01*
X23229225Y-18532726D02*
X23219701Y-18513678D01*
X23219701Y-18513678D02*
X23200653Y-18504154D01*
X23200653Y-18504154D02*
X23172082Y-18504154D01*
X23172082Y-18504154D02*
X23153034Y-18494631D01*
X23153034Y-18494631D02*
X23143510Y-18475583D01*
X23143510Y-18475583D02*
X23143510Y-18466059D01*
X23143510Y-18466059D02*
X23153034Y-18447011D01*
X23153034Y-18447011D02*
X23172082Y-18437488D01*
X23172082Y-18437488D02*
X23200653Y-18437488D01*
X23200653Y-18437488D02*
X23219701Y-18447011D01*
X23295891Y-18647011D02*
X23305415Y-18637488D01*
X23305415Y-18637488D02*
X23324463Y-18608916D01*
X23324463Y-18608916D02*
X23333987Y-18589869D01*
X23333987Y-18589869D02*
X23343510Y-18561297D01*
X23343510Y-18561297D02*
X23353034Y-18513678D01*
X23353034Y-18513678D02*
X23353034Y-18475583D01*
X23353034Y-18475583D02*
X23343510Y-18427964D01*
X23343510Y-18427964D02*
X23333987Y-18399392D01*
X23333987Y-18399392D02*
X23324463Y-18380345D01*
X23324463Y-18380345D02*
X23305415Y-18351773D01*
X23305415Y-18351773D02*
X23295891Y-18342250D01*
X23657796Y-18647011D02*
X23648272Y-18637488D01*
X23648272Y-18637488D02*
X23629225Y-18608916D01*
X23629225Y-18608916D02*
X23619701Y-18589869D01*
X23619701Y-18589869D02*
X23610177Y-18561297D01*
X23610177Y-18561297D02*
X23600653Y-18513678D01*
X23600653Y-18513678D02*
X23600653Y-18475583D01*
X23600653Y-18475583D02*
X23610177Y-18427964D01*
X23610177Y-18427964D02*
X23619701Y-18399392D01*
X23619701Y-18399392D02*
X23629225Y-18380345D01*
X23629225Y-18380345D02*
X23648272Y-18351773D01*
X23648272Y-18351773D02*
X23657796Y-18342250D01*
X23733987Y-18437488D02*
X23733987Y-18570821D01*
X23733987Y-18456535D02*
X23743510Y-18447011D01*
X23743510Y-18447011D02*
X23762558Y-18437488D01*
X23762558Y-18437488D02*
X23791130Y-18437488D01*
X23791130Y-18437488D02*
X23810177Y-18447011D01*
X23810177Y-18447011D02*
X23819701Y-18466059D01*
X23819701Y-18466059D02*
X23819701Y-18570821D01*
X23943510Y-18570821D02*
X23924463Y-18561297D01*
X23924463Y-18561297D02*
X23914939Y-18551773D01*
X23914939Y-18551773D02*
X23905415Y-18532726D01*
X23905415Y-18532726D02*
X23905415Y-18475583D01*
X23905415Y-18475583D02*
X23914939Y-18456535D01*
X23914939Y-18456535D02*
X23924463Y-18447011D01*
X23924463Y-18447011D02*
X23943510Y-18437488D01*
X23943510Y-18437488D02*
X23972082Y-18437488D01*
X23972082Y-18437488D02*
X23991130Y-18447011D01*
X23991130Y-18447011D02*
X24000653Y-18456535D01*
X24000653Y-18456535D02*
X24010177Y-18475583D01*
X24010177Y-18475583D02*
X24010177Y-18532726D01*
X24010177Y-18532726D02*
X24000653Y-18551773D01*
X24000653Y-18551773D02*
X23991130Y-18561297D01*
X23991130Y-18561297D02*
X23972082Y-18570821D01*
X23972082Y-18570821D02*
X23943510Y-18570821D01*
X24067320Y-18437488D02*
X24143510Y-18437488D01*
X24095891Y-18370821D02*
X24095891Y-18542250D01*
X24095891Y-18542250D02*
X24105415Y-18561297D01*
X24105415Y-18561297D02*
X24124463Y-18570821D01*
X24124463Y-18570821D02*
X24143510Y-18570821D01*
X24362558Y-18437488D02*
X24362558Y-18637488D01*
X24362558Y-18447011D02*
X24381606Y-18437488D01*
X24381606Y-18437488D02*
X24419701Y-18437488D01*
X24419701Y-18437488D02*
X24438749Y-18447011D01*
X24438749Y-18447011D02*
X24448272Y-18456535D01*
X24448272Y-18456535D02*
X24457796Y-18475583D01*
X24457796Y-18475583D02*
X24457796Y-18532726D01*
X24457796Y-18532726D02*
X24448272Y-18551773D01*
X24448272Y-18551773D02*
X24438749Y-18561297D01*
X24438749Y-18561297D02*
X24419701Y-18570821D01*
X24419701Y-18570821D02*
X24381606Y-18570821D01*
X24381606Y-18570821D02*
X24362558Y-18561297D01*
X24572082Y-18570821D02*
X24553034Y-18561297D01*
X24553034Y-18561297D02*
X24543511Y-18542250D01*
X24543511Y-18542250D02*
X24543511Y-18370821D01*
X24733987Y-18570821D02*
X24733987Y-18466059D01*
X24733987Y-18466059D02*
X24724463Y-18447011D01*
X24724463Y-18447011D02*
X24705415Y-18437488D01*
X24705415Y-18437488D02*
X24667320Y-18437488D01*
X24667320Y-18437488D02*
X24648272Y-18447011D01*
X24733987Y-18561297D02*
X24714939Y-18570821D01*
X24714939Y-18570821D02*
X24667320Y-18570821D01*
X24667320Y-18570821D02*
X24648272Y-18561297D01*
X24648272Y-18561297D02*
X24638749Y-18542250D01*
X24638749Y-18542250D02*
X24638749Y-18523202D01*
X24638749Y-18523202D02*
X24648272Y-18504154D01*
X24648272Y-18504154D02*
X24667320Y-18494631D01*
X24667320Y-18494631D02*
X24714939Y-18494631D01*
X24714939Y-18494631D02*
X24733987Y-18485107D01*
X24800653Y-18437488D02*
X24876844Y-18437488D01*
X24829225Y-18370821D02*
X24829225Y-18542250D01*
X24829225Y-18542250D02*
X24838749Y-18561297D01*
X24838749Y-18561297D02*
X24857796Y-18570821D01*
X24857796Y-18570821D02*
X24876844Y-18570821D01*
X25019701Y-18561297D02*
X25000653Y-18570821D01*
X25000653Y-18570821D02*
X24962558Y-18570821D01*
X24962558Y-18570821D02*
X24943511Y-18561297D01*
X24943511Y-18561297D02*
X24933987Y-18542250D01*
X24933987Y-18542250D02*
X24933987Y-18466059D01*
X24933987Y-18466059D02*
X24943511Y-18447011D01*
X24943511Y-18447011D02*
X24962558Y-18437488D01*
X24962558Y-18437488D02*
X25000653Y-18437488D01*
X25000653Y-18437488D02*
X25019701Y-18447011D01*
X25019701Y-18447011D02*
X25029225Y-18466059D01*
X25029225Y-18466059D02*
X25029225Y-18485107D01*
X25029225Y-18485107D02*
X24933987Y-18504154D01*
X25200653Y-18570821D02*
X25200653Y-18370821D01*
X25200653Y-18561297D02*
X25181606Y-18570821D01*
X25181606Y-18570821D02*
X25143511Y-18570821D01*
X25143511Y-18570821D02*
X25124463Y-18561297D01*
X25124463Y-18561297D02*
X25114939Y-18551773D01*
X25114939Y-18551773D02*
X25105415Y-18532726D01*
X25105415Y-18532726D02*
X25105415Y-18475583D01*
X25105415Y-18475583D02*
X25114939Y-18456535D01*
X25114939Y-18456535D02*
X25124463Y-18447011D01*
X25124463Y-18447011D02*
X25143511Y-18437488D01*
X25143511Y-18437488D02*
X25181606Y-18437488D01*
X25181606Y-18437488D02*
X25200653Y-18447011D01*
X25276844Y-18647011D02*
X25286368Y-18637488D01*
X25286368Y-18637488D02*
X25305415Y-18608916D01*
X25305415Y-18608916D02*
X25314939Y-18589869D01*
X25314939Y-18589869D02*
X25324463Y-18561297D01*
X25324463Y-18561297D02*
X25333987Y-18513678D01*
X25333987Y-18513678D02*
X25333987Y-18475583D01*
X25333987Y-18475583D02*
X25324463Y-18427964D01*
X25324463Y-18427964D02*
X25314939Y-18399392D01*
X25314939Y-18399392D02*
X25305415Y-18380345D01*
X25305415Y-18380345D02*
X25286368Y-18351773D01*
X25286368Y-18351773D02*
X25276844Y-18342250D01*
X18301064Y-18870049D02*
X18301064Y-18728626D01*
X18159641Y-18728626D01*
X18159641Y-18870049D01*
X18301064Y-18870049D01*
X18686367Y-18690821D02*
X18591129Y-18690821D01*
X18591129Y-18690821D02*
X18581605Y-18786059D01*
X18581605Y-18786059D02*
X18591129Y-18776535D01*
X18591129Y-18776535D02*
X18610177Y-18767011D01*
X18610177Y-18767011D02*
X18657796Y-18767011D01*
X18657796Y-18767011D02*
X18676843Y-18776535D01*
X18676843Y-18776535D02*
X18686367Y-18786059D01*
X18686367Y-18786059D02*
X18695891Y-18805107D01*
X18695891Y-18805107D02*
X18695891Y-18852726D01*
X18695891Y-18852726D02*
X18686367Y-18871773D01*
X18686367Y-18871773D02*
X18676843Y-18881297D01*
X18676843Y-18881297D02*
X18657796Y-18890821D01*
X18657796Y-18890821D02*
X18610177Y-18890821D01*
X18610177Y-18890821D02*
X18591129Y-18881297D01*
X18591129Y-18881297D02*
X18581605Y-18871773D01*
X18781605Y-18871773D02*
X18791129Y-18881297D01*
X18791129Y-18881297D02*
X18781605Y-18890821D01*
X18781605Y-18890821D02*
X18772082Y-18881297D01*
X18772082Y-18881297D02*
X18781605Y-18871773D01*
X18781605Y-18871773D02*
X18781605Y-18890821D01*
X18914939Y-18690821D02*
X18933986Y-18690821D01*
X18933986Y-18690821D02*
X18953034Y-18700345D01*
X18953034Y-18700345D02*
X18962558Y-18709869D01*
X18962558Y-18709869D02*
X18972082Y-18728916D01*
X18972082Y-18728916D02*
X18981605Y-18767011D01*
X18981605Y-18767011D02*
X18981605Y-18814631D01*
X18981605Y-18814631D02*
X18972082Y-18852726D01*
X18972082Y-18852726D02*
X18962558Y-18871773D01*
X18962558Y-18871773D02*
X18953034Y-18881297D01*
X18953034Y-18881297D02*
X18933986Y-18890821D01*
X18933986Y-18890821D02*
X18914939Y-18890821D01*
X18914939Y-18890821D02*
X18895891Y-18881297D01*
X18895891Y-18881297D02*
X18886367Y-18871773D01*
X18886367Y-18871773D02*
X18876843Y-18852726D01*
X18876843Y-18852726D02*
X18867320Y-18814631D01*
X18867320Y-18814631D02*
X18867320Y-18767011D01*
X18867320Y-18767011D02*
X18876843Y-18728916D01*
X18876843Y-18728916D02*
X18886367Y-18709869D01*
X18886367Y-18709869D02*
X18895891Y-18700345D01*
X18895891Y-18700345D02*
X18914939Y-18690821D01*
X19105415Y-18690821D02*
X19124463Y-18690821D01*
X19124463Y-18690821D02*
X19143510Y-18700345D01*
X19143510Y-18700345D02*
X19153034Y-18709869D01*
X19153034Y-18709869D02*
X19162558Y-18728916D01*
X19162558Y-18728916D02*
X19172082Y-18767011D01*
X19172082Y-18767011D02*
X19172082Y-18814631D01*
X19172082Y-18814631D02*
X19162558Y-18852726D01*
X19162558Y-18852726D02*
X19153034Y-18871773D01*
X19153034Y-18871773D02*
X19143510Y-18881297D01*
X19143510Y-18881297D02*
X19124463Y-18890821D01*
X19124463Y-18890821D02*
X19105415Y-18890821D01*
X19105415Y-18890821D02*
X19086367Y-18881297D01*
X19086367Y-18881297D02*
X19076843Y-18871773D01*
X19076843Y-18871773D02*
X19067320Y-18852726D01*
X19067320Y-18852726D02*
X19057796Y-18814631D01*
X19057796Y-18814631D02*
X19057796Y-18767011D01*
X19057796Y-18767011D02*
X19067320Y-18728916D01*
X19067320Y-18728916D02*
X19076843Y-18709869D01*
X19076843Y-18709869D02*
X19086367Y-18700345D01*
X19086367Y-18700345D02*
X19105415Y-18690821D01*
X19295891Y-18690821D02*
X19314939Y-18690821D01*
X19314939Y-18690821D02*
X19333986Y-18700345D01*
X19333986Y-18700345D02*
X19343510Y-18709869D01*
X19343510Y-18709869D02*
X19353034Y-18728916D01*
X19353034Y-18728916D02*
X19362558Y-18767011D01*
X19362558Y-18767011D02*
X19362558Y-18814631D01*
X19362558Y-18814631D02*
X19353034Y-18852726D01*
X19353034Y-18852726D02*
X19343510Y-18871773D01*
X19343510Y-18871773D02*
X19333986Y-18881297D01*
X19333986Y-18881297D02*
X19314939Y-18890821D01*
X19314939Y-18890821D02*
X19295891Y-18890821D01*
X19295891Y-18890821D02*
X19276843Y-18881297D01*
X19276843Y-18881297D02*
X19267320Y-18871773D01*
X19267320Y-18871773D02*
X19257796Y-18852726D01*
X19257796Y-18852726D02*
X19248272Y-18814631D01*
X19248272Y-18814631D02*
X19248272Y-18767011D01*
X19248272Y-18767011D02*
X19257796Y-18728916D01*
X19257796Y-18728916D02*
X19267320Y-18709869D01*
X19267320Y-18709869D02*
X19276843Y-18700345D01*
X19276843Y-18700345D02*
X19295891Y-18690821D01*
X19448272Y-18890821D02*
X19448272Y-18757488D01*
X19448272Y-18776535D02*
X19457796Y-18767011D01*
X19457796Y-18767011D02*
X19476843Y-18757488D01*
X19476843Y-18757488D02*
X19505415Y-18757488D01*
X19505415Y-18757488D02*
X19524463Y-18767011D01*
X19524463Y-18767011D02*
X19533986Y-18786059D01*
X19533986Y-18786059D02*
X19533986Y-18890821D01*
X19533986Y-18786059D02*
X19543510Y-18767011D01*
X19543510Y-18767011D02*
X19562558Y-18757488D01*
X19562558Y-18757488D02*
X19591129Y-18757488D01*
X19591129Y-18757488D02*
X19610177Y-18767011D01*
X19610177Y-18767011D02*
X19619701Y-18786059D01*
X19619701Y-18786059D02*
X19619701Y-18890821D01*
X19714939Y-18890821D02*
X19714939Y-18757488D01*
X19714939Y-18776535D02*
X19724463Y-18767011D01*
X19724463Y-18767011D02*
X19743510Y-18757488D01*
X19743510Y-18757488D02*
X19772082Y-18757488D01*
X19772082Y-18757488D02*
X19791129Y-18767011D01*
X19791129Y-18767011D02*
X19800653Y-18786059D01*
X19800653Y-18786059D02*
X19800653Y-18890821D01*
X19800653Y-18786059D02*
X19810177Y-18767011D01*
X19810177Y-18767011D02*
X19829224Y-18757488D01*
X19829224Y-18757488D02*
X19857796Y-18757488D01*
X19857796Y-18757488D02*
X19876844Y-18767011D01*
X19876844Y-18767011D02*
X19886367Y-18786059D01*
X19886367Y-18786059D02*
X19886367Y-18890821D01*
X20276844Y-18681297D02*
X20105415Y-18938440D01*
X20533986Y-18690821D02*
X20553034Y-18690821D01*
X20553034Y-18690821D02*
X20572082Y-18700345D01*
X20572082Y-18700345D02*
X20581606Y-18709869D01*
X20581606Y-18709869D02*
X20591129Y-18728916D01*
X20591129Y-18728916D02*
X20600653Y-18767011D01*
X20600653Y-18767011D02*
X20600653Y-18814631D01*
X20600653Y-18814631D02*
X20591129Y-18852726D01*
X20591129Y-18852726D02*
X20581606Y-18871773D01*
X20581606Y-18871773D02*
X20572082Y-18881297D01*
X20572082Y-18881297D02*
X20553034Y-18890821D01*
X20553034Y-18890821D02*
X20533986Y-18890821D01*
X20533986Y-18890821D02*
X20514939Y-18881297D01*
X20514939Y-18881297D02*
X20505415Y-18871773D01*
X20505415Y-18871773D02*
X20495891Y-18852726D01*
X20495891Y-18852726D02*
X20486367Y-18814631D01*
X20486367Y-18814631D02*
X20486367Y-18767011D01*
X20486367Y-18767011D02*
X20495891Y-18728916D01*
X20495891Y-18728916D02*
X20505415Y-18709869D01*
X20505415Y-18709869D02*
X20514939Y-18700345D01*
X20514939Y-18700345D02*
X20533986Y-18690821D01*
X20686367Y-18871773D02*
X20695891Y-18881297D01*
X20695891Y-18881297D02*
X20686367Y-18890821D01*
X20686367Y-18890821D02*
X20676844Y-18881297D01*
X20676844Y-18881297D02*
X20686367Y-18871773D01*
X20686367Y-18871773D02*
X20686367Y-18890821D01*
X20886367Y-18890821D02*
X20772082Y-18890821D01*
X20829225Y-18890821D02*
X20829225Y-18690821D01*
X20829225Y-18690821D02*
X20810177Y-18719392D01*
X20810177Y-18719392D02*
X20791129Y-18738440D01*
X20791129Y-18738440D02*
X20772082Y-18747964D01*
X20981606Y-18890821D02*
X21019701Y-18890821D01*
X21019701Y-18890821D02*
X21038748Y-18881297D01*
X21038748Y-18881297D02*
X21048272Y-18871773D01*
X21048272Y-18871773D02*
X21067320Y-18843202D01*
X21067320Y-18843202D02*
X21076844Y-18805107D01*
X21076844Y-18805107D02*
X21076844Y-18728916D01*
X21076844Y-18728916D02*
X21067320Y-18709869D01*
X21067320Y-18709869D02*
X21057796Y-18700345D01*
X21057796Y-18700345D02*
X21038748Y-18690821D01*
X21038748Y-18690821D02*
X21000653Y-18690821D01*
X21000653Y-18690821D02*
X20981606Y-18700345D01*
X20981606Y-18700345D02*
X20972082Y-18709869D01*
X20972082Y-18709869D02*
X20962558Y-18728916D01*
X20962558Y-18728916D02*
X20962558Y-18776535D01*
X20962558Y-18776535D02*
X20972082Y-18795583D01*
X20972082Y-18795583D02*
X20981606Y-18805107D01*
X20981606Y-18805107D02*
X21000653Y-18814631D01*
X21000653Y-18814631D02*
X21038748Y-18814631D01*
X21038748Y-18814631D02*
X21057796Y-18805107D01*
X21057796Y-18805107D02*
X21067320Y-18795583D01*
X21067320Y-18795583D02*
X21076844Y-18776535D01*
X21248272Y-18690821D02*
X21210177Y-18690821D01*
X21210177Y-18690821D02*
X21191129Y-18700345D01*
X21191129Y-18700345D02*
X21181606Y-18709869D01*
X21181606Y-18709869D02*
X21162558Y-18738440D01*
X21162558Y-18738440D02*
X21153034Y-18776535D01*
X21153034Y-18776535D02*
X21153034Y-18852726D01*
X21153034Y-18852726D02*
X21162558Y-18871773D01*
X21162558Y-18871773D02*
X21172082Y-18881297D01*
X21172082Y-18881297D02*
X21191129Y-18890821D01*
X21191129Y-18890821D02*
X21229225Y-18890821D01*
X21229225Y-18890821D02*
X21248272Y-18881297D01*
X21248272Y-18881297D02*
X21257796Y-18871773D01*
X21257796Y-18871773D02*
X21267320Y-18852726D01*
X21267320Y-18852726D02*
X21267320Y-18805107D01*
X21267320Y-18805107D02*
X21257796Y-18786059D01*
X21257796Y-18786059D02*
X21248272Y-18776535D01*
X21248272Y-18776535D02*
X21229225Y-18767011D01*
X21229225Y-18767011D02*
X21191129Y-18767011D01*
X21191129Y-18767011D02*
X21172082Y-18776535D01*
X21172082Y-18776535D02*
X21162558Y-18786059D01*
X21162558Y-18786059D02*
X21153034Y-18805107D01*
X21362558Y-18890821D02*
X21400653Y-18890821D01*
X21400653Y-18890821D02*
X21419701Y-18881297D01*
X21419701Y-18881297D02*
X21429225Y-18871773D01*
X21429225Y-18871773D02*
X21448272Y-18843202D01*
X21448272Y-18843202D02*
X21457796Y-18805107D01*
X21457796Y-18805107D02*
X21457796Y-18728916D01*
X21457796Y-18728916D02*
X21448272Y-18709869D01*
X21448272Y-18709869D02*
X21438748Y-18700345D01*
X21438748Y-18700345D02*
X21419701Y-18690821D01*
X21419701Y-18690821D02*
X21381606Y-18690821D01*
X21381606Y-18690821D02*
X21362558Y-18700345D01*
X21362558Y-18700345D02*
X21353034Y-18709869D01*
X21353034Y-18709869D02*
X21343510Y-18728916D01*
X21343510Y-18728916D02*
X21343510Y-18776535D01*
X21343510Y-18776535D02*
X21353034Y-18795583D01*
X21353034Y-18795583D02*
X21362558Y-18805107D01*
X21362558Y-18805107D02*
X21381606Y-18814631D01*
X21381606Y-18814631D02*
X21419701Y-18814631D01*
X21419701Y-18814631D02*
X21438748Y-18805107D01*
X21438748Y-18805107D02*
X21448272Y-18795583D01*
X21448272Y-18795583D02*
X21457796Y-18776535D01*
X21533987Y-18690821D02*
X21533987Y-18728916D01*
X21610177Y-18690821D02*
X21610177Y-18728916D01*
X21905415Y-18967011D02*
X21895891Y-18957488D01*
X21895891Y-18957488D02*
X21876844Y-18928916D01*
X21876844Y-18928916D02*
X21867320Y-18909869D01*
X21867320Y-18909869D02*
X21857796Y-18881297D01*
X21857796Y-18881297D02*
X21848272Y-18833678D01*
X21848272Y-18833678D02*
X21848272Y-18795583D01*
X21848272Y-18795583D02*
X21857796Y-18747964D01*
X21857796Y-18747964D02*
X21867320Y-18719392D01*
X21867320Y-18719392D02*
X21876844Y-18700345D01*
X21876844Y-18700345D02*
X21895891Y-18671773D01*
X21895891Y-18671773D02*
X21905415Y-18662250D01*
X21962558Y-18690821D02*
X22086368Y-18690821D01*
X22086368Y-18690821D02*
X22019701Y-18767011D01*
X22019701Y-18767011D02*
X22048272Y-18767011D01*
X22048272Y-18767011D02*
X22067320Y-18776535D01*
X22067320Y-18776535D02*
X22076844Y-18786059D01*
X22076844Y-18786059D02*
X22086368Y-18805107D01*
X22086368Y-18805107D02*
X22086368Y-18852726D01*
X22086368Y-18852726D02*
X22076844Y-18871773D01*
X22076844Y-18871773D02*
X22067320Y-18881297D01*
X22067320Y-18881297D02*
X22048272Y-18890821D01*
X22048272Y-18890821D02*
X21991129Y-18890821D01*
X21991129Y-18890821D02*
X21972082Y-18881297D01*
X21972082Y-18881297D02*
X21962558Y-18871773D01*
X22162558Y-18709869D02*
X22172082Y-18700345D01*
X22172082Y-18700345D02*
X22191129Y-18690821D01*
X22191129Y-18690821D02*
X22238749Y-18690821D01*
X22238749Y-18690821D02*
X22257796Y-18700345D01*
X22257796Y-18700345D02*
X22267320Y-18709869D01*
X22267320Y-18709869D02*
X22276844Y-18728916D01*
X22276844Y-18728916D02*
X22276844Y-18747964D01*
X22276844Y-18747964D02*
X22267320Y-18776535D01*
X22267320Y-18776535D02*
X22153034Y-18890821D01*
X22153034Y-18890821D02*
X22276844Y-18890821D01*
X22514939Y-18890821D02*
X22514939Y-18690821D01*
X22600653Y-18890821D02*
X22600653Y-18786059D01*
X22600653Y-18786059D02*
X22591129Y-18767011D01*
X22591129Y-18767011D02*
X22572082Y-18757488D01*
X22572082Y-18757488D02*
X22543510Y-18757488D01*
X22543510Y-18757488D02*
X22524463Y-18767011D01*
X22524463Y-18767011D02*
X22514939Y-18776535D01*
X22724463Y-18890821D02*
X22705415Y-18881297D01*
X22705415Y-18881297D02*
X22695891Y-18871773D01*
X22695891Y-18871773D02*
X22686368Y-18852726D01*
X22686368Y-18852726D02*
X22686368Y-18795583D01*
X22686368Y-18795583D02*
X22695891Y-18776535D01*
X22695891Y-18776535D02*
X22705415Y-18767011D01*
X22705415Y-18767011D02*
X22724463Y-18757488D01*
X22724463Y-18757488D02*
X22753034Y-18757488D01*
X22753034Y-18757488D02*
X22772082Y-18767011D01*
X22772082Y-18767011D02*
X22781606Y-18776535D01*
X22781606Y-18776535D02*
X22791129Y-18795583D01*
X22791129Y-18795583D02*
X22791129Y-18852726D01*
X22791129Y-18852726D02*
X22781606Y-18871773D01*
X22781606Y-18871773D02*
X22772082Y-18881297D01*
X22772082Y-18881297D02*
X22753034Y-18890821D01*
X22753034Y-18890821D02*
X22724463Y-18890821D01*
X22905415Y-18890821D02*
X22886368Y-18881297D01*
X22886368Y-18881297D02*
X22876844Y-18862250D01*
X22876844Y-18862250D02*
X22876844Y-18690821D01*
X23057796Y-18881297D02*
X23038749Y-18890821D01*
X23038749Y-18890821D02*
X23000653Y-18890821D01*
X23000653Y-18890821D02*
X22981606Y-18881297D01*
X22981606Y-18881297D02*
X22972082Y-18862250D01*
X22972082Y-18862250D02*
X22972082Y-18786059D01*
X22972082Y-18786059D02*
X22981606Y-18767011D01*
X22981606Y-18767011D02*
X23000653Y-18757488D01*
X23000653Y-18757488D02*
X23038749Y-18757488D01*
X23038749Y-18757488D02*
X23057796Y-18767011D01*
X23057796Y-18767011D02*
X23067320Y-18786059D01*
X23067320Y-18786059D02*
X23067320Y-18805107D01*
X23067320Y-18805107D02*
X22972082Y-18824154D01*
X23143510Y-18881297D02*
X23162558Y-18890821D01*
X23162558Y-18890821D02*
X23200653Y-18890821D01*
X23200653Y-18890821D02*
X23219701Y-18881297D01*
X23219701Y-18881297D02*
X23229225Y-18862250D01*
X23229225Y-18862250D02*
X23229225Y-18852726D01*
X23229225Y-18852726D02*
X23219701Y-18833678D01*
X23219701Y-18833678D02*
X23200653Y-18824154D01*
X23200653Y-18824154D02*
X23172082Y-18824154D01*
X23172082Y-18824154D02*
X23153034Y-18814631D01*
X23153034Y-18814631D02*
X23143510Y-18795583D01*
X23143510Y-18795583D02*
X23143510Y-18786059D01*
X23143510Y-18786059D02*
X23153034Y-18767011D01*
X23153034Y-18767011D02*
X23172082Y-18757488D01*
X23172082Y-18757488D02*
X23200653Y-18757488D01*
X23200653Y-18757488D02*
X23219701Y-18767011D01*
X23295891Y-18967011D02*
X23305415Y-18957488D01*
X23305415Y-18957488D02*
X23324463Y-18928916D01*
X23324463Y-18928916D02*
X23333987Y-18909869D01*
X23333987Y-18909869D02*
X23343510Y-18881297D01*
X23343510Y-18881297D02*
X23353034Y-18833678D01*
X23353034Y-18833678D02*
X23353034Y-18795583D01*
X23353034Y-18795583D02*
X23343510Y-18747964D01*
X23343510Y-18747964D02*
X23333987Y-18719392D01*
X23333987Y-18719392D02*
X23324463Y-18700345D01*
X23324463Y-18700345D02*
X23305415Y-18671773D01*
X23305415Y-18671773D02*
X23295891Y-18662250D01*
X23657796Y-18967011D02*
X23648272Y-18957488D01*
X23648272Y-18957488D02*
X23629225Y-18928916D01*
X23629225Y-18928916D02*
X23619701Y-18909869D01*
X23619701Y-18909869D02*
X23610177Y-18881297D01*
X23610177Y-18881297D02*
X23600653Y-18833678D01*
X23600653Y-18833678D02*
X23600653Y-18795583D01*
X23600653Y-18795583D02*
X23610177Y-18747964D01*
X23610177Y-18747964D02*
X23619701Y-18719392D01*
X23619701Y-18719392D02*
X23629225Y-18700345D01*
X23629225Y-18700345D02*
X23648272Y-18671773D01*
X23648272Y-18671773D02*
X23657796Y-18662250D01*
X23733987Y-18757488D02*
X23733987Y-18890821D01*
X23733987Y-18776535D02*
X23743510Y-18767011D01*
X23743510Y-18767011D02*
X23762558Y-18757488D01*
X23762558Y-18757488D02*
X23791130Y-18757488D01*
X23791130Y-18757488D02*
X23810177Y-18767011D01*
X23810177Y-18767011D02*
X23819701Y-18786059D01*
X23819701Y-18786059D02*
X23819701Y-18890821D01*
X23943510Y-18890821D02*
X23924463Y-18881297D01*
X23924463Y-18881297D02*
X23914939Y-18871773D01*
X23914939Y-18871773D02*
X23905415Y-18852726D01*
X23905415Y-18852726D02*
X23905415Y-18795583D01*
X23905415Y-18795583D02*
X23914939Y-18776535D01*
X23914939Y-18776535D02*
X23924463Y-18767011D01*
X23924463Y-18767011D02*
X23943510Y-18757488D01*
X23943510Y-18757488D02*
X23972082Y-18757488D01*
X23972082Y-18757488D02*
X23991130Y-18767011D01*
X23991130Y-18767011D02*
X24000653Y-18776535D01*
X24000653Y-18776535D02*
X24010177Y-18795583D01*
X24010177Y-18795583D02*
X24010177Y-18852726D01*
X24010177Y-18852726D02*
X24000653Y-18871773D01*
X24000653Y-18871773D02*
X23991130Y-18881297D01*
X23991130Y-18881297D02*
X23972082Y-18890821D01*
X23972082Y-18890821D02*
X23943510Y-18890821D01*
X24067320Y-18757488D02*
X24143510Y-18757488D01*
X24095891Y-18690821D02*
X24095891Y-18862250D01*
X24095891Y-18862250D02*
X24105415Y-18881297D01*
X24105415Y-18881297D02*
X24124463Y-18890821D01*
X24124463Y-18890821D02*
X24143510Y-18890821D01*
X24362558Y-18757488D02*
X24362558Y-18957488D01*
X24362558Y-18767011D02*
X24381606Y-18757488D01*
X24381606Y-18757488D02*
X24419701Y-18757488D01*
X24419701Y-18757488D02*
X24438749Y-18767011D01*
X24438749Y-18767011D02*
X24448272Y-18776535D01*
X24448272Y-18776535D02*
X24457796Y-18795583D01*
X24457796Y-18795583D02*
X24457796Y-18852726D01*
X24457796Y-18852726D02*
X24448272Y-18871773D01*
X24448272Y-18871773D02*
X24438749Y-18881297D01*
X24438749Y-18881297D02*
X24419701Y-18890821D01*
X24419701Y-18890821D02*
X24381606Y-18890821D01*
X24381606Y-18890821D02*
X24362558Y-18881297D01*
X24572082Y-18890821D02*
X24553034Y-18881297D01*
X24553034Y-18881297D02*
X24543511Y-18862250D01*
X24543511Y-18862250D02*
X24543511Y-18690821D01*
X24733987Y-18890821D02*
X24733987Y-18786059D01*
X24733987Y-18786059D02*
X24724463Y-18767011D01*
X24724463Y-18767011D02*
X24705415Y-18757488D01*
X24705415Y-18757488D02*
X24667320Y-18757488D01*
X24667320Y-18757488D02*
X24648272Y-18767011D01*
X24733987Y-18881297D02*
X24714939Y-18890821D01*
X24714939Y-18890821D02*
X24667320Y-18890821D01*
X24667320Y-18890821D02*
X24648272Y-18881297D01*
X24648272Y-18881297D02*
X24638749Y-18862250D01*
X24638749Y-18862250D02*
X24638749Y-18843202D01*
X24638749Y-18843202D02*
X24648272Y-18824154D01*
X24648272Y-18824154D02*
X24667320Y-18814631D01*
X24667320Y-18814631D02*
X24714939Y-18814631D01*
X24714939Y-18814631D02*
X24733987Y-18805107D01*
X24800653Y-18757488D02*
X24876844Y-18757488D01*
X24829225Y-18690821D02*
X24829225Y-18862250D01*
X24829225Y-18862250D02*
X24838749Y-18881297D01*
X24838749Y-18881297D02*
X24857796Y-18890821D01*
X24857796Y-18890821D02*
X24876844Y-18890821D01*
X25019701Y-18881297D02*
X25000653Y-18890821D01*
X25000653Y-18890821D02*
X24962558Y-18890821D01*
X24962558Y-18890821D02*
X24943511Y-18881297D01*
X24943511Y-18881297D02*
X24933987Y-18862250D01*
X24933987Y-18862250D02*
X24933987Y-18786059D01*
X24933987Y-18786059D02*
X24943511Y-18767011D01*
X24943511Y-18767011D02*
X24962558Y-18757488D01*
X24962558Y-18757488D02*
X25000653Y-18757488D01*
X25000653Y-18757488D02*
X25019701Y-18767011D01*
X25019701Y-18767011D02*
X25029225Y-18786059D01*
X25029225Y-18786059D02*
X25029225Y-18805107D01*
X25029225Y-18805107D02*
X24933987Y-18824154D01*
X25200653Y-18890821D02*
X25200653Y-18690821D01*
X25200653Y-18881297D02*
X25181606Y-18890821D01*
X25181606Y-18890821D02*
X25143511Y-18890821D01*
X25143511Y-18890821D02*
X25124463Y-18881297D01*
X25124463Y-18881297D02*
X25114939Y-18871773D01*
X25114939Y-18871773D02*
X25105415Y-18852726D01*
X25105415Y-18852726D02*
X25105415Y-18795583D01*
X25105415Y-18795583D02*
X25114939Y-18776535D01*
X25114939Y-18776535D02*
X25124463Y-18767011D01*
X25124463Y-18767011D02*
X25143511Y-18757488D01*
X25143511Y-18757488D02*
X25181606Y-18757488D01*
X25181606Y-18757488D02*
X25200653Y-18767011D01*
X25276844Y-18967011D02*
X25286368Y-18957488D01*
X25286368Y-18957488D02*
X25305415Y-18928916D01*
X25305415Y-18928916D02*
X25314939Y-18909869D01*
X25314939Y-18909869D02*
X25324463Y-18881297D01*
X25324463Y-18881297D02*
X25333987Y-18833678D01*
X25333987Y-18833678D02*
X25333987Y-18795583D01*
X25333987Y-18795583D02*
X25324463Y-18747964D01*
X25324463Y-18747964D02*
X25314939Y-18719392D01*
X25314939Y-18719392D02*
X25305415Y-18700345D01*
X25305415Y-18700345D02*
X25286368Y-18671773D01*
X25286368Y-18671773D02*
X25276844Y-18662250D01*
M02*
