M48
; DRILL file {KiCad 9.0.7+1} date 2026-02-15T05:04:06+0000
; FORMAT={-:-/ absolute / metric / decimal}
; #@! TF.CreationDate,2026-02-15T05:04:06+00:00
; #@! TF.GenerationSoftware,Kicad,Pcbnew,9.0.7+1
; #@! TF.FileFunction,NonPlated,1,2,NPTH
FMAT,2
METRIC
; #@! TA.AperFunction,NonPlated,NPTH,ComponentDrill
T1C0.900
; #@! TA.AperFunction,NonPlated,NPTH,ComponentDrill
T2C1.900
; #@! TA.AperFunction,NonPlated,NPTH,ComponentDrill
T3C3.000
; #@! TA.AperFunction,NonPlated,NPTH,ComponentDrill
T4C5.000
%
G90
G05
T1
X227.5Y-39.745
X230.5Y-39.745
T2
X192.544Y-161.4
X197.5Y-90.33
X197.5Y-107.33
X197.5Y-124.33
X202.07Y-155.9
X208.045Y-152.79
X208.5Y-90.33
X208.5Y-107.33
X208.5Y-124.33
X214.5Y-76.73
X214.5Y-93.73
X214.5Y-110.73
X214.5Y-127.73
X218.014Y-148.141
X225.5Y-76.73
X225.5Y-93.73
X225.5Y-110.73
X225.5Y-127.73
X225.804Y-145.685
X231.5Y-73.33
X231.5Y-90.33
X231.5Y-107.33
X231.5Y-124.33
X236.636Y-143.775
X242.5Y-73.33
X242.5Y-90.33
X242.5Y-107.33
X242.5Y-124.33
X248.5Y-70.78
X248.5Y-87.78
X248.5Y-104.78
X248.5Y-121.78
X259.5Y-70.78
X259.5Y-87.78
X259.5Y-104.78
X259.5Y-121.78
X265.5Y-66.53
X265.5Y-83.53
X265.5Y-100.53
X265.5Y-117.53
X265.5Y-134.53
X276.5Y-66.53
X276.5Y-83.53
X276.5Y-100.53
X276.5Y-117.53
X276.5Y-134.53
X282.5Y-77.75
X282.5Y-94.75
X282.5Y-111.75
X282.5Y-128.75
X282.5Y-145.75
X293.5Y-77.75
X293.5Y-94.75
X293.5Y-111.75
X293.5Y-128.75
X293.5Y-145.75
X299.5Y-82.0
X299.5Y-99.0
X299.5Y-116.0
X299.5Y-133.0
X310.5Y-82.0
X310.5Y-99.0
X310.5Y-116.0
X310.5Y-133.0
T3
X194.852Y-164.398
X198.0Y-94.08
X198.0Y-111.08
X198.0Y-128.08
X200.282Y-163.803
X203.0Y-96.28
X203.0Y-113.28
X203.0Y-130.28
X210.083Y-155.977
X215.0Y-80.48
X215.0Y-97.48
X215.0Y-114.48
X215.0Y-131.48
X215.544Y-155.858
X220.0Y-82.68
X220.0Y-99.68
X220.0Y-116.68
X220.0Y-133.68
X226.947Y-149.291
X232.0Y-77.08
X232.0Y-94.08
X232.0Y-111.08
X232.0Y-128.08
X232.253Y-150.59
X237.0Y-79.28
X237.0Y-96.28
X237.0Y-113.28
X237.0Y-130.28
X249.0Y-74.53
X249.0Y-91.53
X249.0Y-108.53
X249.0Y-125.53
X254.0Y-76.73
X254.0Y-93.73
X254.0Y-110.73
X254.0Y-127.73
X266.0Y-70.28
X266.0Y-87.28
X266.0Y-104.28
X266.0Y-121.28
X266.0Y-138.28
X271.0Y-72.48
X271.0Y-89.48
X271.0Y-106.48
X271.0Y-123.48
X271.0Y-140.48
X283.0Y-81.5
X283.0Y-98.5
X283.0Y-115.5
X283.0Y-132.5
X283.0Y-149.5
X288.0Y-83.7
X288.0Y-100.7
X288.0Y-117.7
X288.0Y-134.7
X288.0Y-151.7
X300.0Y-85.75
X300.0Y-102.75
X300.0Y-119.75
X300.0Y-136.75
X305.0Y-87.95
X305.0Y-104.95
X305.0Y-121.95
X305.0Y-138.95
T4
X197.307Y-158.65
X203.0Y-90.33
X203.0Y-107.33
X203.0Y-124.33
X213.029Y-150.466
X220.0Y-76.73
X220.0Y-93.73
X220.0Y-110.73
X220.0Y-127.73
X231.22Y-144.73
X237.0Y-73.33
X237.0Y-90.33
X237.0Y-107.33
X237.0Y-124.33
X254.0Y-70.78
X254.0Y-87.78
X254.0Y-104.78
X254.0Y-121.78
X271.0Y-66.53
X271.0Y-83.53
X271.0Y-100.53
X271.0Y-117.53
X271.0Y-134.53
X288.0Y-77.75
X288.0Y-94.75
X288.0Y-111.75
X288.0Y-128.75
X288.0Y-145.75
X305.0Y-82.0
X305.0Y-99.0
X305.0Y-116.0
X305.0Y-133.0
M30
