G04 #@! TF.GenerationSoftware,KiCad,Pcbnew,9.0.7+1*
G04 #@! TF.CreationDate,2026-02-15T05:04:06+00:00*
G04 #@! TF.ProjectId,right_pcb,72696768-745f-4706-9362-2e6b69636164,v0.2*
G04 #@! TF.SameCoordinates,Original*
G04 #@! TF.FileFunction,Copper,L1,Top*
G04 #@! TF.FilePolarity,Positive*
%FSLAX46Y46*%
G04 Gerber Fmt 4.6, Leading zero omitted, Abs format (unit mm)*
G04 Created by KiCad (PCBNEW 9.0.7+1) date 2026-02-15 05:04:06*
%MOMM*%
%LPD*%
G01*
G04 APERTURE LIST*
G04 #@! TA.AperFunction,ComponentPad*
%ADD10C,1.900000*%
G04 #@! TD*
G04 #@! TA.AperFunction,SMDPad,CuDef*
%ADD11R,1.200000X0.900000*%
G04 #@! TD*
G04 #@! TA.AperFunction,ComponentPad*
%ADD12C,1.700000*%
G04 #@! TD*
G04 #@! TA.AperFunction,ComponentPad*
%ADD13O,1.750000X1.200000*%
G04 #@! TD*
G04 #@! TA.AperFunction,SMDPad,CuDef*
%ADD14R,1.000000X1.550000*%
G04 #@! TD*
G04 #@! TA.AperFunction,SMDPad,CuDef*
%ADD15R,1.000000X0.800000*%
G04 #@! TD*
G04 #@! TA.AperFunction,SMDPad,CuDef*
%ADD16R,0.700000X1.500000*%
G04 #@! TD*
G04 APERTURE END LIST*
D10*
X310000000Y-127850000D03*
X310000000Y-110850000D03*
X310000000Y-93850000D03*
X310000000Y-76850000D03*
X293000000Y-140600000D03*
X293000000Y-123600000D03*
X293000000Y-106600000D03*
X293000000Y-89600000D03*
X293000000Y-72600000D03*
X276000000Y-129380000D03*
X276000000Y-112380000D03*
X276000000Y-95380000D03*
X276000000Y-78380000D03*
X276000000Y-61380000D03*
X259000000Y-116630000D03*
X259000000Y-99630000D03*
X259000000Y-82630000D03*
X259000000Y-65630000D03*
X242000000Y-119180000D03*
X242000000Y-102180000D03*
X242000000Y-85180000D03*
X242000000Y-68180000D03*
X225000000Y-122580000D03*
X225000000Y-105580000D03*
X225000000Y-88580000D03*
X225000000Y-71580000D03*
X208000000Y-119180000D03*
X208000000Y-102180000D03*
X208000000Y-85180000D03*
X235249751Y-138789999D03*
X215384327Y-143684938D03*
X199061822Y-151690139D03*
D11*
X312750000Y-129850000D03*
X312750000Y-133150000D03*
X312750000Y-112850000D03*
X312750000Y-116150000D03*
X312750000Y-95850000D03*
X312750000Y-99150000D03*
X312750000Y-78850000D03*
X312750000Y-82150000D03*
X295750000Y-142600000D03*
X295750000Y-145900000D03*
X295750000Y-125600000D03*
X295750000Y-128900000D03*
X295750000Y-108600000D03*
X295750000Y-111900000D03*
X295750000Y-91600000D03*
X295750000Y-94900000D03*
X295750000Y-74600000D03*
X295750000Y-77900000D03*
X278750000Y-131380000D03*
X278750000Y-134680000D03*
X278750000Y-114380000D03*
X278750000Y-117680000D03*
X278750000Y-97380000D03*
X278750000Y-100680000D03*
X278750000Y-80380000D03*
X278750000Y-83680000D03*
X278750000Y-63380000D03*
X278750000Y-66680000D03*
X261750000Y-118630000D03*
X261750000Y-121930000D03*
X261750000Y-101630000D03*
X261750000Y-104930000D03*
X261750000Y-84630000D03*
X261750000Y-87930000D03*
X261750000Y-67630000D03*
X261750000Y-70930000D03*
X244750000Y-121180000D03*
X244750000Y-124480000D03*
X244750000Y-104180000D03*
X244750000Y-107480000D03*
X244750000Y-87180000D03*
X244750000Y-90480000D03*
X244750000Y-70180000D03*
X244750000Y-73480000D03*
X227750000Y-124580000D03*
X227750000Y-127880000D03*
X227750000Y-107580000D03*
X227750000Y-110880000D03*
X227750000Y-90580000D03*
X227750000Y-93880000D03*
X227750000Y-73580000D03*
X227750000Y-76880000D03*
X210750000Y-121180000D03*
X210750000Y-124480000D03*
X210750000Y-104180000D03*
X210750000Y-107480000D03*
X210750000Y-87180000D03*
X210750000Y-90480000D03*
G04 #@! TA.AperFunction,SMDPad,CuDef*
G36*
X237636243Y-139943107D02*
G01*
X238818012Y-139734730D01*
X238974295Y-140621057D01*
X237792526Y-140829434D01*
X237636243Y-139943107D01*
G37*
G04 #@! TD.AperFunction*
G04 #@! TA.AperFunction,SMDPad,CuDef*
G36*
X238209281Y-143192973D02*
G01*
X239391050Y-142984596D01*
X239547333Y-143870923D01*
X238365564Y-144079300D01*
X238209281Y-143192973D01*
G37*
G04 #@! TD.AperFunction*
G04 #@! TA.AperFunction,SMDPad,CuDef*
G36*
X217987947Y-144181085D02*
G01*
X219075516Y-143673944D01*
X219455873Y-144489621D01*
X218368304Y-144996762D01*
X217987947Y-144181085D01*
G37*
G04 #@! TD.AperFunction*
G04 #@! TA.AperFunction,SMDPad,CuDef*
G36*
X219382587Y-147171901D02*
G01*
X220470156Y-146664760D01*
X220850513Y-147480437D01*
X219762944Y-147987578D01*
X219382587Y-147171901D01*
G37*
G04 #@! TD.AperFunction*
G04 #@! TA.AperFunction,SMDPad,CuDef*
G36*
X201698777Y-151957479D02*
G01*
X202738007Y-151357479D01*
X203188007Y-152136901D01*
X202148777Y-152736901D01*
X201698777Y-151957479D01*
G37*
G04 #@! TD.AperFunction*
G04 #@! TA.AperFunction,SMDPad,CuDef*
G36*
X203348777Y-154815363D02*
G01*
X204388007Y-154215363D01*
X204838007Y-154994785D01*
X203798777Y-155594785D01*
X203348777Y-154815363D01*
G37*
G04 #@! TD.AperFunction*
D12*
X267950000Y-40150000D03*
X267950000Y-55390000D03*
X265410000Y-40150000D03*
X265410000Y-55390000D03*
X262870000Y-40150000D03*
X262870000Y-55390000D03*
X260330000Y-40150000D03*
X260330000Y-55390000D03*
X257790000Y-40150000D03*
X257790000Y-55390000D03*
X255250000Y-40150000D03*
X255250000Y-55390000D03*
X252710000Y-40150000D03*
X252710000Y-55390000D03*
X250170000Y-40150000D03*
X250170000Y-55390000D03*
X247630000Y-40150000D03*
X247630000Y-55390000D03*
X245090000Y-40150000D03*
X245090000Y-55390000D03*
X242550000Y-40150000D03*
X242550000Y-55390000D03*
X240010000Y-40150000D03*
X240010000Y-55390000D03*
X242550000Y-52850000D03*
X242550000Y-50310000D03*
X242550000Y-47770000D03*
G04 #@! TA.AperFunction,ComponentPad*
G36*
G01*
X223635000Y-59370000D02*
X222365000Y-59370000D01*
G75*
G02*
X222125000Y-59130000I0J240000D01*
G01*
X222125000Y-58410000D01*
G75*
G02*
X222365000Y-58170000I240000J0D01*
G01*
X223635000Y-58170000D01*
G75*
G02*
X223875000Y-58410000I0J-240000D01*
G01*
X223875000Y-59130000D01*
G75*
G02*
X223635000Y-59370000I-240000J0D01*
G01*
G37*
G04 #@! TD.AperFunction*
D13*
X223000000Y-56770000D03*
D14*
X224150000Y-45145000D03*
X225850000Y-45145000D03*
X224150000Y-50395000D03*
X225850000Y-50395000D03*
D15*
X225350000Y-38645000D03*
X225350000Y-40855000D03*
X232650000Y-40855000D03*
X232650000Y-38645000D03*
D16*
X231250000Y-41505000D03*
X228250000Y-41505000D03*
X226750000Y-41505000D03*
M02*
